<svg width="48" height="48" viewBox="0 0 48 48" fill="none" xmlns="http://www.w3.org/2000/svg">
<path d="M38.532 27.032C38.9949 26.6737 39.3697 26.2141 39.6275 25.6886C39.8853 25.163 40.0194 24.5854 40.0194 24C40.0194 23.4146 39.8853 22.8369 39.6275 22.3114C39.3697 21.7858 38.9949 21.3263 38.532 20.968C32.5371 16.3292 25.8429 12.6729 18.7 10.136L17.394 9.67197C14.898 8.78597 12.26 10.474 11.922 13.052C10.9778 20.3201 10.9778 27.6798 11.922 34.948C12.262 37.526 14.898 39.214 17.394 38.328L18.7 37.864C25.8429 35.327 32.5371 31.6707 38.532 27.032Z" fill="#EBF4EF"/>
</svg>
