<svg width="150" height="36" viewBox="0 0 150 36" fill="none" xmlns="http://www.w3.org/2000/svg">
<g clip-path="url(#clip0_5473_17452)">
<path d="M-0.00390625 3.5332V28.853H7.44811C15.5776 28.853 20.7996 24.1108 20.7996 16.2072C20.7996 8.27537 15.5776 3.5332 7.44811 3.5332H-0.00390625ZM7.44811 8.89637C11.5975 8.89637 14.3638 11.3521 14.3638 16.2072C14.3638 21.0341 11.5975 23.5181 7.44811 23.5181H6.17788V8.89637H7.44811ZM39.8531 20.9494C39.8813 20.4978 39.8813 20.1026 39.8813 19.7356C39.8813 13.2716 36.6069 9.40446 30.5663 9.40446C24.9773 9.40446 21.223 13.8361 21.223 19.4251C21.223 25.0141 25.062 29.3329 31.3284 29.3329C36.24 29.3329 38.8369 26.2561 39.4014 25.127L35.4214 22.0503C35.0544 22.6148 33.6995 24.0826 31.4413 24.0826C29.1831 24.0826 27.546 22.643 27.4048 20.9494H39.8531ZM30.6792 14.2878C32.5422 14.2878 33.6713 15.5862 33.756 17.1105H27.6024C27.7436 15.7556 28.6751 14.2878 30.6792 14.2878ZM50.6924 24.0262C47.9261 24.0262 46.0349 22.1349 46.0349 19.3404C46.0349 16.8282 47.6156 14.8241 50.4948 14.8241C51.9061 14.8241 53.2328 15.3604 54.2772 16.2354L55.9144 11.1263C54.5877 10.1948 52.7247 9.40446 50.269 9.40446C44.3977 9.40446 39.9942 13.5539 39.9942 19.3969C39.9942 25.2117 44.2565 29.3329 50.2972 29.3329C52.6965 29.3329 54.616 28.5143 55.8862 27.6392L54.2772 22.6713C53.4586 23.3769 52.1037 24.0262 50.6924 24.0262ZM55.9426 22.9535C55.9426 27.1029 59.2735 29.3329 62.9995 29.3329C64.9472 29.3329 66.3303 28.7966 67.29 27.8086L67.6288 28.853H73.0202V17.1105C73.0202 12.7635 71.3548 9.40446 64.806 9.40446C61.6446 9.40446 59.0759 10.4206 57.0717 11.7473L59.3017 15.812C60.7977 15.0781 62.4067 14.5983 64.0721 14.5983C66.048 14.5983 66.9795 15.5015 66.9795 16.6589V17.3645C66.3021 17.054 64.9754 16.6589 63.31 16.6589C58.8218 16.6589 55.9426 19.1711 55.9426 22.9535ZM61.9833 22.7559C61.9833 21.5139 63.0559 20.7236 64.5238 20.7236C65.9633 20.7236 67.0924 21.4575 67.0924 22.7559C67.0924 24.0262 65.9916 24.7036 64.552 24.7036C63.1406 24.7036 61.9833 24.0262 61.9833 22.7559ZM87.9807 27.8933C87.9807 30.2079 85.7507 30.716 83.4925 30.716C80.9238 30.716 78.8068 29.8127 78.2422 29.5587L76.4921 34.188C78.1858 35.063 80.8109 35.7969 83.4925 35.7969C89.138 35.7969 94.0213 33.5952 94.0213 26.5948V9.8561H88.3758V11.3521C87.8395 10.7311 86.033 9.40446 83.2385 9.40446C77.7906 9.40446 73.9517 13.5256 73.9517 19.3404C73.9517 25.2399 77.4236 29.3329 82.928 29.3329C85.8072 29.3329 87.5855 27.8933 87.9807 27.4134V27.8933ZM88.1783 19.3122C88.1783 22.3043 86.4564 24.0262 84.0853 24.0262C81.6295 24.0262 79.9923 22.1067 79.9923 19.3122C79.9923 16.4895 81.6295 14.7112 84.0571 14.7112C86.654 14.7112 88.1783 16.7718 88.1783 19.3122ZM143.955 28.853H149.996V18.3243C149.996 14.4571 149.432 9.40446 143.476 9.40446C141.104 9.40446 139.439 10.7029 138.705 11.832V9.8561H132.806V28.853H138.846V17.5339C138.846 16.0096 139.806 14.8241 141.471 14.8241C142.911 14.8241 143.955 15.7556 143.955 17.5339V28.853Z" fill="white"/>
<path fill-rule="evenodd" clip-rule="evenodd" d="M108.528 8.44482C109.347 8.44482 110.165 8.5295 110.984 8.69886L109.996 11.4087C109.544 11.3522 109.064 11.324 108.585 11.324C107.371 11.324 106.214 11.5216 105.113 11.9168L104.661 9.03759C105.875 8.64241 107.173 8.44482 108.528 8.44482ZM107.004 26.4538C106.58 25.7199 106.242 24.9577 105.988 24.1956L108.839 23.6875C109.008 24.1109 109.206 24.5343 109.46 24.9295C110.052 26.0021 110.815 26.9054 111.69 27.6393L109.46 29.4741C108.5 28.6273 107.681 27.6111 107.004 26.4538ZM130.235 21.6834C130.15 22.3044 130.037 22.8972 129.896 23.4899L128.654 22.9536C128.795 22.4455 128.936 21.9374 129.021 21.4293L130.235 21.6834ZM128.541 26.6231C128.174 27.2724 127.723 27.8651 127.215 28.4297L126.029 27.1595C126.481 26.7361 126.876 26.2562 127.243 25.7481L128.541 26.6231ZM125.041 30.3774C124.731 30.6032 124.42 30.829 124.081 31.0266C123.489 31.3653 122.868 31.6476 122.247 31.8734L121.682 29.7564C122.416 29.5305 123.178 29.22 123.884 28.7966C123.997 28.7402 124.081 28.6837 124.194 28.6273L125.041 30.3774ZM119.988 32.4944C118.69 32.7202 117.363 32.7484 116.065 32.5509L116.883 30.0669C117.928 30.2645 119.029 30.2645 120.13 30.1233L119.988 32.4944ZM114.653 32.2686L115.726 29.8128C114.512 29.4741 113.355 28.9095 112.339 28.1474L110.391 30.2362C111.661 31.196 113.129 31.8734 114.653 32.2686ZM101.02 30.9419C100.54 30.575 100.06 30.1798 99.6365 29.7281L100.709 28.9378C101.076 29.333 101.443 29.6999 101.866 30.0386L101.02 30.9419ZM97.5759 27.0183C97.2372 26.3691 96.9267 25.6634 96.6727 24.9577L98.3663 24.5626C98.5357 25.1553 98.7333 25.7481 98.9873 26.3126L97.5759 27.0183ZM96.0799 22.1068C96.0234 21.7116 96.0234 21.3447 96.0234 20.9495C96.0234 20.2438 96.0799 19.5946 96.1928 18.9171L98.3099 19.4817C98.1123 20.2438 98.0276 21.0624 98.0276 21.881V22.2197L96.0799 22.1068ZM96.7856 16.6589C97.2372 15.4169 97.8864 14.2596 98.6768 13.2434L100.427 15.1629C99.7494 16.0097 99.1849 16.9412 98.7615 17.9856L96.7856 16.6589ZM99.6365 12.1426L101.217 14.3161C102.121 13.441 103.193 12.7071 104.35 12.199L103.532 9.48923C102.064 10.1102 100.737 11.0135 99.6365 12.1426ZM123.347 18.7478C122.924 19.4817 122.444 20.1591 121.908 20.7519L120.045 18.5502C120.327 18.1832 120.581 17.788 120.807 17.3928C121.428 16.3202 121.823 15.2193 122.049 14.0903L124.759 15.1064C124.477 16.3767 124.025 17.5904 123.347 18.7478ZM107.625 1.02106C108.189 0.767018 108.754 0.569427 109.347 0.428291L109.488 1.75497C108.98 1.86788 108.472 2.00901 107.992 2.20661L107.625 1.02106ZM112.734 0.00488281C113.468 0.00488281 114.23 0.0895645 114.964 0.230701L114.456 1.89611C113.863 1.72674 113.242 1.64206 112.621 1.58561L112.734 0.00488281ZM117.73 1.13397C118.097 1.30333 118.436 1.4727 118.775 1.67029C119.367 2.00901 119.932 2.4042 120.44 2.8276L118.888 4.3801C118.323 3.84378 117.674 3.36392 116.94 2.94051C116.855 2.88406 116.742 2.8276 116.658 2.77115L117.73 1.13397ZM122.105 4.46478C122.952 5.48096 123.63 6.63828 124.11 7.82382L121.569 8.38836C121.174 7.37219 120.638 6.41246 119.96 5.53742L122.105 4.46478ZM124.589 9.20695C124.985 10.7312 125.126 12.3402 124.928 13.9209L122.162 13.2717C122.303 12.0014 122.218 10.7312 121.908 9.51745L124.589 9.20695Z" fill="#B8D344"/>
<path fill-rule="evenodd" clip-rule="evenodd" d="M102.575 16.9977C102.998 16.2921 103.478 15.6146 104.015 14.9936L105.878 17.1953C105.595 17.5623 105.341 17.9575 105.087 18.3809C104.494 19.4253 104.071 20.5544 103.873 21.6835L101.164 20.6391C101.446 19.3971 101.898 18.1551 102.575 16.9977ZM118.919 9.31994C119.342 10.0538 119.652 10.7878 119.935 11.5781L117.084 12.0862C116.914 11.6628 116.689 11.2394 116.463 10.816C115.842 9.77158 115.08 8.8683 114.205 8.10617L116.463 6.29963C117.394 7.14644 118.241 8.16262 118.919 9.31994ZM95.6875 14.0621C95.744 13.4693 95.8569 12.8766 96.0262 12.2838L97.2682 12.8201C97.0989 13.3 96.986 13.8081 96.9013 14.3444L95.6875 14.0621ZM97.3811 9.12235C97.7481 8.50135 98.1997 7.88035 98.6796 7.31581L99.8651 8.58603C99.4417 9.03767 99.0183 9.51753 98.6796 9.99739L97.3811 9.12235ZM100.853 5.36813C101.164 5.14231 101.502 4.94472 101.841 4.74713C102.434 4.40841 103.027 4.09791 103.648 3.87209L104.24 5.98913C103.478 6.21495 102.744 6.52545 102.01 6.94885C101.926 7.00531 101.813 7.06176 101.728 7.11822L100.853 5.36813ZM105.934 3.25109C107.232 3.02527 108.559 2.99704 109.858 3.19464L109.039 5.67863C107.966 5.50927 106.866 5.48104 105.793 5.6504L105.934 3.25109ZM111.269 3.47691L110.196 5.93267C111.41 6.2714 112.539 6.83595 113.584 7.59808L115.531 5.50927C114.233 4.57777 112.793 3.87209 111.269 3.47691ZM117.394 27.3007C116.547 27.3007 115.729 27.216 114.939 27.0749L115.926 24.3368C116.378 24.3933 116.858 24.4497 117.31 24.4497C118.552 24.4497 119.709 24.2239 120.81 23.857L121.233 26.7079C120.019 27.1031 118.749 27.3007 117.394 27.3007ZM124.903 4.83181C125.383 5.19877 125.834 5.59395 126.258 6.01736L125.185 6.83595C124.846 6.44076 124.451 6.07381 124.056 5.73508L124.903 4.83181ZM128.318 8.7554C128.685 9.40462 128.996 10.0821 129.25 10.7878L127.556 11.1829C127.387 10.5902 127.161 9.99739 126.907 9.43285L128.318 8.7554ZM129.843 13.6669C129.871 14.0339 129.899 14.4291 129.899 14.8242C129.899 15.5017 129.843 16.1792 129.73 16.8284L127.613 16.2638C127.782 15.5017 127.895 14.7113 127.895 13.8645C127.895 13.7516 127.895 13.6387 127.867 13.5258L129.843 13.6669ZM129.137 19.1148C128.685 20.3568 128.036 21.5141 127.246 22.5303L125.467 20.5826C126.173 19.7358 126.738 18.8043 127.133 17.7881L129.137 19.1148ZM126.258 23.6029L124.677 21.4576C123.774 22.3327 122.729 23.0384 121.544 23.5465L122.391 26.2845C123.858 25.6353 125.157 24.732 126.258 23.6029ZM118.298 34.7527C117.733 34.9785 117.168 35.1761 116.576 35.3454L116.406 33.9905C116.914 33.9058 117.423 33.7365 117.931 33.5671L118.298 34.7527ZM113.188 35.7406C112.426 35.7406 111.692 35.6559 110.958 35.5148L111.467 33.8494C112.059 34.0188 112.68 34.1317 113.273 34.1881L113.188 35.7406ZM108.164 34.6115C107.825 34.4422 107.487 34.2728 107.148 34.0752C106.555 33.7365 105.99 33.3413 105.482 32.9179L107.007 31.3654C107.599 31.9017 108.249 32.4098 108.954 32.805C109.067 32.8614 109.152 32.9179 109.265 32.9743L108.164 34.6115ZM103.817 31.2807C102.942 30.2645 102.293 29.1354 101.785 27.9217L104.353 27.3571C104.72 28.3733 105.257 29.333 105.962 30.2081L103.817 31.2807ZM101.333 26.5385C100.91 25.0143 100.797 23.4335 100.966 21.8246L103.732 22.4738C103.591 23.744 103.704 25.0143 104.015 26.2563L101.333 26.5385Z" fill="#34A853"/>
</g>
<defs>
<clipPath id="clip0_5473_17452">
<rect width="150" height="35.8031" fill="white"/>
</clipPath>
</defs>
</svg>
