<svg width="150" height="150" viewBox="0 0 150 150" fill="none" xmlns="http://www.w3.org/2000/svg">
<path d="M46.1805 65.6914H41.874V67.7179C41.874 69.1744 41.0835 70.2829 39.4365 70.2829H38.6445V74.4934H41.4315V81.2434C41.4315 84.3784 43.4265 86.3089 46.6815 86.3089C48.201 86.3089 48.993 85.9609 49.182 85.8589V81.8704C48.7671 81.9694 48.3426 82.0227 47.916 82.0294C46.866 82.0294 46.1745 81.6814 46.1745 80.3794V74.4934H49.2465V70.2829H46.1805V65.6914Z" fill="white"/>
<path d="M54.8505 76.2656C54.945 75.0941 55.959 73.6061 57.9855 73.6061C60.264 73.6061 61.0875 75.0626 61.1505 76.2656H54.8505ZM61.4985 80.3501C61.0485 81.5846 60.0735 82.4081 58.332 82.4081C56.463 82.4081 54.849 81.1421 54.7545 79.3691H65.7045C65.7726 78.8761 65.8042 78.3788 65.799 77.8811C65.799 72.8141 62.799 69.8066 57.915 69.8066C53.8305 69.8066 50.0625 73.0361 50.0625 78.1016C50.0625 83.3891 53.9265 86.4926 58.2645 86.4926C62.253 86.4926 64.755 84.2126 65.514 81.4901L61.4985 80.3501Z" fill="white"/>
<path d="M66.6797 81.6806C66.6797 84.1811 68.6747 86.4611 72.1262 86.4611C74.2157 86.4611 75.7352 85.5746 76.5587 84.2441C76.5587 85.3211 76.5272 85.8941 76.5587 86.0171H80.8637C80.8322 85.8596 80.8637 84.8171 80.8637 83.5796V75.8861C80.8637 72.6566 78.9962 69.8066 73.8992 69.8066C69.2762 69.8066 67.1867 72.7826 66.9992 75.0311L71.1782 75.8861C71.2742 74.7146 72.1922 73.5746 73.8707 73.5746C75.3902 73.5746 76.1807 74.3666 76.1807 75.2846C76.1807 75.8231 75.8957 76.2341 75.0422 76.3601L71.3372 76.9301C68.7377 77.3111 66.6797 78.8996 66.6797 81.6806ZM73.2977 82.9781C71.9672 82.9781 71.4287 82.1861 71.4287 81.3641C71.4287 80.2556 72.1892 79.7801 73.2017 79.6226L76.1777 79.1471V79.8431C76.1777 82.2821 74.7212 82.9781 73.2977 82.9781Z" fill="white"/>
<path d="M87.6008 86.0173V76.9618C87.6008 75.5383 88.5188 74.2393 90.1973 74.2393C91.9388 74.2393 92.7293 75.4108 92.7293 76.8988V86.0173H97.4858V76.9303C97.4858 75.5383 98.4038 74.2393 100.114 74.2393C101.824 74.2393 102.614 75.4108 102.614 76.8988V86.0173H107.264V75.8173C107.264 71.5423 104.414 69.8008 101.438 69.8008C99.3173 69.8008 97.7978 70.4968 96.5618 72.2698C95.7713 70.7188 94.1618 69.8008 91.9118 69.8008C90.2018 69.8008 88.1753 70.6873 87.3833 72.0808V70.2808H82.8008V86.0158L87.6008 86.0173Z" fill="white"/>
<path d="M109.324 81.9349C109.324 84.3349 111.319 86.4935 114.424 86.4935C117.147 86.4935 118.666 85.0369 119.331 83.9599C119.331 85.0684 119.268 85.6385 119.331 86.018H122.212C122.149 85.6385 122.212 84.8465 122.212 83.5175V75.887C122.212 72.911 120.439 70.3145 115.881 70.3145C112.581 70.3145 109.959 72.341 109.642 75.254L112.492 75.9185C112.683 74.1455 113.854 72.8465 115.942 72.8465C118.254 72.8465 119.235 74.0824 119.235 75.5704C119.235 76.1089 118.981 76.583 118.063 76.7105L113.947 77.3105C111.319 77.6915 109.324 79.2109 109.324 81.9349ZM114.834 84.0005C113.314 84.0005 112.363 82.9234 112.363 81.7834C112.363 80.4214 113.314 79.694 114.58 79.5035L119.23 78.8075V79.5005C119.235 82.8215 117.271 84.0005 114.834 84.0005Z" fill="white"/>
<path d="M126.816 92.0345V83.96C127.639 85.322 129.412 86.4305 131.755 86.4305C136.219 86.4305 138.847 82.916 138.847 78.3875C138.847 73.955 136.41 70.4375 131.85 70.4375C129.381 70.4375 127.576 71.6375 126.75 73.16V70.7885H123.871V92.0345H126.816ZM135.816 78.3845C135.816 81.5195 134.074 83.768 131.316 83.768C128.593 83.768 126.789 81.518 126.789 78.3845C126.789 75.3455 128.589 73.0655 131.316 73.0655C134.101 73.0685 135.808 75.3485 135.808 78.3875L135.816 78.3845Z" fill="white"/>
<path d="M145.209 65.9756H142.485V68.4446C142.485 69.7751 141.789 70.7876 140.142 70.7876H139.32V73.4801H142.233V81.8381C142.233 84.5936 143.883 86.1761 146.475 86.1761C147.162 86.1882 147.846 86.0921 148.502 85.8911V83.3576C148.117 83.4388 147.724 83.4816 147.33 83.4851C145.779 83.4851 145.209 82.7876 145.209 81.3956V73.4801H148.509V70.7876H145.209V65.9756Z" fill="white"/>
<path d="M13.3395 83.9028L14.046 85.0413C12.8377 84.3442 11.408 84.137 10.0515 84.4623L7.32748 85.1058C2.67748 86.2233 -0.499522 80.4648 2.95348 77.1123L10.6515 69.5898C9.80435 71.3275 9.41678 73.2534 9.52576 75.1835C9.63474 77.1136 10.2366 78.9836 11.274 80.6148L13.3395 83.9028Z" fill="#0371AC"/>
<path d="M29.7655 82.4629L29.722 86.7829C29.723 87.9739 29.3349 89.1325 28.6166 90.0825C27.8984 91.0324 26.8893 91.7216 25.7432 92.0452C24.5971 92.3688 23.3766 92.3089 22.2676 91.8748C21.1586 91.4407 20.2219 90.6561 19.6 89.6404L15.226 82.6504L13.06 79.2394C11.7919 77.2303 11.24 74.8516 11.494 72.4894C11.6081 71.4735 11.8757 70.4807 12.2875 69.5449C12.3094 69.9447 12.3743 70.341 12.481 70.7269C12.7467 71.812 13.2957 72.8071 14.0718 73.6106C14.8479 74.4141 15.8233 74.9972 16.8985 75.3004L26.1625 78.0004C27.142 78.2959 28.0097 78.8798 28.6524 79.6758C29.2952 80.4719 29.683 81.4431 29.7655 82.4629Z" fill="#29ABE2"/>
<path d="M29.8286 62.6893V63.7648L29.6996 77.9698C29.6996 77.9642 29.6973 77.9589 29.6934 77.955C29.6895 77.951 29.6841 77.9488 29.6786 77.9488C28.8872 76.9121 27.7825 76.1582 26.5286 75.7993L17.6066 73.2208C16.7919 72.9863 16.0535 72.5409 15.4662 71.9296C14.8788 71.3183 14.4633 70.5627 14.2616 69.7393C14.0796 69.0559 14.0524 68.3405 14.1822 67.6453C14.312 66.95 14.5953 66.2926 15.0116 65.7208C15.18 65.4917 15.3661 65.276 15.5681 65.0758L21.6161 59.1658C22.3008 58.4973 23.1684 58.047 24.1091 57.8718C25.0499 57.6966 26.0215 57.8044 26.9009 58.1817C27.7804 58.5589 28.5281 59.1886 29.0495 59.991C29.5709 60.7934 29.8426 61.7325 29.8301 62.6893H29.8286Z" fill="#FBB416"/>
</svg>
