<?xml version="1.0" encoding="UTF-8"?>
<svg id="Layer_2" data-name="Layer 2" xmlns="http://www.w3.org/2000/svg" viewBox="0 0 895.33 954.23">
  <defs>
    <style>
      .cls-1 {
        fill: none;
      }

      .cls-2 {
        fill: #fff;
      }
    </style>
  </defs>
  <g id="Layer_1-2" data-name="Layer 1">
    <g>
      <path class="cls-2" d="m396.29,300.29l-56.13,13.01c-87.46,33.08-60.27,259.4,71.48,258.23,27.19,0,55.54-14.18,79.76-43.71l4.14,4.14c-28.36,34.26-67.97,56.72-113.43,56.72-166.05,0-186.71-218.62-43.71-280.07l1.76,4.73,56.13-13.05Z"/>
      <path class="cls-2" d="m338.41,308.57c-28.36-75.62,1.76-153.04,104.61-153.04,40.19,0,90.43,7.11,124.1,16.56l-25.39,53.16c-15.35-32.5-51.99-63.83-99.88-63.83-96.32,0-73.28,82.14-45.51,138.86,50.82,105.19,149.49,245.22,211.56,245.22,27.18,0,41.95-22.46,41.95-52.58,0-54.96-46.67-141.21-149.48-167.22h-40.78v-5.9h150.7v5.9h-87.46c93.35,34.26,136.48,118.2,135.89,178.47,0,45.51-24.22,80.35-68.55,80.35-32.5,0-66.17-25.39-94.53-52.58l-4.14-4.14c-51.99-51.4-117.57-141.83-147.73-206.24l-3.55-8.28"/>
      <path class="cls-2" d="m233.51,678.51h-.8l-27.59-20.06h-25.88v128.02l4.31,10.24h-26.09l4.31-10.24v-128.02h-25.88l-27.49,20.06h-.9l6.62-21.57h112.77l6.62,21.57Zm76.85,108.96v-55.08c0-7.62-2.11-13.24-6.32-16.86-4.21-3.61-10.13-5.52-17.76-5.52-4.82,0-9.13.81-12.94,2.21-3.81,1.41-6.82,3.11-9.03,5.12v70.13l3.91,9.23h-23.48l3.91-9.23v-123.5l-3.91-11.14,19.56-3.01v66.52c3.01-4.21,7.32-7.83,12.84-11.04,5.42-3.11,11.94-4.72,19.36-4.72,9.33,0,16.55,2.71,21.67,8.03,5.12,5.42,7.73,12.94,7.73,22.58v56.28l3.91,9.23h-23.38l3.91-9.23Zm116.88-12.14c-2.61,6.82-6.92,12.34-13.04,16.75-6.12,4.42-14.05,6.62-23.78,6.62-8.83,0-16.55-1.91-23.28-5.72-6.72-3.81-11.94-9.43-15.65-16.65-3.81-7.23-5.62-15.85-5.62-25.68s1.71-17.96,5.12-25.59c3.41-7.62,8.43-13.55,14.85-17.96,6.42-4.31,13.95-6.52,22.57-6.52,6.72,0,12.84,1.41,18.26,4.11,5.42,2.81,9.93,6.72,13.44,11.74,3.51,5.12,5.82,11.04,6.92,17.76h-67.52c-.2,2.21-.3,4.62-.3,7.02,0,9.53,1.51,17.76,4.72,24.58,3.11,6.92,7.52,12.24,13.34,15.85,5.82,3.61,12.64,5.42,20.57,5.42,6.22,0,11.84-1.1,16.86-3.31,4.92-2.21,8.93-5.02,12.14-8.63l.4.2Zm-53.78-69.73c-3.71,2.41-6.72,5.92-9.13,10.54-2.41,4.61-3.91,10.23-4.61,16.65h50.87c-2.71-20.47-10.94-30.8-24.68-30.8-4.61,0-8.83,1.2-12.44,3.61Zm98.82,84.08c-9.93-6.02-17.76-14.45-23.38-25.29-5.72-10.84-8.53-23.07-8.53-36.92s2.71-26.49,8.33-37.52c5.62-11.04,13.34-19.57,23.38-25.79,10.03-6.12,21.37-9.23,34.21-9.23s23.38,3.11,33.41,9.13c9.93,6.02,17.76,14.45,23.48,25.28,5.62,10.84,8.53,23.18,8.53,36.92s-2.81,26.49-8.43,37.52c-5.62,11.04-13.34,19.57-23.37,25.68-10.03,6.22-21.47,9.23-34.21,9.23s-23.48-3.01-33.41-9.03Zm59.7.5c6.82-4.72,11.84-12.24,15.25-22.58,3.41-10.33,5.12-23.88,5.12-40.73s-1.71-29.89-5.12-40.33c-3.41-10.33-8.53-17.96-15.35-22.88-6.82-4.82-15.35-7.32-25.78-7.32s-19.16,2.41-25.99,7.13c-6.82,4.82-11.94,12.34-15.35,22.67-3.41,10.43-5.02,23.98-5.02,40.73s1.61,29.9,5.02,40.23c3.41,10.44,8.43,18.06,15.25,22.88,6.82,4.91,15.45,7.32,25.88,7.32s19.26-2.31,26.09-7.12Zm90.1-.2c-10.24-5.82-18.06-14.05-23.58-24.58-5.52-10.53-8.22-22.67-8.22-36.52s2.91-26.58,8.73-37.62c5.82-11.04,13.85-19.57,24.28-25.78,10.43-6.22,22.17-9.33,35.41-9.33,3.51,0,8.53.2,14.95.4,6.42.3,11.53.4,15.45.4h7.62l7.83,21.17h-.8l-12.14-8.43c-4.52-3.11-8.33-5.52-11.34-7.12-3.11-1.6-6.42-2.91-9.83-3.71-3.51-.8-7.62-1.2-12.34-1.2-15.45,0-27.39,5.72-36.02,16.96-8.63,11.23-12.94,28.49-12.94,51.67s4.51,41.03,13.54,52.67c9.03,11.74,22.37,17.56,39.93,17.56,4.21,0,8.43-.2,12.64-.8,4.21-.6,8.13-1.31,11.64-2.31v-51.97l-4.31-10.23h25.48l-4.31,10.23v35.12l2.61,10.33c-5.22,3.41-11.94,6.22-20.27,8.43-8.33,2.31-17.86,3.41-28.59,3.41-13.45,0-25.29-2.91-35.42-8.73Zm101.83-13.44l9.83,8.22c3.71,3.21,6.62,5.52,8.73,6.92,2.01,1.51,4.11,2.61,6.12,3.31,2.01.8,4.31,1.1,6.92,1.1,6.42,0,11.44-1.71,15.05-5.12,3.61-3.41,5.51-8.23,5.51-14.25,0-4.11-.9-7.53-2.71-10.23-1.81-2.71-4.62-5.02-8.63-7.02-2.41-1.11-6.42-2.71-12.14-4.72-6.52-2.21-11.44-4.11-14.75-5.92-4.21-2.21-7.43-5.12-9.43-8.63-2.11-3.41-3.11-7.62-3.11-12.54s1.2-9.53,3.81-13.45c2.51-3.91,6.02-6.92,10.63-9.13,4.52-2.21,9.73-3.31,15.55-3.31,1.2,0,2.21.1,3.21.1,1,.1,1.81.2,2.51.2,2.81.4,6.02.5,9.43.5h9.93l4.91,17.66h-.6l-9.43-7.62c-3.41-2.71-6.02-4.72-8.03-6.02-2.01-1.3-4.01-2.21-5.82-2.81-1.81-.5-3.91-.8-6.32-.8-5.52,0-9.83,1.51-13.04,4.41-3.21,2.91-4.82,6.92-4.82,12.04,0,3.71.8,6.82,2.51,9.23,1.61,2.51,4.31,4.61,8.13,6.42,2.81,1.41,6.83,2.91,11.94,4.52,3.51,1.2,6.42,2.31,8.73,3.21,2.31.9,4.51,1.9,6.52,2.91,4.21,2.31,7.43,5.12,9.53,8.43,2.11,3.41,3.21,7.83,3.21,13.34,0,5.82-1.41,11.04-4.22,15.55-2.81,4.52-6.62,8.03-11.54,10.54-4.91,2.51-10.43,3.71-16.55,3.71-1.61,0-3.31,0-5.12-.1-1.81-.1-3.21-.2-4.11-.2-2.81-.2-5.82-.3-9.03-.3h-8.03l-6.02-20.17h.7Z"/>
    </g>
    <rect class="cls-1" width="895.33" height="954.23"/>
  </g>
</svg>