<svg width="232" height="37" viewBox="0 0 232 37" fill="none" xmlns="http://www.w3.org/2000/svg">
<g clip-path="url(#clip0_5115_16745)">
<path d="M17.5368 1.84378C20.9427 1.89591 23.4451 2.9733 25.652 4.74577C26.3644 5.3366 27.0248 5.92743 27.7372 6.51825C27.7894 6.57038 28.1021 6.51825 28.2064 6.39661C29.4576 5.44086 30.7087 4.38085 32.0294 3.49461C33.9409 2.31296 36.0262 1.72214 38.3026 1.84378C40.8744 1.96542 43.203 2.85166 45.1666 4.45036C47.6168 6.39661 48.8158 9.00319 49.0417 12.0963C49.285 14.6508 48.6768 17.0662 47.721 19.4469C46.2961 22.8876 43.898 25.5463 41.1524 27.9791C38.5806 30.2208 35.835 32.3061 32.9678 34.2002C32.012 34.791 31.0041 35.3818 30.0484 35.9726C28.554 36.9284 27.129 36.7372 25.6346 35.851C22.2286 33.9048 19.066 31.6457 16.0771 29.1086C14.8259 28.0486 13.5053 26.9191 12.3758 25.668C9.63016 22.8181 7.66653 19.4469 7.0062 15.537C6.4675 12.5134 6.83242 9.68091 8.43113 7.00481C9.90819 4.62413 12.0456 3.14707 14.7391 2.31296C15.7469 2.08706 16.8938 1.96542 17.5368 1.84378Z" fill="#4E9060"/>
<path d="M10.5476 1.84378C13.8841 1.89591 16.3516 2.9733 18.5238 4.74577C19.2189 5.3366 19.8792 5.92743 20.5743 6.51825C20.6264 6.57038 20.9218 6.51825 21.0435 6.39661C22.2773 5.44086 23.511 4.38085 24.797 3.49461C26.6737 2.31296 28.7242 1.72214 30.9485 1.84378C33.4682 1.96542 35.762 2.85166 37.6909 4.45036C40.0889 6.39661 41.2706 9.00319 41.4965 12.0963C41.7224 14.6508 41.1489 17.0662 40.2106 19.4469C38.803 22.8876 36.4571 25.5463 33.7636 27.9791C31.2439 30.2208 28.5504 32.3061 25.7353 34.2002C24.797 34.791 23.8065 35.3818 22.8681 35.9726C21.4084 36.9284 20.0009 36.7372 18.5238 35.851C15.1874 33.9048 12.0768 31.6457 9.14009 29.1086C7.9063 28.0486 6.62039 26.9191 5.50824 25.668C2.81477 22.8007 0.868526 19.4295 0.225568 15.5197C-0.295748 12.496 0.051796 9.66353 1.63312 6.98744C3.04068 4.62413 5.14332 3.14707 7.78466 2.31296C8.79254 2.08706 9.90468 1.96542 10.5476 1.84378Z" fill="#E0E0E0"/>
<path d="M61.3958 28.242C60.1446 28.242 59.0151 27.9466 58.042 27.3731C57.0688 26.7997 56.3042 26.0003 55.7482 24.9577C55.1921 23.9325 54.9141 22.7334 54.9141 21.3954V10.6562H57.9203V21.1C57.9203 21.9514 58.0941 22.6987 58.4416 23.3416C58.7892 23.9846 59.2757 24.4885 59.9187 24.8361C60.5443 25.201 61.2568 25.3748 62.0735 25.3748C62.8902 25.3748 63.6027 25.201 64.2283 24.8361C64.8538 24.4711 65.3404 23.9498 65.7053 23.2721C66.0529 22.5944 66.2266 21.7777 66.2266 20.8393V10.6562H69.2329V27.8597H66.3309V24.5059L66.7827 24.8013C66.383 25.8787 65.7053 26.7302 64.7322 27.3384C63.7591 27.9466 62.6469 28.242 61.3958 28.242Z" fill="white"/>
<path d="M72.5 27.8592V10.6557H75.4368V14.0095L74.9502 13.7141C75.3672 12.6367 76.0623 11.7853 77.0007 11.1771C77.9391 10.5689 79.0512 10.2734 80.3371 10.2734C81.5709 10.2734 82.6657 10.5515 83.6388 11.1075C84.6119 11.6636 85.3765 12.4282 85.9326 13.4013C86.4887 14.3745 86.7841 15.4866 86.7841 16.7204V27.8592H83.7778V17.6761C83.7778 16.7204 83.604 15.9037 83.2739 15.2433C82.9263 14.583 82.4571 14.0791 81.8142 13.7141C81.1886 13.3492 80.4761 13.1754 79.6594 13.1754C78.8427 13.1754 78.1302 13.3492 77.5046 13.7141C76.8791 14.0791 76.3751 14.6004 76.0276 15.2607C75.6627 15.9384 75.4889 16.7378 75.4889 17.6761V27.8592H72.5Z" fill="white"/>
<path d="M98.668 28.2415C97.2778 28.2415 96.0267 27.9461 94.8798 27.3379C93.7329 26.7297 92.864 25.8608 92.2384 24.6966L92.6555 24.1926V27.8592H89.7188V3.6875H92.725V14.3571L92.2732 13.6273C92.9162 12.602 93.785 11.7853 94.8972 11.1771C96.0093 10.5689 97.2778 10.2735 98.7028 10.2735C100.319 10.2735 101.779 10.6731 103.064 11.4551C104.35 12.2371 105.376 13.3145 106.105 14.6699C106.853 16.0253 107.218 17.5545 107.218 19.2749C107.218 20.9605 106.853 22.4723 106.105 23.8451C105.358 25.2005 104.35 26.2779 103.064 27.0772C101.779 27.8418 100.319 28.2415 98.668 28.2415ZM98.4595 25.3743C99.5369 25.3743 100.51 25.1136 101.344 24.5749C102.178 24.0362 102.856 23.3064 103.342 22.3854C103.829 21.4644 104.072 20.4218 104.072 19.2749C104.072 18.1106 103.829 17.068 103.342 16.147C102.856 15.226 102.196 14.5135 101.344 13.9748C100.51 13.4361 99.5369 13.1755 98.4595 13.1755C97.3821 13.1755 96.3916 13.4361 95.5401 13.9748C94.6713 14.5135 93.9935 15.226 93.4896 16.147C92.9857 17.068 92.7424 18.1106 92.7424 19.2749C92.7424 20.4218 92.9857 21.4644 93.4896 22.3854C93.9935 23.3064 94.6713 24.0362 95.5401 24.5749C96.3916 25.0962 97.3647 25.3743 98.4595 25.3743Z" fill="white"/>
<path d="M117.997 28.2432C116.363 28.2432 114.869 27.8609 113.531 27.079C112.193 26.297 111.116 25.237 110.316 23.8642C109.517 22.5088 109.117 20.9622 109.117 19.2418C109.117 17.5215 109.517 15.9923 110.299 14.6369C111.081 13.2988 112.158 12.2388 113.496 11.4395C114.834 10.6575 116.346 10.2578 117.997 10.2578C119.683 10.2578 121.194 10.6401 122.532 11.4221C123.87 12.2041 124.93 13.2641 125.712 14.6021C126.494 15.9402 126.877 17.4867 126.877 19.2245C126.877 20.9622 126.477 22.5261 125.66 23.8642C124.844 25.2196 123.784 26.2796 122.446 27.0616C121.125 27.8609 119.63 28.2432 117.997 28.2432ZM117.997 25.376C119.074 25.376 120.065 25.1153 120.916 24.5766C121.785 24.038 122.463 23.3081 122.967 22.3697C123.471 21.4314 123.714 20.3887 123.714 19.2418C123.714 18.0949 123.471 17.0523 122.967 16.1487C122.463 15.2277 121.785 14.5152 120.916 13.9765C120.047 13.4378 119.074 13.1772 117.997 13.1772C116.937 13.1772 115.964 13.4378 115.112 13.9765C114.243 14.5152 113.566 15.2277 113.062 16.1487C112.558 17.0697 112.297 18.0949 112.297 19.2418C112.297 20.3887 112.558 21.4314 113.062 22.3697C113.566 23.3081 114.261 24.038 115.112 24.5766C115.964 25.098 116.937 25.376 117.997 25.376Z" fill="white"/>
<path d="M127.5 27.8597L133.53 19.2406L127.535 10.6562H131.114L136.258 18.1285H134.434L139.508 10.6562H143.122L137.11 19.2406L143.087 27.8597H139.508L134.434 20.3875H136.223L131.149 27.8597H127.5Z" fill="white"/>
<path d="M152.315 28.2415C150.699 28.2415 149.239 27.8418 147.936 27.0599C146.633 26.2779 145.608 25.2005 144.878 23.8277C144.131 22.4723 143.766 20.9431 143.766 19.2575C143.766 17.5372 144.148 15.9906 144.895 14.6525C145.642 13.2971 146.668 12.2371 147.936 11.4377C149.205 10.6558 150.664 10.2561 152.315 10.2561C153.74 10.2561 155.009 10.5515 156.121 11.1597C157.233 11.7679 158.102 12.5846 158.745 13.6099L158.258 14.3397V3.6875H161.264V27.8592H158.362V24.1926L158.745 24.6966C158.154 25.8435 157.285 26.7297 156.138 27.3379C154.991 27.9461 153.723 28.2415 152.315 28.2415ZM152.576 25.3743C153.636 25.3743 154.609 25.1136 155.46 24.5749C156.329 24.0362 157.007 23.3064 157.511 22.3854C158.015 21.4644 158.258 20.4218 158.258 19.2749C158.258 18.1106 158.015 17.068 157.511 16.147C157.007 15.226 156.329 14.5135 155.46 13.9748C154.592 13.4361 153.636 13.1755 152.576 13.1755C151.516 13.1755 150.543 13.4361 149.691 13.9748C148.822 14.5135 148.145 15.226 147.658 16.147C147.172 17.068 146.928 18.1106 146.928 19.2749C146.928 20.4218 147.172 21.4644 147.658 22.3854C148.145 23.3064 148.822 24.0362 149.674 24.5749C150.508 25.0962 151.481 25.3743 152.576 25.3743Z" fill="white"/>
</g>
<path d="M173.996 22.7891V13.8491H177.752C178.288 13.8491 178.748 13.9451 179.132 14.1371C179.524 14.3291 179.824 14.6011 180.032 14.9531C180.248 15.2971 180.356 15.7091 180.356 16.1891C180.356 16.6291 180.24 17.0291 180.008 17.3891C179.784 17.7411 179.452 18.0171 179.012 18.2171L179 17.7731C179.384 17.9171 179.7 18.1091 179.948 18.3491C180.204 18.5811 180.396 18.8531 180.524 19.1651C180.652 19.4691 180.716 19.7931 180.716 20.1371C180.716 20.9611 180.452 21.6091 179.924 22.0811C179.396 22.5531 178.676 22.7891 177.764 22.7891H173.996ZM175.172 21.7091H177.812C178.332 21.7091 178.748 21.5691 179.06 21.2891C179.372 21.0091 179.528 20.6291 179.528 20.1491C179.528 19.6691 179.372 19.2891 179.06 19.0091C178.748 18.7211 178.332 18.5771 177.812 18.5771H175.172V21.7091ZM175.172 17.5211H177.728C178.16 17.5211 178.508 17.3971 178.772 17.1491C179.036 16.8931 179.168 16.5691 179.168 16.1771C179.168 15.7691 179.036 15.4571 178.772 15.2411C178.508 15.0251 178.16 14.9171 177.728 14.9171H175.172V17.5211ZM184.465 22.9331C184.001 22.9331 183.581 22.8251 183.205 22.6091C182.837 22.3931 182.549 22.0931 182.341 21.7091C182.141 21.3171 182.041 20.8691 182.041 20.3651V16.3211H183.157V20.2451C183.157 20.5651 183.221 20.8451 183.349 21.0851C183.485 21.3251 183.669 21.5131 183.901 21.6491C184.141 21.7851 184.413 21.8531 184.717 21.8531C185.021 21.8531 185.289 21.7851 185.521 21.6491C185.761 21.5131 185.945 21.3171 186.073 21.0611C186.209 20.8051 186.277 20.5011 186.277 20.1491V16.3211H187.405V22.7891H186.313V21.5291L186.493 21.6371C186.341 22.0451 186.081 22.3651 185.713 22.5971C185.353 22.8211 184.937 22.9331 184.465 22.9331ZM191.45 22.9331C190.802 22.9331 190.238 22.7731 189.758 22.4531C189.278 22.1331 188.938 21.7011 188.738 21.1571L189.626 20.7251C189.81 21.1091 190.062 21.4131 190.382 21.6371C190.702 21.8611 191.058 21.9731 191.45 21.9731C191.802 21.9731 192.094 21.8891 192.326 21.7211C192.558 21.5531 192.674 21.3331 192.674 21.0611C192.674 20.8691 192.618 20.7171 192.506 20.6051C192.402 20.4851 192.274 20.3931 192.122 20.3291C191.97 20.2571 191.83 20.2051 191.702 20.1731L190.73 19.8971C190.146 19.7291 189.718 19.4891 189.446 19.1771C189.182 18.8651 189.05 18.5011 189.05 18.0851C189.05 17.7011 189.146 17.3691 189.338 17.0891C189.538 16.8011 189.806 16.5771 190.142 16.4171C190.486 16.2571 190.87 16.1771 191.294 16.1771C191.862 16.1771 192.37 16.3211 192.818 16.6091C193.274 16.8971 193.598 17.3011 193.79 17.8211L192.878 18.2411C192.734 17.9051 192.518 17.6411 192.23 17.4491C191.942 17.2491 191.618 17.1491 191.258 17.1491C190.93 17.1491 190.67 17.2331 190.478 17.4011C190.286 17.5611 190.19 17.7651 190.19 18.0131C190.19 18.1971 190.238 18.3491 190.334 18.4691C190.43 18.5811 190.546 18.6691 190.682 18.7331C190.818 18.7891 190.95 18.8371 191.078 18.8771L192.134 19.1891C192.662 19.3411 193.07 19.5771 193.358 19.8971C193.654 20.2171 193.802 20.6011 193.802 21.0491C193.802 21.4091 193.702 21.7331 193.502 22.0211C193.302 22.3091 193.026 22.5331 192.674 22.6931C192.322 22.8531 191.914 22.9331 191.45 22.9331ZM195.262 22.7891V16.3211H196.378V22.7891H195.262ZM195.262 15.2891V13.8491H196.378V15.2891H195.262ZM198.11 22.7891V16.3211H199.202V17.5811L199.022 17.4731C199.182 17.0651 199.438 16.7491 199.79 16.5251C200.15 16.2931 200.57 16.1771 201.05 16.1771C201.514 16.1771 201.926 16.2811 202.286 16.4891C202.654 16.6971 202.942 16.9851 203.15 17.3531C203.366 17.7211 203.474 18.1371 203.474 18.6011V22.7891H202.346V18.9611C202.346 18.6011 202.282 18.2971 202.154 18.0491C202.026 17.8011 201.842 17.6091 201.602 17.4731C201.37 17.3291 201.102 17.2571 200.798 17.2571C200.494 17.2571 200.222 17.3291 199.982 17.4731C199.75 17.6091 199.566 17.8051 199.43 18.0611C199.294 18.3091 199.226 18.6091 199.226 18.9611V22.7891H198.11ZM208.047 22.9331C207.423 22.9331 206.867 22.7851 206.379 22.4891C205.891 22.1931 205.507 21.7891 205.227 21.2771C204.947 20.7571 204.807 20.1771 204.807 19.5371C204.807 18.8891 204.943 18.3131 205.215 17.8091C205.495 17.3051 205.871 16.9091 206.343 16.6211C206.823 16.3251 207.359 16.1771 207.951 16.1771C208.431 16.1771 208.855 16.2651 209.223 16.4411C209.599 16.6091 209.915 16.8411 210.171 17.1371C210.435 17.4251 210.635 17.7571 210.771 18.1331C210.915 18.5011 210.987 18.8851 210.987 19.2851C210.987 19.3731 210.979 19.4731 210.963 19.5851C210.955 19.6891 210.943 19.7891 210.927 19.8851H205.623V18.9251H210.279L209.751 19.3571C209.823 18.9411 209.783 18.5691 209.631 18.2411C209.479 17.9131 209.255 17.6531 208.959 17.4611C208.663 17.2691 208.327 17.1731 207.951 17.1731C207.575 17.1731 207.231 17.2691 206.919 17.4611C206.607 17.6531 206.363 17.9291 206.187 18.2891C206.019 18.6411 205.951 19.0611 205.983 19.5491C205.951 20.0211 206.023 20.4371 206.199 20.7971C206.383 21.1491 206.639 21.4251 206.967 21.6251C207.303 21.8171 207.667 21.9131 208.059 21.9131C208.491 21.9131 208.855 21.8131 209.151 21.6131C209.447 21.4131 209.687 21.1571 209.871 20.8451L210.807 21.3251C210.679 21.6211 210.479 21.8931 210.207 22.1411C209.943 22.3811 209.627 22.5731 209.259 22.7171C208.899 22.8611 208.495 22.9331 208.047 22.9331ZM214.758 22.9331C214.11 22.9331 213.546 22.7731 213.066 22.4531C212.586 22.1331 212.246 21.7011 212.046 21.1571L212.934 20.7251C213.118 21.1091 213.37 21.4131 213.69 21.6371C214.01 21.8611 214.366 21.9731 214.758 21.9731C215.11 21.9731 215.402 21.8891 215.634 21.7211C215.866 21.5531 215.982 21.3331 215.982 21.0611C215.982 20.8691 215.926 20.7171 215.814 20.6051C215.71 20.4851 215.582 20.3931 215.43 20.3291C215.278 20.2571 215.138 20.2051 215.01 20.1731L214.038 19.8971C213.454 19.7291 213.026 19.4891 212.754 19.1771C212.49 18.8651 212.358 18.5011 212.358 18.0851C212.358 17.7011 212.454 17.3691 212.646 17.0891C212.846 16.8011 213.114 16.5771 213.45 16.4171C213.794 16.2571 214.178 16.1771 214.602 16.1771C215.17 16.1771 215.678 16.3211 216.126 16.6091C216.582 16.8971 216.906 17.3011 217.098 17.8211L216.186 18.2411C216.042 17.9051 215.826 17.6411 215.538 17.4491C215.25 17.2491 214.926 17.1491 214.566 17.1491C214.238 17.1491 213.978 17.2331 213.786 17.4011C213.594 17.5611 213.498 17.7651 213.498 18.0131C213.498 18.1971 213.546 18.3491 213.642 18.4691C213.738 18.5811 213.854 18.6691 213.99 18.7331C214.126 18.7891 214.258 18.8371 214.386 18.8771L215.442 19.1891C215.97 19.3411 216.378 19.5771 216.666 19.8971C216.962 20.2171 217.11 20.6011 217.11 21.0491C217.11 21.4091 217.01 21.7331 216.81 22.0211C216.61 22.3091 216.334 22.5331 215.982 22.6931C215.63 22.8531 215.222 22.9331 214.758 22.9331ZM220.887 22.9331C220.239 22.9331 219.675 22.7731 219.195 22.4531C218.715 22.1331 218.375 21.7011 218.175 21.1571L219.063 20.7251C219.247 21.1091 219.499 21.4131 219.819 21.6371C220.139 21.8611 220.495 21.9731 220.887 21.9731C221.239 21.9731 221.531 21.8891 221.763 21.7211C221.995 21.5531 222.111 21.3331 222.111 21.0611C222.111 20.8691 222.055 20.7171 221.943 20.6051C221.839 20.4851 221.711 20.3931 221.559 20.3291C221.407 20.2571 221.267 20.2051 221.139 20.1731L220.167 19.8971C219.583 19.7291 219.155 19.4891 218.883 19.1771C218.619 18.8651 218.487 18.5011 218.487 18.0851C218.487 17.7011 218.583 17.3691 218.775 17.0891C218.975 16.8011 219.243 16.5771 219.579 16.4171C219.923 16.2571 220.307 16.1771 220.731 16.1771C221.299 16.1771 221.807 16.3211 222.255 16.6091C222.711 16.8971 223.035 17.3011 223.227 17.8211L222.315 18.2411C222.171 17.9051 221.955 17.6411 221.667 17.4491C221.379 17.2491 221.055 17.1491 220.695 17.1491C220.367 17.1491 220.107 17.2331 219.915 17.4011C219.723 17.5611 219.627 17.7651 219.627 18.0131C219.627 18.1971 219.675 18.3491 219.771 18.4691C219.867 18.5811 219.983 18.6691 220.119 18.7331C220.255 18.7891 220.387 18.8371 220.515 18.8771L221.571 19.1891C222.099 19.3411 222.507 19.5771 222.795 19.8971C223.091 20.2171 223.239 20.6011 223.239 21.0491C223.239 21.4091 223.139 21.7331 222.939 22.0211C222.739 22.3091 222.463 22.5331 222.111 22.6931C221.759 22.8531 221.351 22.9331 220.887 22.9331Z" fill="white"/>
<rect x="165.5" y="3.28906" width="66" height="30" rx="15" stroke="white"/>
<defs>
<clipPath id="clip0_5115_16745">
<rect width="161" height="36.5791" fill="white"/>
</clipPath>
</defs>
</svg>
