<svg width="150" height="150" viewBox="0 0 150 150" fill="none" xmlns="http://www.w3.org/2000/svg">
<path d="M146.078 78.2998H129.696C129.341 78.2986 128.99 78.3677 128.661 78.5029C128.333 78.6382 128.035 78.837 127.784 79.088C127.533 79.3389 127.334 79.6371 127.199 79.9652C127.064 80.2933 126.995 80.6449 126.996 80.9998V87.5803C126.995 87.9352 127.064 88.2868 127.199 88.615C127.334 88.9431 127.533 89.2412 127.784 89.4922C128.035 89.7431 128.333 89.942 128.661 90.0772C128.99 90.2125 129.341 90.2815 129.696 90.2803H146.078C146.433 90.2815 146.784 90.2125 147.112 90.0772C147.44 89.942 147.738 89.7431 147.989 89.4922C148.24 89.2412 148.439 88.9431 148.575 88.615C148.71 88.2868 148.779 87.9352 148.778 87.5803V80.9998C148.776 80.2843 148.491 79.5987 147.985 79.0928C147.479 78.5869 146.793 78.3018 146.078 78.2998ZM141.956 81.1378H143.631V82.8133H141.956V81.1378ZM144.873 83.6503V85.3258H143.199V83.6533L144.873 83.6503ZM142.388 83.6503V85.3258H140.712V83.6533L142.388 83.6503ZM139.47 81.1378H141.152V82.8133H139.47V81.1378ZM139.902 83.6503V85.3258H138.227V83.6533L139.902 83.6503ZM136.983 81.1378H138.659V82.8133H136.983V81.1378ZM137.415 83.6503V85.3258H135.741V83.6533L137.415 83.6503ZM134.498 81.1378H136.173V82.8133H134.498V81.1378ZM134.93 83.6503V85.3258H133.254V83.6533L134.93 83.6503ZM132.024 81.1378H133.7V82.8133H132.024V81.1378ZM132.452 83.6533V85.3288H130.782V83.6533H132.452ZM129.534 81.1408H131.21V82.8163H129.539L129.534 81.1408ZM131.21 87.8413H129.539V86.1658H131.214L131.21 87.8413ZM143.627 87.8413H132.024V86.1658H143.631L143.627 87.8413ZM146.099 87.8413H144.429V86.1658H146.102L146.099 87.8413ZM146.099 82.8163H144.429V81.1408H146.102L146.099 82.8163Z" fill="white"/>
<path d="M16.5257 76.0654H13.9337L11.0027 66.4084L8.07319 76.0654H5.48119L1.24219 60.1504H4.47469L6.93469 70.1854L9.83869 60.1504H12.1682L15.0722 70.1854L17.5592 60.1504H20.8037L16.5257 76.0654Z" fill="white"/>
<path d="M32.1244 74.4559C31.0129 75.5674 29.6389 76.1959 27.8329 76.1959C26.0269 76.1959 24.6409 75.5674 23.5159 74.4559C21.9064 72.8464 21.9454 70.8559 21.9454 68.1094C21.9454 65.3629 21.9064 63.3739 23.5159 61.7644C24.6274 60.6514 26.0149 60.0244 27.8329 60.0244C29.6509 60.0244 30.9994 60.6514 32.1244 61.7644C33.7339 63.3739 33.7084 65.3644 33.7084 68.1094C33.7084 70.8544 33.7339 72.8464 32.1244 74.4559ZM29.8219 63.6484C29.5712 63.3717 29.2637 63.1524 28.9204 63.0056C28.5771 62.8588 28.2061 62.788 27.8329 62.7979C27.4559 62.788 27.0812 62.8588 26.7337 63.0055C26.3863 63.1521 26.0742 63.3714 25.8184 63.6484C25.2184 64.3159 25.0594 65.0614 25.0594 68.1094C25.0594 71.1574 25.2094 71.9044 25.8184 72.5854C26.0742 72.8625 26.3863 73.0817 26.7337 73.2284C27.0812 73.375 27.4559 73.4458 27.8329 73.4359C28.2061 73.4459 28.5771 73.375 28.9204 73.2282C29.2637 73.0814 29.5712 72.8621 29.8219 72.5854C30.4219 71.9179 30.6079 71.1724 30.6079 68.1094C30.6079 65.0464 30.4234 64.3159 29.8219 63.6484Z" fill="white"/>
<path d="M45.0006 76.0654L41.8986 69.7189H39.6606V76.0654H36.5586V60.1504H42.7881C46.0326 60.1504 47.9421 62.3614 47.9421 65.0179C47.9421 67.2544 46.5816 68.6419 45.0381 69.1909L48.6006 76.0504H45.0006V76.0654ZM42.5796 62.9284H39.6471V67.1284H42.5781C43.9386 67.1284 44.8281 66.2524 44.8281 65.0284C44.8281 63.8044 43.9506 62.9284 42.5781 62.9284H42.5796Z" fill="white"/>
<path d="M60.1511 76.0654L56.0681 68.8294L54.0146 71.2894V76.0654H50.9141V60.1504H54.0146V67.0714L59.6276 60.1504H63.4091L58.1231 66.4834L63.7751 76.0744H60.1511V76.0654Z" fill="white"/>
<path d="M70.4462 76.1995C68.0462 76.1995 66.2072 75.6895 64.6367 74.0995L66.6512 72.0835C67.6592 73.0915 69.0197 73.4185 70.4987 73.4185C72.3302 73.4185 73.3112 72.7255 73.3112 71.4565C73.3112 70.894 73.1612 70.423 72.8147 70.1215C72.5012 69.8335 72.1472 69.6715 71.4017 69.559L69.4787 69.2965C68.1167 69.1015 67.1102 68.6695 66.3902 67.975C65.6312 67.2175 65.2517 66.175 65.2517 64.849C65.2517 62.0095 67.3517 60.0205 70.7867 60.0205C72.9722 60.0205 74.5682 60.5575 75.9287 61.879L73.9667 63.829C72.9587 62.8735 71.7542 62.731 70.7072 62.731C69.0572 62.731 68.2487 63.646 68.2487 64.7455C68.243 64.9577 68.282 65.1687 68.3631 65.3649C68.4443 65.561 68.5658 65.7379 68.7197 65.884C69.1393 66.2346 69.6535 66.4528 70.1972 66.511L72.0692 66.7735C73.5212 66.97 74.4377 67.3735 75.1037 68.0035C75.9542 68.8015 76.3337 69.9655 76.3337 71.3785C76.3487 74.455 73.7822 76.1995 70.4462 76.1995Z" fill="white"/>
<path d="M85.2982 62.9284V76.0654H82.1992V62.9284H78.0352V60.1504H89.4592V62.9239L85.2982 62.9284Z" fill="white"/>
<path d="M99.4932 76.0654L98.5482 73.2529H92.8992L91.9482 76.0654H88.6992L94.4817 60.1504H96.9162L102.726 76.0654H99.4932ZM95.7777 64.8514L93.7617 70.6354H97.7142L95.7777 64.8514Z" fill="white"/>
<path d="M109.255 62.9284V76.0654H106.141V62.9284H101.98V60.1504H113.4V62.9239L109.255 62.9284Z" fill="white"/>
<path d="M115.68 76.0654V60.1504H118.782V76.0654H115.68Z" fill="white"/>
<path d="M131.763 74.4553C130.651 75.5668 129.277 76.1998 127.471 76.1998C125.665 76.1998 124.278 75.5713 123.153 74.4598C121.543 72.8503 121.582 70.8598 121.582 68.1133C121.582 65.3668 121.543 63.3778 123.153 61.7683C124.266 60.6553 125.652 60.0283 127.471 60.0283C129.291 60.0283 130.638 60.6553 131.763 61.7683C133.372 63.3778 133.345 65.3683 133.345 68.1133C133.345 70.8583 133.372 72.8458 131.763 74.4553ZM129.46 63.6478C129.209 63.3713 128.902 63.1521 128.559 63.0053C128.215 62.8585 127.844 62.7876 127.471 62.7973C127.094 62.7876 126.719 62.8584 126.371 63.0051C126.024 63.1518 125.711 63.3709 125.455 63.6478C124.855 64.3153 124.698 65.0608 124.698 68.1088C124.698 71.1568 124.848 71.9038 125.455 72.5848C125.711 72.8618 126.024 73.0809 126.371 73.2275C126.719 73.3742 127.094 73.445 127.471 73.4353C127.844 73.4451 128.215 73.3741 128.559 73.2273C128.902 73.0806 129.209 72.8614 129.46 72.5848C130.06 71.9173 130.245 71.1718 130.245 68.1088C130.245 65.0458 130.062 64.3153 129.46 63.6478Z" fill="white"/>
<path d="M145.592 76.0654L139.292 66.3049V76.0654H136.184V60.1504H138.959L145.259 69.8854V60.1504H148.365V76.0654H145.592Z" fill="white"/>
</svg>
