<svg width="52" height="52" viewBox="0 0 52 52" fill="none" xmlns="http://www.w3.org/2000/svg">
<path d="M38.8945 16.021H10.457V31.3335H38.8945V16.021Z" fill="#006838"/>
<path d="M41.082 18.9375H12.6445V34.25H41.082V18.9375Z" fill="#006838"/>
<path d="M28.6888 32.7917C30.7023 32.7917 32.3346 31.1594 32.3346 29.1458C32.3346 27.1323 30.7023 25.5 28.6888 25.5C26.6753 25.5 25.043 27.1323 25.043 29.1458C25.043 31.1594 26.6753 32.7917 28.6888 32.7917Z" fill="#FFDE17"/>
<path d="M15.5625 35.7085H41.8125V22.5835H15.5625V35.7085ZM40.3542 34.2502H38.8958V32.7918H40.3542V34.2502ZM38.8958 24.0418H40.3542V25.5002H38.8958V24.0418ZM33.0625 24.0418H37.4375C37.6309 24.0418 37.8164 24.1187 37.9531 24.2554C38.0898 24.3921 38.1667 24.5776 38.1667 24.771C38.1667 25.1578 38.3203 25.5287 38.5938 25.8022C38.8673 26.0757 39.2382 26.2293 39.625 26.2293C39.8184 26.2293 40.0039 26.3062 40.1406 26.4429C40.2773 26.5796 40.3542 26.7651 40.3542 26.9585V31.3335C40.3542 31.5269 40.2773 31.7123 40.1406 31.8491C40.0039 31.9858 39.8184 32.0627 39.625 32.0627C39.2382 32.0627 38.8673 32.2163 38.5938 32.4898C38.3203 32.7633 38.1667 33.1342 38.1667 33.521C38.1667 33.7144 38.0898 33.8999 37.9531 34.0366C37.8164 34.1733 37.6309 34.2502 37.4375 34.2502H33.0625V32.7918H36.8009C36.9322 32.2878 37.1955 31.828 37.5638 31.4597C37.932 31.0915 38.3918 30.8282 38.8958 30.6969V27.5951C38.3918 27.4638 37.932 27.2005 37.5638 26.8322C37.1955 26.464 36.9322 26.0041 36.8009 25.5002H33.0625V24.0418ZM28.6875 24.0418C29.697 24.0418 30.6838 24.3412 31.5232 24.902C32.3626 25.4629 33.0168 26.2601 33.4031 27.1927C33.7895 28.1254 33.8905 29.1517 33.6936 30.1418C33.4966 31.1319 33.0105 32.0414 32.2967 32.7552C31.5829 33.469 30.6734 33.9551 29.6833 34.1521C28.6932 34.349 27.6669 34.248 26.7342 33.8616C25.8016 33.4753 25.0044 32.8211 24.4435 31.9817C23.8827 31.1423 23.5833 30.1555 23.5833 29.146C23.5851 27.7928 24.1234 26.4956 25.0802 25.5387C26.0371 24.5819 27.3343 24.0436 28.6875 24.0418ZM17.0208 24.0418H18.4792V25.5002H17.0208V24.0418ZM17.0208 26.9585C17.0208 26.7651 17.0977 26.5796 17.2344 26.4429C17.3711 26.3062 17.5566 26.2293 17.75 26.2293C18.1368 26.2293 18.5077 26.0757 18.7812 25.8022C19.0547 25.5287 19.2083 25.1578 19.2083 24.771C19.2083 24.5776 19.2852 24.3921 19.4219 24.2554C19.5586 24.1187 19.7441 24.0418 19.9375 24.0418H24.3125V25.5002H20.5741C20.4428 26.0041 20.1795 26.464 19.8112 26.8322C19.443 27.2005 18.9832 27.4638 18.4792 27.5951V30.6969C18.9832 30.8282 19.443 31.0915 19.8112 31.4597C20.1795 31.828 20.4428 32.2878 20.5741 32.7918H24.3125V34.2502H19.9375C19.7441 34.2502 19.5586 34.1733 19.4219 34.0366C19.2852 33.8999 19.2083 33.7144 19.2083 33.521C19.2083 33.1342 19.0547 32.7633 18.7812 32.4898C18.5077 32.2163 18.1368 32.0627 17.75 32.0627C17.5566 32.0627 17.3711 31.9858 17.2344 31.8491C17.0977 31.7123 17.0208 31.5269 17.0208 31.3335V26.9585ZM17.0208 32.7918H18.4792V34.2502H17.0208V32.7918Z" fill="#00A14B"/>
<path d="M42.543 21.125H14.8346C14.6412 21.125 14.4558 21.2018 14.319 21.3386C14.1823 21.4753 14.1055 21.6608 14.1055 21.8542V36.4375C14.1055 36.6309 14.1823 36.8164 14.319 36.9531C14.4558 37.0898 14.6412 37.1667 14.8346 37.1667H42.543C42.7364 37.1667 42.9218 37.0898 43.0586 36.9531C43.1953 36.8164 43.2721 36.6309 43.2721 36.4375V21.8542C43.2721 21.6608 43.1953 21.4753 43.0586 21.3386C42.9218 21.2018 42.7364 21.125 42.543 21.125ZM41.8138 35.7083H15.5638V22.5833H41.8138V35.7083Z" fill="white"/>
<path d="M39.6263 20.396H41.0846V18.9377C41.0846 18.7443 41.0078 18.5588 40.8711 18.4221C40.7343 18.2853 40.5489 18.2085 40.3555 18.2085H12.6471C12.4537 18.2085 12.2683 18.2853 12.1315 18.4221C11.9948 18.5588 11.918 18.7443 11.918 18.9377V33.521C11.918 33.7144 11.9948 33.8999 12.1315 34.0366C12.2683 34.1733 12.4537 34.2502 12.6471 34.2502H13.3763V19.6668H39.6263V20.396Z" fill="white"/>
<path d="M37.4388 17.479H38.8971V16.0207C38.8971 15.8273 38.8203 15.6418 38.6836 15.5051C38.5468 15.3683 38.3614 15.2915 38.168 15.2915H10.4596C10.2662 15.2915 10.0808 15.3683 9.94404 15.5051C9.80729 15.6418 9.73047 15.8273 9.73047 16.0207V30.604C9.73047 30.7974 9.80729 30.9829 9.94404 31.1196C10.0808 31.2563 10.2662 31.3332 10.4596 31.3332H11.1888V16.7498H37.4388V17.479ZM28.6888 34.2498C29.6983 34.2498 30.6851 33.9505 31.5245 33.3896C32.3639 32.8288 33.0181 32.0316 33.4044 31.0989C33.7908 30.1663 33.8918 29.14 33.6949 28.1499C33.4979 27.1598 33.0118 26.2503 32.298 25.5365C31.5842 24.8226 30.6747 24.3365 29.6846 24.1396C28.6945 23.9426 27.6682 24.0437 26.7355 24.43C25.8029 24.8164 25.0057 25.4706 24.4448 26.3099C23.884 27.1493 23.5846 28.1362 23.5846 29.1457C23.5864 30.4988 24.1247 31.7961 25.0815 32.7529C26.0384 33.7098 27.3356 34.2481 28.6888 34.2498ZM28.6888 25.4998C29.4099 25.4998 30.1148 25.7137 30.7143 26.1143C31.3139 26.5149 31.7812 27.0843 32.0571 27.7505C32.3331 28.4167 32.4053 29.1497 32.2646 29.8569C32.1239 30.5642 31.7767 31.2138 31.2668 31.7237C30.7569 32.2335 30.1073 32.5808 29.4001 32.7214C28.6928 32.8621 27.9598 32.7899 27.2936 32.514C26.6274 32.238 26.058 31.7707 25.6574 31.1712C25.2568 30.5716 25.043 29.8667 25.043 29.1457C25.0441 28.1791 25.4286 27.2524 26.1121 26.569C26.7956 25.8855 27.7222 25.501 28.6888 25.4998Z" fill="white"/>
<path d="M17.7487 32.0623C18.1355 32.0623 18.5064 32.216 18.7799 32.4895C19.0534 32.763 19.207 33.1339 19.207 33.5207C19.207 33.7141 19.2839 33.8995 19.4206 34.0363C19.5573 34.173 19.7428 34.2498 19.9362 34.2498H24.3112V32.7915H20.5728C20.4415 32.2875 20.1782 31.8277 19.8099 31.4594C19.4417 31.0912 18.9818 30.8278 18.4779 30.6966V27.5947C18.9818 27.4635 19.4417 27.2002 19.8099 26.8319C20.1782 26.4637 20.4415 26.0038 20.5728 25.4998H24.3112V24.0415H19.9362C19.7428 24.0415 19.5573 24.1183 19.4206 24.2551C19.2839 24.3918 19.207 24.5773 19.207 24.7707C19.207 25.1574 19.0534 25.5284 18.7799 25.8019C18.5064 26.0754 18.1355 26.229 17.7487 26.229C17.5553 26.229 17.3698 26.3058 17.2331 26.4426C17.0964 26.5793 17.0195 26.7648 17.0195 26.9582V31.3332C17.0195 31.5266 17.0964 31.712 17.2331 31.8488C17.3698 31.9855 17.5553 32.0623 17.7487 32.0623ZM38.8945 27.5947V30.6966C38.3905 30.8278 37.9307 31.0912 37.5624 31.4594C37.1942 31.8277 36.9309 32.2875 36.7996 32.7915H33.0612V34.2498H37.4362C37.6296 34.2498 37.8151 34.173 37.9518 34.0363C38.0885 33.8995 38.1654 33.7141 38.1654 33.5207C38.1654 33.1339 38.319 32.763 38.5925 32.4895C38.866 32.216 39.2369 32.0623 39.6237 32.0623C39.8171 32.0623 40.0026 31.9855 40.1393 31.8488C40.276 31.712 40.3529 31.5266 40.3529 31.3332V26.9582C40.3529 26.7648 40.276 26.5793 40.1393 26.4426C40.0026 26.3058 39.8171 26.229 39.6237 26.229C39.2369 26.229 38.866 26.0754 38.5925 25.8019C38.319 25.5284 38.1654 25.1574 38.1654 24.7707C38.1654 24.5773 38.0885 24.3918 37.9518 24.2551C37.8151 24.1183 37.6296 24.0415 37.4362 24.0415H33.0612V25.4998H36.7996C36.9309 26.0038 37.1942 26.4637 37.5624 26.8319C37.9307 27.2002 38.3905 27.4635 38.8945 27.5947Z" fill="white"/>
<path d="M40.3529 24.0415H38.8945V25.4998H40.3529V24.0415Z" fill="white"/>
<path d="M40.3529 32.7915H38.8945V34.2498H40.3529V32.7915Z" fill="white"/>
<path d="M18.4779 32.7915H17.0195V34.2498H18.4779V32.7915Z" fill="white"/>
<path d="M18.4779 24.0415H17.0195V25.4998H18.4779V24.0415Z" fill="white"/>
<circle cx="26" cy="26" r="25" stroke="white" stroke-opacity="0.2"/>
</svg>
