<svg width="10" height="14" viewBox="0 0 10 14" fill="none" xmlns="http://www.w3.org/2000/svg">
<path d="M5 0C2.23571 0 0 2.191 0 4.9C0 6.118 0.357143 7.259 1.00714 8.288C1.68571 9.366 2.57857 10.29 3.26429 11.368C3.6 11.893 3.84286 12.383 4.1 12.95C4.28571 13.335 4.43571 14 5 14C5.56429 14 5.71429 13.335 5.89286 12.95C6.15714 12.383 6.39286 11.893 6.72857 11.368C7.41429 10.297 8.30714 9.373 8.98571 8.288C9.64286 7.259 10 6.118 10 4.9C10 2.191 7.76429 0 5 0ZM5 6.825C4.01429 6.825 3.21429 6.041 3.21429 5.075C3.21429 4.109 4.01429 3.325 5 3.325C5.98571 3.325 6.78571 4.109 6.78571 5.075C6.78571 6.041 5.98571 6.825 5 6.825Z" fill="white"/>
</svg>
