<svg width="30" height="30" viewBox="0 0 30 30" fill="none" xmlns="http://www.w3.org/2000/svg">
<g clip-path="url(#clip0_5161_16594)">
<path d="M18.2453 26.7188C18.2014 27.0453 18.1032 27.3622 17.9547 27.6562C17.6912 28.2168 17.2735 28.6909 16.7506 29.0229C16.2276 29.3549 15.621 29.5312 15.0016 29.5312C14.3821 29.5312 13.7755 29.3549 13.2525 29.0229C12.7296 28.6909 12.312 28.2168 12.0484 27.6562C11.8999 27.3622 11.8017 27.0453 11.7578 26.7188H18.2453Z" fill="#FBBF13"/>
<path d="M15 4.21875C16.0355 4.21875 16.875 3.37928 16.875 2.34375C16.875 1.30822 16.0355 0.46875 15 0.46875C13.9645 0.46875 13.125 1.30822 13.125 2.34375C13.125 3.37928 13.9645 4.21875 15 4.21875Z" fill="#FBBF13"/>
<path d="M26.7188 26.7188H3.28125V24.8438C3.28125 24.3465 3.47879 23.8696 3.83042 23.5179C4.18206 23.1663 4.65897 22.9688 5.15625 22.9688H24.8438C25.341 22.9688 25.8179 23.1663 26.1696 23.5179C26.5212 23.8696 26.7188 24.3465 26.7188 24.8438V26.7188ZM24.8438 22.9688H5.15625C5.65308 22.9673 6.12915 22.7693 6.48046 22.418C6.83177 22.0666 7.02979 21.5906 7.03125 21.0938V12.1875C7.03125 10.0741 7.87081 8.04717 9.36524 6.55274C10.8597 5.05831 12.8866 4.21875 15 4.21875C17.1134 4.21875 19.1403 5.05831 20.6348 6.55274C22.1292 8.04717 22.9688 10.0741 22.9688 12.1875V21.0938C22.9702 21.5906 23.1682 22.0666 23.5195 22.418C23.8709 22.7693 24.3469 22.9673 24.8438 22.9688Z" fill="#FDD402"/>
<path d="M24.8438 22.9688H5.15625C5.65308 22.9673 6.12915 22.7693 6.48046 22.418C6.83177 22.0666 7.02979 21.5906 7.03125 21.0938V20.1562H22.9688V21.0938C22.9702 21.5906 23.1682 22.0666 23.5195 22.418C23.8709 22.7693 24.3469 22.9673 24.8438 22.9688Z" fill="#FBBF13"/>
<path d="M24.8436 22.4998C24.4708 22.4994 24.1133 22.3511 23.8497 22.0875C23.5861 21.8238 23.4378 21.4664 23.4374 21.0935V12.1873C23.4348 10.2484 22.7656 8.36938 21.5421 6.86531C20.3185 5.36124 18.615 4.32361 16.7173 3.92642C17.0277 3.59216 17.2338 3.17457 17.3104 2.72487C17.3869 2.27517 17.3306 1.8129 17.1483 1.39475C16.9659 0.976602 16.6655 0.620751 16.2839 0.370832C15.9023 0.120914 15.456 -0.012207 14.9999 -0.012207C14.5437 -0.012207 14.0974 0.120914 13.7158 0.370832C13.3342 0.620751 13.0338 0.976602 12.8515 1.39475C12.6692 1.8129 12.6128 2.27517 12.6894 2.72487C12.7659 3.17457 12.972 3.59216 13.2825 3.92642C11.3847 4.32361 9.68121 5.36124 8.45768 6.86531C7.23414 8.36938 6.56497 10.2484 6.56238 12.1873V21.0935C6.56197 21.4664 6.41368 21.8238 6.15004 22.0875C5.88641 22.3511 5.52896 22.4994 5.15613 22.4998C4.53472 22.5004 3.93896 22.7476 3.49956 23.187C3.06017 23.6264 2.81303 24.2221 2.81238 24.8435V26.7185C2.81234 26.7801 2.82444 26.8411 2.84798 26.898C2.87153 26.9548 2.90605 27.0065 2.94959 27.0501C2.99312 27.0936 3.04481 27.1281 3.1017 27.1517C3.15859 27.1752 3.21956 27.1873 3.28113 27.1873H11.3879C11.5911 27.9912 12.0567 28.7043 12.711 29.2137C13.3652 29.7231 14.1707 29.9998 14.9999 29.9998C15.8291 29.9998 16.6346 29.7231 17.2888 29.2137C17.943 28.7043 18.4086 27.9912 18.6119 27.1873H26.7186C26.7802 27.1873 26.8412 27.1752 26.8981 27.1517C26.9549 27.1281 27.0066 27.0936 27.0502 27.0501C27.0937 27.0065 27.1282 26.9548 27.1518 26.898C27.1753 26.8411 27.1874 26.7801 27.1874 26.7185V24.8435C27.1867 24.2221 26.9396 23.6264 26.5002 23.187C26.0608 22.7476 25.465 22.5004 24.8436 22.4998ZM14.9999 0.937281C15.278 0.937281 15.5499 1.01976 15.7811 1.17428C16.0124 1.3288 16.1926 1.54842 16.2991 1.80538C16.4055 2.06234 16.4334 2.34509 16.3791 2.61788C16.3248 2.89066 16.1909 3.14123 15.9942 3.3379C15.7976 3.53457 15.547 3.6685 15.2742 3.72276C15.0014 3.77702 14.7187 3.74917 14.4617 3.64274C14.2048 3.5363 13.9851 3.35606 13.8306 3.1248C13.6761 2.89354 13.5936 2.62166 13.5936 2.34353C13.594 1.9707 13.7423 1.61325 14.006 1.34961C14.2696 1.08598 14.627 0.937688 14.9999 0.937281ZM7.49988 12.1873C7.49988 10.1982 8.29005 8.2905 9.69657 6.88398C11.1031 5.47746 13.0108 4.68728 14.9999 4.68728C16.989 4.68728 18.8967 5.47746 20.3032 6.88398C21.7097 8.2905 22.4999 10.1982 22.4999 12.1873V19.6873H7.49988V12.1873ZM7.49988 21.0935V20.6248H22.4999V21.0935C22.5016 21.6023 22.6705 22.0964 22.9805 22.4998H7.01928C7.32925 22.0964 7.4981 21.6023 7.49988 21.0935ZM14.9999 29.0623C14.4197 29.0597 13.8545 28.8782 13.3812 28.5427C12.9079 28.2072 12.5496 27.7339 12.355 27.1873H17.6447C17.4502 27.7339 17.0918 28.2071 16.6186 28.5427C16.1453 28.8782 15.58 29.0597 14.9999 29.0623ZM26.2499 26.2498H3.74988V24.8435C3.75028 24.4707 3.89857 24.1132 4.16221 23.8496C4.42584 23.586 4.78329 23.4377 5.15613 23.4373H24.8436C25.2165 23.4377 25.5739 23.586 25.8375 23.8496C26.1012 24.1132 26.2495 24.4707 26.2499 24.8435V26.2498ZM27.7138 10.7462C27.6166 10.6688 27.4925 10.6331 27.369 10.6471C27.2455 10.6611 27.1326 10.7236 27.0551 10.8209C26.9776 10.9181 26.942 11.0422 26.956 11.1657C26.97 11.2892 27.0325 11.4021 27.1297 11.4796C28.1702 12.3214 28.8456 13.5323 29.0151 14.8599C29.1846 16.1875 28.8353 17.5293 28.0398 18.6056C27.9659 18.7052 27.9344 18.83 27.9523 18.9527C27.9703 19.0754 28.036 19.186 28.1353 19.2604C28.2346 19.3347 28.3592 19.3667 28.482 19.3493C28.6048 19.332 28.7157 19.2667 28.7905 19.1677C29.7303 17.8956 30.1429 16.3098 29.9424 14.7409C29.7418 13.172 28.9435 11.741 27.7138 10.7462ZM25.7903 16.9174C25.7532 16.9665 25.7262 17.0225 25.7107 17.0821C25.6953 17.1418 25.6918 17.2038 25.7004 17.2648C25.709 17.3258 25.7295 17.3845 25.7608 17.4375C25.7921 17.4906 25.8335 17.5369 25.8827 17.5739C25.932 17.6109 25.988 17.6379 26.0477 17.6532C26.1073 17.6685 26.1694 17.672 26.2304 17.6633C26.2913 17.6546 26.35 17.634 26.403 17.6026C26.456 17.5712 26.5022 17.5297 26.5392 17.4804C27.047 16.7947 27.2697 15.9391 27.1606 15.0928C27.0515 14.2466 26.6192 13.4753 25.9542 12.9408C25.8568 12.8639 25.7329 12.8288 25.6096 12.8431C25.4864 12.8575 25.3738 12.9202 25.2968 13.0174C25.2197 13.1146 25.1843 13.2385 25.1984 13.3617C25.2124 13.485 25.2749 13.5977 25.3719 13.675C25.8467 14.0569 26.1554 14.6077 26.2334 15.212C26.3114 15.8163 26.1526 16.4274 25.7903 16.9174H25.7903ZM2.87005 11.4796C2.9182 11.4412 2.95833 11.3938 2.98814 11.3399C3.01795 11.2861 3.03686 11.2269 3.04379 11.1657C3.05072 11.1045 3.04554 11.0426 3.02853 10.9834C3.01153 10.9243 2.98304 10.869 2.94469 10.8209C2.90634 10.7727 2.85888 10.7326 2.80502 10.7028C2.75116 10.673 2.69196 10.6541 2.6308 10.6471C2.56963 10.6402 2.5077 10.6454 2.44854 10.6624C2.38937 10.6794 2.33414 10.7079 2.28599 10.7462C1.05632 11.741 0.258002 13.172 0.0574091 14.7409C-0.143184 16.3098 0.269429 17.8956 1.20925 19.1677C1.28402 19.2667 1.39493 19.332 1.51772 19.3493C1.64051 19.3667 1.76518 19.3347 1.86445 19.2604C1.96372 19.186 2.0295 19.0754 2.0474 18.9527C2.06531 18.83 2.03387 18.7052 1.95998 18.6056C1.1645 17.5293 0.815123 16.1875 0.984669 14.8599C1.15422 13.5323 1.82961 12.3214 2.87005 11.4796ZM3.46057 17.4804C3.4975 17.5297 3.54379 17.5712 3.59678 17.6026C3.64977 17.634 3.70843 17.6546 3.7694 17.6633C3.83037 17.672 3.89245 17.6685 3.9521 17.6532C4.01174 17.6379 4.06778 17.6109 4.11701 17.5739C4.16623 17.5369 4.20768 17.4906 4.23897 17.4375C4.27026 17.3845 4.29079 17.3258 4.29938 17.2648C4.30797 17.2038 4.30445 17.1418 4.28902 17.0821C4.27359 17.0225 4.24656 16.9665 4.20948 16.9174C3.84718 16.4274 3.6884 15.8163 3.76639 15.212C3.84437 14.6077 4.15307 14.0569 4.62787 13.675C4.72492 13.5977 4.78734 13.485 4.80143 13.3617C4.81552 13.2385 4.78013 13.1146 4.70303 13.0174C4.62593 12.9202 4.51341 12.8575 4.39016 12.8431C4.26691 12.8288 4.143 12.8639 4.0456 12.9408C3.38056 13.4753 2.94822 14.2465 2.83916 15.0928C2.7301 15.9391 2.95279 16.7947 3.46057 17.4804Z" fill="white"/>
</g>
<defs>
<clipPath id="clip0_5161_16594">
<rect width="30" height="30" fill="white"/>
</clipPath>
</defs>
</svg>
