<svg width="35" height="35" viewBox="0 0 35 35" fill="none" xmlns="http://www.w3.org/2000/svg">
<path d="M22.9688 30.625H20.7812C20.4531 30.625 20.2344 30.4062 20.2344 30.0781C20.2344 29.75 20.4531 29.5312 20.7812 29.5312H22.9688C26.25 29.5312 28.9844 26.7969 28.9844 23.5156V22.4219C28.9844 22.0937 29.2031 21.875 29.5312 21.875C29.8594 21.875 30.0781 22.0937 30.0781 22.4219V23.5156C30.0781 27.4531 26.9062 30.625 22.9688 30.625Z" fill="#004463"/>
<path d="M21.3281 30.0781C21.3281 30.7344 20.8906 31.1719 20.2344 31.1719H19.1406C18.4844 31.1719 18.0469 30.7344 18.0469 30.0781C18.0469 29.4219 18.4844 28.9844 19.1406 28.9844H20.2344C20.8906 28.9844 21.3281 29.4219 21.3281 30.0781Z" fill="#607D95"/>
<path d="M28.4375 17.5C28.1094 17.5 27.8906 17.2812 27.8906 16.9531V13.6719C27.8906 13.3437 28.1094 13.125 28.4375 13.125C28.7656 13.125 28.9844 13.3437 28.9844 13.6719V16.9531C28.9844 17.2812 28.7656 17.5 28.4375 17.5ZM5.46875 17.5C5.14062 17.5 4.92188 17.2812 4.92188 16.9531V13.6719C4.92188 13.3437 5.14062 13.125 5.46875 13.125C5.79688 13.125 6.01562 13.3437 6.01562 13.6719V16.9531C6.01562 17.2812 5.79688 17.5 5.46875 17.5Z" fill="#004463"/>
<path d="M27.3438 16.9531H29.5312C30.1875 16.9531 30.625 17.3906 30.625 18.0469V22.4219C30.625 23.0781 30.1875 23.5156 29.5312 23.5156H27.3438V16.9531Z" fill="#607D95"/>
<path d="M28.3265 14.2188C28.9828 14.2188 29.5296 13.6719 29.4203 13.0156C28.8734 6.67187 23.514 1.64062 16.9515 1.64062C10.389 1.64062 5.02963 6.67187 4.48276 13.0156C4.37338 13.6719 4.92026 14.2188 5.57651 14.2188C6.12338 14.2188 6.56088 13.7812 6.67026 13.2344C7.10776 7.98438 11.5921 3.82812 17.0609 3.82812C22.5296 3.82812 26.9046 7.98438 27.4515 13.2344C27.3421 13.7812 27.7796 14.2188 28.3265 14.2188Z" fill="#01A6FF"/>
<path d="M6.67026 13.0156C7.21713 7 12.0296 2.1875 18.0453 1.64062H16.9515C10.389 1.64062 5.02963 6.67187 4.48276 13.0156C4.37338 13.6719 4.92026 14.2188 5.57651 14.2188C6.12338 14.2188 6.56088 13.7812 6.67026 13.2344C6.56088 13.2344 6.67026 13.125 6.67026 13.0156C6.67026 13.0156 6.56088 13.0156 6.67026 13.0156ZM19.139 3.82812C18.8109 3.82812 18.3734 3.82812 18.0453 3.9375C22.9671 4.48438 26.7953 8.42188 27.3421 13.3438C27.3421 13.8906 27.889 14.3281 28.4359 14.3281C29.0921 14.3281 29.5296 13.7812 29.5296 13.2344C28.8734 7.875 24.4984 3.82812 19.139 3.82812Z" fill="#006EF4"/>
<path d="M20.7812 20.2344H13.125C12.4687 20.2344 12.0312 20.6719 12.0312 21.3281V25.7031C12.0312 26.3594 12.4687 26.7969 13.125 26.7969H14.2188V28.9844L17.5 26.7969H20.7812C21.4375 26.7969 21.875 26.3594 21.875 25.7031V21.3281C21.875 20.6719 21.4375 20.2344 20.7812 20.2344Z" fill="#EEF2FA"/>
<path d="M16.4062 27.5625V26.7969H15.3125C14.6562 26.7969 14.2188 26.3594 14.2188 25.7031V21.3281C14.2188 20.6719 14.6562 20.2344 15.3125 20.2344H13.125C12.4687 20.2344 12.0312 20.6719 12.0312 21.3281V25.7031C12.0312 26.3594 12.4687 26.7969 13.125 26.7969H14.2188V28.9844L16.4062 27.5625Z" fill="#D5E5F2"/>
<path d="M7.65625 24.6094C7 24.6094 6.5625 24.1719 6.5625 23.5156V16.9531C6.5625 16.2969 7 15.8594 7.65625 15.8594C8.3125 15.8594 8.75 16.2969 8.75 16.9531V23.5156C8.75 24.1719 8.3125 24.6094 7.65625 24.6094ZM26.25 15.8594C26.9062 15.8594 27.3438 16.2969 27.3438 16.9531V23.5156C27.3438 24.1719 26.9062 24.6094 26.25 24.6094C25.5938 24.6094 25.1562 24.1719 25.1562 23.5156V16.9531C25.1562 16.2969 25.5938 15.8594 26.25 15.8594Z" fill="#4B6C85"/>
<path d="M7.65625 22.4219C7 22.4219 6.5625 21.9844 6.5625 21.3281V23.5156C6.5625 24.1719 7 24.6094 7.65625 24.6094C8.3125 24.6094 8.75 24.1719 8.75 23.5156V21.3281C8.75 21.9844 8.3125 22.4219 7.65625 22.4219ZM26.25 22.4219C25.5938 22.4219 25.1562 21.9844 25.1562 21.3281V23.5156C25.1562 24.1719 25.5938 24.6094 26.25 24.6094C26.9062 24.6094 27.3438 24.1719 27.3438 23.5156V21.3281C27.3438 21.9844 26.9062 22.4219 26.25 22.4219Z" fill="#40657C"/>
<path d="M6.5625 23.5156H4.375C3.71875 23.5156 3.28125 23.0781 3.28125 22.4219V18.0469C3.28125 17.3906 3.71875 16.9531 4.375 16.9531H6.5625V23.5156Z" fill="#607D95"/>
<path d="M4.92188 16.9531V20.7812C4.92188 21.4375 4.48438 21.875 3.82812 21.875H3.28125V22.4219C3.28125 23.0781 3.71875 23.5156 4.375 23.5156H6.5625V16.9531H4.92188ZM28.9844 16.9531V20.7812C28.9844 21.4375 29.4219 21.875 30.0781 21.875H30.625V22.4219C30.625 23.0781 30.1875 23.5156 29.5312 23.5156H27.3438V16.9531H28.9844Z" fill="#4B6C85"/>
<path d="M19.7969 22.9688H14.1094C13.7812 22.9688 13.5625 22.75 13.5625 22.4219C13.5625 22.0937 13.7812 21.875 14.1094 21.875H19.7969C20.125 21.875 20.3438 22.0937 20.3438 22.4219C20.3438 22.75 20.125 22.9688 19.7969 22.9688ZM17.6094 25.1562H14.1094C13.7812 25.1562 13.5625 24.9375 13.5625 24.6094C13.5625 24.2812 13.7812 24.0625 14.1094 24.0625H17.6094C17.9375 24.0625 18.1563 24.2812 18.1563 24.6094C18.1563 24.9375 17.9375 25.1562 17.6094 25.1562Z" fill="#99B5CE"/>
</svg>
