<svg width="31" height="30" viewBox="0 0 31 30" fill="none" xmlns="http://www.w3.org/2000/svg">
<path d="M12.7109 7.5C12.7109 7.99728 12.5134 8.47419 12.1618 8.82583C11.8101 9.17746 11.3332 9.375 10.8359 9.375C10.3387 9.375 9.86174 9.17746 9.51011 8.82583C9.15848 8.47419 8.96094 7.99728 8.96094 7.5V6.875C8.96094 4.125 11.2109 1.875 13.9609 1.875H16.4609C19.2109 1.875 21.4609 4.125 21.4609 6.875V26.875C21.4609 27.2065 21.3292 27.5245 21.0948 27.7589C20.8604 27.9933 20.5425 28.125 20.2109 28.125H10.2109C9.87942 28.125 9.56147 27.9933 9.32705 27.7589C9.09263 27.5245 8.96094 27.2065 8.96094 26.875V13.75C8.96094 13.2527 9.15848 12.7758 9.51011 12.4242C9.86174 12.0725 10.3387 11.875 10.8359 11.875C11.3332 11.875 11.8101 12.0725 12.1618 12.4242C12.5134 12.7758 12.7109 13.2527 12.7109 13.75C12.7109 14.7812 13.5547 15.625 14.5859 15.625C15.6172 15.625 16.4609 14.7812 16.4609 13.75V7.5C16.4609 6.46875 15.6172 5.625 14.5859 5.625C13.5547 5.625 12.7109 6.46875 12.7109 7.5Z" fill="#F7F7FB"/>
<path d="M15.2109 25.625C17.282 25.625 18.9609 23.9461 18.9609 21.875C18.9609 19.8039 17.282 18.125 15.2109 18.125C13.1399 18.125 11.4609 19.8039 11.4609 21.875C11.4609 23.9461 13.1399 25.625 15.2109 25.625Z" fill="#F47A65"/>
<path d="M16.4609 1.25H13.9609C10.8597 1.25 8.33594 3.77313 8.33594 6.875V7.5C8.33594 8.87875 9.45719 10 10.8359 10C12.2147 10 13.3359 8.87875 13.3359 7.5C13.3359 6.81063 13.8966 6.25 14.5859 6.25C15.2753 6.25 15.8359 6.81063 15.8359 7.5V13.75C15.8359 14.4394 15.2753 15 14.5859 15C13.8966 15 13.3359 14.4394 13.3359 13.75C13.3359 12.3713 12.2147 11.25 10.8359 11.25C9.45719 11.25 8.33594 12.3713 8.33594 13.75V26.875C8.33594 27.9088 9.17719 28.75 10.2109 28.75H20.2109C21.2447 28.75 22.0859 27.9088 22.0859 26.875V6.875C22.0859 3.77313 19.5628 1.25 16.4609 1.25ZM20.8359 26.875C20.8359 27.0408 20.7701 27.1997 20.6529 27.3169C20.5357 27.4342 20.3767 27.5 20.2109 27.5H10.2109C9.86656 27.5 9.58594 27.22 9.58594 26.875V13.75C9.58594 13.0606 10.1466 12.5 10.8359 12.5C11.5253 12.5 12.0859 13.0606 12.0859 13.75C12.0859 15.1287 13.2072 16.25 14.5859 16.25C15.9647 16.25 17.0859 15.1287 17.0859 13.75V7.5C17.0859 6.12125 15.9647 5 14.5859 5C13.2072 5 12.0859 6.12125 12.0859 7.5C12.0859 8.18937 11.5253 8.75 10.8359 8.75C10.1466 8.75 9.58594 8.18937 9.58594 7.5V6.875C9.58594 4.46312 11.5484 2.5 13.9609 2.5H16.4609C18.8728 2.5 20.8359 4.46312 20.8359 6.875V26.875Z" fill="#444A54"/>
<path d="M18.3041 18.7819C18.3009 18.7788 18.2972 18.7781 18.2947 18.7756C17.4765 17.9585 16.3673 17.4997 15.2109 17.5C12.7984 17.5 10.8359 19.4631 10.8359 21.875C10.8355 23.031 11.2938 24.1398 12.1103 24.9581C12.1134 24.9612 12.1141 24.9656 12.1172 24.9681C12.1203 24.9713 12.1241 24.9719 12.1272 24.975C12.9454 25.792 14.0546 26.2506 15.2109 26.25C17.6228 26.25 19.5859 24.2869 19.5859 21.875C19.5862 20.7186 19.1274 19.6095 18.3103 18.7913C18.3078 18.7881 18.3072 18.7844 18.3041 18.7819ZM15.2109 18.75C15.8466 18.75 16.4372 18.9431 16.9316 19.2706L12.6066 23.5956C12.2672 23.0859 12.0861 22.4873 12.0859 21.875C12.0859 20.1519 13.4878 18.75 15.2109 18.75ZM15.2109 25C14.5986 25 13.9999 24.8188 13.4903 24.4794L17.8153 20.1544C18.1428 20.6488 18.3359 21.2394 18.3359 21.875C18.3359 23.5981 16.9341 25 15.2109 25Z" fill="#444A54"/>
</svg>
