<svg width="337" height="75" viewBox="0 0 337 75" fill="none" xmlns="http://www.w3.org/2000/svg">
<g opacity="0.5">
<path opacity="0.6083" d="M22.6329 16.4037C24.3127 13.4644 23.0529 9.68535 19.6933 7.58586C16.7536 5.90627 13.394 7.58586 13.394 7.58586C13.394 7.58586 12.9741 3.80678 10.4544 2.12719C7.09483 0.0276984 3.31525 0.867494 1.2155 3.80678C-0.464291 6.32616 -0.0443298 10.1052 0.375619 12.6246C1.21552 16.4037 2.89535 20.6027 4.15519 22.7022C6.67489 22.7022 11.2943 22.2823 14.6539 21.0226C18.0135 20.6027 21.3731 19.343 22.6329 16.4037Z" fill="url(#paint0_linear_3416_17224)"/>
<path opacity="0.6332" d="M336.337 8.00998C335.917 3.39111 332.137 -0.387972 326.678 0.0319254C322.478 0.451823 319.539 4.6508 319.539 4.6508C319.539 4.6508 316.599 0.451823 312.4 0.0319254C306.94 -0.387972 303.161 3.81101 303.161 8.00998C302.741 12.209 306.1 16.4079 308.62 18.9273C311.98 22.7064 317.019 26.0656 319.959 28.1651C322.898 26.4855 327.938 22.7064 331.297 18.9273C333.397 16.4079 336.757 12.6289 336.337 8.00998Z" fill="url(#paint1_linear_3416_17224)"/>
<path opacity="0.9954" d="M198.595 32.3606C198.595 22.2831 191.036 13.0453 178.858 13.0453C169.199 12.6254 162.06 21.8632 162.06 21.8632C162.06 21.8632 156.181 11.7856 146.522 10.9458C134.343 9.26623 125.524 17.6642 124.265 27.3218C123.005 36.9795 129.304 46.2172 134.343 52.5157C141.482 61.3335 151.981 70.1514 158.28 74.7703C165 71.4111 177.178 63.8529 185.157 56.2948C191.036 50.4162 198.595 42.0182 198.595 32.3606Z" fill="url(#paint2_linear_3416_17224)"/>
</g>
<defs>
<linearGradient id="paint0_linear_3416_17224" x1="4.16228" y1="22.5998" x2="15.4329" y2="4.94363" gradientUnits="userSpaceOnUse">
<stop stop-color="#FF0029"/>
<stop offset="1" stop-color="#FF6691"/>
</linearGradient>
<linearGradient id="paint1_linear_3416_17224" x1="318.912" y1="28.2527" x2="319.87" y2="-0.149302" gradientUnits="userSpaceOnUse">
<stop stop-color="#FF0029"/>
<stop offset="1" stop-color="#FF6691"/>
</linearGradient>
<linearGradient id="paint2_linear_3416_17224" x1="156.551" y1="74.1236" x2="163.442" y2="11.0015" gradientUnits="userSpaceOnUse">
<stop stop-color="#FF0029"/>
<stop offset="1" stop-color="#FF6691"/>
</linearGradient>
</defs>
</svg>
