<svg width="26" height="22" viewBox="0 0 26 22" fill="none" xmlns="http://www.w3.org/2000/svg">
<path d="M8.60086 21.4167C18.1014 21.4167 23.2968 13.5521 23.2968 6.73222C23.2968 6.50884 23.2923 6.28646 23.2822 6.0651C24.2908 5.3366 25.1673 4.42748 25.8587 3.39258C24.9332 3.80362 23.9373 4.08032 22.8925 4.2051C23.9589 3.56615 24.7776 2.55541 25.1638 1.35049C24.1659 1.94165 23.0607 2.3713 21.884 2.60327C20.9415 1.6001 19.5996 0.972656 18.1138 0.972656C15.2615 0.972656 12.9484 3.28398 12.9484 6.13301C12.9484 6.53801 12.9937 6.93195 13.0824 7.30981C8.78957 7.09398 4.98303 5.04028 2.43548 1.91749C1.9919 2.6802 1.73612 3.56617 1.73612 4.51152C1.73612 6.30209 2.64799 7.88281 4.03463 8.80756C3.18722 8.7814 2.39117 8.54896 1.6954 8.16207C1.69464 8.18372 1.69464 8.20483 1.69464 8.22798C1.69464 10.7275 3.47504 12.8143 5.83842 13.2872C5.4044 13.4054 4.94776 13.4688 4.47645 13.4688C4.14414 13.4688 3.82038 13.4361 3.5057 13.3757C4.16327 15.4264 6.07006 16.9187 8.33072 16.9604C6.56291 18.3449 4.33596 19.1695 1.91564 19.1695C1.49924 19.1695 1.08788 19.1459 0.683594 19.0981C2.96951 20.5622 5.68383 21.4164 8.60114 21.4164" fill="#1DA1F2"/>
</svg>
