<svg width="161" height="38" viewBox="0 0 161 38" fill="none" xmlns="http://www.w3.org/2000/svg">
<mask id="mask0_274_2654" style="mask-type:luminance" maskUnits="userSpaceOnUse" x="0" y="0" width="161" height="38">
<path d="M161 0.5H0V37.0791H161V0.5Z" fill="white"/>
</mask>
<g mask="url(#mask0_274_2654)">
<path d="M17.5368 2.34378C20.9427 2.39591 23.4451 3.4733 25.652 5.24577C26.3644 5.8366 27.0248 6.42743 27.7372 7.01825C27.7894 7.07038 28.1021 7.01825 28.2064 6.89661C29.4576 5.94086 30.7087 4.88085 32.0294 3.99461C33.9409 2.81296 36.0262 2.22214 38.3026 2.34378C40.8744 2.46542 43.203 3.35166 45.1666 4.95036C47.6168 6.89661 48.8158 9.50319 49.0417 12.5963C49.285 15.1508 48.6768 17.5662 47.721 19.9469C46.2961 23.3876 43.898 26.0463 41.1524 28.4791C38.5806 30.7208 35.835 32.8061 32.9678 34.7002C32.012 35.291 31.0041 35.8818 30.0484 36.4726C28.554 37.4284 27.129 37.2372 25.6346 36.351C22.2286 34.4048 19.066 32.1457 16.0771 29.6086C14.8259 28.5486 13.5053 27.4191 12.3758 26.168C9.63016 23.3181 7.66653 19.9469 7.0062 16.037C6.4675 13.0134 6.83242 10.1809 8.43113 7.50481C9.90819 5.12413 12.0456 3.64707 14.7391 2.81296C15.7469 2.58706 16.8938 2.46542 17.5368 2.34378Z" fill="#4E9060"/>
<path d="M10.5476 2.34378C13.8841 2.39591 16.3516 3.4733 18.5238 5.24577C19.2189 5.8366 19.8792 6.42743 20.5743 7.01825C20.6264 7.07038 20.9218 7.01825 21.0435 6.89661C22.2773 5.94086 23.511 4.88085 24.797 3.99461C26.6737 2.81296 28.7242 2.22214 30.9485 2.34378C33.4682 2.46542 35.762 3.35166 37.6909 4.95036C40.0889 6.89661 41.2706 9.50319 41.4965 12.5963C41.7224 15.1508 41.1489 17.5662 40.2106 19.9469C38.803 23.3876 36.4571 26.0463 33.7636 28.4791C31.2439 30.7208 28.5504 32.8061 25.7353 34.7002C24.797 35.291 23.8065 35.8818 22.8681 36.4726C21.4084 37.4284 20.0009 37.2372 18.5238 36.351C15.1874 34.4048 12.0768 32.1457 9.14009 29.6086C7.9063 28.5486 6.62039 27.4191 5.50824 26.168C2.81477 23.3007 0.868526 19.9295 0.225568 16.0197C-0.295748 12.996 0.051796 10.1635 1.63312 7.48744C3.04068 5.12413 5.14332 3.64707 7.78466 2.81296C8.79254 2.58706 9.90468 2.46542 10.5476 2.34378Z" fill="#E0E0E0"/>
<path d="M61.3958 28.7421C60.1446 28.7421 59.0151 28.4466 58.042 27.8731C57.0688 27.2997 56.3042 26.5003 55.7482 25.4578C55.1921 24.4326 54.9141 23.2334 54.9141 21.8954V11.1562H57.9203V21.6C57.9203 22.4515 58.0941 23.1987 58.4416 23.8417C58.7892 24.4846 59.2757 24.9885 59.9187 25.3361C60.5443 25.701 61.2568 25.8748 62.0735 25.8748C62.8902 25.8748 63.6027 25.701 64.2283 25.3361C64.8538 24.9711 65.3404 24.4499 65.7053 23.7722C66.0529 23.0944 66.2266 22.2778 66.2266 21.3393V11.1562H69.2329V28.3597H66.3309V25.0059L66.7827 25.3013C66.383 26.3787 65.7053 27.2302 64.7322 27.8384C63.7591 28.4466 62.6469 28.7421 61.3958 28.7421Z" fill="white"/>
<path d="M72.5 28.3592V11.1557H75.4368V14.5095L74.9502 14.2141C75.3672 13.1367 76.0623 12.2853 77.0007 11.6771C77.9391 11.0689 79.0512 10.7734 80.3371 10.7734C81.5709 10.7734 82.6657 11.0515 83.6388 11.6075C84.6119 12.1636 85.3765 12.9282 85.9326 13.9013C86.4887 14.8745 86.7841 15.9866 86.7841 17.2204V28.3592H83.7778V18.1761C83.7778 17.2204 83.604 16.4037 83.2739 15.7433C82.9263 15.083 82.4571 14.5791 81.8142 14.2141C81.1886 13.8492 80.4761 13.6754 79.6594 13.6754C78.8427 13.6754 78.1302 13.8492 77.5046 14.2141C76.8791 14.5791 76.3751 15.1004 76.0276 15.7607C75.6627 16.4384 75.4889 17.2378 75.4889 18.1761V28.3592H72.5Z" fill="white"/>
<path d="M98.668 28.7415C97.2778 28.7415 96.0267 28.4461 94.8798 27.8379C93.7329 27.2297 92.864 26.3608 92.2384 25.1966L92.6555 24.6926V28.3592H89.7188V4.1875H92.725V14.8571L92.2732 14.1273C92.9162 13.102 93.785 12.2853 94.8972 11.6771C96.0093 11.0689 97.2778 10.7735 98.7028 10.7735C100.319 10.7735 101.779 11.1731 103.064 11.9551C104.35 12.7371 105.376 13.8145 106.105 15.1699C106.853 16.5253 107.218 18.0545 107.218 19.7749C107.218 21.4605 106.853 22.9723 106.105 24.3451C105.358 25.7005 104.35 26.7779 103.064 27.5772C101.779 28.3418 100.319 28.7415 98.668 28.7415ZM98.4595 25.8743C99.5369 25.8743 100.51 25.6136 101.344 25.0749C102.178 24.5362 102.856 23.8064 103.342 22.8854C103.829 21.9644 104.072 20.9218 104.072 19.7749C104.072 18.6106 103.829 17.568 103.342 16.647C102.856 15.726 102.196 15.0135 101.344 14.4748C100.51 13.9361 99.5369 13.6755 98.4595 13.6755C97.3821 13.6755 96.3916 13.9361 95.5401 14.4748C94.6713 15.0135 93.9935 15.726 93.4896 16.647C92.9857 17.568 92.7424 18.6106 92.7424 19.7749C92.7424 20.9218 92.9857 21.9644 93.4896 22.8854C93.9935 23.8064 94.6713 24.5362 95.5401 25.0749C96.3916 25.5962 97.3647 25.8743 98.4595 25.8743Z" fill="white"/>
<path d="M117.997 28.7432C116.363 28.7432 114.869 28.3609 113.531 27.579C112.193 26.797 111.116 25.737 110.316 24.3642C109.517 23.0088 109.117 21.4622 109.117 19.7418C109.117 18.0215 109.517 16.4923 110.299 15.1369C111.081 13.7988 112.158 12.7388 113.496 11.9395C114.834 11.1575 116.346 10.7578 117.997 10.7578C119.683 10.7578 121.194 11.1401 122.532 11.9221C123.87 12.7041 124.93 13.7641 125.712 15.1021C126.494 16.4402 126.877 17.9867 126.877 19.7245C126.877 21.4622 126.477 23.0261 125.66 24.3642C124.844 25.7196 123.784 26.7796 122.446 27.5616C121.125 28.3609 119.63 28.7432 117.997 28.7432ZM117.997 25.876C119.074 25.876 120.065 25.6153 120.916 25.0766C121.785 24.538 122.463 23.8081 122.967 22.8697C123.471 21.9314 123.714 20.8887 123.714 19.7418C123.714 18.5949 123.471 17.5523 122.967 16.6487C122.463 15.7277 121.785 15.0152 120.916 14.4765C120.047 13.9378 119.074 13.6772 117.997 13.6772C116.937 13.6772 115.964 13.9378 115.112 14.4765C114.243 15.0152 113.566 15.7277 113.062 16.6487C112.558 17.5697 112.297 18.5949 112.297 19.7418C112.297 20.8887 112.558 21.9314 113.062 22.8697C113.566 23.8081 114.261 24.538 115.112 25.0766C115.964 25.598 116.937 25.876 117.997 25.876Z" fill="white"/>
<path d="M127.5 28.3597L133.53 19.7407L127.535 11.1562H131.114L136.258 18.6285H134.434L139.508 11.1562H143.122L137.11 19.7407L143.087 28.3597H139.508L134.434 20.8876H136.223L131.149 28.3597H127.5Z" fill="white"/>
<path d="M152.315 28.7415C150.699 28.7415 149.239 28.3418 147.936 27.5599C146.633 26.7779 145.608 25.7005 144.878 24.3277C144.131 22.9723 143.766 21.4431 143.766 19.7575C143.766 18.0372 144.148 16.4906 144.895 15.1525C145.642 13.7971 146.668 12.7371 147.936 11.9377C149.205 11.1558 150.664 10.7561 152.315 10.7561C153.74 10.7561 155.009 11.0515 156.121 11.6597C157.233 12.2679 158.102 13.0846 158.745 14.1099L158.258 14.8397V4.1875H161.264V28.3592H158.362V24.6926L158.745 25.1966C158.154 26.3435 157.285 27.2297 156.138 27.8379C154.991 28.4461 153.723 28.7415 152.315 28.7415ZM152.576 25.8743C153.636 25.8743 154.609 25.6136 155.46 25.0749C156.329 24.5362 157.007 23.8064 157.511 22.8854C158.015 21.9644 158.258 20.9218 158.258 19.7749C158.258 18.6106 158.015 17.568 157.511 16.647C157.007 15.726 156.329 15.0135 155.46 14.4748C154.592 13.9361 153.636 13.6755 152.576 13.6755C151.516 13.6755 150.543 13.9361 149.691 14.4748C148.822 15.0135 148.145 15.726 147.658 16.647C147.172 17.568 146.928 18.6106 146.928 19.7749C146.928 20.9218 147.172 21.9644 147.658 22.8854C148.145 23.8064 148.822 24.5362 149.674 25.0749C150.508 25.5962 151.481 25.8743 152.576 25.8743Z" fill="white"/>
</g>
</svg>
