<svg width="209" height="37" viewBox="0 0 209 37" fill="none" xmlns="http://www.w3.org/2000/svg">
<g clip-path="url(#clip0_2537_11240)">
<path d="M17.5368 2.05471C20.9427 2.10685 23.4451 3.18423 25.652 4.95671C26.3644 5.54754 27.0248 6.13836 27.7372 6.72919C27.7894 6.78132 28.1021 6.72919 28.2064 6.60755C29.4576 5.6518 30.7087 4.59179 32.0294 3.70555C33.9409 2.5239 36.0262 1.93307 38.3026 2.05471C40.8744 2.17636 43.203 3.06259 45.1666 4.6613C47.6168 6.60755 48.8158 9.21413 49.0417 12.3073C49.285 14.8617 48.6768 17.2772 47.721 19.6578C46.2961 23.0985 43.898 25.7572 41.1524 28.1901C38.5806 30.4317 35.835 32.517 32.9678 34.4111C32.012 35.0019 31.0041 35.5928 30.0484 36.1836C28.554 37.1393 27.129 36.9482 25.6346 36.0619C22.2286 34.1157 19.066 31.8567 16.0771 29.3196C14.8259 28.2596 13.5053 27.1301 12.3758 25.8789C9.63016 23.029 7.66653 19.6578 7.0062 15.748C6.4675 12.7243 6.83242 9.89184 8.43113 7.21575C9.90819 4.83507 12.0456 3.35801 14.7391 2.5239C15.7469 2.298 16.8938 2.17636 17.5368 2.05471Z" fill="#4E9060"/>
<path d="M10.5476 2.05471C13.8841 2.10685 16.3516 3.18423 18.5238 4.95671C19.2189 5.54754 19.8792 6.13836 20.5743 6.72919C20.6264 6.78132 20.9218 6.72919 21.0435 6.60755C22.2773 5.6518 23.511 4.59179 24.797 3.70555C26.6737 2.5239 28.7242 1.93307 30.9485 2.05471C33.4682 2.17636 35.762 3.06259 37.6909 4.6613C40.0889 6.60755 41.2706 9.21413 41.4965 12.3073C41.7224 14.8617 41.1489 17.2772 40.2106 19.6578C38.803 23.0985 36.4571 25.7572 33.7636 28.1901C31.2439 30.4317 28.5504 32.517 25.7353 34.4111C24.797 35.0019 23.8065 35.5928 22.8681 36.1836C21.4084 37.1393 20.0009 36.9482 18.5238 36.0619C15.1874 34.1157 12.0768 31.8567 9.14009 29.3196C7.9063 28.2596 6.62039 27.1301 5.50824 25.8789C2.81477 23.0116 0.868526 19.6405 0.225568 15.7306C-0.295748 12.707 0.051796 9.87447 1.63312 7.19837C3.04068 4.83507 5.14332 3.35801 7.78466 2.5239C8.79254 2.298 9.90468 2.17636 10.5476 2.05471Z" fill="#E0E0E0"/>
<path d="M61.3958 28.4529C60.1446 28.4529 59.0151 28.1575 58.042 27.5841C57.0688 27.0106 56.3042 26.2113 55.7482 25.1686C55.1921 24.1434 54.9141 22.9444 54.9141 21.6063V10.8672H57.9203V21.3109C57.9203 22.1624 58.0941 22.9096 58.4416 23.5526C58.7892 24.1955 59.2757 24.6995 59.9187 25.047C60.5443 25.4119 61.2568 25.5857 62.0735 25.5857C62.8902 25.5857 63.6027 25.4119 64.2283 25.047C64.8538 24.6821 65.3404 24.1608 65.7053 23.4831C66.0529 22.8053 66.2266 21.9886 66.2266 21.0502V10.8672H69.2329V28.0706H66.3309V24.7168L66.7827 25.0122C66.383 26.0896 65.7053 26.9411 64.7322 27.5493C63.7591 28.1575 62.6469 28.4529 61.3958 28.4529Z" fill="black"/>
<path d="M72.5 28.0701V10.8667H75.4368V14.2205L74.9502 13.9251C75.3672 12.8477 76.0623 11.9962 77.0007 11.388C77.9391 10.7798 79.0512 10.4844 80.3371 10.4844C81.5709 10.4844 82.6657 10.7624 83.6388 11.3185C84.6119 11.8746 85.3765 12.6392 85.9326 13.6123C86.4887 14.5854 86.7841 15.6975 86.7841 16.9313V28.0701H83.7778V17.8871C83.7778 16.9313 83.604 16.1146 83.2739 15.4543C82.9263 14.7939 82.4571 14.29 81.8142 13.9251C81.1886 13.5601 80.4761 13.3864 79.6594 13.3864C78.8427 13.3864 78.1302 13.5601 77.5046 13.9251C76.8791 14.29 76.3751 14.8113 76.0276 15.4716C75.6627 16.1494 75.4889 16.9487 75.4889 17.8871V28.0701H72.5Z" fill="black"/>
<path d="M98.668 28.4525C97.2778 28.4525 96.0267 28.157 94.8798 27.5488C93.7329 26.9406 92.864 26.0718 92.2384 24.9075L92.6555 24.4036V28.0702H89.7188V3.89844H92.725V14.5681L92.2732 13.8382C92.9162 12.813 93.785 11.9962 94.8972 11.388C96.0093 10.7798 97.2778 10.4844 98.7028 10.4844C100.319 10.4844 101.779 10.8841 103.064 11.6661C104.35 12.448 105.376 13.5254 106.105 14.8808C106.853 16.2363 107.218 17.7655 107.218 19.4858C107.218 21.1714 106.853 22.6832 106.105 24.056C105.358 25.4114 104.35 26.4888 103.064 27.2882C101.779 28.0528 100.319 28.4525 98.668 28.4525ZM98.4595 25.5852C99.5369 25.5852 100.51 25.3246 101.344 24.7859C102.178 24.2472 102.856 23.5173 103.342 22.5963C103.829 21.6753 104.072 20.6327 104.072 19.4858C104.072 18.3215 103.829 17.2789 103.342 16.3579C102.856 15.4369 102.196 14.7244 101.344 14.1858C100.51 13.6471 99.5369 13.3864 98.4595 13.3864C97.3821 13.3864 96.3916 13.6471 95.5401 14.1858C94.6713 14.7244 93.9935 15.4369 93.4896 16.3579C92.9857 17.2789 92.7424 18.3215 92.7424 19.4858C92.7424 20.6327 92.9857 21.6753 93.4896 22.5963C93.9935 23.5173 94.6713 24.2472 95.5401 24.7859C96.3916 25.3072 97.3647 25.5852 98.4595 25.5852Z" fill="black"/>
<path d="M117.997 28.4542C116.363 28.4542 114.869 28.0719 113.531 27.2899C112.193 26.5079 111.116 25.4479 110.316 24.0751C109.517 22.7197 109.117 21.1731 109.117 19.4528C109.117 17.7324 109.517 16.2032 110.299 14.8478C111.081 13.5098 112.158 12.4498 113.496 11.6504C114.834 10.8684 116.346 10.4688 117.997 10.4688C119.683 10.4688 121.194 10.851 122.532 11.633C123.87 12.415 124.93 13.475 125.712 14.8131C126.494 16.1511 126.877 17.6977 126.877 19.4354C126.877 21.1731 126.477 22.7371 125.66 24.0751C124.844 25.4305 123.784 26.4906 122.446 27.2725C121.125 28.0719 119.63 28.4542 117.997 28.4542ZM117.997 25.5869C119.074 25.5869 120.065 25.3263 120.916 24.7876C121.785 24.2489 122.463 23.519 122.967 22.5807C123.471 21.6423 123.714 20.5997 123.714 19.4528C123.714 18.3059 123.471 17.2632 122.967 16.3596C122.463 15.4386 121.785 14.7262 120.916 14.1875C120.047 13.6488 119.074 13.3881 117.997 13.3881C116.937 13.3881 115.964 13.6488 115.112 14.1875C114.243 14.7262 113.566 15.4386 113.062 16.3596C112.558 17.2806 112.297 18.3059 112.297 19.4528C112.297 20.5997 112.558 21.6423 113.062 22.5807C113.566 23.519 114.261 24.2489 115.112 24.7876C115.964 25.3089 116.937 25.5869 117.997 25.5869Z" fill="black"/>
<path d="M127.5 28.0706L133.53 19.4515L127.535 10.8672H131.114L136.258 18.3394H134.434L139.508 10.8672H143.122L137.11 19.4515L143.087 28.0706H139.508L134.434 20.5984H136.223L131.149 28.0706H127.5Z" fill="black"/>
<path d="M152.315 28.4525C150.699 28.4525 149.239 28.0528 147.936 27.2708C146.633 26.4888 145.608 25.4114 144.878 24.0386C144.131 22.6832 143.766 21.154 143.766 19.4684C143.766 17.7481 144.148 16.2015 144.895 14.8635C145.642 13.508 146.668 12.448 147.936 11.6487C149.205 10.8667 150.664 10.467 152.315 10.467C153.74 10.467 155.009 10.7624 156.121 11.3706C157.233 11.9788 158.102 12.7956 158.745 13.8208L158.258 14.5507V3.89844H161.264V28.0702H158.362V24.4036L158.745 24.9075C158.154 26.0544 157.285 26.9406 156.138 27.5488C154.991 28.157 153.723 28.4525 152.315 28.4525ZM152.576 25.5852C153.636 25.5852 154.609 25.3246 155.46 24.7859C156.329 24.2472 157.007 23.5173 157.511 22.5963C158.015 21.6753 158.258 20.6327 158.258 19.4858C158.258 18.3215 158.015 17.2789 157.511 16.3579C157.007 15.4369 156.329 14.7244 155.46 14.1858C154.592 13.6471 153.636 13.3864 152.576 13.3864C151.516 13.3864 150.543 13.6471 149.691 14.1858C148.822 14.7244 148.145 15.4369 147.658 16.3579C147.172 17.2789 146.928 18.3215 146.928 19.4858C146.928 20.6327 147.172 21.6753 147.658 22.5963C148.145 23.5173 148.822 24.2472 149.674 24.7859C150.508 25.3072 151.481 25.5852 152.576 25.5852Z" fill="black"/>
</g>
<path d="M173.996 23V14.06H177.752C178.288 14.06 178.748 14.156 179.132 14.348C179.524 14.54 179.824 14.812 180.032 15.164C180.248 15.508 180.356 15.92 180.356 16.4C180.356 16.84 180.24 17.24 180.008 17.6C179.784 17.952 179.452 18.228 179.012 18.428L179 17.984C179.384 18.128 179.7 18.32 179.948 18.56C180.204 18.792 180.396 19.064 180.524 19.376C180.652 19.68 180.716 20.004 180.716 20.348C180.716 21.172 180.452 21.82 179.924 22.292C179.396 22.764 178.676 23 177.764 23H173.996ZM175.172 21.92H177.812C178.332 21.92 178.748 21.78 179.06 21.5C179.372 21.22 179.528 20.84 179.528 20.36C179.528 19.88 179.372 19.5 179.06 19.22C178.748 18.932 178.332 18.788 177.812 18.788H175.172V21.92ZM175.172 17.732H177.728C178.16 17.732 178.508 17.608 178.772 17.36C179.036 17.104 179.168 16.78 179.168 16.388C179.168 15.98 179.036 15.668 178.772 15.452C178.508 15.236 178.16 15.128 177.728 15.128H175.172V17.732ZM185.149 23.144C184.525 23.144 183.969 22.996 183.481 22.7C182.993 22.404 182.609 22 182.329 21.488C182.049 20.968 181.909 20.388 181.909 19.748C181.909 19.1 182.045 18.524 182.317 18.02C182.597 17.516 182.973 17.12 183.445 16.832C183.925 16.536 184.461 16.388 185.053 16.388C185.533 16.388 185.957 16.476 186.325 16.652C186.701 16.82 187.017 17.052 187.273 17.348C187.537 17.636 187.737 17.968 187.873 18.344C188.017 18.712 188.089 19.096 188.089 19.496C188.089 19.584 188.081 19.684 188.065 19.796C188.057 19.9 188.045 20 188.029 20.096H182.725V19.136H187.381L186.853 19.568C186.925 19.152 186.885 18.78 186.733 18.452C186.581 18.124 186.357 17.864 186.061 17.672C185.765 17.48 185.429 17.384 185.053 17.384C184.677 17.384 184.333 17.48 184.021 17.672C183.709 17.864 183.465 18.14 183.289 18.5C183.121 18.852 183.053 19.272 183.085 19.76C183.053 20.232 183.125 20.648 183.301 21.008C183.485 21.36 183.741 21.636 184.069 21.836C184.405 22.028 184.769 22.124 185.161 22.124C185.593 22.124 185.957 22.024 186.253 21.824C186.549 21.624 186.789 21.368 186.973 21.056L187.909 21.536C187.781 21.832 187.581 22.104 187.309 22.352C187.045 22.592 186.729 22.784 186.361 22.928C186.001 23.072 185.597 23.144 185.149 23.144ZM192.172 23.072C191.54 23.072 191.052 22.892 190.708 22.532C190.372 22.172 190.204 21.664 190.204 21.008V17.6H189.028V16.532H189.268C189.556 16.532 189.784 16.444 189.952 16.268C190.12 16.092 190.204 15.86 190.204 15.572V15.044H191.32V16.532H192.772V17.6H191.32V20.972C191.32 21.188 191.352 21.376 191.416 21.536C191.488 21.696 191.604 21.824 191.764 21.92C191.924 22.008 192.136 22.052 192.4 22.052C192.456 22.052 192.524 22.048 192.604 22.04C192.692 22.032 192.772 22.024 192.844 22.016V23C192.74 23.024 192.624 23.04 192.496 23.048C192.368 23.064 192.26 23.072 192.172 23.072ZM196.115 23.144C195.691 23.144 195.315 23.068 194.987 22.916C194.667 22.756 194.415 22.54 194.231 22.268C194.047 21.988 193.955 21.668 193.955 21.308C193.955 20.964 194.027 20.656 194.171 20.384C194.323 20.104 194.555 19.868 194.867 19.676C195.187 19.484 195.587 19.348 196.067 19.268L198.467 18.872V19.808L196.319 20.168C195.903 20.24 195.599 20.372 195.407 20.564C195.223 20.756 195.131 20.992 195.131 21.272C195.131 21.536 195.235 21.756 195.443 21.932C195.659 22.108 195.927 22.196 196.247 22.196C196.655 22.196 197.007 22.112 197.303 21.944C197.607 21.768 197.843 21.532 198.011 21.236C198.187 20.94 198.275 20.612 198.275 20.252V18.608C198.275 18.256 198.143 17.972 197.879 17.756C197.623 17.532 197.283 17.42 196.859 17.42C196.491 17.42 196.163 17.516 195.875 17.708C195.595 17.892 195.387 18.14 195.251 18.452L194.279 17.948C194.399 17.652 194.591 17.388 194.855 17.156C195.119 16.916 195.427 16.728 195.779 16.592C196.131 16.456 196.499 16.388 196.883 16.388C197.379 16.388 197.815 16.484 198.191 16.676C198.567 16.86 198.859 17.12 199.067 17.456C199.283 17.784 199.391 18.168 199.391 18.608V23H198.299V21.776L198.503 21.848C198.367 22.104 198.183 22.328 197.951 22.52C197.719 22.712 197.447 22.864 197.135 22.976C196.823 23.088 196.483 23.144 196.115 23.144Z" fill="black"/>
<rect x="165.5" y="3.5" width="43" height="30" rx="15" stroke="black"/>
<defs>
<clipPath id="clip0_2537_11240">
<rect width="161" height="36.5791" fill="white" transform="translate(0 0.210938)"/>
</clipPath>
</defs>
</svg>
