<svg width="160" height="29" viewBox="0 0 160 29" fill="none" xmlns="http://www.w3.org/2000/svg">
<g clip-path="url(#clip0_3094_6460)">
<path d="M13.4344 1.41043C16.0435 1.45036 17.9605 2.27571 19.6511 3.63354C20.1969 4.08615 20.7027 4.53876 21.2485 4.99137C21.2885 5.0313 21.5281 4.99137 21.608 4.89818C22.5664 4.16602 23.5249 3.35399 24.5366 2.67507C26.0009 1.76985 27.5984 1.31724 29.3423 1.41043C31.3124 1.50361 33.0963 2.18253 34.6005 3.40723C36.4775 4.89818 37.396 6.89499 37.5691 9.26453C37.7555 11.2214 37.2895 13.0718 36.5574 14.8955C35.4658 17.5313 33.6287 19.5681 31.5254 21.4317C29.5553 23.149 27.4519 24.7464 25.2555 26.1974C24.5233 26.6501 23.7512 27.1027 23.019 27.5553C21.8742 28.2874 20.7826 28.141 19.6378 27.4621C17.0286 25.9711 14.6058 24.2406 12.3162 22.297C11.3577 21.485 10.346 20.6197 9.48069 19.6612C7.37739 17.4781 5.87313 14.8955 5.36727 11.9003C4.9546 9.58402 5.23415 7.41416 6.45886 5.3641C7.59038 3.54035 9.22777 2.40883 11.2911 1.76985C12.0632 1.5968 12.9418 1.50361 13.4344 1.41043Z" fill="#44A560"/>
<path d="M8.08015 1.41043C10.6361 1.45036 12.5264 2.27571 14.1904 3.63354C14.7229 4.08615 15.2287 4.53876 15.7612 4.99137C15.8011 5.0313 16.0274 4.99137 16.1206 4.89818C17.0658 4.16602 18.0109 3.35399 18.996 2.67507C20.4337 1.76985 22.0045 1.31724 23.7085 1.41043C25.6387 1.50361 27.3959 2.18253 28.8736 3.40723C30.7106 4.89818 31.6158 6.89499 31.7889 9.26453C31.9619 11.2214 31.5226 13.0718 30.8038 14.8955C29.7255 17.5313 27.9284 19.5681 25.865 21.4317C23.9348 23.149 21.8714 24.7464 19.7149 26.1974C18.996 26.6501 18.2372 27.1027 17.5184 27.5553C16.4002 28.2874 15.3219 28.141 14.1904 27.4621C11.6345 25.9711 9.25161 24.2406 7.00188 22.297C6.05672 21.485 5.07163 20.6197 4.21966 19.6612C2.15629 17.4647 0.665345 14.8822 0.172799 11.887C-0.226562 9.57071 0.0396789 7.40085 1.25107 5.35079C2.32935 3.54035 3.94011 2.40883 5.96354 1.76985C6.73563 1.5968 7.58761 1.50361 8.08015 1.41043Z" fill="#E0E0E0"/>
<path d="M47.0328 21.6319C46.0743 21.6319 45.209 21.4056 44.4636 20.9663C43.7181 20.527 43.1323 19.9147 42.7064 19.116C42.2804 18.3306 42.0674 17.412 42.0674 16.387V8.16016H44.3704V16.1607C44.3704 16.813 44.5035 17.3854 44.7697 17.8779C45.036 18.3705 45.4087 18.7565 45.9012 19.0228C46.3805 19.3023 46.9263 19.4355 47.5519 19.4355C48.1776 19.4355 48.7234 19.3023 49.2026 19.0228C49.6819 18.7432 50.0546 18.3439 50.3342 17.8247C50.6004 17.3055 50.7335 16.6799 50.7335 15.961V8.16016H53.0365V21.3391H50.8134V18.7699L51.1595 18.9962C50.8533 19.8215 50.3342 20.4738 49.5887 20.9397C48.8432 21.4056 47.9912 21.6319 47.0328 21.6319Z" fill="white"/>
<path d="M55.5393 21.339V8.16005H57.789V10.7293L57.4163 10.503C57.7358 9.67763 58.2683 9.02534 58.9871 8.55941C59.706 8.09349 60.5579 7.86719 61.543 7.86719C62.4882 7.86719 63.3268 8.08018 64.0723 8.50617C64.8178 8.93215 65.4035 9.51788 65.8295 10.2634C66.2555 11.0088 66.4818 11.8608 66.4818 12.806V21.339H64.1788V13.5381C64.1788 12.806 64.0457 12.1803 63.7928 11.6744C63.5265 11.1686 63.1671 10.7825 62.6746 10.503C62.1953 10.2234 61.6495 10.0903 61.0239 10.0903C60.3982 10.0903 59.8524 10.2234 59.3732 10.503C58.8939 10.7825 58.5079 11.1819 58.2416 11.6877C57.9621 12.2069 57.829 12.8193 57.829 13.5381V21.339H55.5393Z" fill="white"/>
<path d="M75.5857 21.6302C74.5207 21.6302 73.5623 21.4039 72.6837 20.938C71.8051 20.4721 71.1395 19.8065 70.6602 18.9146L70.9797 18.5285V21.3374H68.73V2.82031H71.033V10.9939L70.6869 10.4348C71.1794 9.64939 71.845 9.02372 72.697 8.5578C73.5489 8.09188 74.5207 7.86558 75.6123 7.86558C76.8503 7.86558 77.9685 8.17175 78.9536 8.7708C79.9387 9.36984 80.7241 10.1952 81.2832 11.2335C81.8557 12.2719 82.1352 13.4433 82.1352 14.7612C82.1352 16.0525 81.8557 17.2106 81.2832 18.2623C80.7108 19.3006 79.9387 20.126 78.9536 20.7383C77.9685 21.3241 76.8503 21.6302 75.5857 21.6302ZM75.4259 19.4337C76.2513 19.4337 76.9968 19.2341 77.6357 18.8214C78.2747 18.4087 78.7939 17.8496 79.1666 17.1441C79.5394 16.4385 79.7257 15.6398 79.7257 14.7612C79.7257 13.8693 79.5394 13.0706 79.1666 12.365C78.7939 11.6595 78.288 11.1137 77.6357 10.701C76.9968 10.2884 76.2513 10.0887 75.4259 10.0887C74.6006 10.0887 73.8418 10.2884 73.1895 10.701C72.5239 11.1137 72.0047 11.6595 71.6187 12.365C71.2326 13.0706 71.0463 13.8693 71.0463 14.7612C71.0463 15.6398 71.2326 16.4385 71.6187 17.1441C72.0047 17.8496 72.5239 18.4087 73.1895 18.8214C73.8418 19.2207 74.5873 19.4337 75.4259 19.4337Z" fill="white"/>
<path d="M90.3928 21.6334C89.1414 21.6334 87.9966 21.3406 86.9716 20.7415C85.9466 20.1425 85.1212 19.3304 84.5089 18.2788C83.8965 17.2405 83.5903 16.0557 83.5903 14.7378C83.5903 13.4199 83.8965 12.2484 84.4955 11.2101C85.0946 10.1851 85.9199 9.37304 86.945 8.76069C87.97 8.16165 89.1281 7.85547 90.3928 7.85547C91.684 7.85547 92.8422 8.14833 93.8672 8.74738C94.8922 9.34642 95.7043 10.1585 96.3033 11.1835C96.9024 12.2085 97.1952 13.3933 97.1952 14.7245C97.1952 16.0557 96.8891 17.2538 96.2634 18.2788C95.6377 19.3171 94.8257 20.1292 93.8007 20.7282C92.7889 21.3406 91.6441 21.6334 90.3928 21.6334ZM90.3928 19.4369C91.2181 19.4369 91.9769 19.2373 92.6292 18.8246C93.2948 18.4119 93.814 17.8528 94.2 17.134C94.5861 16.4151 94.7724 15.6164 94.7724 14.7378C94.7724 13.8592 94.5861 13.0605 94.2 12.3683C93.814 11.6627 93.2948 11.1169 92.6292 10.7042C91.9636 10.2916 91.2181 10.0919 90.3928 10.0919C89.5807 10.0919 88.8353 10.2916 88.183 10.7042C87.5174 11.1169 86.9982 11.6627 86.6122 12.3683C86.2261 13.0738 86.0264 13.8592 86.0264 14.7378C86.0264 15.6164 86.2261 16.4151 86.6122 17.134C86.9982 17.8528 87.5307 18.4119 88.183 18.8246C88.8353 19.224 89.5807 19.4369 90.3928 19.4369Z" fill="white"/>
<path d="M97.6726 21.3391L102.292 14.7363L97.6992 8.16016H100.442L104.382 13.8843H102.984L106.871 8.16016H109.64L105.034 14.7363L109.614 21.3391H106.871L102.984 15.6149H104.355L100.468 21.3391H97.6726Z" fill="white"/>
<path d="M116.683 21.6302C115.445 21.6302 114.327 21.3241 113.328 20.725C112.33 20.126 111.544 19.3006 110.985 18.249C110.413 17.2106 110.133 16.0392 110.133 14.7479C110.133 13.43 110.426 12.2452 110.999 11.2202C111.571 10.1819 112.356 9.36984 113.328 8.75748C114.3 8.15844 115.418 7.85226 116.683 7.85226C117.774 7.85226 118.746 8.07857 119.598 8.54449C120.45 9.01041 121.116 9.63608 121.608 10.4215L121.236 10.9806V2.82031H123.539V21.3374H121.315V18.5285L121.608 18.9146C121.156 19.7932 120.49 20.4721 119.611 20.938C118.733 21.4039 117.761 21.6302 116.683 21.6302ZM116.883 19.4337C117.695 19.4337 118.44 19.2341 119.092 18.8214C119.758 18.4087 120.277 17.8496 120.663 17.1441C121.049 16.4385 121.236 15.6398 121.236 14.7612C121.236 13.8693 121.049 13.0706 120.663 12.365C120.277 11.6595 119.758 11.1137 119.092 10.701C118.427 10.2884 117.695 10.0887 116.883 10.0887C116.07 10.0887 115.325 10.2884 114.673 10.701C114.007 11.1137 113.488 11.6595 113.115 12.365C112.742 13.0706 112.556 13.8693 112.556 14.7612C112.556 15.6398 112.742 16.4385 113.115 17.1441C113.488 17.8496 114.007 18.4087 114.659 18.8214C115.298 19.2207 116.044 19.4337 116.883 19.4337Z" fill="white"/>
</g>
<path d="M133.292 18.0117V11.1631H136.169C136.58 11.1631 136.932 11.2367 137.226 11.3837C137.527 11.5308 137.756 11.7392 137.916 12.0089C138.081 12.2724 138.164 12.588 138.164 12.9557C138.164 13.2928 138.075 13.5992 137.897 13.875C137.726 14.1446 137.471 14.3561 137.134 14.5093L137.125 14.1691C137.419 14.2795 137.661 14.4265 137.851 14.6104C138.048 14.7881 138.195 14.9965 138.293 15.2355C138.391 15.4684 138.44 15.7166 138.44 15.9801C138.44 16.6114 138.238 17.1078 137.833 17.4693C137.429 17.8309 136.877 18.0117 136.178 18.0117H133.292ZM134.193 17.1844H136.215C136.613 17.1844 136.932 17.0771 137.171 16.8626C137.41 16.6481 137.53 16.357 137.53 15.9893C137.53 15.6216 137.41 15.3305 137.171 15.116C136.932 14.8954 136.613 14.7851 136.215 14.7851H134.193V17.1844ZM134.193 13.9761H136.151C136.482 13.9761 136.748 13.8811 136.951 13.6911C137.153 13.495 137.254 13.2468 137.254 12.9465C137.254 12.634 137.153 12.3949 136.951 12.2295C136.748 12.064 136.482 11.9813 136.151 11.9813H134.193V13.9761ZM141.835 18.122C141.357 18.122 140.931 18.0087 140.558 17.7819C140.184 17.5551 139.89 17.2457 139.675 16.8534C139.461 16.4551 139.353 16.0108 139.353 15.5205C139.353 15.0241 139.458 14.5828 139.666 14.1967C139.88 13.8106 140.168 13.5073 140.53 13.2866C140.898 13.0599 141.308 12.9465 141.762 12.9465C142.13 12.9465 142.454 13.0139 142.736 13.1488C143.024 13.2775 143.266 13.4552 143.463 13.6819C143.665 13.9026 143.818 14.1569 143.922 14.4449C144.032 14.7268 144.088 15.021 144.088 15.3274C144.088 15.3948 144.081 15.4715 144.069 15.5573C144.063 15.6369 144.054 15.7135 144.042 15.7871H139.978V15.0517H143.545L143.141 15.3826C143.196 15.0639 143.165 14.7789 143.049 14.5277C142.932 14.2764 142.761 14.0772 142.534 13.9301C142.307 13.7831 142.05 13.7095 141.762 13.7095C141.474 13.7095 141.21 13.7831 140.971 13.9301C140.732 14.0772 140.545 14.2887 140.411 14.5644C140.282 14.8341 140.23 15.1558 140.254 15.5297C140.23 15.8913 140.285 16.2099 140.42 16.4857C140.561 16.7554 140.757 16.9668 141.008 17.12C141.265 17.2671 141.544 17.3406 141.845 17.3406C142.176 17.3406 142.454 17.264 142.681 17.1108C142.908 16.9576 143.092 16.7615 143.233 16.5225L143.95 16.8902C143.852 17.117 143.698 17.3253 143.49 17.5153C143.288 17.6992 143.046 17.8462 142.764 17.9566C142.488 18.0669 142.179 18.122 141.835 18.122ZM147.216 18.0669C146.731 18.0669 146.358 17.929 146.094 17.6532C145.837 17.3774 145.708 16.9883 145.708 16.4857V13.875H144.807V13.0568H144.991C145.211 13.0568 145.386 12.9894 145.515 12.8546C145.644 12.7198 145.708 12.542 145.708 12.3214V11.9169H146.563V13.0568H147.675V13.875H146.563V16.4581C146.563 16.6236 146.587 16.7676 146.636 16.8902C146.692 17.0128 146.78 17.1108 146.903 17.1844C147.026 17.2518 147.188 17.2855 147.39 17.2855C147.433 17.2855 147.485 17.2824 147.546 17.2763C147.614 17.2702 147.675 17.264 147.73 17.2579V18.0117C147.651 18.0301 147.562 18.0424 147.464 18.0485C147.366 18.0607 147.283 18.0669 147.216 18.0669ZM150.237 18.122C149.912 18.122 149.624 18.0638 149.373 17.9474C149.127 17.8248 148.934 17.6593 148.793 17.451C148.652 17.2365 148.582 16.9913 148.582 16.7155C148.582 16.452 148.637 16.2161 148.747 16.0077C148.864 15.7932 149.042 15.6124 149.281 15.4653C149.526 15.3182 149.832 15.2141 150.2 15.1528L152.038 14.8494V15.5664L150.393 15.8422C150.074 15.8974 149.841 15.9985 149.694 16.1456C149.553 16.2927 149.483 16.4735 149.483 16.688C149.483 16.8902 149.563 17.0587 149.722 17.1936C149.887 17.3284 150.093 17.3958 150.338 17.3958C150.65 17.3958 150.92 17.3315 151.147 17.2028C151.38 17.0679 151.56 16.8871 151.689 16.6604C151.824 16.4336 151.891 16.1824 151.891 15.9066V14.6472C151.891 14.3775 151.79 14.16 151.588 13.9945C151.392 13.8229 151.131 13.7371 150.807 13.7371C150.525 13.7371 150.273 13.8106 150.053 13.9577C149.838 14.0987 149.679 14.2887 149.575 14.5277L148.83 14.1416C148.922 13.9148 149.069 13.7126 149.271 13.5348C149.474 13.351 149.71 13.207 149.979 13.1028C150.249 12.9986 150.531 12.9465 150.825 12.9465C151.205 12.9465 151.539 13.0201 151.827 13.1671C152.115 13.3081 152.339 13.5073 152.498 13.7647C152.664 14.0159 152.746 14.3101 152.746 14.6472V18.0117H151.91V17.0741L152.066 17.1292C151.962 17.3253 151.821 17.4969 151.643 17.644C151.465 17.7911 151.257 17.9075 151.018 17.9933C150.779 18.0791 150.519 18.122 150.237 18.122Z" fill="white"/>
<rect x="126.783" y="2.26584" width="32.4909" height="23.4909" rx="11.7455" stroke="white" stroke-width="0.766062"/>
<defs>
<clipPath id="clip0_3094_6460">
<rect width="123.336" height="28.0218" fill="white"/>
</clipPath>
</defs>
</svg>
