<svg width="239" height="37" viewBox="0 0 239 37" fill="none" xmlns="http://www.w3.org/2000/svg">
<g clip-path="url(#clip0_4412_16101)">
<path d="M17.5368 1.84378C20.9427 1.89591 23.4451 2.9733 25.652 4.74577C26.3644 5.3366 27.0248 5.92743 27.7372 6.51825C27.7894 6.57038 28.1021 6.51825 28.2064 6.39661C29.4576 5.44086 30.7087 4.38085 32.0294 3.49461C33.9409 2.31296 36.0262 1.72214 38.3026 1.84378C40.8744 1.96542 43.203 2.85166 45.1666 4.45036C47.6168 6.39661 48.8158 9.00319 49.0417 12.0963C49.285 14.6508 48.6768 17.0662 47.721 19.4469C46.2961 22.8876 43.898 25.5463 41.1524 27.9791C38.5806 30.2208 35.835 32.3061 32.9678 34.2002C32.012 34.791 31.0041 35.3818 30.0484 35.9726C28.554 36.9284 27.129 36.7372 25.6346 35.851C22.2286 33.9048 19.066 31.6457 16.0771 29.1086C14.8259 28.0486 13.5053 26.9191 12.3758 25.668C9.63016 22.8181 7.66653 19.4469 7.0062 15.537C6.4675 12.5134 6.83242 9.68091 8.43113 7.00481C9.90819 4.62413 12.0456 3.14707 14.7391 2.31296C15.7469 2.08706 16.8938 1.96542 17.5368 1.84378Z" fill="#4E9060"/>
<path d="M10.5476 1.84378C13.8841 1.89591 16.3516 2.9733 18.5238 4.74577C19.2189 5.3366 19.8792 5.92743 20.5743 6.51825C20.6264 6.57038 20.9218 6.51825 21.0435 6.39661C22.2773 5.44086 23.511 4.38085 24.797 3.49461C26.6737 2.31296 28.7242 1.72214 30.9485 1.84378C33.4682 1.96542 35.762 2.85166 37.6909 4.45036C40.0889 6.39661 41.2706 9.00319 41.4965 12.0963C41.7224 14.6508 41.1489 17.0662 40.2106 19.4469C38.803 22.8876 36.4571 25.5463 33.7636 27.9791C31.2439 30.2208 28.5504 32.3061 25.7353 34.2002C24.797 34.791 23.8065 35.3818 22.8681 35.9726C21.4084 36.9284 20.0009 36.7372 18.5238 35.851C15.1874 33.9048 12.0768 31.6457 9.14009 29.1086C7.9063 28.0486 6.62039 26.9191 5.50824 25.668C2.81477 22.8007 0.868526 19.4295 0.225568 15.5197C-0.295748 12.496 0.051796 9.66353 1.63312 6.98744C3.04068 4.62413 5.14332 3.14707 7.78466 2.31296C8.79254 2.08706 9.90468 1.96542 10.5476 1.84378Z" fill="#E0E0E0"/>
<path d="M61.3958 28.242C60.1446 28.242 59.0151 27.9466 58.042 27.3731C57.0688 26.7997 56.3042 26.0003 55.7482 24.9577C55.1921 23.9325 54.9141 22.7334 54.9141 21.3954V10.6562H57.9203V21.1C57.9203 21.9514 58.0941 22.6987 58.4416 23.3416C58.7892 23.9846 59.2757 24.4885 59.9187 24.8361C60.5443 25.201 61.2568 25.3748 62.0735 25.3748C62.8902 25.3748 63.6027 25.201 64.2283 24.8361C64.8538 24.4711 65.3404 23.9498 65.7053 23.2721C66.0529 22.5944 66.2266 21.7777 66.2266 20.8393V10.6562H69.2329V27.8597H66.3309V24.5059L66.7827 24.8013C66.383 25.8787 65.7053 26.7302 64.7322 27.3384C63.7591 27.9466 62.6469 28.242 61.3958 28.242Z" fill="white"/>
<path d="M72.5 27.8592V10.6557H75.4368V14.0095L74.9502 13.7141C75.3672 12.6367 76.0623 11.7853 77.0007 11.1771C77.9391 10.5689 79.0512 10.2734 80.3371 10.2734C81.5709 10.2734 82.6657 10.5515 83.6388 11.1075C84.6119 11.6636 85.3765 12.4282 85.9326 13.4013C86.4887 14.3745 86.7841 15.4866 86.7841 16.7204V27.8592H83.7778V17.6761C83.7778 16.7204 83.604 15.9037 83.2739 15.2433C82.9263 14.583 82.4571 14.0791 81.8142 13.7141C81.1886 13.3492 80.4761 13.1754 79.6594 13.1754C78.8427 13.1754 78.1302 13.3492 77.5046 13.7141C76.8791 14.0791 76.3751 14.6004 76.0276 15.2607C75.6627 15.9384 75.4889 16.7378 75.4889 17.6761V27.8592H72.5Z" fill="white"/>
<path d="M98.668 28.2415C97.2778 28.2415 96.0267 27.9461 94.8798 27.3379C93.7329 26.7297 92.864 25.8608 92.2384 24.6966L92.6555 24.1926V27.8592H89.7188V3.6875H92.725V14.3571L92.2732 13.6273C92.9162 12.602 93.785 11.7853 94.8972 11.1771C96.0093 10.5689 97.2778 10.2735 98.7028 10.2735C100.319 10.2735 101.779 10.6731 103.064 11.4551C104.35 12.2371 105.376 13.3145 106.105 14.6699C106.853 16.0253 107.218 17.5545 107.218 19.2749C107.218 20.9605 106.853 22.4723 106.105 23.8451C105.358 25.2005 104.35 26.2779 103.064 27.0772C101.779 27.8418 100.319 28.2415 98.668 28.2415ZM98.4595 25.3743C99.5369 25.3743 100.51 25.1136 101.344 24.5749C102.178 24.0362 102.856 23.3064 103.342 22.3854C103.829 21.4644 104.072 20.4218 104.072 19.2749C104.072 18.1106 103.829 17.068 103.342 16.147C102.856 15.226 102.196 14.5135 101.344 13.9748C100.51 13.4361 99.5369 13.1755 98.4595 13.1755C97.3821 13.1755 96.3916 13.4361 95.5401 13.9748C94.6713 14.5135 93.9935 15.226 93.4896 16.147C92.9857 17.068 92.7424 18.1106 92.7424 19.2749C92.7424 20.4218 92.9857 21.4644 93.4896 22.3854C93.9935 23.3064 94.6713 24.0362 95.5401 24.5749C96.3916 25.0962 97.3647 25.3743 98.4595 25.3743Z" fill="white"/>
<path d="M117.997 28.2432C116.363 28.2432 114.869 27.8609 113.531 27.079C112.193 26.297 111.116 25.237 110.316 23.8642C109.517 22.5088 109.117 20.9622 109.117 19.2418C109.117 17.5215 109.517 15.9923 110.299 14.6369C111.081 13.2988 112.158 12.2388 113.496 11.4395C114.834 10.6575 116.346 10.2578 117.997 10.2578C119.683 10.2578 121.194 10.6401 122.532 11.4221C123.87 12.2041 124.93 13.2641 125.712 14.6021C126.494 15.9402 126.877 17.4867 126.877 19.2245C126.877 20.9622 126.477 22.5261 125.66 23.8642C124.844 25.2196 123.784 26.2796 122.446 27.0616C121.125 27.8609 119.63 28.2432 117.997 28.2432ZM117.997 25.376C119.074 25.376 120.065 25.1153 120.916 24.5766C121.785 24.038 122.463 23.3081 122.967 22.3697C123.471 21.4314 123.714 20.3887 123.714 19.2418C123.714 18.0949 123.471 17.0523 122.967 16.1487C122.463 15.2277 121.785 14.5152 120.916 13.9765C120.047 13.4378 119.074 13.1772 117.997 13.1772C116.937 13.1772 115.964 13.4378 115.112 13.9765C114.243 14.5152 113.566 15.2277 113.062 16.1487C112.558 17.0697 112.297 18.0949 112.297 19.2418C112.297 20.3887 112.558 21.4314 113.062 22.3697C113.566 23.3081 114.261 24.038 115.112 24.5766C115.964 25.098 116.937 25.376 117.997 25.376Z" fill="white"/>
<path d="M127.5 27.8597L133.53 19.2406L127.535 10.6562H131.114L136.258 18.1285H134.434L139.508 10.6562H143.122L137.11 19.2406L143.087 27.8597H139.508L134.434 20.3875H136.223L131.149 27.8597H127.5Z" fill="white"/>
<path d="M152.315 28.2415C150.699 28.2415 149.239 27.8418 147.936 27.0599C146.633 26.2779 145.608 25.2005 144.878 23.8277C144.131 22.4723 143.766 20.9431 143.766 19.2575C143.766 17.5372 144.148 15.9906 144.895 14.6525C145.642 13.2971 146.668 12.2371 147.936 11.4377C149.205 10.6558 150.664 10.2561 152.315 10.2561C153.74 10.2561 155.009 10.5515 156.121 11.1597C157.233 11.7679 158.102 12.5846 158.745 13.6099L158.258 14.3397V3.6875H161.264V27.8592H158.362V24.1926L158.745 24.6966C158.154 25.8435 157.285 26.7297 156.138 27.3379C154.991 27.9461 153.723 28.2415 152.315 28.2415ZM152.576 25.3743C153.636 25.3743 154.609 25.1136 155.46 24.5749C156.329 24.0362 157.007 23.3064 157.511 22.3854C158.015 21.4644 158.258 20.4218 158.258 19.2749C158.258 18.1106 158.015 17.068 157.511 16.147C157.007 15.226 156.329 14.5135 155.46 13.9748C154.592 13.4361 153.636 13.1755 152.576 13.1755C151.516 13.1755 150.543 13.4361 149.691 13.9748C148.822 14.5135 148.145 15.226 147.658 16.147C147.172 17.068 146.928 18.1106 146.928 19.2749C146.928 20.4218 147.172 21.4644 147.658 22.3854C148.145 23.3064 148.822 24.0362 149.674 24.5749C150.508 25.0962 151.481 25.3743 152.576 25.3743Z" fill="white"/>
</g>
<path d="M175.352 22.7891L173.132 16.3211H174.368L176.132 21.7331L175.7 21.7211L177.428 16.3211H178.484L180.212 21.7211L179.78 21.7331L181.556 16.3211H182.78L180.56 22.7891H179.492L177.788 17.3891H178.124L176.42 22.7891H175.352ZM186.637 22.9331C186.013 22.9331 185.457 22.7851 184.969 22.4891C184.481 22.1931 184.097 21.7891 183.817 21.2771C183.537 20.7571 183.397 20.1771 183.397 19.5371C183.397 18.8891 183.533 18.3131 183.805 17.8091C184.085 17.3051 184.461 16.9091 184.933 16.6211C185.413 16.3251 185.949 16.1771 186.541 16.1771C187.021 16.1771 187.445 16.2651 187.813 16.4411C188.189 16.6091 188.505 16.8411 188.761 17.1371C189.025 17.4251 189.225 17.7571 189.361 18.1331C189.505 18.5011 189.577 18.8851 189.577 19.2851C189.577 19.3731 189.569 19.4731 189.553 19.5851C189.545 19.6891 189.533 19.7891 189.517 19.8851H184.213V18.9251H188.869L188.341 19.3571C188.413 18.9411 188.373 18.5691 188.221 18.2411C188.069 17.9131 187.845 17.6531 187.549 17.4611C187.253 17.2691 186.917 17.1731 186.541 17.1731C186.165 17.1731 185.821 17.2691 185.509 17.4611C185.197 17.6531 184.953 17.9291 184.777 18.2891C184.609 18.6411 184.541 19.0611 184.573 19.5491C184.541 20.0211 184.613 20.4371 184.789 20.7971C184.973 21.1491 185.229 21.4251 185.557 21.6251C185.893 21.8171 186.257 21.9131 186.649 21.9131C187.081 21.9131 187.445 21.8131 187.741 21.6131C188.037 21.4131 188.277 21.1571 188.461 20.8451L189.397 21.3251C189.269 21.6211 189.069 21.8931 188.797 22.1411C188.533 22.3811 188.217 22.5731 187.849 22.7171C187.489 22.8611 187.085 22.9331 186.637 22.9331ZM193.972 22.9331C193.364 22.9331 192.816 22.7851 192.328 22.4891C191.848 22.1931 191.468 21.7891 191.188 21.2771C190.908 20.7651 190.768 20.1931 190.768 19.5611C190.768 18.9131 190.908 18.3371 191.188 17.8331C191.468 17.3211 191.848 16.9171 192.328 16.6211C192.816 16.3251 193.364 16.1771 193.972 16.1771C194.508 16.1771 194.984 16.2931 195.4 16.5251C195.816 16.7491 196.144 17.0531 196.384 17.4371L196.204 17.7131V13.7051H197.332V22.7891H196.24V21.4091L196.384 21.6011C196.16 22.0251 195.832 22.3531 195.4 22.5851C194.976 22.8171 194.5 22.9331 193.972 22.9331ZM194.068 21.8531C194.476 21.8531 194.84 21.7531 195.16 21.5531C195.48 21.3531 195.732 21.0811 195.916 20.7371C196.108 20.3851 196.204 19.9931 196.204 19.5611C196.204 19.1211 196.108 18.7291 195.916 18.3851C195.732 18.0331 195.48 17.7571 195.16 17.5571C194.84 17.3571 194.476 17.2571 194.068 17.2571C193.668 17.2571 193.304 17.3611 192.976 17.5691C192.656 17.7691 192.404 18.0411 192.22 18.3851C192.036 18.7211 191.944 19.1131 191.944 19.5611C191.944 19.9931 192.036 20.3851 192.22 20.7371C192.404 21.0811 192.656 21.3531 192.976 21.5531C193.296 21.7531 193.66 21.8531 194.068 21.8531ZM201.999 22.9331C201.391 22.9331 200.843 22.7851 200.355 22.4891C199.875 22.1931 199.495 21.7891 199.215 21.2771C198.935 20.7651 198.795 20.1931 198.795 19.5611C198.795 18.9131 198.935 18.3371 199.215 17.8331C199.495 17.3211 199.875 16.9171 200.355 16.6211C200.843 16.3251 201.391 16.1771 201.999 16.1771C202.535 16.1771 203.011 16.2931 203.427 16.5251C203.843 16.7491 204.171 17.0531 204.411 17.4371L204.231 17.7131V13.7051H205.359V22.7891H204.267V21.4091L204.411 21.6011C204.187 22.0251 203.859 22.3531 203.427 22.5851C203.003 22.8171 202.527 22.9331 201.999 22.9331ZM202.095 21.8531C202.503 21.8531 202.867 21.7531 203.187 21.5531C203.507 21.3531 203.759 21.0811 203.943 20.7371C204.135 20.3851 204.231 19.9931 204.231 19.5611C204.231 19.1211 204.135 18.7291 203.943 18.3851C203.759 18.0331 203.507 17.7571 203.187 17.5571C202.867 17.3571 202.503 17.2571 202.095 17.2571C201.695 17.2571 201.331 17.3611 201.003 17.5691C200.683 17.7691 200.431 18.0411 200.247 18.3851C200.063 18.7211 199.971 19.1131 199.971 19.5611C199.971 19.9931 200.063 20.3851 200.247 20.7371C200.431 21.0811 200.683 21.3531 201.003 21.5531C201.323 21.7531 201.687 21.8531 202.095 21.8531ZM207.087 22.7891V16.3211H208.203V22.7891H207.087ZM207.087 15.2891V13.8491H208.203V15.2891H207.087ZM209.934 22.7891V16.3211H211.026V17.5811L210.846 17.4731C211.006 17.0651 211.262 16.7491 211.614 16.5251C211.974 16.2931 212.394 16.1771 212.874 16.1771C213.338 16.1771 213.75 16.2811 214.11 16.4891C214.478 16.6971 214.766 16.9851 214.974 17.3531C215.19 17.7211 215.298 18.1371 215.298 18.6011V22.7891H214.17V18.9611C214.17 18.6011 214.106 18.2971 213.978 18.0491C213.85 17.8011 213.666 17.6091 213.426 17.4731C213.194 17.3291 212.926 17.2571 212.622 17.2571C212.318 17.2571 212.046 17.3291 211.806 17.4731C211.574 17.6091 211.39 17.8051 211.254 18.0611C211.118 18.3091 211.05 18.6091 211.05 18.9611V22.7891H209.934ZM219.979 25.4291C219.523 25.4291 219.099 25.3571 218.707 25.2131C218.323 25.0691 217.991 24.8691 217.711 24.6131C217.439 24.3651 217.231 24.0731 217.087 23.7371L218.131 23.2571C218.243 23.5611 218.455 23.8171 218.767 24.0251C219.087 24.2411 219.487 24.3491 219.967 24.3491C220.335 24.3491 220.667 24.2771 220.963 24.1331C221.267 23.9971 221.507 23.7891 221.683 23.5091C221.859 23.2371 221.947 22.9051 221.947 22.5131V21.0611L222.151 21.2771C221.927 21.7171 221.603 22.0531 221.179 22.2851C220.763 22.5171 220.303 22.6331 219.799 22.6331C219.191 22.6331 218.647 22.4931 218.167 22.2131C217.687 21.9251 217.311 21.5371 217.039 21.0491C216.767 20.5531 216.631 20.0051 216.631 19.4051C216.631 18.7971 216.767 18.2491 217.039 17.7611C217.311 17.2731 217.683 16.8891 218.155 16.6091C218.635 16.3211 219.179 16.1771 219.787 16.1771C220.291 16.1771 220.747 16.2931 221.155 16.5251C221.571 16.7491 221.903 17.0611 222.151 17.4611L221.983 17.7611V16.3211H223.075V22.5131C223.075 23.0731 222.943 23.5731 222.679 24.0131C222.415 24.4531 222.047 24.7971 221.575 25.0451C221.111 25.3011 220.579 25.4291 219.979 25.4291ZM219.895 21.5531C220.279 21.5531 220.623 21.4571 220.927 21.2651C221.239 21.0731 221.487 20.8171 221.671 20.4971C221.855 20.1691 221.947 19.8051 221.947 19.4051C221.947 19.0131 221.855 18.6531 221.671 18.3251C221.487 17.9971 221.239 17.7371 220.927 17.5451C220.623 17.3531 220.279 17.2571 219.895 17.2571C219.503 17.2571 219.147 17.3531 218.827 17.5451C218.507 17.7371 218.255 17.9971 218.071 18.3251C217.895 18.6451 217.807 19.0051 217.807 19.4051C217.807 19.8051 217.895 20.1691 218.071 20.4971C218.255 20.8171 218.503 21.0731 218.815 21.2651C219.135 21.4571 219.495 21.5531 219.895 21.5531ZM227.121 22.9331C226.473 22.9331 225.909 22.7731 225.429 22.4531C224.949 22.1331 224.609 21.7011 224.409 21.1571L225.297 20.7251C225.481 21.1091 225.733 21.4131 226.053 21.6371C226.373 21.8611 226.729 21.9731 227.121 21.9731C227.473 21.9731 227.765 21.8891 227.997 21.7211C228.229 21.5531 228.345 21.3331 228.345 21.0611C228.345 20.8691 228.289 20.7171 228.177 20.6051C228.073 20.4851 227.945 20.3931 227.793 20.3291C227.641 20.2571 227.501 20.2051 227.373 20.1731L226.401 19.8971C225.817 19.7291 225.389 19.4891 225.117 19.1771C224.853 18.8651 224.721 18.5011 224.721 18.0851C224.721 17.7011 224.817 17.3691 225.009 17.0891C225.209 16.8011 225.477 16.5771 225.813 16.4171C226.157 16.2571 226.541 16.1771 226.965 16.1771C227.533 16.1771 228.041 16.3211 228.489 16.6091C228.945 16.8971 229.269 17.3011 229.461 17.8211L228.549 18.2411C228.405 17.9051 228.189 17.6411 227.901 17.4491C227.613 17.2491 227.289 17.1491 226.929 17.1491C226.601 17.1491 226.341 17.2331 226.149 17.4011C225.957 17.5611 225.861 17.7651 225.861 18.0131C225.861 18.1971 225.909 18.3491 226.005 18.4691C226.101 18.5811 226.217 18.6691 226.353 18.7331C226.489 18.7891 226.621 18.8371 226.749 18.8771L227.805 19.1891C228.333 19.3411 228.741 19.5771 229.029 19.8971C229.325 20.2171 229.473 20.6011 229.473 21.0491C229.473 21.4091 229.373 21.7331 229.173 22.0211C228.973 22.3091 228.697 22.5331 228.345 22.6931C227.993 22.8531 227.585 22.9331 227.121 22.9331Z" fill="white"/>
<rect x="165.5" y="3.28906" width="73" height="30" rx="15" stroke="white"/>
<defs>
<clipPath id="clip0_4412_16101">
<rect width="161" height="36.5791" fill="white"/>
</clipPath>
</defs>
</svg>
