<svg width="239" height="38" viewBox="0 0 239 38" fill="none" xmlns="http://www.w3.org/2000/svg">
<g clip-path="url(#clip0_10666_8079)">
<mask id="mask0_10666_8079" style="mask-type:luminance" maskUnits="userSpaceOnUse" x="0" y="0" width="161" height="38">
<path d="M161 0.5H0V37.0791H161V0.5Z" fill="white"/>
</mask>
<g mask="url(#mask0_10666_8079)">
<path d="M17.5368 2.34378C20.9427 2.39591 23.4451 3.4733 25.652 5.24577C26.3644 5.8366 27.0248 6.42743 27.7372 7.01825C27.7894 7.07038 28.1021 7.01825 28.2064 6.89661C29.4576 5.94086 30.7087 4.88085 32.0294 3.99461C33.9409 2.81296 36.0262 2.22214 38.3026 2.34378C40.8744 2.46542 43.203 3.35166 45.1666 4.95036C47.6168 6.89661 48.8158 9.50319 49.0417 12.5963C49.285 15.1508 48.6768 17.5662 47.721 19.9469C46.2961 23.3876 43.898 26.0463 41.1524 28.4791C38.5806 30.7208 35.835 32.8061 32.9678 34.7002C32.012 35.291 31.0041 35.8818 30.0484 36.4726C28.554 37.4284 27.129 37.2372 25.6346 36.351C22.2286 34.4048 19.066 32.1457 16.0771 29.6086C14.8259 28.5486 13.5053 27.4191 12.3758 26.168C9.63016 23.3181 7.66653 19.9469 7.0062 16.037C6.4675 13.0134 6.83242 10.1809 8.43113 7.50481C9.90819 5.12413 12.0456 3.64707 14.7391 2.81296C15.7469 2.58706 16.8938 2.46542 17.5368 2.34378Z" fill="#4E9060"/>
<path d="M30.9212 2.84304L30.9244 2.8432C33.3369 2.95966 35.527 3.80628 37.3718 5.33534L37.3758 5.33858C39.6513 7.18542 40.7804 9.65608 40.9978 12.6327L40.9978 12.6327L40.9984 12.6403C41.215 15.089 40.668 17.422 39.7466 19.7606C38.3797 23.0999 36.0968 25.6978 33.4298 28.1068C30.9295 30.3312 28.2564 32.4009 25.4625 34.2811C24.9984 34.5733 24.521 34.8657 24.0406 35.16L24.0372 35.1621C23.5566 35.4565 23.0729 35.7528 22.6017 36.0495L22.6017 36.0494L22.5942 36.0543C21.9446 36.4796 21.332 36.636 20.7296 36.6033C20.1178 36.57 19.476 36.3392 18.781 35.9222L18.7811 35.9222L18.7757 35.9191C15.4682 33.9897 12.3825 31.749 9.46696 29.2302L9.46592 29.2293C8.23185 28.1691 6.96932 27.059 5.88194 25.8358L5.88208 25.8357L5.87267 25.8257C3.23084 23.0133 1.34232 19.7293 0.718941 15.9386L0.718956 15.9386L0.718298 15.9347C0.213647 13.0077 0.552365 10.2997 2.06314 7.74256C3.39409 5.50829 5.37978 4.10091 7.91483 3.2962C8.3951 3.18942 8.90326 3.10599 9.37835 3.03356C9.4999 3.01503 9.62042 2.99706 9.73805 2.97952C10.0546 2.93234 10.3503 2.88826 10.5894 2.84457C13.7764 2.90454 16.1227 3.93296 18.2038 5.63C18.5472 5.92197 18.8825 6.21426 19.2205 6.50889L19.2217 6.50997C19.5577 6.80291 19.8964 7.09817 20.244 7.39375C20.3359 7.47526 20.4338 7.5057 20.4831 7.51804C20.5454 7.5336 20.6025 7.53766 20.6451 7.53829C20.7315 7.53956 20.8178 7.52739 20.8936 7.51016C21.0202 7.48138 21.2145 7.41614 21.3682 7.27751C21.7788 6.95914 22.1824 6.63533 22.5839 6.31319C23.4079 5.65207 24.2231 4.99796 25.0721 4.41223C26.8667 3.28445 28.8127 2.72773 30.9212 2.84304Z" fill="white" stroke="#4E9060"/>
<path d="M61.3958 28.7421C60.1446 28.7421 59.0151 28.4466 58.042 27.8731C57.0688 27.2997 56.3042 26.5003 55.7482 25.4578C55.1921 24.4326 54.9141 23.2334 54.9141 21.8954V11.1562H57.9203V21.6C57.9203 22.4515 58.0941 23.1987 58.4416 23.8417C58.7892 24.4846 59.2757 24.9885 59.9187 25.3361C60.5443 25.701 61.2568 25.8748 62.0735 25.8748C62.8902 25.8748 63.6027 25.701 64.2283 25.3361C64.8538 24.9711 65.3404 24.4499 65.7053 23.7722C66.0529 23.0944 66.2266 22.2778 66.2266 21.3393V11.1562H69.2329V28.3597H66.3309V25.0059L66.7827 25.3013C66.383 26.3787 65.7053 27.2302 64.7322 27.8384C63.7591 28.4466 62.6469 28.7421 61.3958 28.7421Z" fill="black"/>
<path d="M72.5 28.3592V11.1557H75.4368V14.5095L74.9502 14.2141C75.3672 13.1367 76.0623 12.2853 77.0007 11.6771C77.9391 11.0689 79.0512 10.7734 80.3371 10.7734C81.5709 10.7734 82.6657 11.0515 83.6388 11.6075C84.6119 12.1636 85.3765 12.9282 85.9326 13.9013C86.4887 14.8745 86.7841 15.9866 86.7841 17.2204V28.3592H83.7778V18.1761C83.7778 17.2204 83.604 16.4037 83.2739 15.7433C82.9263 15.083 82.4571 14.5791 81.8142 14.2141C81.1886 13.8492 80.4761 13.6754 79.6594 13.6754C78.8427 13.6754 78.1302 13.8492 77.5046 14.2141C76.8791 14.5791 76.3751 15.1004 76.0276 15.7607C75.6627 16.4384 75.4889 17.2378 75.4889 18.1761V28.3592H72.5Z" fill="black"/>
<path d="M98.6679 28.7415C97.2777 28.7415 96.0266 28.4461 94.8797 27.8379C93.7328 27.2297 92.8639 26.3608 92.2383 25.1966L92.6554 24.6926V28.3592H89.7188V4.1875H92.7249V14.8571L92.2731 14.1273C92.9161 13.102 93.7849 12.2853 94.8971 11.6771C96.0092 11.0689 97.2777 10.7735 98.7027 10.7735C100.319 10.7735 101.779 11.1731 103.064 11.9551C104.35 12.7371 105.376 13.8145 106.105 15.1699C106.853 16.5253 107.218 18.0545 107.218 19.7749C107.218 21.4605 106.853 22.9723 106.105 24.3451C105.358 25.7005 104.35 26.7779 103.064 27.5772C101.779 28.3418 100.319 28.7415 98.6679 28.7415ZM98.4594 25.8743C99.5368 25.8743 100.51 25.6136 101.344 25.0749C102.178 24.5362 102.856 23.8064 103.342 22.8854C103.829 21.9644 104.072 20.9218 104.072 19.7749C104.072 18.6106 103.829 17.568 103.342 16.647C102.856 15.726 102.196 15.0135 101.344 14.4748C100.51 13.9361 99.5368 13.6755 98.4594 13.6755C97.382 13.6755 96.3915 13.9361 95.54 14.4748C94.6712 15.0135 93.9934 15.726 93.4895 16.647C92.9856 17.568 92.7423 18.6106 92.7423 19.7749C92.7423 20.9218 92.9856 21.9644 93.4895 22.8854C93.9934 23.8064 94.6712 24.5362 95.54 25.0749C96.3915 25.5962 97.3646 25.8743 98.4594 25.8743Z" fill="black"/>
<path d="M117.997 28.7432C116.363 28.7432 114.869 28.3609 113.531 27.579C112.193 26.797 111.116 25.737 110.316 24.3642C109.517 23.0088 109.117 21.4622 109.117 19.7418C109.117 18.0215 109.517 16.4923 110.299 15.1369C111.081 13.7988 112.158 12.7388 113.496 11.9395C114.834 11.1575 116.346 10.7578 117.997 10.7578C119.683 10.7578 121.194 11.1401 122.532 11.9221C123.87 12.7041 124.93 13.7641 125.712 15.1021C126.494 16.4402 126.877 17.9867 126.877 19.7245C126.877 21.4622 126.477 23.0261 125.66 24.3642C124.844 25.7196 123.784 26.7796 122.446 27.5616C121.125 28.3609 119.63 28.7432 117.997 28.7432ZM117.997 25.876C119.074 25.876 120.065 25.6153 120.916 25.0766C121.785 24.538 122.463 23.8081 122.967 22.8697C123.471 21.9314 123.714 20.8887 123.714 19.7418C123.714 18.5949 123.471 17.5523 122.967 16.6487C122.463 15.7277 121.785 15.0152 120.916 14.4765C120.047 13.9378 119.074 13.6772 117.997 13.6772C116.937 13.6772 115.964 13.9378 115.112 14.4765C114.243 15.0152 113.566 15.7277 113.062 16.6487C112.558 17.5697 112.297 18.5949 112.297 19.7418C112.297 20.8887 112.558 21.9314 113.062 22.8697C113.566 23.8081 114.261 24.538 115.112 25.0766C115.964 25.598 116.937 25.876 117.997 25.876Z" fill="black"/>
<path d="M127.5 28.3597L133.53 19.7407L127.535 11.1562H131.114L136.258 18.6285H134.434L139.508 11.1562H143.122L137.11 19.7407L143.087 28.3597H139.508L134.434 20.8876H136.223L131.149 28.3597H127.5Z" fill="black"/>
<path d="M152.315 28.7415C150.699 28.7415 149.239 28.3418 147.936 27.5599C146.633 26.7779 145.608 25.7005 144.878 24.3277C144.131 22.9723 143.766 21.4431 143.766 19.7575C143.766 18.0372 144.148 16.4906 144.895 15.1525C145.642 13.7971 146.668 12.7371 147.936 11.9377C149.205 11.1558 150.664 10.7561 152.315 10.7561C153.74 10.7561 155.009 11.0515 156.121 11.6597C157.233 12.2679 158.102 13.0846 158.745 14.1099L158.258 14.8397V4.1875H161.264V28.3592H158.362V24.6926L158.745 25.1966C158.154 26.3435 157.285 27.2297 156.138 27.8379C154.991 28.4461 153.723 28.7415 152.315 28.7415ZM152.576 25.8743C153.636 25.8743 154.609 25.6136 155.46 25.0749C156.329 24.5362 157.007 23.8064 157.511 22.8854C158.015 21.9644 158.258 20.9218 158.258 19.7749C158.258 18.6106 158.015 17.568 157.511 16.647C157.007 15.726 156.329 15.0135 155.46 14.4748C154.592 13.9361 153.636 13.6755 152.576 13.6755C151.516 13.6755 150.543 13.9361 149.691 14.4748C148.822 15.0135 148.145 15.726 147.658 16.647C147.172 17.568 146.928 18.6106 146.928 19.7749C146.928 20.9218 147.172 21.9644 147.658 22.8854C148.145 23.8064 148.822 24.5362 149.674 25.0749C150.508 25.5962 151.481 25.8743 152.576 25.8743Z" fill="black"/>
</g>
<path d="M175.353 23.2891L173.133 16.8211H174.369L176.133 22.2331L175.701 22.2211L177.429 16.8211H178.485L180.213 22.2211L179.781 22.2331L181.557 16.8211H182.781L180.561 23.2891H179.493L177.789 17.8891H178.125L176.421 23.2891H175.353ZM186.638 23.4331C186.014 23.4331 185.458 23.2851 184.97 22.9891C184.482 22.6931 184.098 22.2891 183.818 21.7771C183.538 21.2571 183.398 20.6771 183.398 20.0371C183.398 19.3891 183.534 18.8131 183.806 18.3091C184.086 17.8051 184.462 17.4091 184.934 17.1211C185.414 16.8251 185.95 16.6771 186.542 16.6771C187.022 16.6771 187.446 16.7651 187.814 16.9411C188.19 17.1091 188.506 17.3411 188.762 17.6371C189.026 17.9251 189.226 18.2571 189.362 18.6331C189.506 19.0011 189.578 19.3851 189.578 19.7851C189.578 19.8731 189.57 19.9731 189.554 20.0851C189.546 20.1891 189.534 20.2891 189.518 20.3851H184.214V19.4251H188.87L188.342 19.8571C188.414 19.4411 188.374 19.0691 188.222 18.7411C188.07 18.4131 187.846 18.1531 187.55 17.9611C187.254 17.7691 186.918 17.6731 186.542 17.6731C186.166 17.6731 185.822 17.7691 185.51 17.9611C185.198 18.1531 184.954 18.4291 184.778 18.7891C184.61 19.1411 184.542 19.5611 184.574 20.0491C184.542 20.5211 184.614 20.9371 184.79 21.2971C184.974 21.6491 185.23 21.9251 185.558 22.1251C185.894 22.3171 186.258 22.4131 186.65 22.4131C187.082 22.4131 187.446 22.3131 187.742 22.1131C188.038 21.9131 188.278 21.6571 188.462 21.3451L189.398 21.8251C189.27 22.1211 189.07 22.3931 188.798 22.6411C188.534 22.8811 188.218 23.0731 187.85 23.2171C187.49 23.3611 187.086 23.4331 186.638 23.4331ZM193.973 23.4331C193.365 23.4331 192.817 23.2851 192.329 22.9891C191.849 22.6931 191.469 22.2891 191.189 21.7771C190.909 21.2651 190.769 20.6931 190.769 20.0611C190.769 19.4131 190.909 18.8371 191.189 18.3331C191.469 17.8211 191.849 17.4171 192.329 17.1211C192.817 16.8251 193.365 16.6771 193.973 16.6771C194.509 16.6771 194.985 16.7931 195.401 17.0251C195.817 17.2491 196.145 17.5531 196.385 17.9371L196.205 18.2131V14.2051H197.333V23.2891H196.241V21.9091L196.385 22.1011C196.161 22.5251 195.833 22.8531 195.401 23.0851C194.977 23.3171 194.501 23.4331 193.973 23.4331ZM194.069 22.3531C194.477 22.3531 194.841 22.2531 195.161 22.0531C195.481 21.8531 195.733 21.5811 195.917 21.2371C196.109 20.8851 196.205 20.4931 196.205 20.0611C196.205 19.6211 196.109 19.2291 195.917 18.8851C195.733 18.5331 195.481 18.2571 195.161 18.0571C194.841 17.8571 194.477 17.7571 194.069 17.7571C193.669 17.7571 193.305 17.8611 192.977 18.0691C192.657 18.2691 192.405 18.5411 192.221 18.8851C192.037 19.2211 191.945 19.6131 191.945 20.0611C191.945 20.4931 192.037 20.8851 192.221 21.2371C192.405 21.5811 192.657 21.8531 192.977 22.0531C193.297 22.2531 193.661 22.3531 194.069 22.3531ZM202 23.4331C201.392 23.4331 200.844 23.2851 200.356 22.9891C199.876 22.6931 199.496 22.2891 199.216 21.7771C198.936 21.2651 198.796 20.6931 198.796 20.0611C198.796 19.4131 198.936 18.8371 199.216 18.3331C199.496 17.8211 199.876 17.4171 200.356 17.1211C200.844 16.8251 201.392 16.6771 202 16.6771C202.536 16.6771 203.012 16.7931 203.428 17.0251C203.844 17.2491 204.172 17.5531 204.412 17.9371L204.232 18.2131V14.2051H205.36V23.2891H204.268V21.9091L204.412 22.1011C204.188 22.5251 203.86 22.8531 203.428 23.0851C203.004 23.3171 202.528 23.4331 202 23.4331ZM202.096 22.3531C202.504 22.3531 202.868 22.2531 203.188 22.0531C203.508 21.8531 203.76 21.5811 203.944 21.2371C204.136 20.8851 204.232 20.4931 204.232 20.0611C204.232 19.6211 204.136 19.2291 203.944 18.8851C203.76 18.5331 203.508 18.2571 203.188 18.0571C202.868 17.8571 202.504 17.7571 202.096 17.7571C201.696 17.7571 201.332 17.8611 201.004 18.0691C200.684 18.2691 200.432 18.5411 200.248 18.8851C200.064 19.2211 199.972 19.6131 199.972 20.0611C199.972 20.4931 200.064 20.8851 200.248 21.2371C200.432 21.5811 200.684 21.8531 201.004 22.0531C201.324 22.2531 201.688 22.3531 202.096 22.3531ZM207.088 23.2891V16.8211H208.204V23.2891H207.088ZM207.088 15.7891V14.3491H208.204V15.7891H207.088ZM209.935 23.2891V16.8211H211.027V18.0811L210.847 17.9731C211.007 17.5651 211.263 17.2491 211.615 17.0251C211.975 16.7931 212.395 16.6771 212.875 16.6771C213.339 16.6771 213.751 16.7811 214.111 16.9891C214.479 17.1971 214.767 17.4851 214.975 17.8531C215.191 18.2211 215.299 18.6371 215.299 19.1011V23.2891H214.171V19.4611C214.171 19.1011 214.107 18.7971 213.979 18.5491C213.851 18.3011 213.667 18.1091 213.427 17.9731C213.195 17.8291 212.927 17.7571 212.623 17.7571C212.319 17.7571 212.047 17.8291 211.807 17.9731C211.575 18.1091 211.391 18.3051 211.255 18.5611C211.119 18.8091 211.051 19.1091 211.051 19.4611V23.2891H209.935ZM219.98 25.9291C219.524 25.9291 219.1 25.8571 218.708 25.7131C218.324 25.5691 217.992 25.3691 217.712 25.1131C217.44 24.8651 217.232 24.5731 217.088 24.2371L218.132 23.7571C218.244 24.0611 218.456 24.3171 218.768 24.5251C219.088 24.7411 219.488 24.8491 219.968 24.8491C220.336 24.8491 220.668 24.7771 220.964 24.6331C221.268 24.4971 221.508 24.2891 221.684 24.0091C221.86 23.7371 221.948 23.4051 221.948 23.0131V21.5611L222.152 21.7771C221.928 22.2171 221.604 22.5531 221.18 22.7851C220.764 23.0171 220.304 23.1331 219.8 23.1331C219.192 23.1331 218.648 22.9931 218.168 22.7131C217.688 22.4251 217.312 22.0371 217.04 21.5491C216.768 21.0531 216.632 20.5051 216.632 19.9051C216.632 19.2971 216.768 18.7491 217.04 18.2611C217.312 17.7731 217.684 17.3891 218.156 17.1091C218.636 16.8211 219.18 16.6771 219.788 16.6771C220.292 16.6771 220.748 16.7931 221.156 17.0251C221.572 17.2491 221.904 17.5611 222.152 17.9611L221.984 18.2611V16.8211H223.076V23.0131C223.076 23.5731 222.944 24.0731 222.68 24.5131C222.416 24.9531 222.048 25.2971 221.576 25.5451C221.112 25.8011 220.58 25.9291 219.98 25.9291ZM219.896 22.0531C220.28 22.0531 220.624 21.9571 220.928 21.7651C221.24 21.5731 221.488 21.3171 221.672 20.9971C221.856 20.6691 221.948 20.3051 221.948 19.9051C221.948 19.5131 221.856 19.1531 221.672 18.8251C221.488 18.4971 221.24 18.2371 220.928 18.0451C220.624 17.8531 220.28 17.7571 219.896 17.7571C219.504 17.7571 219.148 17.8531 218.828 18.0451C218.508 18.2371 218.256 18.4971 218.072 18.8251C217.896 19.1451 217.808 19.5051 217.808 19.9051C217.808 20.3051 217.896 20.6691 218.072 20.9971C218.256 21.3171 218.504 21.5731 218.816 21.7651C219.136 21.9571 219.496 22.0531 219.896 22.0531ZM227.122 23.4331C226.474 23.4331 225.91 23.2731 225.43 22.9531C224.95 22.6331 224.61 22.2011 224.41 21.6571L225.298 21.2251C225.482 21.6091 225.734 21.9131 226.054 22.1371C226.374 22.3611 226.73 22.4731 227.122 22.4731C227.474 22.4731 227.766 22.3891 227.998 22.2211C228.23 22.0531 228.346 21.8331 228.346 21.5611C228.346 21.3691 228.29 21.2171 228.178 21.1051C228.074 20.9851 227.946 20.8931 227.794 20.8291C227.642 20.7571 227.502 20.7051 227.374 20.6731L226.402 20.3971C225.818 20.2291 225.39 19.9891 225.118 19.6771C224.854 19.3651 224.722 19.0011 224.722 18.5851C224.722 18.2011 224.818 17.8691 225.01 17.5891C225.21 17.3011 225.478 17.0771 225.814 16.9171C226.158 16.7571 226.542 16.6771 226.966 16.6771C227.534 16.6771 228.042 16.8211 228.49 17.1091C228.946 17.3971 229.27 17.8011 229.462 18.3211L228.55 18.7411C228.406 18.4051 228.19 18.1411 227.902 17.9491C227.614 17.7491 227.29 17.6491 226.93 17.6491C226.602 17.6491 226.342 17.7331 226.15 17.9011C225.958 18.0611 225.862 18.2651 225.862 18.5131C225.862 18.6971 225.91 18.8491 226.006 18.9691C226.102 19.0811 226.218 19.1691 226.354 19.2331C226.49 19.2891 226.622 19.3371 226.75 19.3771L227.806 19.6891C228.334 19.8411 228.742 20.0771 229.03 20.3971C229.326 20.7171 229.474 21.1011 229.474 21.5491C229.474 21.9091 229.374 22.2331 229.174 22.5211C228.974 22.8091 228.698 23.0331 228.346 23.1931C227.994 23.3531 227.586 23.4331 227.122 23.4331Z" fill="black"/>
<path d="M223.5 3.78906H180.5C172.216 3.78906 165.5 10.5048 165.5 18.7891C165.5 27.0733 172.216 33.7891 180.5 33.7891H223.5C231.784 33.7891 238.5 27.0733 238.5 18.7891C238.5 10.5048 231.784 3.78906 223.5 3.78906Z" stroke="black"/>
</g>
<defs>
<clipPath id="clip0_10666_8079">
<rect width="239" height="37" fill="white" transform="translate(0 0.5)"/>
</clipPath>
</defs>
</svg>
