<svg width="20" height="27" viewBox="0 0 20 27" fill="none" xmlns="http://www.w3.org/2000/svg">
<path d="M6.66667 0.167969C8.51111 0.167969 10.2444 0.517746 11.8667 1.2173C13.4889 1.91775 14.9 2.86797 16.1 4.06797C17.3 5.26797 18.2498 6.67908 18.9493 8.3013C19.6498 9.92352 20 11.6569 20 13.5013C20 15.3457 19.6498 17.0791 18.9493 18.7013C18.2498 20.3235 17.3 21.7346 16.1 22.9346C14.9 24.1346 13.4889 25.0844 11.8667 25.784C10.2444 26.4844 8.51111 26.8346 6.66667 26.8346C5.48889 26.8346 4.33911 26.6849 3.21733 26.3853C2.09467 26.0849 1.02222 25.6346 0 25.0346C2.06667 23.8346 3.69422 22.2124 4.88267 20.168C6.072 18.1235 6.66667 15.9013 6.66667 13.5013C6.66667 11.1013 6.072 8.87908 4.88267 6.83463C3.69422 4.79019 2.06667 3.16797 0 1.96797C1.02222 1.36797 2.09467 0.917746 3.21733 0.617302C4.33911 0.317746 5.48889 0.167969 6.66667 0.167969Z" fill="#1C1B1F"/>
</svg>
