<svg width="30" height="31" viewBox="0 0 30 31" fill="none" xmlns="http://www.w3.org/2000/svg">
<path d="M13.6667 4.83203V0.832031H16.3333V4.83203H13.6667ZM13.6667 30.1654V26.1654H16.3333V30.1654H13.6667ZM25.6667 16.832V14.1654H29.6667V16.832H25.6667ZM0.333328 16.832V14.1654H4.33333V16.832H0.333328ZM23.9333 8.43203L22.0667 6.56536L24.4 4.16536L26.3333 6.0987L23.9333 8.43203ZM5.59999 26.832L3.66666 24.8987L6.06666 22.5654L7.93333 24.432L5.59999 26.832ZM24.4 26.832L22.0667 24.432L23.9333 22.5654L26.3333 24.8987L24.4 26.832ZM6.06666 8.43203L3.66666 6.0987L5.59999 4.16536L7.93333 6.56536L6.06666 8.43203ZM15 23.4987C12.7778 23.4987 10.8889 22.7209 9.33333 21.1654C7.77777 19.6098 7 17.7209 7 15.4987C7 13.2765 7.77777 11.3876 9.33333 9.83203C10.8889 8.27648 12.7778 7.4987 15 7.4987C17.2222 7.4987 19.1111 8.27648 20.6667 9.83203C22.2222 11.3876 23 13.2765 23 15.4987C23 17.7209 22.2222 19.6098 20.6667 21.1654C19.1111 22.7209 17.2222 23.4987 15 23.4987Z" fill="white"/>
</svg>
