<svg width="12" height="8" viewBox="0 0 12 8" fill="none" xmlns="http://www.w3.org/2000/svg">
<path d="M6.00078 0.749962C6.14335 0.749138 6.28468 0.776465 6.41667 0.830377C6.54866 0.884289 6.66872 0.963724 6.76994 1.06413L11.1033 5.39746C11.3073 5.60146 11.4219 5.87814 11.4219 6.16663C11.4219 6.45512 11.3073 6.7318 11.1033 6.9358C10.8993 7.13979 10.6226 7.25439 10.3341 7.25439C10.0456 7.25439 9.76894 7.13979 9.56494 6.9358L6.00078 3.3608L2.43661 6.92496C2.22936 7.10244 1.96278 7.19518 1.69013 7.18465C1.41749 7.17412 1.15885 7.06109 0.965915 6.86816C0.772979 6.67522 0.659954 6.41659 0.649423 6.14394C0.638891 5.87129 0.73163 5.60471 0.909108 5.39746L5.24244 1.06413C5.44422 0.863989 5.71657 0.751159 6.00078 0.749962Z" fill="white"/>
</svg>
