<svg width="12" height="8" viewBox="0 0 12 8" fill="none" xmlns="http://www.w3.org/2000/svg">
<path d="M5.99922 7.25004C5.85665 7.25086 5.71532 7.22353 5.58333 7.16962C5.45134 7.11571 5.33128 7.03628 5.23006 6.93587L0.896724 2.60254C0.692729 2.39854 0.578125 2.12186 0.578125 1.83337C0.578125 1.54488 0.692729 1.2682 0.896724 1.0642C1.10072 0.860209 1.3774 0.745605 1.66589 0.745605C1.95438 0.745605 2.23106 0.860209 2.43506 1.0642L5.99922 4.6392L9.56339 1.07504C9.77064 0.897559 10.0372 0.804819 10.3099 0.81535C10.5825 0.825881 10.8411 0.938909 11.0341 1.13184C11.227 1.32478 11.34 1.58341 11.3506 1.85606C11.3611 2.12871 11.2684 2.39529 11.0909 2.60254L6.75756 6.93587C6.55578 7.13601 6.28343 7.24884 5.99922 7.25004Z" fill="white"/>
</svg>
