<svg width="37" height="29" viewBox="0 0 37 29" fill="none" xmlns="http://www.w3.org/2000/svg">
<g clip-path="url(#clip0_10666_8411)">
<path d="M35.5839 6.05623C34.731 6.4827 33.7928 6.65329 32.8545 6.82387C33.281 6.73858 33.9633 5.97093 34.2192 5.62976C34.6457 5.11799 34.9016 4.60623 35.1575 4.00917C35.1575 3.92387 35.1575 3.92387 35.1575 3.83858C35.0722 3.83858 35.0722 3.83858 34.9869 3.83858C33.9633 4.35034 32.8545 4.77682 31.7457 5.0327C31.6604 5.0327 31.5751 5.0327 31.4898 4.9474C31.4045 4.86211 31.3192 4.77682 31.2339 4.69152C30.8075 4.35034 30.2957 4.00917 29.6986 3.83858C28.931 3.4974 28.078 3.41211 27.3104 3.41211C26.5428 3.4974 25.7751 3.66799 25.0075 4.09446C24.3251 4.43564 23.6428 4.9474 23.131 5.62976C22.6192 6.31211 22.1928 6.99446 22.0222 7.8474C21.8516 8.61505 21.8516 9.3827 21.9369 10.1503C21.9369 10.3209 21.9369 10.3209 21.8516 10.3209C17.4163 9.63858 13.7487 8.10329 10.7634 4.69152C10.5928 4.52093 10.5928 4.52093 10.4222 4.69152C9.22807 6.56799 9.82513 9.63858 11.4457 11.2592C11.7016 11.4298 11.8722 11.6856 12.1281 11.8562C12.0428 11.8562 10.934 11.7709 9.99572 11.2592C9.82513 11.1739 9.82513 11.2592 9.82513 11.3445C9.82513 11.5151 9.82513 11.7709 9.82513 11.9415C10.081 13.9886 11.4457 15.7798 13.3222 16.5474C13.5781 16.6327 13.834 16.718 14.0045 16.8033C13.5781 16.8886 13.1516 16.9739 11.8722 16.8886C11.7869 16.718 11.7869 16.8033 11.7869 16.9739C12.7251 19.5327 14.6869 20.2151 16.2222 20.6415C16.3928 20.6415 16.6486 20.6415 16.8192 20.7268C16.3075 21.4945 14.6016 22.0062 13.834 22.3474C12.384 22.8592 10.7634 23.115 9.22807 22.9445C8.97219 22.9445 8.97219 22.9445 8.88689 22.9445C8.8016 22.9445 8.88689 23.0298 8.97219 23.1151C9.31336 23.2856 9.56925 23.5415 9.91042 23.7121C10.8487 24.2239 11.8722 24.6503 12.981 24.9062C18.4398 26.4415 24.6663 25.3327 28.7604 21.2386C32.0016 17.9974 33.1104 13.5621 33.1104 9.12681C33.1104 8.95623 33.281 8.87093 33.4516 8.78564C34.3045 8.18858 34.9869 7.42093 35.5839 6.56799C35.7545 6.3974 35.7545 6.22682 35.7545 6.14152C35.7545 5.97093 35.7545 6.05623 35.5839 6.05623Z" stroke="#0F0F0F" stroke-width="1.70588" stroke-miterlimit="10"/>
</g>
<defs>
<clipPath id="clip0_10666_8411">
<rect width="29" height="23.8824" fill="white" transform="translate(8 2.55859)"/>
</clipPath>
</defs>
</svg>
