<svg width="30" height="29" viewBox="0 0 30 29" fill="none" xmlns="http://www.w3.org/2000/svg">
<g clip-path="url(#clip0_10666_8400)">
<path d="M21.0898 27.1H7.18984C3.78984 27.1 1.08984 24.4 1.08984 21V7.1C1.08984 3.7 3.78984 1 7.18984 1H20.9898C24.3898 1 27.0898 3.7 27.0898 7.1V20.9C27.1898 24.3 24.3898 27.1 21.0898 27.1Z" stroke="#0F0F0F" stroke-width="2" stroke-miterlimit="10"/>
<path d="M14.0898 20C17.4035 20 20.0898 17.3137 20.0898 14C20.0898 10.6863 17.4035 8 14.0898 8C10.7761 8 8.08984 10.6863 8.08984 14C8.08984 17.3137 10.7761 20 14.0898 20Z" stroke="#0F0F0F" stroke-width="2" stroke-miterlimit="10"/>
<path d="M22.3914 7.99961C23.0541 7.99961 23.5914 7.46235 23.5914 6.79961C23.5914 6.13686 23.0541 5.59961 22.3914 5.59961C21.7287 5.59961 21.1914 6.13686 21.1914 6.79961C21.1914 7.46235 21.7287 7.99961 22.3914 7.99961Z" stroke="#0F0F0F" stroke-width="2" stroke-miterlimit="10"/>
</g>
<defs>
<clipPath id="clip0_10666_8400">
<rect width="29" height="29" fill="white" transform="translate(0.0898438)"/>
</clipPath>
</defs>
</svg>
