<svg width="256" height="171" viewBox="0 0 256 171" fill="none" xmlns="http://www.w3.org/2000/svg">
<g clip-path="url(#clip0_10666_8259)">
<path d="M26.6667 16H16V26.6667H26.6667V16Z" fill="#0F0F0F"/>
<path d="M37.3333 16H26.6667V26.6667H37.3333V16Z" fill="#0F0F0F"/>
<path d="M48 16H37.3333V26.6667H48V16Z" fill="#0F0F0F"/>
<path d="M58.6667 16H48V26.6667H58.6667V16Z" fill="#0F0F0F"/>
<path d="M69.3333 16H58.6667V26.6667H69.3333V16Z" fill="#0F0F0F"/>
<path d="M80 16H69.3333V26.6667H80V16Z" fill="#0F0F0F"/>
<path d="M90.6667 16H80V26.6667H90.6667V16Z" fill="#0F0F0F"/>
<path d="M112 16H101.333V26.6667H112V16Z" fill="#0F0F0F"/>
<path d="M144 16H133.333V26.6667H144V16Z" fill="#0F0F0F"/>
<path d="M154.667 16H144V26.6667H154.667V16Z" fill="#0F0F0F"/>
<path d="M176 16H165.333V26.6667H176V16Z" fill="#0F0F0F"/>
<path d="M186.667 16H176V26.6667H186.667V16Z" fill="#0F0F0F"/>
<path d="M197.333 16H186.667V26.6667H197.333V16Z" fill="#0F0F0F"/>
<path d="M208 16H197.333V26.6667H208V16Z" fill="#0F0F0F"/>
<path d="M218.667 16H208V26.6667H218.667V16Z" fill="#0F0F0F"/>
<path d="M229.333 16H218.667V26.6667H229.333V16Z" fill="#0F0F0F"/>
<path d="M240 16H229.333V26.6667H240V16Z" fill="#0F0F0F"/>
<path d="M26.6667 26.6667H16V37.3333H26.6667V26.6667Z" fill="#0F0F0F"/>
<path d="M90.6667 26.6667H80V37.3333H90.6667V26.6667Z" fill="#0F0F0F"/>
<path d="M144 26.6667H133.333V37.3333H144V26.6667Z" fill="#0F0F0F"/>
<path d="M154.667 26.6667H144V37.3333H154.667V26.6667Z" fill="#0F0F0F"/>
<path d="M176 26.6667H165.333V37.3333H176V26.6667Z" fill="#0F0F0F"/>
<path d="M240 26.6667H229.333V37.3333H240V26.6667Z" fill="#0F0F0F"/>
<path d="M26.6667 37.3333H16V48H26.6667V37.3333Z" fill="#0F0F0F"/>
<path d="M48 37.3333H37.3333V48H48V37.3333Z" fill="#0F0F0F"/>
<path d="M58.6667 37.3333H48V48H58.6667V37.3333Z" fill="#0F0F0F"/>
<path d="M69.3333 37.3333H58.6667V48H69.3333V37.3333Z" fill="#0F0F0F"/>
<path d="M90.6667 37.3333H80V48H90.6667V37.3333Z" fill="#0F0F0F"/>
<path d="M176 37.3333H165.333V48H176V37.3333Z" fill="#0F0F0F"/>
<path d="M197.333 37.3333H186.667V48H197.333V37.3333Z" fill="#0F0F0F"/>
<path d="M208 37.3333H197.333V48H208V37.3333Z" fill="#0F0F0F"/>
<path d="M218.667 37.3333H208V48H218.667V37.3333Z" fill="#0F0F0F"/>
<path d="M240 37.3333H229.333V48H240V37.3333Z" fill="#0F0F0F"/>
<path d="M26.6667 48H16V58.6667H26.6667V48Z" fill="#0F0F0F"/>
<path d="M48 48H37.3333V58.6667H48V48Z" fill="#0F0F0F"/>
<path d="M58.6667 48H48V58.6667H58.6667V48Z" fill="#0F0F0F"/>
<path d="M69.3333 48H58.6667V58.6667H69.3333V48Z" fill="#0F0F0F"/>
<path d="M90.6667 48H80V58.6667H90.6667V48Z" fill="#0F0F0F"/>
<path d="M112 48H101.333V58.6667H112V48Z" fill="#0F0F0F"/>
<path d="M122.667 48H112V58.6667H122.667V48Z" fill="#0F0F0F"/>
<path d="M133.333 48H122.667V58.6667H133.333V48Z" fill="#0F0F0F"/>
<path d="M144 48H133.333V58.6667H144V48Z" fill="#0F0F0F"/>
<path d="M154.667 48H144V58.6667H154.667V48Z" fill="#0F0F0F"/>
<path d="M176 48H165.333V58.6667H176V48Z" fill="#0F0F0F"/>
<path d="M197.333 48H186.667V58.6667H197.333V48Z" fill="#0F0F0F"/>
<path d="M208 48H197.333V58.6667H208V48Z" fill="#0F0F0F"/>
<path d="M218.667 48H208V58.6667H218.667V48Z" fill="#0F0F0F"/>
<path d="M240 48H229.333V58.6667H240V48Z" fill="#0F0F0F"/>
<path d="M26.6667 58.6667H16V69.3333H26.6667V58.6667Z" fill="#0F0F0F"/>
<path d="M48 58.6667H37.3333V69.3333H48V58.6667Z" fill="#0F0F0F"/>
<path d="M58.6667 58.6667H48V69.3333H58.6667V58.6667Z" fill="#0F0F0F"/>
<path d="M69.3333 58.6667H58.6667V69.3333H69.3333V58.6667Z" fill="#0F0F0F"/>
<path d="M90.6667 58.6667H80V69.3333H90.6667V58.6667Z" fill="#0F0F0F"/>
<path d="M122.667 58.6667H112L112 69.3333H122.667V58.6667Z" fill="#0F0F0F"/>
<path d="M133.333 58.6667H122.667V69.3333H133.333V58.6667Z" fill="#0F0F0F"/>
<path d="M154.667 58.6667H144V69.3333H154.667V58.6667Z" fill="#0F0F0F"/>
<path d="M176 58.6667H165.333V69.3333H176V58.6667Z" fill="#0F0F0F"/>
<path d="M197.333 58.6667H186.667V69.3333H197.333V58.6667Z" fill="#0F0F0F"/>
<path d="M208 58.6667H197.333V69.3333H208V58.6667Z" fill="#0F0F0F"/>
<path d="M218.667 58.6667H208V69.3333H218.667V58.6667Z" fill="#0F0F0F"/>
<path d="M240 58.6667H229.333V69.3333H240V58.6667Z" fill="#0F0F0F"/>
<path d="M26.6667 69.3333H16V80H26.6667V69.3333Z" fill="#0F0F0F"/>
<path d="M90.6667 69.3333H80V80H90.6667V69.3333Z" fill="#0F0F0F"/>
<path d="M112 69.3333H101.333V80H112L112 69.3333Z" fill="#0F0F0F"/>
<path d="M122.667 69.3333H112L112 80H122.667V69.3333Z" fill="#0F0F0F"/>
<path d="M154.667 69.3333H144V80H154.667V69.3333Z" fill="#0F0F0F"/>
<path d="M176 69.3333H165.333V80H176V69.3333Z" fill="#0F0F0F"/>
<path d="M240 69.3333H229.333V80H240V69.3333Z" fill="#0F0F0F"/>
<path d="M26.6667 80H16V90.6667H26.6667V80Z" fill="#0F0F0F"/>
<path d="M37.3333 80H26.6667V90.6667H37.3333V80Z" fill="#0F0F0F"/>
<path d="M48 80H37.3333V90.6667H48V80Z" fill="#0F0F0F"/>
<path d="M58.6667 80H48V90.6667H58.6667V80Z" fill="#0F0F0F"/>
<path d="M69.3333 80H58.6667V90.6667H69.3333V80Z" fill="#0F0F0F"/>
<path d="M80 80H69.3333V90.6667H80V80Z" fill="#0F0F0F"/>
<path d="M90.6667 80H80V90.6667H90.6667V80Z" fill="#0F0F0F"/>
<path d="M112 80H101.333V90.6667H112V80Z" fill="#0F0F0F"/>
<path d="M133.333 80H122.667L122.667 90.6667H133.333V80Z" fill="#0F0F0F"/>
<path d="M154.667 80H144V90.6667H154.667V80Z" fill="#0F0F0F"/>
<path d="M176 80H165.333V90.6667H176V80Z" fill="#0F0F0F"/>
<path d="M186.667 80H176V90.6667H186.667V80Z" fill="#0F0F0F"/>
<path d="M197.333 80H186.667V90.6667H197.333V80Z" fill="#0F0F0F"/>
<path d="M208 80H197.333V90.6667H208V80Z" fill="#0F0F0F"/>
<path d="M218.667 80H208V90.6667H218.667V80Z" fill="#0F0F0F"/>
<path d="M229.333 80H218.667V90.6667H229.333V80Z" fill="#0F0F0F"/>
<path d="M240 80H229.333V90.6667H240V80Z" fill="#0F0F0F"/>
<path d="M122.667 90.6667H112L112 101.333H122.667L122.667 90.6667Z" fill="#0F0F0F"/>
<path d="M133.333 90.6667H122.667L122.667 101.333H133.333V90.6667Z" fill="#0F0F0F"/>
<path d="M154.667 90.6667H144V101.333H154.667V90.6667Z" fill="#0F0F0F"/>
<path d="M80 101.333H69.3333V112H80V101.333Z" fill="#0F0F0F"/>
<path d="M90.6667 101.333H80V112H90.6667V101.333Z" fill="#0F0F0F"/>
<path d="M112 101.333L101.333 101.333V112H112L112 101.333Z" fill="#0F0F0F"/>
<path d="M144 101.333H133.333L133.333 112H144V101.333Z" fill="#0F0F0F"/>
<path d="M165.333 101.333L154.667 101.333V112H165.333V101.333Z" fill="#0F0F0F"/>
<path d="M186.667 101.333H176V112H186.667V101.333Z" fill="#0F0F0F"/>
<path d="M208 101.333H197.333V112H208V101.333Z" fill="#0F0F0F"/>
<path d="M240 101.333H229.333V112H240V101.333Z" fill="#0F0F0F"/>
<path d="M26.6667 112H16V122.667H26.6667V112Z" fill="#0F0F0F"/>
<path d="M37.3333 112H26.6667V122.667H37.3333V112Z" fill="#0F0F0F"/>
<path d="M112 112H101.333V122.667H112V112Z" fill="#0F0F0F"/>
<path d="M133.333 112L122.667 112V122.667H133.333L133.333 112Z" fill="#0F0F0F"/>
<path d="M208 112H197.333V122.667H208V112Z" fill="#0F0F0F"/>
<path d="M229.333 112L218.667 112V122.667H229.333V112Z" fill="#0F0F0F"/>
<path d="M240 112H229.333V122.667H240V112Z" fill="#0F0F0F"/>
<path d="M37.3333 122.667H26.6667V133.333H37.3333V122.667Z" fill="#0F0F0F"/>
<path d="M48 122.667L37.3333 122.667V133.333H48V122.667Z" fill="#0F0F0F"/>
<path d="M58.6667 122.667H48V133.333H58.6667V122.667Z" fill="#0F0F0F"/>
<path d="M69.3333 122.667H58.6667V133.333H69.3333V122.667Z" fill="#0F0F0F"/>
<path d="M90.6667 122.667H80V133.333H90.6667V122.667Z" fill="#0F0F0F"/>
<path d="M101.333 122.667L90.6667 122.667V133.333H101.333L101.333 122.667Z" fill="#0F0F0F"/>
<path d="M112 122.667H101.333L101.333 133.333H112V122.667Z" fill="#0F0F0F"/>
<path d="M122.667 122.667H112V133.333H122.667L122.667 122.667Z" fill="#0F0F0F"/>
<path d="M133.333 122.667H122.667L122.667 133.333H133.333V122.667Z" fill="#0F0F0F"/>
<path d="M144 122.667L133.333 122.667V133.333H144V122.667Z" fill="#0F0F0F"/>
<path d="M176 122.667H165.333V133.333H176V122.667Z" fill="#0F0F0F"/>
<path d="M186.667 122.667H176V133.333H186.667V122.667Z" fill="#0F0F0F"/>
<path d="M197.333 122.667L186.667 122.667V133.333H197.333V122.667Z" fill="#0F0F0F"/>
<path d="M218.667 122.667H208V133.333H218.667V122.667Z" fill="#0F0F0F"/>
<path d="M229.333 122.667H218.667V133.333H229.333V122.667Z" fill="#0F0F0F"/>
<path d="M26.6667 133.333L16 133.333V144H26.6667V133.333Z" fill="#0F0F0F"/>
<path d="M80 133.333H69.3333V144H80V133.333Z" fill="#0F0F0F"/>
<path d="M101.333 133.333H90.6667V144H101.333V133.333Z" fill="#0F0F0F"/>
<path d="M144 133.333H133.333L133.333 144H144V133.333Z" fill="#0F0F0F"/>
<path d="M165.333 133.333L154.667 133.333V144H165.333V133.333Z" fill="#0F0F0F"/>
<path d="M186.667 133.333H176V144H186.667V133.333Z" fill="#0F0F0F"/>
<path d="M197.333 133.333H186.667V144H197.333V133.333Z" fill="#0F0F0F"/>
<path d="M208 133.333H197.333V144H208V133.333Z" fill="#0F0F0F"/>
<path d="M240 133.333L229.333 133.333V144H240V133.333Z" fill="#0F0F0F"/>
<path d="M48 144H37.3333V154.667H48V144Z" fill="#0F0F0F"/>
<path d="M58.6667 144H48V154.667H58.6667V144Z" fill="#0F0F0F"/>
<path d="M69.3333 144H58.6667V154.667H69.3333V144Z" fill="#0F0F0F"/>
<path d="M80 144H69.3333V154.667H80V144Z" fill="#0F0F0F"/>
<path d="M90.6667 144H80V154.667H90.6667V144Z" fill="#0F0F0F"/>
<path d="M101.333 144H90.6667V154.667H101.333V144Z" fill="#0F0F0F"/>
<path d="M133.333 144H122.667V154.667H133.333L133.333 144Z" fill="#0F0F0F"/>
<path d="M154.667 144H144V154.667H154.667V144Z" fill="#0F0F0F"/>
<path d="M186.667 144H176V154.667H186.667V144Z" fill="#0F0F0F"/>
<path d="M218.667 144H208V154.667H218.667V144Z" fill="#0F0F0F"/>
<path d="M240 144H229.333V154.667H240V144Z" fill="#0F0F0F"/>
<path d="M112 154.667H101.333L101.333 165.333H112V154.667Z" fill="#0F0F0F"/>
<path d="M133.333 154.667H122.667V165.333H133.333V154.667Z" fill="#0F0F0F"/>
<path d="M176 154.667H165.333V165.333H176V154.667Z" fill="#0F0F0F"/>
<path d="M186.667 154.667H176V165.333H186.667V154.667Z" fill="#0F0F0F"/>
<path d="M229.333 154.667H218.667V165.333H229.333V154.667Z" fill="#0F0F0F"/>
<path d="M26.6667 165.333H16V176H26.6667V165.333Z" fill="#0F0F0F"/>
<path d="M37.3333 165.333H26.6667V176H37.3333V165.333Z" fill="#0F0F0F"/>
<path d="M48 165.333H37.3333V176H48V165.333Z" fill="#0F0F0F"/>
<path d="M58.6667 165.333H48V176H58.6667V165.333Z" fill="#0F0F0F"/>
<path d="M69.3333 165.333H58.6667V176H69.3333V165.333Z" fill="#0F0F0F"/>
<path d="M80 165.333H69.3333V176H80V165.333Z" fill="#0F0F0F"/>
<path d="M90.6667 165.333H80V176H90.6667V165.333Z" fill="#0F0F0F"/>
<path d="M122.667 165.333H112L112 176H122.667L122.667 165.333Z" fill="#0F0F0F"/>
<path d="M154.667 165.333H144V176H154.667V165.333Z" fill="#0F0F0F"/>
<path d="M197.333 165.333H186.667V176H197.333V165.333Z" fill="#0F0F0F"/>
<path d="M229.333 165.333H218.667V176H229.333V165.333Z" fill="#0F0F0F"/>
<path d="M26.6667 176H16V186.667H26.6667V176Z" fill="#0F0F0F"/>
<path d="M90.6667 176H80V186.667H90.6667V176Z" fill="#0F0F0F"/>
<path d="M112 176H101.333V186.667H112L112 176Z" fill="#0F0F0F"/>
<path d="M122.667 176H112L112 186.667H122.667V176Z" fill="#0F0F0F"/>
<path d="M154.667 176H144V186.667H154.667V176Z" fill="#0F0F0F"/>
<path d="M165.333 176H154.667V186.667H165.333V176Z" fill="#0F0F0F"/>
<path d="M176 176H165.333V186.667H176V176Z" fill="#0F0F0F"/>
<path d="M197.333 176H186.667V186.667H197.333V176Z" fill="#0F0F0F"/>
<path d="M208 176H197.333V186.667H208V176Z" fill="#0F0F0F"/>
<path d="M218.667 176H208V186.667H218.667V176Z" fill="#0F0F0F"/>
<path d="M229.333 176H218.667V186.667H229.333V176Z" fill="#0F0F0F"/>
<path d="M26.6667 186.667H16V197.333H26.6667V186.667Z" fill="#0F0F0F"/>
<path d="M48 186.667H37.3333V197.333H48V186.667Z" fill="#0F0F0F"/>
<path d="M58.6667 186.667H48V197.333H58.6667V186.667Z" fill="#0F0F0F"/>
<path d="M69.3333 186.667H58.6667V197.333H69.3333V186.667Z" fill="#0F0F0F"/>
<path d="M90.6667 186.667H80V197.333H90.6667V186.667Z" fill="#0F0F0F"/>
<path d="M154.667 186.667H144V197.333H154.667V186.667Z" fill="#0F0F0F"/>
<path d="M176 186.667H165.333V197.333H176V186.667Z" fill="#0F0F0F"/>
<path d="M197.333 186.667H186.667V197.333H197.333V186.667Z" fill="#0F0F0F"/>
<path d="M218.667 186.667H208V197.333H218.667V186.667Z" fill="#0F0F0F"/>
<path d="M229.333 186.667H218.667V197.333H229.333V186.667Z" fill="#0F0F0F"/>
<path d="M240 186.667H229.333V197.333H240V186.667Z" fill="#0F0F0F"/>
<path d="M26.6667 197.333H16V208H26.6667V197.333Z" fill="#0F0F0F"/>
<path d="M48 197.333H37.3333V208H48V197.333Z" fill="#0F0F0F"/>
<path d="M58.6667 197.333H48V208H58.6667V197.333Z" fill="#0F0F0F"/>
<path d="M69.3333 197.333H58.6667V208H69.3333V197.333Z" fill="#0F0F0F"/>
<path d="M90.6667 197.333H80V208H90.6667V197.333Z" fill="#0F0F0F"/>
<path d="M122.667 197.333H112V208H122.667V197.333Z" fill="#0F0F0F"/>
<path d="M133.333 197.333H122.667V208H133.333V197.333Z" fill="#0F0F0F"/>
<path d="M144 197.333H133.333V208H144V197.333Z" fill="#0F0F0F"/>
<path d="M165.333 197.333H154.667V208H165.333V197.333Z" fill="#0F0F0F"/>
<path d="M208 197.333H197.333V208H208V197.333Z" fill="#0F0F0F"/>
<path d="M229.333 197.333H218.667V208H229.333V197.333Z" fill="#0F0F0F"/>
<path d="M240 197.333H229.333V208H240V197.333Z" fill="#0F0F0F"/>
<path d="M26.6667 208H16V218.667H26.6667V208Z" fill="#0F0F0F"/>
<path d="M48 208H37.3333V218.667H48V208Z" fill="#0F0F0F"/>
<path d="M58.6667 208H48V218.667H58.6667V208Z" fill="#0F0F0F"/>
<path d="M69.3333 208H58.6667V218.667H69.3333V208Z" fill="#0F0F0F"/>
<path d="M90.6667 208H80V218.667H90.6667V208Z" fill="#0F0F0F"/>
<path d="M176 208H165.333V218.667H176V208Z" fill="#0F0F0F"/>
<path d="M208 208H197.333V218.667H208V208Z" fill="#0F0F0F"/>
<path d="M26.6667 218.667H16V229.333H26.6667V218.667Z" fill="#0F0F0F"/>
<path d="M90.6667 218.667H80V229.333H90.6667V218.667Z" fill="#0F0F0F"/>
<path d="M122.667 218.667H112V229.333H122.667V218.667Z" fill="#0F0F0F"/>
<path d="M165.333 218.667H154.667V229.333H165.333V218.667Z" fill="#0F0F0F"/>
<path d="M176 218.667H165.333V229.333H176V218.667Z" fill="#0F0F0F"/>
<path d="M208 218.667H197.333V229.333H208V218.667Z" fill="#0F0F0F"/>
<path d="M240 218.667H229.333V229.333H240V218.667Z" fill="#0F0F0F"/>
<path d="M26.6667 229.333H16V240H26.6667V229.333Z" fill="#0F0F0F"/>
<path d="M37.3333 229.333H26.6667V240H37.3333V229.333Z" fill="#0F0F0F"/>
<path d="M48 229.333H37.3333V240H48V229.333Z" fill="#0F0F0F"/>
<path d="M58.6667 229.333H48V240H58.6667V229.333Z" fill="#0F0F0F"/>
<path d="M69.3333 229.333H58.6667V240H69.3333V229.333Z" fill="#0F0F0F"/>
<path d="M80 229.333H69.3333V240H80V229.333Z" fill="#0F0F0F"/>
<path d="M90.6667 229.333H80V240H90.6667V229.333Z" fill="#0F0F0F"/>
<path d="M122.667 229.333H112V240H122.667V229.333Z" fill="#0F0F0F"/>
<path d="M133.333 229.333H122.667V240H133.333V229.333Z" fill="#0F0F0F"/>
<path d="M154.667 229.333H144V240H154.667V229.333Z" fill="#0F0F0F"/>
<path d="M186.667 229.333H176V240H186.667V229.333Z" fill="#0F0F0F"/>
<path d="M197.333 229.333H186.667V240H197.333V229.333Z" fill="#0F0F0F"/>
<path d="M208 229.333H197.333V240H208V229.333Z" fill="#0F0F0F"/>
<path d="M218.667 229.333H208V240H218.667V229.333Z" fill="#0F0F0F"/>
</g>
<rect x="0.5" y="0.5" width="255" height="255" rx="3.5" stroke="#0F0F0F"/>
<defs>
<clipPath id="clip0_10666_8259">
<rect width="256" height="256" rx="4" fill="white"/>
</clipPath>
</defs>
</svg>
