<svg width="517" height="336" viewBox="0 0 517 336" fill="none" xmlns="http://www.w3.org/2000/svg">
<g clip-path="url(#clip0_10581_1313)">
<rect width="517" height="336" fill="#1B1D22"/>
<g filter="url(#filter0_f_10581_1313)">
<path d="M443.043 -13.6375C485.623 -26.205 502 -61.5512 519.332 -30.6748C536.663 0.201729 452.907 82.7788 410.326 95.3463C367.746 107.914 382.467 45.7129 365.136 14.8364C347.804 -16.0402 400.463 -1.06998 443.043 -13.6375Z" fill="url(#paint0_linear_10581_1313)"/>
</g>
<path d="M213.072 39V32.75H211.142V31.55H216.342V32.75H214.442V39H213.072ZM219.172 39V31.55H220.532V34.8H223.702V31.55H225.072V39H223.702V36H220.532V39H219.172ZM228.506 39V31.55H233.456V32.75H229.866V34.66H233.256V35.86H229.866V37.8H233.456V39H228.506ZM242.891 39.12C242.417 39.12 241.977 39.0333 241.571 38.86C241.171 38.6867 240.824 38.4467 240.531 38.14C240.244 37.8267 240.034 37.4633 239.901 37.05L241.031 36.56C241.211 36.9867 241.471 37.3233 241.811 37.57C242.151 37.81 242.534 37.93 242.961 37.93C243.201 37.93 243.407 37.8933 243.581 37.82C243.761 37.74 243.897 37.6333 243.991 37.5C244.091 37.3667 244.141 37.2067 244.141 37.02C244.141 36.8 244.074 36.62 243.941 36.48C243.814 36.3333 243.621 36.22 243.361 36.14L241.931 35.68C241.351 35.5 240.914 35.23 240.621 34.87C240.327 34.51 240.181 34.0867 240.181 33.6C240.181 33.1733 240.284 32.7967 240.491 32.47C240.704 32.1433 240.997 31.89 241.371 31.71C241.751 31.5233 242.184 31.43 242.671 31.43C243.117 31.43 243.527 31.51 243.901 31.67C244.274 31.8233 244.594 32.04 244.861 32.32C245.134 32.5933 245.337 32.9167 245.471 33.29L244.351 33.79C244.204 33.4167 243.984 33.13 243.691 32.93C243.397 32.7233 243.057 32.62 242.671 32.62C242.444 32.62 242.244 32.66 242.071 32.74C241.897 32.8133 241.761 32.92 241.661 33.06C241.567 33.1933 241.521 33.3533 241.521 33.54C241.521 33.7467 241.587 33.93 241.721 34.09C241.854 34.2433 242.057 34.3633 242.331 34.45L243.701 34.88C244.294 35.0733 244.737 35.34 245.031 35.68C245.331 36.02 245.481 36.44 245.481 36.94C245.481 37.3667 245.371 37.7433 245.151 38.07C244.931 38.3967 244.627 38.6533 244.241 38.84C243.854 39.0267 243.404 39.12 242.891 39.12ZM252.205 39.12C251.672 39.12 251.179 39.0233 250.725 38.83C250.279 38.6367 249.885 38.3667 249.545 38.02C249.212 37.6733 248.952 37.2667 248.765 36.8C248.579 36.3333 248.485 35.8233 248.485 35.27C248.485 34.7167 248.575 34.2067 248.755 33.74C248.942 33.2667 249.202 32.86 249.535 32.52C249.875 32.1733 250.272 31.9067 250.725 31.72C251.179 31.5267 251.672 31.43 252.205 31.43C252.739 31.43 253.215 31.52 253.635 31.7C254.062 31.88 254.422 32.12 254.715 32.42C255.009 32.7133 255.219 33.0367 255.345 33.39L254.125 33.96C253.985 33.5867 253.749 33.28 253.415 33.04C253.082 32.7933 252.679 32.67 252.205 32.67C251.739 32.67 251.325 32.78 250.965 33C250.612 33.22 250.335 33.5233 250.135 33.91C249.942 34.2967 249.845 34.75 249.845 35.27C249.845 35.79 249.942 36.2467 250.135 36.64C250.335 37.0267 250.612 37.33 250.965 37.55C251.325 37.77 251.739 37.88 252.205 37.88C252.679 37.88 253.082 37.76 253.415 37.52C253.749 37.2733 253.985 36.9633 254.125 36.59L255.345 37.16C255.219 37.5133 255.009 37.84 254.715 38.14C254.422 38.4333 254.062 38.67 253.635 38.85C253.215 39.03 252.739 39.12 252.205 39.12ZM258.449 39V31.55H259.809V34.8H262.979V31.55H264.349V39H262.979V36H259.809V39H258.449ZM267.783 39V31.55H272.733V32.75H269.143V34.66H272.533V35.86H269.143V37.8H272.733V39H267.783ZM275.731 39V31.55H278.161C278.947 31.55 279.631 31.71 280.211 32.03C280.797 32.3433 281.251 32.78 281.571 33.34C281.891 33.8933 282.051 34.5367 282.051 35.27C282.051 35.9967 281.891 36.6433 281.571 37.21C281.251 37.77 280.797 38.21 280.211 38.53C279.631 38.8433 278.947 39 278.161 39H275.731ZM277.091 37.8H278.191C278.697 37.8 279.134 37.6967 279.501 37.49C279.874 37.2767 280.164 36.9833 280.371 36.61C280.577 36.23 280.681 35.7833 280.681 35.27C280.681 34.75 280.577 34.3033 280.371 33.93C280.164 33.5567 279.874 33.2667 279.501 33.06C279.134 32.8533 278.697 32.75 278.191 32.75H277.091V37.8ZM288.003 39.12C287.43 39.12 286.92 39 286.473 38.76C286.033 38.52 285.686 38.19 285.433 37.77C285.18 37.35 285.053 36.8733 285.053 36.34V31.55H286.413V36.27C286.413 36.5767 286.48 36.8533 286.613 37.1C286.753 37.3467 286.943 37.54 287.183 37.68C287.423 37.8133 287.696 37.88 288.003 37.88C288.316 37.88 288.59 37.8133 288.823 37.68C289.063 37.54 289.25 37.3467 289.383 37.1C289.523 36.8533 289.593 36.5767 289.593 36.27V31.55H290.953V36.34C290.953 36.8733 290.826 37.35 290.573 37.77C290.32 38.19 289.97 38.52 289.523 38.76C289.083 39 288.576 39.12 288.003 39.12ZM294.311 39V31.55H295.671V37.8H298.861V39H294.311ZM301.741 39V31.55H306.691V32.75H303.101V34.66H306.491V35.86H303.101V37.8H306.691V39H301.741Z" fill="white"/>
<g clip-path="url(#clip1_10581_1313)">
<path d="M253.776 88.5254L248.071 89.8479C239.182 93.2106 241.946 116.217 255.336 116.098C258.1 116.098 260.981 114.656 263.443 111.654L263.864 112.075C260.981 115.558 256.956 117.841 252.335 117.841C235.458 117.841 233.358 95.6177 247.892 89.3711L248.071 89.852L253.776 88.5254Z" fill="#FEFEFE"/>
<path d="M247.896 89.3675C245.013 81.6805 248.075 73.8105 258.528 73.8105C262.613 73.8105 267.719 74.5333 271.142 75.4939L268.561 80.8978C267.001 77.5941 263.277 74.4093 258.409 74.4093C248.619 74.4093 250.961 82.759 253.784 88.5248C258.949 99.2176 268.978 113.452 275.286 113.452C278.049 113.452 279.55 111.169 279.55 108.107C279.55 102.52 274.807 93.7528 264.357 91.1088H260.212V90.509H275.529V91.1088H266.64C276.128 94.5914 280.512 103.124 280.452 109.251C280.452 113.877 277.99 117.419 273.484 117.419C270.181 117.419 266.759 114.838 263.876 112.074L263.456 111.653C258.171 106.428 251.506 97.2354 248.441 90.6879L248.08 89.8463" fill="#FEFEFE"/>
<path d="M237.233 126.973H237.152L234.348 124.934H231.717V137.947L232.155 138.988H229.504L229.942 137.947V124.934H227.311L224.517 126.973H224.426L225.099 124.78H236.56L237.233 126.973ZM245.044 138.049V132.45C245.044 131.676 244.83 131.104 244.402 130.736C243.974 130.369 243.372 130.175 242.597 130.175C242.107 130.175 241.669 130.257 241.282 130.4C240.894 130.543 240.588 130.716 240.364 130.92V138.049L240.761 138.987H238.375L238.772 138.049V125.495L238.375 124.363L240.363 124.057V130.819C240.669 130.391 241.107 130.023 241.668 129.696C242.219 129.38 242.881 129.217 243.635 129.217C244.584 129.217 245.318 129.492 245.838 130.033C246.358 130.584 246.624 131.348 246.624 132.328V138.049L247.021 138.987H244.645L245.042 138.049H245.044ZM256.924 136.815C256.658 137.508 256.22 138.069 255.598 138.518C254.976 138.967 254.17 139.191 253.181 139.191C252.284 139.191 251.499 138.997 250.815 138.609C250.132 138.222 249.602 137.651 249.225 136.917C248.837 136.182 248.653 135.306 248.653 134.306C248.653 133.307 248.827 132.481 249.174 131.705C249.52 130.93 250.031 130.328 250.683 129.879C251.336 129.441 252.101 129.217 252.977 129.217C253.66 129.217 254.282 129.36 254.833 129.634C255.384 129.92 255.842 130.317 256.199 130.828C256.556 131.348 256.791 131.95 256.902 132.633H250.04C250.019 132.858 250.009 133.103 250.009 133.347C250.009 134.315 250.163 135.152 250.489 135.845C250.805 136.549 251.253 137.09 251.845 137.456C252.436 137.823 253.13 138.007 253.936 138.007C254.568 138.007 255.139 137.896 255.649 137.671C256.149 137.446 256.557 137.161 256.883 136.794L256.924 136.814V136.815ZM251.458 129.727C251.08 129.972 250.775 130.329 250.53 130.798C250.285 131.267 250.132 131.838 250.061 132.491H255.231C254.956 130.41 254.119 129.36 252.723 129.36C252.254 129.36 251.825 129.482 251.459 129.727H251.458ZM261.501 138.274C260.492 137.662 259.696 136.805 259.125 135.703C258.544 134.601 258.258 133.358 258.258 131.95C258.258 130.542 258.534 129.257 259.105 128.136C259.676 127.014 260.461 126.147 261.481 125.514C262.501 124.892 263.653 124.576 264.958 124.576C266.263 124.576 267.335 124.892 268.354 125.504C269.363 126.116 270.159 126.973 270.74 128.074C271.312 129.176 271.607 130.43 271.607 131.827C271.607 133.224 271.322 134.52 270.751 135.641C270.179 136.763 269.395 137.63 268.375 138.251C267.356 138.884 266.193 139.19 264.898 139.19C263.603 139.19 262.512 138.884 261.502 138.272L261.501 138.274ZM267.569 138.325C268.262 137.845 268.773 137.08 269.119 136.029C269.466 134.979 269.64 133.602 269.64 131.889C269.64 130.176 269.466 128.851 269.119 127.789C268.773 126.739 268.252 125.964 267.559 125.464C266.866 124.974 265.999 124.719 264.939 124.719C263.879 124.719 262.991 124.964 262.297 125.444C261.604 125.934 261.084 126.699 260.737 127.749C260.391 128.809 260.227 130.186 260.227 131.889C260.227 133.592 260.391 134.928 260.737 135.978C261.084 137.04 261.594 137.814 262.287 138.304C262.98 138.803 263.857 139.048 264.918 139.048C265.978 139.048 266.875 138.814 267.569 138.325ZM276.727 138.304C275.686 137.713 274.891 136.876 274.33 135.806C273.769 134.735 273.495 133.501 273.495 132.093C273.495 130.685 273.791 129.391 274.382 128.269C274.974 127.147 275.79 126.28 276.85 125.649C277.91 125.016 279.103 124.7 280.449 124.7C280.806 124.7 281.316 124.72 281.968 124.741C282.621 124.771 283.14 124.781 283.539 124.781H284.313L285.109 126.933H285.028L283.794 126.076C283.334 125.76 282.947 125.515 282.641 125.353C282.325 125.19 281.989 125.057 281.642 124.976C281.285 124.894 280.868 124.854 280.388 124.854C278.818 124.854 277.604 125.435 276.727 126.578C275.85 127.719 275.412 129.474 275.412 131.83C275.412 134.186 275.87 136.001 276.788 137.184C277.706 138.377 279.062 138.969 280.846 138.969C281.274 138.969 281.703 138.949 282.131 138.888C282.559 138.827 282.957 138.755 283.314 138.653V133.37L282.876 132.33H285.466L285.028 133.37V136.94L285.293 137.99C284.762 138.337 284.079 138.622 283.233 138.847C282.386 139.082 281.418 139.194 280.327 139.194C278.96 139.194 277.757 138.898 276.727 138.306V138.304ZM287.077 136.938L288.076 137.774C288.453 138.1 288.749 138.335 288.963 138.477C289.167 138.631 289.381 138.742 289.585 138.814C289.79 138.895 290.023 138.925 290.289 138.925C290.941 138.925 291.451 138.752 291.818 138.405C292.185 138.058 292.378 137.568 292.378 136.956C292.378 136.539 292.287 136.191 292.103 135.916C291.919 135.641 291.633 135.406 291.226 135.203C290.981 135.09 290.573 134.927 289.992 134.723C289.329 134.498 288.829 134.305 288.493 134.121C288.065 133.897 287.737 133.601 287.534 133.244C287.32 132.897 287.218 132.469 287.218 131.969C287.218 131.469 287.34 131.001 287.605 130.602C287.86 130.205 288.217 129.899 288.686 129.674C289.145 129.449 289.675 129.337 290.266 129.337C290.388 129.337 290.491 129.348 290.592 129.348C290.694 129.358 290.776 129.368 290.848 129.368C291.133 129.409 291.459 129.419 291.806 129.419H292.815L293.314 131.214H293.253L292.295 130.439C291.948 130.164 291.683 129.96 291.479 129.827C291.274 129.695 291.071 129.603 290.887 129.542C290.703 129.491 290.49 129.46 290.245 129.46C289.684 129.46 289.246 129.614 288.919 129.909C288.593 130.205 288.43 130.612 288.43 131.133C288.43 131.51 288.511 131.826 288.685 132.071C288.848 132.326 289.123 132.54 289.511 132.724C289.797 132.867 290.205 133.019 290.725 133.183C291.081 133.305 291.377 133.418 291.612 133.509C291.847 133.601 292.07 133.702 292.275 133.805C292.702 134.04 293.03 134.326 293.243 134.662C293.458 135.009 293.569 135.458 293.569 136.018C293.569 136.61 293.426 137.14 293.141 137.599C292.855 138.058 292.468 138.415 291.968 138.67C291.469 138.925 290.908 139.047 290.285 139.047C290.122 139.047 289.949 139.047 289.765 139.037C289.581 139.027 289.439 139.017 289.347 139.017C289.062 138.997 288.756 138.986 288.43 138.986H287.613L287.002 136.936H287.073L287.077 136.938Z" fill="#FEFEFE"/>
</g>
<path d="M167.744 190.192C166.987 190.192 166.299 190.048 165.68 189.76C165.061 189.472 164.539 189.088 164.112 188.608C163.685 188.117 163.381 187.579 163.2 186.992L164.352 186.56C164.629 187.371 165.061 187.989 165.648 188.416C166.235 188.832 166.933 189.04 167.744 189.04C168.256 189.04 168.704 188.96 169.088 188.8C169.483 188.629 169.787 188.395 170 188.096C170.213 187.797 170.32 187.451 170.32 187.056C170.32 186.469 170.16 186.016 169.84 185.696C169.52 185.376 169.061 185.131 168.464 184.96L166.32 184.32C165.477 184.075 164.827 183.664 164.368 183.088C163.92 182.512 163.696 181.856 163.696 181.12C163.696 180.491 163.851 179.936 164.16 179.456C164.469 178.965 164.891 178.581 165.424 178.304C165.968 178.027 166.581 177.888 167.264 177.888C167.979 177.888 168.619 178.021 169.184 178.288C169.76 178.544 170.245 178.885 170.64 179.312C171.035 179.739 171.317 180.213 171.488 180.736L170.368 181.184C170.112 180.48 169.712 179.947 169.168 179.584C168.635 179.221 168.005 179.04 167.28 179.04C166.821 179.04 166.416 179.12 166.064 179.28C165.723 179.44 165.456 179.669 165.264 179.968C165.072 180.267 164.976 180.619 164.976 181.024C164.976 181.515 165.131 181.957 165.44 182.352C165.749 182.736 166.224 183.024 166.864 183.216L168.752 183.776C169.691 184.053 170.4 184.453 170.88 184.976C171.36 185.499 171.6 186.155 171.6 186.944C171.6 187.584 171.435 188.149 171.104 188.64C170.784 189.12 170.331 189.499 169.744 189.776C169.168 190.053 168.501 190.192 167.744 190.192ZM175.759 190.192C175.215 190.192 174.73 190.091 174.303 189.888C173.876 189.675 173.54 189.387 173.295 189.024C173.05 188.661 172.927 188.245 172.927 187.776C172.927 187.328 173.023 186.923 173.215 186.56C173.407 186.187 173.706 185.872 174.111 185.616C174.516 185.36 175.034 185.179 175.663 185.072L179.023 184.512V185.6L175.951 186.112C175.332 186.219 174.884 186.416 174.607 186.704C174.34 186.992 174.207 187.333 174.207 187.728C174.207 188.112 174.356 188.437 174.655 188.704C174.964 188.971 175.359 189.104 175.839 189.104C176.426 189.104 176.938 188.981 177.375 188.736C177.812 188.48 178.154 188.139 178.399 187.712C178.644 187.285 178.767 186.811 178.767 186.288V184.112C178.767 183.6 178.58 183.184 178.207 182.864C177.834 182.544 177.348 182.384 176.751 182.384C176.228 182.384 175.77 182.517 175.375 182.784C174.98 183.04 174.687 183.376 174.495 183.792L173.407 183.2C173.567 182.837 173.818 182.507 174.159 182.208C174.511 181.909 174.911 181.675 175.359 181.504C175.807 181.323 176.271 181.232 176.751 181.232C177.38 181.232 177.935 181.355 178.415 181.6C178.906 181.845 179.284 182.187 179.551 182.624C179.828 183.051 179.967 183.547 179.967 184.112V190H178.767V188.288L178.943 188.464C178.794 188.784 178.559 189.077 178.239 189.344C177.93 189.6 177.562 189.808 177.135 189.968C176.719 190.117 176.26 190.192 175.759 190.192ZM185.255 190.096C184.487 190.096 183.895 189.872 183.479 189.424C183.063 188.976 182.855 188.336 182.855 187.504V182.624H181.271V181.424H181.671C182.034 181.424 182.322 181.307 182.535 181.072C182.748 180.827 182.855 180.523 182.855 180.16V179.44H184.055V181.424H185.943V182.624H184.055V187.504C184.055 187.792 184.098 188.048 184.183 188.272C184.268 188.485 184.412 188.656 184.615 188.784C184.828 188.912 185.111 188.976 185.463 188.976C185.548 188.976 185.65 188.971 185.767 188.96C185.884 188.949 185.986 188.939 186.071 188.928V190C185.943 190.032 185.799 190.053 185.639 190.064C185.479 190.085 185.351 190.096 185.255 190.096ZM190.914 190.192C190.317 190.192 189.773 190.053 189.282 189.776C188.792 189.488 188.402 189.093 188.114 188.592C187.837 188.08 187.698 187.493 187.698 186.832V181.424H188.898V186.688C188.898 187.147 188.989 187.552 189.17 187.904C189.362 188.245 189.624 188.512 189.954 188.704C190.296 188.896 190.685 188.992 191.122 188.992C191.56 188.992 191.949 188.896 192.29 188.704C192.632 188.501 192.898 188.219 193.09 187.856C193.282 187.483 193.378 187.04 193.378 186.528V181.424H194.578V190H193.378V188.336L193.65 188.4C193.448 188.955 193.101 189.392 192.61 189.712C192.12 190.032 191.554 190.192 190.914 190.192ZM196.742 190V181.424H197.942V182.832L197.782 182.624C197.985 182.219 198.289 181.899 198.694 181.664C199.11 181.429 199.611 181.312 200.198 181.312H200.742V182.512H199.99C199.371 182.512 198.875 182.704 198.502 183.088C198.129 183.472 197.942 184.016 197.942 184.72V190H196.742ZM205.716 190.192C204.916 190.192 204.196 190 203.556 189.616C202.916 189.221 202.41 188.688 202.036 188.016C201.674 187.333 201.492 186.565 201.492 185.712C201.492 184.848 201.674 184.08 202.036 183.408C202.41 182.736 202.911 182.208 203.54 181.824C204.18 181.429 204.906 181.232 205.716 181.232C206.452 181.232 207.108 181.392 207.684 181.712C208.26 182.032 208.714 182.464 209.044 183.008L208.852 183.344V177.888H210.052V190H208.852V188.08L209.044 188.256C208.746 188.875 208.298 189.355 207.7 189.696C207.114 190.027 206.452 190.192 205.716 190.192ZM205.78 188.992C206.356 188.992 206.874 188.848 207.332 188.56C207.802 188.272 208.17 187.883 208.436 187.392C208.714 186.891 208.852 186.331 208.852 185.712C208.852 185.093 208.714 184.539 208.436 184.048C208.17 183.547 207.802 183.152 207.332 182.864C206.874 182.576 206.356 182.432 205.78 182.432C205.215 182.432 204.703 182.576 204.244 182.864C203.786 183.152 203.423 183.541 203.156 184.032C202.9 184.523 202.772 185.083 202.772 185.712C202.772 186.331 202.9 186.891 203.156 187.392C203.423 187.883 203.78 188.272 204.228 188.56C204.687 188.848 205.204 188.992 205.78 188.992ZM214.692 190.192C214.148 190.192 213.663 190.091 213.236 189.888C212.81 189.675 212.474 189.387 212.228 189.024C211.983 188.661 211.86 188.245 211.86 187.776C211.86 187.328 211.956 186.923 212.148 186.56C212.34 186.187 212.639 185.872 213.044 185.616C213.45 185.36 213.967 185.179 214.596 185.072L217.956 184.512V185.6L214.884 186.112C214.266 186.219 213.818 186.416 213.54 186.704C213.274 186.992 213.14 187.333 213.14 187.728C213.14 188.112 213.29 188.437 213.588 188.704C213.898 188.971 214.292 189.104 214.772 189.104C215.359 189.104 215.871 188.981 216.308 188.736C216.746 188.48 217.087 188.139 217.332 187.712C217.578 187.285 217.7 186.811 217.7 186.288V184.112C217.7 183.6 217.514 183.184 217.14 182.864C216.767 182.544 216.282 182.384 215.684 182.384C215.162 182.384 214.703 182.517 214.308 182.784C213.914 183.04 213.62 183.376 213.428 183.792L212.34 183.2C212.5 182.837 212.751 182.507 213.092 182.208C213.444 181.909 213.844 181.675 214.292 181.504C214.74 181.323 215.204 181.232 215.684 181.232C216.314 181.232 216.868 181.355 217.348 181.6C217.839 181.845 218.218 182.187 218.484 182.624C218.762 183.051 218.9 183.547 218.9 184.112V190H217.7V188.288L217.876 188.464C217.727 188.784 217.492 189.077 217.172 189.344C216.863 189.6 216.495 189.808 216.068 189.968C215.652 190.117 215.194 190.192 214.692 190.192ZM221.241 193.52C221.07 193.52 220.894 193.504 220.713 193.472C220.542 193.451 220.371 193.408 220.201 193.344V192.224C220.307 192.235 220.441 192.251 220.601 192.272C220.771 192.304 220.942 192.32 221.113 192.32C221.635 192.32 222.035 192.208 222.313 191.984C222.59 191.771 222.862 191.355 223.129 190.736L223.673 189.456L223.641 190.512L220.009 181.424H221.305L224.281 188.928H223.945L226.905 181.424H228.233L224.313 191.088C224.142 191.504 223.923 191.899 223.657 192.272C223.401 192.645 223.075 192.944 222.681 193.168C222.286 193.403 221.806 193.52 221.241 193.52ZM228.746 192.08V191.52C229.066 191.435 229.301 191.269 229.45 191.024C229.599 190.779 229.674 190.437 229.674 190H229.066V188.24H230.346V189.584C230.346 190.277 230.213 190.832 229.946 191.248C229.679 191.675 229.279 191.952 228.746 192.08ZM240.913 190.192C240.081 190.192 239.303 190.043 238.577 189.744C237.863 189.435 237.233 189.008 236.689 188.464C236.145 187.909 235.719 187.259 235.409 186.512C235.1 185.755 234.945 184.928 234.945 184.032C234.945 183.136 235.1 182.315 235.409 181.568C235.719 180.811 236.145 180.16 236.689 179.616C237.233 179.061 237.863 178.635 238.577 178.336C239.303 178.037 240.081 177.888 240.913 177.888C241.745 177.888 242.519 178.043 243.233 178.352C243.959 178.651 244.593 179.077 245.137 179.632C245.681 180.176 246.108 180.821 246.417 181.568C246.727 182.315 246.881 183.136 246.881 184.032C246.881 184.928 246.727 185.755 246.417 186.512C246.108 187.259 245.681 187.909 245.137 188.464C244.593 189.008 243.959 189.435 243.233 189.744C242.519 190.043 241.745 190.192 240.913 190.192ZM240.913 188.992C241.607 188.992 242.236 188.864 242.801 188.608C243.377 188.352 243.873 187.995 244.289 187.536C244.705 187.077 245.025 186.549 245.249 185.952C245.484 185.355 245.601 184.715 245.601 184.032C245.601 183.36 245.484 182.725 245.249 182.128C245.025 181.531 244.705 181.003 244.289 180.544C243.873 180.085 243.377 179.728 242.801 179.472C242.236 179.216 241.607 179.088 240.913 179.088C240.22 179.088 239.585 179.216 239.009 179.472C238.444 179.728 237.953 180.085 237.537 180.544C237.121 181.003 236.796 181.531 236.561 182.128C236.337 182.725 236.225 183.36 236.225 184.032C236.225 184.715 236.337 185.355 236.561 185.952C236.796 186.549 237.121 187.077 237.537 187.536C237.953 187.995 238.449 188.352 239.025 188.608C239.601 188.864 240.231 188.992 240.913 188.992ZM252.784 190.192C251.941 190.192 251.2 189.995 250.56 189.6C249.92 189.205 249.419 188.672 249.056 188C248.693 187.317 248.512 186.549 248.512 185.696C248.512 184.843 248.693 184.08 249.056 183.408C249.419 182.736 249.92 182.208 250.56 181.824C251.2 181.429 251.941 181.232 252.784 181.232C253.317 181.232 253.819 181.328 254.288 181.52C254.757 181.712 255.173 181.973 255.536 182.304C255.899 182.624 256.171 182.997 256.352 183.424L255.264 183.984C255.051 183.525 254.725 183.152 254.288 182.864C253.851 182.576 253.349 182.432 252.784 182.432C252.219 182.432 251.707 182.576 251.248 182.864C250.8 183.141 250.443 183.531 250.176 184.032C249.92 184.523 249.792 185.083 249.792 185.712C249.792 186.331 249.92 186.891 250.176 187.392C250.443 187.883 250.8 188.272 251.248 188.56C251.707 188.848 252.219 188.992 252.784 188.992C253.349 188.992 253.845 188.848 254.272 188.56C254.709 188.272 255.04 187.888 255.264 187.408L256.352 188C256.171 188.416 255.899 188.789 255.536 189.12C255.173 189.451 254.757 189.712 254.288 189.904C253.819 190.096 253.317 190.192 252.784 190.192ZM261.434 190.096C260.666 190.096 260.074 189.872 259.658 189.424C259.242 188.976 259.034 188.336 259.034 187.504V182.624H257.45V181.424H257.85C258.213 181.424 258.501 181.307 258.714 181.072C258.927 180.827 259.034 180.523 259.034 180.16V179.44H260.234V181.424H262.122V182.624H260.234V187.504C260.234 187.792 260.277 188.048 260.362 188.272C260.447 188.485 260.591 188.656 260.794 188.784C261.007 188.912 261.29 188.976 261.642 188.976C261.727 188.976 261.829 188.971 261.946 188.96C262.063 188.949 262.165 188.939 262.25 188.928V190C262.122 190.032 261.978 190.053 261.818 190.064C261.658 190.085 261.53 190.096 261.434 190.096ZM267.756 190.192C266.946 190.192 266.21 190 265.548 189.616C264.887 189.221 264.359 188.688 263.964 188.016C263.58 187.333 263.388 186.56 263.388 185.696C263.388 184.843 263.58 184.08 263.964 183.408C264.348 182.736 264.866 182.208 265.516 181.824C266.178 181.429 266.924 181.232 267.756 181.232C268.588 181.232 269.33 181.424 269.98 181.808C270.642 182.192 271.159 182.72 271.532 183.392C271.916 184.064 272.108 184.832 272.108 185.696C272.108 186.571 271.911 187.349 271.516 188.032C271.122 188.704 270.594 189.232 269.932 189.616C269.282 190 268.556 190.192 267.756 190.192ZM267.756 188.992C268.332 188.992 268.85 188.848 269.308 188.56C269.778 188.272 270.146 187.877 270.412 187.376C270.69 186.875 270.828 186.315 270.828 185.696C270.828 185.077 270.69 184.523 270.412 184.032C270.146 183.541 269.778 183.152 269.308 182.864C268.85 182.576 268.332 182.432 267.756 182.432C267.18 182.432 266.658 182.576 266.188 182.864C265.73 183.152 265.362 183.541 265.084 184.032C264.807 184.523 264.668 185.077 264.668 185.696C264.668 186.315 264.807 186.875 265.084 187.376C265.362 187.877 265.73 188.272 266.188 188.56C266.658 188.848 267.18 188.992 267.756 188.992ZM278.257 190.192C277.521 190.192 276.854 190.027 276.257 189.696C275.67 189.355 275.228 188.875 274.929 188.256L275.121 188.08V190H273.921V177.888H275.121V183.344L274.929 183.008C275.27 182.464 275.724 182.032 276.289 181.712C276.865 181.392 277.521 181.232 278.257 181.232C279.068 181.232 279.788 181.429 280.417 181.824C281.057 182.208 281.558 182.736 281.921 183.408C282.294 184.08 282.481 184.848 282.481 185.712C282.481 186.565 282.294 187.333 281.921 188.016C281.558 188.688 281.057 189.221 280.417 189.616C279.788 190 279.068 190.192 278.257 190.192ZM278.193 188.992C278.769 188.992 279.281 188.848 279.729 188.56C280.188 188.272 280.545 187.883 280.801 187.392C281.068 186.891 281.201 186.331 281.201 185.712C281.201 185.083 281.068 184.523 280.801 184.032C280.545 183.541 280.188 183.152 279.729 182.864C279.281 182.576 278.769 182.432 278.193 182.432C277.617 182.432 277.094 182.576 276.625 182.864C276.166 183.152 275.798 183.547 275.521 184.048C275.254 184.539 275.121 185.093 275.121 185.712C275.121 186.331 275.254 186.891 275.521 187.392C275.798 187.883 276.166 188.272 276.625 188.56C277.094 188.848 277.617 188.992 278.193 188.992ZM288.193 190.192C287.393 190.192 286.667 190 286.017 189.616C285.377 189.221 284.87 188.683 284.497 188C284.123 187.317 283.937 186.544 283.937 185.68C283.937 184.816 284.118 184.053 284.481 183.392C284.843 182.72 285.334 182.192 285.953 181.808C286.582 181.424 287.286 181.232 288.065 181.232C288.683 181.232 289.233 181.349 289.713 181.584C290.203 181.808 290.619 182.117 290.961 182.512C291.302 182.896 291.563 183.333 291.745 183.824C291.926 184.304 292.017 184.8 292.017 185.312C292.017 185.419 292.011 185.541 292.001 185.68C291.99 185.808 291.974 185.941 291.953 186.08H284.705V184.96H291.265L290.689 185.44C290.785 184.853 290.715 184.331 290.481 183.872C290.257 183.403 289.931 183.035 289.505 182.768C289.078 182.491 288.598 182.352 288.065 182.352C287.531 182.352 287.035 182.491 286.577 182.768C286.129 183.045 285.777 183.435 285.521 183.936C285.265 184.427 285.163 185.013 285.217 185.696C285.163 186.379 285.27 186.976 285.537 187.488C285.814 187.989 286.187 188.379 286.657 188.656C287.137 188.933 287.649 189.072 288.193 189.072C288.822 189.072 289.35 188.923 289.777 188.624C290.203 188.325 290.55 187.952 290.817 187.504L291.841 188.048C291.67 188.432 291.409 188.789 291.057 189.12C290.705 189.44 290.283 189.701 289.793 189.904C289.313 190.096 288.779 190.192 288.193 190.192ZM293.828 190V181.424H295.028V182.832L294.868 182.624C295.071 182.219 295.375 181.899 295.78 181.664C296.196 181.429 296.698 181.312 297.284 181.312H297.828V182.512H297.076C296.458 182.512 295.962 182.704 295.588 183.088C295.215 183.472 295.028 184.016 295.028 184.72V190H293.828ZM304.945 190.192C304.327 190.192 303.751 190.085 303.217 189.872C302.695 189.659 302.236 189.355 301.841 188.96C301.447 188.565 301.148 188.096 300.945 187.552L301.921 187.072C302.167 187.691 302.567 188.181 303.121 188.544C303.687 188.896 304.295 189.072 304.945 189.072C305.468 189.072 305.932 188.949 306.337 188.704C306.753 188.459 307.079 188.128 307.313 187.712C307.548 187.285 307.665 186.811 307.665 186.288C307.665 185.744 307.543 185.264 307.297 184.848C307.063 184.432 306.743 184.107 306.337 183.872C305.932 183.627 305.473 183.504 304.961 183.504C304.439 183.504 303.953 183.627 303.505 183.872C303.068 184.107 302.748 184.395 302.545 184.736L301.537 184.544L302.433 178.08H308.465V179.2H302.897L303.393 178.768L302.673 183.856L302.177 183.632C302.551 183.173 302.988 182.848 303.489 182.656C303.991 182.453 304.503 182.352 305.025 182.352C305.793 182.352 306.471 182.533 307.057 182.896C307.644 183.248 308.103 183.723 308.433 184.32C308.775 184.907 308.945 185.563 308.945 186.288C308.945 187.024 308.769 187.691 308.417 188.288C308.076 188.875 307.601 189.339 306.993 189.68C306.396 190.021 305.713 190.192 304.945 190.192ZM310.949 192.08V191.52C311.269 191.435 311.504 191.269 311.653 191.024C311.802 190.779 311.877 190.437 311.877 190H311.269V188.24H312.549V189.584C312.549 190.277 312.416 190.832 312.149 191.248C311.882 191.675 311.482 191.952 310.949 192.08ZM317.02 190V189.2L320.348 185.536C320.999 184.821 321.527 184.229 321.932 183.76C322.348 183.291 322.657 182.864 322.86 182.48C323.063 182.096 323.164 181.68 323.164 181.232C323.164 180.517 322.956 179.968 322.54 179.584C322.124 179.2 321.569 179.008 320.876 179.008C320.161 179.008 319.559 179.211 319.068 179.616C318.588 180.021 318.263 180.587 318.092 181.312L316.924 181.056C317.063 180.405 317.313 179.845 317.676 179.376C318.039 178.907 318.492 178.544 319.036 178.288C319.58 178.021 320.188 177.888 320.86 177.888C321.575 177.888 322.199 178.032 322.732 178.32C323.265 178.608 323.681 179.003 323.98 179.504C324.289 180.005 324.444 180.581 324.444 181.232C324.444 181.68 324.348 182.112 324.156 182.528C323.975 182.944 323.697 183.392 323.324 183.872C322.951 184.352 322.471 184.912 321.884 185.552L318.86 188.88H324.764V190H317.02ZM331.254 190.192C330.315 190.192 329.489 189.936 328.774 189.424C328.07 188.901 327.521 188.181 327.126 187.264C326.731 186.336 326.534 185.259 326.534 184.032C326.534 182.805 326.731 181.733 327.126 180.816C327.521 179.888 328.07 179.168 328.774 178.656C329.478 178.144 330.299 177.888 331.238 177.888C332.177 177.888 332.998 178.144 333.702 178.656C334.406 179.168 334.955 179.888 335.35 180.816C335.745 181.733 335.942 182.805 335.942 184.032C335.942 185.259 335.745 186.336 335.35 187.264C334.966 188.192 334.422 188.912 333.718 189.424C333.014 189.936 332.193 190.192 331.254 190.192ZM331.254 188.992C331.937 188.992 332.534 188.784 333.046 188.368C333.558 187.952 333.958 187.376 334.246 186.64C334.534 185.893 334.678 185.024 334.678 184.032C334.678 183.04 334.534 182.176 334.246 181.44C333.958 180.693 333.558 180.117 333.046 179.712C332.534 179.296 331.931 179.088 331.238 179.088C330.555 179.088 329.958 179.296 329.446 179.712C328.934 180.117 328.534 180.693 328.246 181.44C327.958 182.176 327.814 183.04 327.814 184.032C327.814 185.013 327.958 185.877 328.246 186.624C328.534 187.371 328.934 187.952 329.446 188.368C329.969 188.784 330.571 188.992 331.254 188.992ZM337.725 190V189.2L341.053 185.536C341.703 184.821 342.231 184.229 342.637 183.76C343.053 183.291 343.362 182.864 343.565 182.48C343.767 182.096 343.869 181.68 343.869 181.232C343.869 180.517 343.661 179.968 343.245 179.584C342.829 179.2 342.274 179.008 341.581 179.008C340.866 179.008 340.263 179.211 339.773 179.616C339.293 180.021 338.967 180.587 338.797 181.312L337.629 181.056C337.767 180.405 338.018 179.845 338.381 179.376C338.743 178.907 339.197 178.544 339.741 178.288C340.285 178.021 340.893 177.888 341.565 177.888C342.279 177.888 342.903 178.032 343.437 178.32C343.97 178.608 344.386 179.003 344.685 179.504C344.994 180.005 345.149 180.581 345.149 181.232C345.149 181.68 345.053 182.112 344.861 182.528C344.679 182.944 344.402 183.392 344.029 183.872C343.655 184.352 343.175 184.912 342.589 185.552L339.565 188.88H345.469V190H337.725ZM347.014 190V189.2L350.342 185.536C350.993 184.821 351.521 184.229 351.926 183.76C352.342 183.291 352.652 182.864 352.854 182.48C353.057 182.096 353.158 181.68 353.158 181.232C353.158 180.517 352.95 179.968 352.534 179.584C352.118 179.2 351.564 179.008 350.87 179.008C350.156 179.008 349.553 179.211 349.062 179.616C348.582 180.021 348.257 180.587 348.086 181.312L346.918 181.056C347.057 180.405 347.308 179.845 347.67 179.376C348.033 178.907 348.486 178.544 349.03 178.288C349.574 178.021 350.182 177.888 350.854 177.888C351.569 177.888 352.193 178.032 352.726 178.32C353.26 178.608 353.676 179.003 353.974 179.504C354.284 180.005 354.438 180.581 354.438 181.232C354.438 181.68 354.342 182.112 354.15 182.528C353.969 182.944 353.692 183.392 353.318 183.872C352.945 184.352 352.465 184.912 351.878 185.552L348.854 188.88H354.758V190H347.014ZM189.489 214L194.865 203.2H188.913V202.08H196.193V203.2L190.833 214H189.489ZM198.256 214V212.24H199.536V214H198.256ZM198.256 207.184V205.424H199.536V207.184H198.256ZM205.586 214.192C204.968 214.192 204.397 214.085 203.874 213.872C203.352 213.659 202.893 213.355 202.498 212.96C202.114 212.565 201.821 212.096 201.618 211.552L202.642 211.072C202.888 211.691 203.272 212.181 203.794 212.544C204.317 212.896 204.914 213.072 205.586 213.072C206.12 213.072 206.594 212.971 207.01 212.768C207.426 212.555 207.752 212.251 207.986 211.856C208.221 211.461 208.338 210.981 208.338 210.416C208.338 209.851 208.216 209.371 207.97 208.976C207.736 208.581 207.41 208.283 206.994 208.08C206.578 207.877 206.104 207.776 205.57 207.776C205.432 207.776 205.277 207.781 205.106 207.792C204.946 207.803 204.813 207.819 204.706 207.84L204.45 207.28L207.666 203.2H202.178V202.08H209.106V203.2L206.098 206.992L205.938 206.784C206.653 206.805 207.288 206.976 207.842 207.296C208.397 207.605 208.829 208.027 209.138 208.56C209.458 209.093 209.618 209.712 209.618 210.416C209.618 211.12 209.448 211.76 209.106 212.336C208.765 212.901 208.29 213.355 207.682 213.696C207.074 214.027 206.376 214.192 205.586 214.192ZM216.2 214.192C215.262 214.192 214.435 213.936 213.72 213.424C213.016 212.901 212.467 212.181 212.072 211.264C211.678 210.336 211.48 209.259 211.48 208.032C211.48 206.805 211.678 205.733 212.072 204.816C212.467 203.888 213.016 203.168 213.72 202.656C214.424 202.144 215.246 201.888 216.184 201.888C217.123 201.888 217.944 202.144 218.648 202.656C219.352 203.168 219.902 203.888 220.296 204.816C220.691 205.733 220.888 206.805 220.888 208.032C220.888 209.259 220.691 210.336 220.296 211.264C219.912 212.192 219.368 212.912 218.664 213.424C217.96 213.936 217.139 214.192 216.2 214.192ZM216.2 212.992C216.883 212.992 217.48 212.784 217.992 212.368C218.504 211.952 218.904 211.376 219.192 210.64C219.48 209.893 219.624 209.024 219.624 208.032C219.624 207.04 219.48 206.176 219.192 205.44C218.904 204.693 218.504 204.117 217.992 203.712C217.48 203.296 216.878 203.088 216.184 203.088C215.502 203.088 214.904 203.296 214.392 203.712C213.88 204.117 213.48 204.693 213.192 205.44C212.904 206.176 212.76 207.04 212.76 208.032C212.76 209.013 212.904 209.877 213.192 210.624C213.48 211.371 213.88 211.952 214.392 212.368C214.915 212.784 215.518 212.992 216.2 212.992ZM224.334 214L228.686 202.08H230.062L234.414 214H233.07L232.046 211.088H226.718L225.678 214H224.334ZM227.134 209.888H231.598L229.182 203.04H229.566L227.134 209.888ZM235.699 214V202.08H236.819L241.299 208.576H240.675L245.139 202.08H246.259V214H244.979V203.808L245.395 203.968L241.011 210.32H240.947L236.579 203.968L236.979 203.808V214H235.699ZM250.961 210.272V209.152H256.561V210.272H250.961ZM262.752 214V203.2H260.512V202.08H264.032V214H262.752ZM271.362 214.192C270.423 214.192 269.597 213.936 268.882 213.424C268.178 212.901 267.629 212.181 267.234 211.264C266.839 210.336 266.642 209.259 266.642 208.032C266.642 206.805 266.839 205.733 267.234 204.816C267.629 203.888 268.178 203.168 268.882 202.656C269.586 202.144 270.407 201.888 271.346 201.888C272.285 201.888 273.106 202.144 273.81 202.656C274.514 203.168 275.063 203.888 275.458 204.816C275.853 205.733 276.05 206.805 276.05 208.032C276.05 209.259 275.853 210.336 275.458 211.264C275.074 212.192 274.53 212.912 273.826 213.424C273.122 213.936 272.301 214.192 271.362 214.192ZM271.362 212.992C272.045 212.992 272.642 212.784 273.154 212.368C273.666 211.952 274.066 211.376 274.354 210.64C274.642 209.893 274.786 209.024 274.786 208.032C274.786 207.04 274.642 206.176 274.354 205.44C274.066 204.693 273.666 204.117 273.154 203.712C272.642 203.296 272.039 203.088 271.346 203.088C270.663 203.088 270.066 203.296 269.554 203.712C269.042 204.117 268.642 204.693 268.354 205.44C268.066 206.176 267.922 207.04 267.922 208.032C267.922 209.013 268.066 209.877 268.354 210.624C268.642 211.371 269.042 211.952 269.554 212.368C270.077 212.784 270.679 212.992 271.362 212.992ZM278.553 214V212.24H279.833V214H278.553ZM278.553 207.184V205.424H279.833V207.184H278.553ZM287.051 214.192C286.112 214.192 285.286 213.936 284.571 213.424C283.867 212.901 283.318 212.181 282.923 211.264C282.528 210.336 282.331 209.259 282.331 208.032C282.331 206.805 282.528 205.733 282.923 204.816C283.318 203.888 283.867 203.168 284.571 202.656C285.275 202.144 286.096 201.888 287.035 201.888C287.974 201.888 288.795 202.144 289.499 202.656C290.203 203.168 290.752 203.888 291.147 204.816C291.542 205.733 291.739 206.805 291.739 208.032C291.739 209.259 291.542 210.336 291.147 211.264C290.763 212.192 290.219 212.912 289.515 213.424C288.811 213.936 287.99 214.192 287.051 214.192ZM287.051 212.992C287.734 212.992 288.331 212.784 288.843 212.368C289.355 211.952 289.755 211.376 290.043 210.64C290.331 209.893 290.475 209.024 290.475 208.032C290.475 207.04 290.331 206.176 290.043 205.44C289.755 204.693 289.355 204.117 288.843 203.712C288.331 203.296 287.728 203.088 287.035 203.088C286.352 203.088 285.755 203.296 285.243 203.712C284.731 204.117 284.331 204.693 284.043 205.44C283.755 206.176 283.611 207.04 283.611 208.032C283.611 209.013 283.755 209.877 284.043 210.624C284.331 211.371 284.731 211.952 285.243 212.368C285.766 212.784 286.368 212.992 287.051 212.992ZM298.466 214.192C297.527 214.192 296.7 213.936 295.986 213.424C295.282 212.901 294.732 212.181 294.338 211.264C293.943 210.336 293.746 209.259 293.746 208.032C293.746 206.805 293.943 205.733 294.338 204.816C294.732 203.888 295.282 203.168 295.986 202.656C296.69 202.144 297.511 201.888 298.45 201.888C299.388 201.888 300.21 202.144 300.914 202.656C301.618 203.168 302.167 203.888 302.562 204.816C302.956 205.733 303.154 206.805 303.154 208.032C303.154 209.259 302.956 210.336 302.562 211.264C302.178 212.192 301.634 212.912 300.93 213.424C300.226 213.936 299.404 214.192 298.466 214.192ZM298.466 212.992C299.148 212.992 299.746 212.784 300.258 212.368C300.77 211.952 301.17 211.376 301.458 210.64C301.746 209.893 301.89 209.024 301.89 208.032C301.89 207.04 301.746 206.176 301.458 205.44C301.17 204.693 300.77 204.117 300.258 203.712C299.746 203.296 299.143 203.088 298.45 203.088C297.767 203.088 297.17 203.296 296.658 203.712C296.146 204.117 295.746 204.693 295.458 205.44C295.17 206.176 295.026 207.04 295.026 208.032C295.026 209.013 295.17 209.877 295.458 210.624C295.746 211.371 296.146 211.952 296.658 212.368C297.18 212.784 297.783 212.992 298.466 212.992ZM307.831 214V202.08H311.927C312.706 202.08 313.388 202.235 313.975 202.544C314.562 202.843 315.015 203.269 315.335 203.824C315.666 204.368 315.831 205.003 315.831 205.728C315.831 206.453 315.666 207.088 315.335 207.632C315.015 208.176 314.562 208.603 313.975 208.912C313.399 209.211 312.716 209.36 311.927 209.36H309.111V214H307.831ZM309.111 208.16H311.991C312.503 208.16 312.951 208.064 313.335 207.872C313.719 207.669 314.018 207.387 314.231 207.024C314.444 206.651 314.551 206.213 314.551 205.712C314.551 205.211 314.444 204.779 314.231 204.416C314.018 204.053 313.719 203.776 313.335 203.584C312.951 203.381 312.503 203.28 311.991 203.28H309.111V208.16ZM317.808 214V202.08H318.928L323.408 208.576H322.784L327.248 202.08H328.368V214H327.088V203.808L327.504 203.968L323.12 210.32H323.056L318.688 203.968L319.088 203.808V214H317.808Z" fill="white"/>
<g filter="url(#filter1_b_10581_1313)">
<rect x="18" y="240" width="449" height="34" rx="4" fill="#A4DDA3" fill-opacity="0.35"/>
<path d="M44.528 262.154C43.87 262.154 43.716 261.986 43.59 261.65L41.63 256.148L39.698 261.65C39.572 261.986 39.39 262.154 38.732 262.154C38.074 262.154 37.934 261.986 37.808 261.65L34.924 253.6C34.588 252.676 33.86 252.886 33.86 252.34C33.86 252.158 34.028 252.032 34.238 252.032C34.546 252.032 34.966 252.074 35.624 252.074C36.268 252.074 36.828 252.032 37.206 252.032C37.514 252.032 37.696 252.144 37.696 252.382C37.696 252.872 36.884 252.746 36.884 253.306C36.884 253.474 36.94 253.726 37.066 254.09L39.166 260.138L41.07 254.594L40.72 253.6C40.398 252.676 39.684 252.886 39.684 252.34C39.684 252.158 39.852 252.032 40.062 252.032C40.37 252.032 40.748 252.074 41.42 252.074C42.064 252.074 42.638 252.032 43.03 252.032C43.338 252.032 43.492 252.144 43.492 252.382C43.492 252.872 42.666 252.746 42.666 253.306C42.666 253.474 42.722 253.74 42.848 254.09L44.934 260.11L46.894 254.146C47.048 253.67 47.104 253.46 47.104 253.306C47.104 252.746 46.194 252.872 46.194 252.382C46.194 252.144 46.362 252.032 46.684 252.032C47.062 252.032 47.51 252.074 47.916 252.074C48.322 252.074 48.672 252.032 48.952 252.032C49.176 252.032 49.316 252.158 49.316 252.34C49.316 252.9 48.56 252.648 48.252 253.572L45.466 261.65C45.354 261.986 45.158 262.154 44.528 262.154ZM52.4562 262.196C50.4262 262.196 48.8302 260.81 48.8302 258.57C48.8302 256.358 50.5382 254.874 52.4982 254.874C54.3462 254.874 55.5362 256.232 55.5362 257.576C55.5362 257.912 55.4242 257.996 55.1862 258.066L50.8462 259.382C51.2662 260.334 52.1062 261.02 53.1842 261.02C53.9542 261.02 54.5702 260.698 55.0882 260.25C55.2842 260.096 55.3822 260.026 55.4942 260.026C55.6902 260.026 55.8162 260.208 55.8162 260.362C55.8162 260.474 55.7742 260.572 55.6762 260.726C55.1862 261.44 53.9262 262.196 52.4562 262.196ZM50.5522 257.94C50.5522 258.15 50.5662 258.36 50.6082 258.556L53.4362 257.674C53.6602 257.604 53.7582 257.52 53.7582 257.254C53.7582 256.624 53.1422 255.826 52.2602 255.826C51.2802 255.826 50.5522 256.652 50.5522 257.94ZM59.7194 262.196C57.9974 262.196 56.5414 260.88 56.5414 258.64C56.5414 256.428 58.1094 254.874 60.1534 254.874C61.0634 254.874 61.7634 255.168 62.2674 255.63V253.67C62.2674 252.788 61.1614 253.25 61.1614 252.634C61.1614 252.368 61.4694 252.2 62.4074 251.808C63.2054 251.458 63.4574 251.416 63.5834 251.416C63.8774 251.416 63.9474 251.682 63.9474 251.99V259.914C63.9474 260.782 64.9414 260.502 64.9414 261.048C64.9414 261.342 64.6474 261.496 63.7234 261.818C62.9394 262.084 62.7434 262.14 62.6314 262.14C62.2814 262.14 62.2674 261.776 62.2674 261.538V260.838C61.7494 261.608 60.8954 262.196 59.7194 262.196ZM58.3194 258.136C58.3194 259.914 59.3834 260.978 60.4474 260.978C61.3574 260.978 62.2674 260.25 62.2674 258.934V258.276C62.2674 256.764 61.2174 255.77 60.1814 255.77C59.0334 255.77 58.3194 256.722 58.3194 258.136ZM68.7975 262.196C67.0755 262.196 65.6195 260.88 65.6195 258.64C65.6195 256.428 67.1875 254.874 69.2315 254.874C70.1415 254.874 70.8415 255.168 71.3455 255.63V253.67C71.3455 252.788 70.2395 253.25 70.2395 252.634C70.2395 252.368 70.5475 252.2 71.4855 251.808C72.2835 251.458 72.5355 251.416 72.6615 251.416C72.9555 251.416 73.0255 251.682 73.0255 251.99V259.914C73.0255 260.782 74.0195 260.502 74.0195 261.048C74.0195 261.342 73.7255 261.496 72.8015 261.818C72.0175 262.084 71.8215 262.14 71.7095 262.14C71.3595 262.14 71.3455 261.776 71.3455 261.538V260.838C70.8275 261.608 69.9735 262.196 68.7975 262.196ZM67.3975 258.136C67.3975 259.914 68.4615 260.978 69.5255 260.978C70.4355 260.978 71.3455 260.25 71.3455 258.934V258.276C71.3455 256.764 70.2955 255.77 69.2595 255.77C68.1115 255.77 67.3975 256.722 67.3975 258.136ZM75.1737 262.028C74.8937 262.028 74.7817 261.86 74.7817 261.692C74.7817 261.146 75.6357 261.496 75.6357 260.418V257.24C75.6357 256.372 74.6697 256.806 74.6697 256.218C74.6697 255.952 74.9637 255.77 75.8317 255.378C76.6437 255 76.8117 254.958 76.9377 254.958C77.2177 254.958 77.3157 255.182 77.3157 255.546V260.418C77.3157 261.496 78.1837 261.146 78.1837 261.692C78.1837 261.846 78.0577 262.028 77.7917 262.028C77.4697 262.028 77.0777 261.986 76.4757 261.986C75.8737 261.986 75.4957 262.028 75.1737 262.028ZM75.1317 252.914C75.1317 252.298 75.7757 251.626 76.6157 251.626C77.1197 251.626 77.5397 251.948 77.5397 252.452C77.5397 253.068 76.8537 253.712 76.0277 253.712C75.5237 253.712 75.1317 253.404 75.1317 252.914ZM84.3816 262.028C84.0736 262.028 83.9196 261.874 83.9196 261.678C83.9196 261.174 84.8016 261.44 84.8016 260.628C84.8016 260.502 84.7736 260.306 84.7456 260.096L84.4516 258.024C84.3256 257.184 84.0316 256.232 83.0936 256.232C82.3656 256.232 81.5676 256.806 81.5676 258.22V260.418C81.5676 261.496 82.4356 261.146 82.4356 261.692C82.4356 261.846 82.3096 262.028 82.0436 262.028C81.7216 262.028 81.3296 261.986 80.7276 261.986C80.1256 261.986 79.7476 262.028 79.4256 262.028C79.1456 262.028 79.0336 261.86 79.0336 261.692C79.0336 261.146 79.8876 261.496 79.8876 260.418V257.24C79.8876 256.372 78.9216 256.806 78.9216 256.218C78.9216 255.952 79.2156 255.77 80.0836 255.378C80.8956 255 81.0636 254.958 81.1896 254.958C81.4696 254.958 81.5676 255.182 81.5676 255.546V256.274C82.0156 255.546 82.7716 254.902 83.8496 254.902C85.4036 254.902 85.9356 256.33 86.1036 257.66L86.4676 260.264C86.6356 261.552 87.4336 261.132 87.4336 261.706C87.4336 261.916 87.2516 262.028 86.9996 262.028C86.6356 262.028 86.3416 261.986 85.6976 261.986C85.0256 261.986 84.7596 262.028 84.3816 262.028ZM91.6857 264.688C89.2497 264.688 87.7377 263.974 87.7377 262.924C87.7377 262.364 88.1577 261.874 88.8577 261.566C88.3817 261.356 88.0737 260.978 88.0737 260.474C88.0737 259.942 88.5497 259.424 89.0957 259.06C88.3957 258.696 88.0037 258.108 88.0037 257.352C88.0037 256.022 89.2497 254.874 91.5597 254.874C91.7697 254.874 91.9657 254.888 92.1477 254.902C92.3157 253.586 93.1697 252.844 93.6737 252.844C94.0657 252.844 94.4017 252.984 94.8637 253.32C95.0597 253.46 95.2137 253.614 95.2137 253.81C95.2137 254.006 95.0737 254.16 94.7797 254.16C93.8977 254.174 93.0717 254.258 92.9037 255.028C94.1217 255.336 94.8357 256.078 94.8357 257.086C94.8357 258.388 93.6317 259.522 91.2937 259.522C90.7617 259.522 90.2717 259.466 89.8517 259.354C89.6417 259.522 89.4457 259.676 89.4457 259.844C89.4457 260.054 89.6977 260.18 90.2717 260.25C91.5457 260.376 92.7777 260.474 93.4357 260.53C94.7517 260.656 95.6617 261.258 95.6617 262.364C95.6617 263.722 94.0937 264.688 91.6857 264.688ZM89.1937 262.784C89.1937 263.554 90.1597 263.904 91.7137 263.904C93.2257 263.904 94.0377 263.414 94.0377 262.896C94.0377 262.476 93.6457 262.21 92.8057 262.112L89.8097 261.79C89.4457 262.014 89.1937 262.392 89.1937 262.784ZM89.6977 257.156C89.6977 258.164 90.4957 258.724 91.4757 258.724C92.4417 258.724 93.1277 258.15 93.1277 257.24C93.1277 256.232 92.3297 255.672 91.3497 255.672C90.3837 255.672 89.6977 256.26 89.6977 257.156ZM102.313 262.168C101.179 262.168 100.353 261.51 100.353 260.74C100.353 260.446 100.395 259.368 100.395 258.416V255.952H99.5548C99.2888 255.952 99.1068 255.812 99.1068 255.588C99.1068 255.35 99.2608 255.21 99.5128 255.098C100.367 254.734 100.815 254.188 101.249 252.97C101.375 252.634 101.487 252.424 101.739 252.424C101.921 252.424 102.075 252.55 102.075 252.858V255.07H104.245C104.441 255.07 104.539 255.154 104.539 255.336C104.539 255.434 104.511 255.588 104.497 255.672C104.469 255.868 104.371 255.952 104.189 255.952H102.075V259.718C102.075 260.782 102.453 261.076 102.971 261.076C103.433 261.076 103.713 260.824 104.007 260.572C104.091 260.488 104.217 260.39 104.357 260.39C104.567 260.39 104.693 260.544 104.693 260.726C104.693 260.936 104.567 261.146 104.371 261.342C103.881 261.86 103.181 262.168 102.313 262.168ZM108.953 262.224C106.643 262.224 105.145 260.712 105.145 258.64C105.145 256.442 106.839 254.846 109.191 254.846C111.515 254.846 112.999 256.372 112.999 258.444C112.999 260.656 111.263 262.224 108.953 262.224ZM106.951 258.15C106.951 259.634 107.875 261.3 109.317 261.3C110.451 261.3 111.179 260.418 111.179 258.92C111.179 257.436 110.255 255.756 108.813 255.756C107.665 255.756 106.951 256.666 106.951 258.15ZM120.196 262.112C119.594 262.112 119.062 261.776 118.796 261.104C118.264 261.678 117.354 262.154 116.234 262.154C114.736 262.154 113.784 261.286 113.784 260.04C113.784 258.794 114.848 257.8 116.682 257.8C117.312 257.8 117.844 257.898 118.32 258.038L118.292 257.87C118.096 256.512 117.55 256.036 116.71 256.036C116.066 256.036 115.52 256.33 115.058 256.708C114.876 256.82 114.736 256.89 114.61 256.89C114.456 256.89 114.288 256.764 114.288 256.554C114.288 256.358 114.456 256.162 114.624 255.98C115.128 255.392 116.122 254.888 117.242 254.888C119.02 254.888 119.692 255.966 119.902 257.394L120.224 259.732C120.364 260.726 120.686 260.852 121.428 260.992C121.582 261.02 121.666 261.104 121.666 261.244C121.666 261.566 121.078 262.112 120.196 262.112ZM115.548 259.872C115.548 260.628 116.094 261.132 116.892 261.132C117.592 261.132 118.264 260.726 118.614 260.278L118.432 258.864C118.026 258.71 117.606 258.64 117.158 258.64C116.136 258.64 115.548 259.088 115.548 259.872ZM123.208 262.252C122.942 262.252 122.816 261.972 122.704 261.72L122.256 260.782C122.032 260.306 121.892 260.068 121.892 259.858C121.892 259.62 122.032 259.508 122.214 259.508C122.368 259.508 122.522 259.634 122.704 259.802C123.572 260.642 124.58 261.328 125.672 261.328C126.512 261.328 127.016 260.88 127.016 260.32C127.016 259.62 126.218 259.466 125.028 259.2C123.6 258.864 122.06 258.346 122.06 256.932C122.06 255.77 123.11 254.888 124.58 254.888C125.378 254.888 125.994 255.126 126.232 255.126C126.484 255.126 126.484 254.846 126.778 254.846C127.058 254.846 127.184 255.084 127.366 255.35L127.856 256.148C128.024 256.414 128.192 256.722 128.192 256.89C128.192 257.086 128.038 257.212 127.884 257.212C127.716 257.212 127.562 257.058 127.394 256.918C126.652 256.26 125.672 255.728 124.79 255.728C124.132 255.728 123.726 256.064 123.726 256.512C123.726 257.156 124.412 257.31 125.686 257.618C127.198 257.982 128.668 258.444 128.668 259.956C128.668 261.342 127.394 262.182 125.7 262.182C124.734 262.182 124.118 261.902 123.88 261.902C123.558 261.902 123.53 262.252 123.208 262.252ZM132.309 262.168C131.175 262.168 130.349 261.51 130.349 260.74C130.349 260.446 130.391 259.368 130.391 258.416V255.952H129.551C129.285 255.952 129.103 255.812 129.103 255.588C129.103 255.35 129.257 255.21 129.509 255.098C130.363 254.734 130.811 254.188 131.245 252.97C131.371 252.634 131.483 252.424 131.735 252.424C131.917 252.424 132.071 252.55 132.071 252.858V255.07H134.241C134.437 255.07 134.535 255.154 134.535 255.336C134.535 255.434 134.507 255.588 134.493 255.672C134.465 255.868 134.367 255.952 134.185 255.952H132.071V259.718C132.071 260.782 132.449 261.076 132.967 261.076C133.429 261.076 133.709 260.824 134.003 260.572C134.087 260.488 134.213 260.39 134.353 260.39C134.563 260.39 134.689 260.544 134.689 260.726C134.689 260.936 134.563 261.146 134.367 261.342C133.877 261.86 133.177 262.168 132.309 262.168Z" fill="white"/>
<path d="M385.172 261.5V253.4H383.492V252.56H386.132V261.5H385.172ZM389.625 261.5V253.4H387.945V252.56H390.585V261.5H389.625ZM394.69 261.644C394.282 261.644 393.918 261.568 393.598 261.416C393.278 261.256 393.026 261.04 392.842 260.768C392.658 260.496 392.566 260.184 392.566 259.832C392.566 259.496 392.638 259.192 392.782 258.92C392.926 258.64 393.15 258.404 393.454 258.212C393.758 258.02 394.146 257.884 394.618 257.804L397.138 257.384V258.2L394.834 258.584C394.37 258.664 394.034 258.812 393.826 259.028C393.626 259.244 393.526 259.5 393.526 259.796C393.526 260.084 393.638 260.328 393.862 260.528C394.094 260.728 394.39 260.828 394.75 260.828C395.19 260.828 395.574 260.736 395.902 260.552C396.23 260.36 396.486 260.104 396.67 259.784C396.854 259.464 396.946 259.108 396.946 258.716V257.084C396.946 256.7 396.806 256.388 396.526 256.148C396.246 255.908 395.882 255.788 395.434 255.788C395.042 255.788 394.698 255.888 394.402 256.088C394.106 256.28 393.886 256.532 393.742 256.844L392.926 256.4C393.046 256.128 393.234 255.88 393.49 255.656C393.754 255.432 394.054 255.256 394.39 255.128C394.726 254.992 395.074 254.924 395.434 254.924C395.906 254.924 396.322 255.016 396.682 255.2C397.05 255.384 397.334 255.64 397.534 255.968C397.742 256.288 397.846 256.66 397.846 257.084V261.5H396.946V260.216L397.078 260.348C396.966 260.588 396.79 260.808 396.55 261.008C396.318 261.2 396.042 261.356 395.722 261.476C395.41 261.588 395.066 261.644 394.69 261.644ZM399.697 261.5V255.068H400.597V256.292L400.453 256.112C400.629 255.736 400.889 255.444 401.233 255.236C401.585 255.028 401.969 254.924 402.385 254.924C402.881 254.924 403.329 255.064 403.729 255.344C404.129 255.624 404.413 255.988 404.581 256.436L404.329 256.448C404.489 255.952 404.765 255.576 405.157 255.32C405.557 255.056 405.997 254.924 406.477 254.924C406.909 254.924 407.305 255.028 407.665 255.236C408.033 255.444 408.325 255.732 408.541 256.1C408.765 256.46 408.877 256.868 408.877 257.324V261.5H407.977V257.672C407.977 257.28 407.905 256.948 407.761 256.676C407.625 256.404 407.437 256.196 407.197 256.052C406.957 255.9 406.681 255.824 406.369 255.824C406.065 255.824 405.789 255.9 405.541 256.052C405.293 256.196 405.097 256.408 404.953 256.688C404.809 256.96 404.737 257.288 404.737 257.672V261.5H403.837V257.672C403.837 257.28 403.765 256.948 403.621 256.676C403.485 256.404 403.297 256.196 403.057 256.052C402.817 255.9 402.541 255.824 402.229 255.824C401.917 255.824 401.637 255.9 401.389 256.052C401.149 256.196 400.957 256.408 400.813 256.688C400.669 256.96 400.597 257.288 400.597 257.672V261.5H399.697ZM412.599 258.704V257.864H416.799V258.704H412.599ZM421.899 261.5V253.4H420.219V252.56H422.859V261.5H421.899ZM424.876 261.5V260.9L427.372 258.152C427.86 257.616 428.256 257.172 428.56 256.82C428.872 256.468 429.104 256.148 429.256 255.86C429.408 255.572 429.484 255.26 429.484 254.924C429.484 254.388 429.328 253.976 429.016 253.688C428.704 253.4 428.288 253.256 427.768 253.256C427.232 253.256 426.78 253.408 426.412 253.712C426.052 254.016 425.808 254.44 425.68 254.984L424.804 254.792C424.908 254.304 425.096 253.884 425.368 253.532C425.64 253.18 425.98 252.908 426.388 252.716C426.796 252.516 427.252 252.416 427.756 252.416C428.292 252.416 428.76 252.524 429.16 252.74C429.56 252.956 429.872 253.252 430.096 253.628C430.328 254.004 430.444 254.436 430.444 254.924C430.444 255.26 430.372 255.584 430.228 255.896C430.092 256.208 429.884 256.544 429.604 256.904C429.324 257.264 428.964 257.684 428.524 258.164L426.256 260.66H430.684V261.5H424.876ZM432.299 263.9V255.068H433.199V256.508L433.055 256.256C433.311 255.848 433.651 255.524 434.075 255.284C434.507 255.044 434.999 254.924 435.551 254.924C436.159 254.924 436.699 255.072 437.171 255.368C437.651 255.656 438.027 256.052 438.299 256.556C438.579 257.06 438.719 257.636 438.719 258.284C438.719 258.924 438.579 259.5 438.299 260.012C438.027 260.516 437.651 260.916 437.171 261.212C436.699 261.5 436.159 261.644 435.551 261.644C434.999 261.644 434.499 261.52 434.051 261.272C433.611 261.016 433.279 260.656 433.055 260.192L433.199 260.06V263.9H432.299ZM435.503 260.744C435.935 260.744 436.319 260.636 436.655 260.42C436.999 260.204 437.267 259.912 437.459 259.544C437.659 259.168 437.759 258.748 437.759 258.284C437.759 257.812 437.659 257.392 437.459 257.024C437.267 256.656 436.999 256.364 436.655 256.148C436.319 255.932 435.935 255.824 435.503 255.824C435.071 255.824 434.679 255.932 434.327 256.148C433.983 256.364 433.707 256.66 433.499 257.036C433.299 257.404 433.199 257.82 433.199 258.284C433.199 258.748 433.299 259.168 433.499 259.544C433.707 259.912 433.983 260.204 434.327 260.42C434.679 260.636 435.071 260.744 435.503 260.744ZM440.303 261.5V255.068H441.203V256.292L441.059 256.112C441.235 255.736 441.495 255.444 441.839 255.236C442.191 255.028 442.575 254.924 442.991 254.924C443.487 254.924 443.935 255.064 444.335 255.344C444.735 255.624 445.019 255.988 445.187 256.436L444.935 256.448C445.095 255.952 445.371 255.576 445.763 255.32C446.163 255.056 446.603 254.924 447.083 254.924C447.515 254.924 447.911 255.028 448.271 255.236C448.639 255.444 448.931 255.732 449.147 256.1C449.371 256.46 449.483 256.868 449.483 257.324V261.5H448.583V257.672C448.583 257.28 448.511 256.948 448.367 256.676C448.231 256.404 448.043 256.196 447.803 256.052C447.563 255.9 447.287 255.824 446.975 255.824C446.671 255.824 446.395 255.9 446.147 256.052C445.899 256.196 445.703 256.408 445.559 256.688C445.415 256.96 445.343 257.288 445.343 257.672V261.5H444.443V257.672C444.443 257.28 444.371 256.948 444.227 256.676C444.091 256.404 443.903 256.196 443.663 256.052C443.423 255.9 443.147 255.824 442.835 255.824C442.523 255.824 442.243 255.9 441.995 256.052C441.755 256.196 441.563 256.408 441.419 256.688C441.275 256.96 441.203 257.288 441.203 257.672V261.5H440.303Z" fill="#ECECEC"/>
</g>
<g filter="url(#filter2_b_10581_1313)">
<rect x="18" y="290" width="449" height="34" rx="4" fill="#A4DDA3" fill-opacity="0.35"/>
<path d="M41.392 312.308C41.014 312.308 40.972 312 40.44 312H36.394C35.764 312 35.302 312.042 35.036 312.042C34.7 312.042 34.588 311.888 34.588 311.692C34.588 311.132 35.484 311.454 35.484 310.488V303.586C35.484 302.62 34.588 302.942 34.588 302.368C34.588 302.2 34.728 302.032 35.036 302.032C35.372 302.032 35.736 302.074 36.394 302.074C37.052 302.074 37.472 302.032 37.808 302.032C38.116 302.032 38.228 302.2 38.228 302.368C38.228 302.942 37.332 302.62 37.332 303.586V310.516C37.332 310.922 37.514 311.09 37.934 311.09H39.32C40.398 311.09 41.126 310.362 42.148 309.284C42.372 309.06 42.498 308.92 42.694 308.92C42.876 308.92 43.044 309.074 43.044 309.298C43.044 309.55 42.946 309.788 42.652 310.39L42.036 311.692C41.84 312.098 41.672 312.308 41.392 312.308ZM46.6084 312.196C45.0824 312.196 44.2284 311.188 44.2284 309.48V307.184C44.2284 306.316 43.1504 306.624 43.1504 306.078C43.1504 305.784 43.4444 305.63 44.3964 305.294C45.2224 305 45.4044 304.972 45.5304 304.972C45.8664 304.972 45.9084 305.28 45.9084 305.56V309.102C45.9084 310.222 46.2584 310.894 47.2804 310.894C48.1344 310.894 49.0024 310.278 49.0024 308.878V307.184C49.0024 306.316 47.7984 306.652 47.7984 306.078C47.7984 305.798 48.1064 305.644 49.1704 305.28C49.9544 305.014 50.2064 304.972 50.3184 304.972C50.6404 304.972 50.6824 305.28 50.6824 305.56V310.026C50.6824 310.894 51.8024 310.726 51.8024 311.216C51.8024 311.552 51.5084 311.678 50.4724 311.916C49.7724 312.084 49.5204 312.126 49.3664 312.126C49.0864 312.126 49.0024 311.86 49.0024 311.594V310.838C48.5544 311.566 47.7844 312.196 46.6084 312.196ZM57.8719 312.028C57.5639 312.028 57.4099 311.874 57.4099 311.678C57.4099 311.174 58.2919 311.44 58.2919 310.628C58.2919 310.502 58.2639 310.306 58.2359 310.096L57.9419 308.024C57.8159 307.184 57.5219 306.232 56.5839 306.232C55.8559 306.232 55.0579 306.806 55.0579 308.22V310.418C55.0579 311.496 55.9259 311.146 55.9259 311.692C55.9259 311.846 55.7999 312.028 55.5339 312.028C55.2119 312.028 54.8199 311.986 54.2179 311.986C53.6159 311.986 53.2379 312.028 52.9159 312.028C52.6359 312.028 52.5239 311.86 52.5239 311.692C52.5239 311.146 53.3779 311.496 53.3779 310.418V307.24C53.3779 306.372 52.4119 306.806 52.4119 306.218C52.4119 305.952 52.7059 305.77 53.5739 305.378C54.3859 305 54.5539 304.958 54.6799 304.958C54.9599 304.958 55.0579 305.182 55.0579 305.546V306.274C55.5059 305.546 56.2619 304.902 57.3399 304.902C58.8939 304.902 59.4259 306.33 59.5939 307.66L59.9579 310.264C60.1259 311.552 60.9239 311.132 60.9239 311.706C60.9239 311.916 60.7419 312.028 60.4899 312.028C60.1259 312.028 59.8319 311.986 59.1879 311.986C58.5159 311.986 58.2499 312.028 57.8719 312.028ZM64.8966 312.196C62.9226 312.196 61.3266 310.894 61.3266 308.654C61.3266 306.372 63.0486 304.874 65.0226 304.874C66.5766 304.874 67.7806 305.812 67.7806 306.428C67.7806 306.736 67.5706 307.212 67.0386 307.73C66.8706 307.884 66.7586 307.954 66.6186 307.954C66.3946 307.954 66.2826 307.8 66.2266 307.52C66.0586 306.68 65.7786 305.686 64.7566 305.686C63.7766 305.686 63.0906 306.61 63.0906 308.01C63.0906 309.746 64.2106 310.992 65.6106 310.992C66.3246 310.992 66.9546 310.656 67.4166 310.152C67.5286 310.026 67.6406 309.956 67.7526 309.956C67.9346 309.956 68.0466 310.096 68.0466 310.292C68.0466 310.39 67.9906 310.53 67.9206 310.67C67.5426 311.384 66.4226 312.196 64.8966 312.196ZM69.0591 312.028C68.7651 312.028 68.6531 311.86 68.6531 311.692C68.6531 311.146 69.5071 311.496 69.5071 310.418V303.698C69.5071 302.816 68.5411 303.25 68.5411 302.662C68.5411 302.396 68.8491 302.228 69.7031 301.836C70.5151 301.458 70.6831 301.416 70.8371 301.416C71.1031 301.416 71.1871 301.626 71.1871 301.892V306.274C71.6351 305.546 72.3911 304.902 73.4691 304.902C75.0371 304.902 75.5551 306.33 75.7371 307.66L76.0871 310.264C76.2551 311.552 77.0671 311.132 77.0671 311.706C77.0671 311.902 76.8851 312.028 76.6191 312.028C76.2551 312.028 75.9611 311.986 75.3171 311.986C74.6451 311.986 74.3791 312.028 74.0151 312.028C73.7071 312.028 73.5391 311.874 73.5391 311.678C73.5391 311.174 74.4211 311.426 74.4211 310.67C74.4211 310.516 74.4071 310.376 74.3931 310.264L74.0711 308.024C73.9451 307.184 73.6511 306.232 72.7131 306.232C71.9851 306.232 71.1871 306.806 71.1871 308.22V310.418C71.1871 311.496 72.0551 311.146 72.0551 311.692C72.0551 311.846 71.9291 312.028 71.6631 312.028C71.3411 312.028 70.9491 311.986 70.3471 311.986C69.7451 311.986 69.3671 312.028 69.0591 312.028Z" fill="white"/>
<path d="M385.172 311.5V303.4H383.492V302.56H386.132V311.5H385.172ZM389.625 311.5V303.4H387.945V302.56H390.585V311.5H389.625ZM394.69 311.644C394.282 311.644 393.918 311.568 393.598 311.416C393.278 311.256 393.026 311.04 392.842 310.768C392.658 310.496 392.566 310.184 392.566 309.832C392.566 309.496 392.638 309.192 392.782 308.92C392.926 308.64 393.15 308.404 393.454 308.212C393.758 308.02 394.146 307.884 394.618 307.804L397.138 307.384V308.2L394.834 308.584C394.37 308.664 394.034 308.812 393.826 309.028C393.626 309.244 393.526 309.5 393.526 309.796C393.526 310.084 393.638 310.328 393.862 310.528C394.094 310.728 394.39 310.828 394.75 310.828C395.19 310.828 395.574 310.736 395.902 310.552C396.23 310.36 396.486 310.104 396.67 309.784C396.854 309.464 396.946 309.108 396.946 308.716V307.084C396.946 306.7 396.806 306.388 396.526 306.148C396.246 305.908 395.882 305.788 395.434 305.788C395.042 305.788 394.698 305.888 394.402 306.088C394.106 306.28 393.886 306.532 393.742 306.844L392.926 306.4C393.046 306.128 393.234 305.88 393.49 305.656C393.754 305.432 394.054 305.256 394.39 305.128C394.726 304.992 395.074 304.924 395.434 304.924C395.906 304.924 396.322 305.016 396.682 305.2C397.05 305.384 397.334 305.64 397.534 305.968C397.742 306.288 397.846 306.66 397.846 307.084V311.5H396.946V310.216L397.078 310.348C396.966 310.588 396.79 310.808 396.55 311.008C396.318 311.2 396.042 311.356 395.722 311.476C395.41 311.588 395.066 311.644 394.69 311.644ZM399.697 311.5V305.068H400.597V306.292L400.453 306.112C400.629 305.736 400.889 305.444 401.233 305.236C401.585 305.028 401.969 304.924 402.385 304.924C402.881 304.924 403.329 305.064 403.729 305.344C404.129 305.624 404.413 305.988 404.581 306.436L404.329 306.448C404.489 305.952 404.765 305.576 405.157 305.32C405.557 305.056 405.997 304.924 406.477 304.924C406.909 304.924 407.305 305.028 407.665 305.236C408.033 305.444 408.325 305.732 408.541 306.1C408.765 306.46 408.877 306.868 408.877 307.324V311.5H407.977V307.672C407.977 307.28 407.905 306.948 407.761 306.676C407.625 306.404 407.437 306.196 407.197 306.052C406.957 305.9 406.681 305.824 406.369 305.824C406.065 305.824 405.789 305.9 405.541 306.052C405.293 306.196 405.097 306.408 404.953 306.688C404.809 306.96 404.737 307.288 404.737 307.672V311.5H403.837V307.672C403.837 307.28 403.765 306.948 403.621 306.676C403.485 306.404 403.297 306.196 403.057 306.052C402.817 305.9 402.541 305.824 402.229 305.824C401.917 305.824 401.637 305.9 401.389 306.052C401.149 306.196 400.957 306.408 400.813 306.688C400.669 306.96 400.597 307.288 400.597 307.672V311.5H399.697ZM412.599 308.704V307.864H416.799V308.704H412.599ZM421.899 311.5V303.4H420.219V302.56H422.859V311.5H421.899ZM424.876 311.5V310.9L427.372 308.152C427.86 307.616 428.256 307.172 428.56 306.82C428.872 306.468 429.104 306.148 429.256 305.86C429.408 305.572 429.484 305.26 429.484 304.924C429.484 304.388 429.328 303.976 429.016 303.688C428.704 303.4 428.288 303.256 427.768 303.256C427.232 303.256 426.78 303.408 426.412 303.712C426.052 304.016 425.808 304.44 425.68 304.984L424.804 304.792C424.908 304.304 425.096 303.884 425.368 303.532C425.64 303.18 425.98 302.908 426.388 302.716C426.796 302.516 427.252 302.416 427.756 302.416C428.292 302.416 428.76 302.524 429.16 302.74C429.56 302.956 429.872 303.252 430.096 303.628C430.328 304.004 430.444 304.436 430.444 304.924C430.444 305.26 430.372 305.584 430.228 305.896C430.092 306.208 429.884 306.544 429.604 306.904C429.324 307.264 428.964 307.684 428.524 308.164L426.256 310.66H430.684V311.5H424.876ZM432.299 313.9V305.068H433.199V306.508L433.055 306.256C433.311 305.848 433.651 305.524 434.075 305.284C434.507 305.044 434.999 304.924 435.551 304.924C436.159 304.924 436.699 305.072 437.171 305.368C437.651 305.656 438.027 306.052 438.299 306.556C438.579 307.06 438.719 307.636 438.719 308.284C438.719 308.924 438.579 309.5 438.299 310.012C438.027 310.516 437.651 310.916 437.171 311.212C436.699 311.5 436.159 311.644 435.551 311.644C434.999 311.644 434.499 311.52 434.051 311.272C433.611 311.016 433.279 310.656 433.055 310.192L433.199 310.06V313.9H432.299ZM435.503 310.744C435.935 310.744 436.319 310.636 436.655 310.42C436.999 310.204 437.267 309.912 437.459 309.544C437.659 309.168 437.759 308.748 437.759 308.284C437.759 307.812 437.659 307.392 437.459 307.024C437.267 306.656 436.999 306.364 436.655 306.148C436.319 305.932 435.935 305.824 435.503 305.824C435.071 305.824 434.679 305.932 434.327 306.148C433.983 306.364 433.707 306.66 433.499 307.036C433.299 307.404 433.199 307.82 433.199 308.284C433.199 308.748 433.299 309.168 433.499 309.544C433.707 309.912 433.983 310.204 434.327 310.42C434.679 310.636 435.071 310.744 435.503 310.744ZM440.303 311.5V305.068H441.203V306.292L441.059 306.112C441.235 305.736 441.495 305.444 441.839 305.236C442.191 305.028 442.575 304.924 442.991 304.924C443.487 304.924 443.935 305.064 444.335 305.344C444.735 305.624 445.019 305.988 445.187 306.436L444.935 306.448C445.095 305.952 445.371 305.576 445.763 305.32C446.163 305.056 446.603 304.924 447.083 304.924C447.515 304.924 447.911 305.028 448.271 305.236C448.639 305.444 448.931 305.732 449.147 306.1C449.371 306.46 449.483 306.868 449.483 307.324V311.5H448.583V307.672C448.583 307.28 448.511 306.948 448.367 306.676C448.231 306.404 448.043 306.196 447.803 306.052C447.563 305.9 447.287 305.824 446.975 305.824C446.671 305.824 446.395 305.9 446.147 306.052C445.899 306.196 445.703 306.408 445.559 306.688C445.415 306.96 445.343 307.288 445.343 307.672V311.5H444.443V307.672C444.443 307.28 444.371 306.948 444.227 306.676C444.091 306.404 443.903 306.196 443.663 306.052C443.423 305.9 443.147 305.824 442.835 305.824C442.523 305.824 442.243 305.9 441.995 306.052C441.755 306.196 441.563 306.408 441.419 306.688C441.275 306.96 441.203 307.288 441.203 307.672V311.5H440.303Z" fill="#ECECEC"/>
</g>
</g>
<defs>
<filter id="filter0_f_10581_1313" x="161.746" y="-243" width="559.914" height="540" filterUnits="userSpaceOnUse" color-interpolation-filters="sRGB">
<feFlood flood-opacity="0" result="BackgroundImageFix"/>
<feBlend mode="normal" in="SourceGraphic" in2="BackgroundImageFix" result="shape"/>
<feGaussianBlur stdDeviation="100" result="effect1_foregroundBlur_10581_1313"/>
</filter>
<filter id="filter1_b_10581_1313" x="6" y="228" width="473" height="58" filterUnits="userSpaceOnUse" color-interpolation-filters="sRGB">
<feFlood flood-opacity="0" result="BackgroundImageFix"/>
<feGaussianBlur in="BackgroundImageFix" stdDeviation="6"/>
<feComposite in2="SourceAlpha" operator="in" result="effect1_backgroundBlur_10581_1313"/>
<feBlend mode="normal" in="SourceGraphic" in2="effect1_backgroundBlur_10581_1313" result="shape"/>
</filter>
<filter id="filter2_b_10581_1313" x="6" y="278" width="473" height="58" filterUnits="userSpaceOnUse" color-interpolation-filters="sRGB">
<feFlood flood-opacity="0" result="BackgroundImageFix"/>
<feGaussianBlur in="BackgroundImageFix" stdDeviation="6"/>
<feComposite in2="SourceAlpha" operator="in" result="effect1_backgroundBlur_10581_1313"/>
<feBlend mode="normal" in="SourceGraphic" in2="effect1_backgroundBlur_10581_1313" result="shape"/>
</filter>
<linearGradient id="paint0_linear_10581_1313" x1="391.402" y1="100.932" x2="367.282" y2="-16.15" gradientUnits="userSpaceOnUse">
<stop stop-color="#A08336"/>
<stop offset="1" stop-color="#A08336"/>
</linearGradient>
<clipPath id="clip0_10581_1313">
<rect width="517" height="336" fill="white"/>
</clipPath>
<clipPath id="clip1_10581_1313">
<rect width="91" height="97" fill="white" transform="translate(213.5 58)"/>
</clipPath>
</defs>
</svg>
