<svg width="470" height="343" viewBox="0 0 470 343" fill="none" xmlns="http://www.w3.org/2000/svg">
<g clip-path="url(#clip0_11738_1501)">
<rect width="470" height="343" fill="white"/>
<path d="M189.072 49V42.75H187.142V41.55H192.342V42.75H190.442V49H189.072ZM195.172 49V41.55H196.532V44.8H199.702V41.55H201.072V49H199.702V46H196.532V49H195.172ZM204.506 49V41.55H209.456V42.75H205.866V44.66H209.256V45.86H205.866V47.8H209.456V49H204.506ZM218.891 49.12C218.417 49.12 217.977 49.0333 217.571 48.86C217.171 48.6867 216.824 48.4467 216.531 48.14C216.244 47.8267 216.034 47.4633 215.901 47.05L217.031 46.56C217.211 46.9867 217.471 47.3233 217.811 47.57C218.151 47.81 218.534 47.93 218.961 47.93C219.201 47.93 219.407 47.8933 219.581 47.82C219.761 47.74 219.897 47.6333 219.991 47.5C220.091 47.3667 220.141 47.2067 220.141 47.02C220.141 46.8 220.074 46.62 219.941 46.48C219.814 46.3333 219.621 46.22 219.361 46.14L217.931 45.68C217.351 45.5 216.914 45.23 216.621 44.87C216.327 44.51 216.181 44.0867 216.181 43.6C216.181 43.1733 216.284 42.7967 216.491 42.47C216.704 42.1433 216.997 41.89 217.371 41.71C217.751 41.5233 218.184 41.43 218.671 41.43C219.117 41.43 219.527 41.51 219.901 41.67C220.274 41.8233 220.594 42.04 220.861 42.32C221.134 42.5933 221.337 42.9167 221.471 43.29L220.351 43.79C220.204 43.4167 219.984 43.13 219.691 42.93C219.397 42.7233 219.057 42.62 218.671 42.62C218.444 42.62 218.244 42.66 218.071 42.74C217.897 42.8133 217.761 42.92 217.661 43.06C217.567 43.1933 217.521 43.3533 217.521 43.54C217.521 43.7467 217.587 43.93 217.721 44.09C217.854 44.2433 218.057 44.3633 218.331 44.45L219.701 44.88C220.294 45.0733 220.737 45.34 221.031 45.68C221.331 46.02 221.481 46.44 221.481 46.94C221.481 47.3667 221.371 47.7433 221.151 48.07C220.931 48.3967 220.627 48.6533 220.241 48.84C219.854 49.0267 219.404 49.12 218.891 49.12ZM228.205 49.12C227.672 49.12 227.179 49.0233 226.725 48.83C226.279 48.6367 225.885 48.3667 225.545 48.02C225.212 47.6733 224.952 47.2667 224.765 46.8C224.579 46.3333 224.485 45.8233 224.485 45.27C224.485 44.7167 224.575 44.2067 224.755 43.74C224.942 43.2667 225.202 42.86 225.535 42.52C225.875 42.1733 226.272 41.9067 226.725 41.72C227.179 41.5267 227.672 41.43 228.205 41.43C228.739 41.43 229.215 41.52 229.635 41.7C230.062 41.88 230.422 42.12 230.715 42.42C231.009 42.7133 231.219 43.0367 231.345 43.39L230.125 43.96C229.985 43.5867 229.749 43.28 229.415 43.04C229.082 42.7933 228.679 42.67 228.205 42.67C227.739 42.67 227.325 42.78 226.965 43C226.612 43.22 226.335 43.5233 226.135 43.91C225.942 44.2967 225.845 44.75 225.845 45.27C225.845 45.79 225.942 46.2467 226.135 46.64C226.335 47.0267 226.612 47.33 226.965 47.55C227.325 47.77 227.739 47.88 228.205 47.88C228.679 47.88 229.082 47.76 229.415 47.52C229.749 47.2733 229.985 46.9633 230.125 46.59L231.345 47.16C231.219 47.5133 231.009 47.84 230.715 48.14C230.422 48.4333 230.062 48.67 229.635 48.85C229.215 49.03 228.739 49.12 228.205 49.12ZM234.449 49V41.55H235.809V44.8H238.979V41.55H240.349V49H238.979V46H235.809V49H234.449ZM243.783 49V41.55H248.733V42.75H245.143V44.66H248.533V45.86H245.143V47.8H248.733V49H243.783ZM251.731 49V41.55H254.161C254.947 41.55 255.631 41.71 256.211 42.03C256.797 42.3433 257.251 42.78 257.571 43.34C257.891 43.8933 258.051 44.5367 258.051 45.27C258.051 45.9967 257.891 46.6433 257.571 47.21C257.251 47.77 256.797 48.21 256.211 48.53C255.631 48.8433 254.947 49 254.161 49H251.731ZM253.091 47.8H254.191C254.697 47.8 255.134 47.6967 255.501 47.49C255.874 47.2767 256.164 46.9833 256.371 46.61C256.577 46.23 256.681 45.7833 256.681 45.27C256.681 44.75 256.577 44.3033 256.371 43.93C256.164 43.5567 255.874 43.2667 255.501 43.06C255.134 42.8533 254.697 42.75 254.191 42.75H253.091V47.8ZM264.003 49.12C263.43 49.12 262.92 49 262.473 48.76C262.033 48.52 261.686 48.19 261.433 47.77C261.18 47.35 261.053 46.8733 261.053 46.34V41.55H262.413V46.27C262.413 46.5767 262.48 46.8533 262.613 47.1C262.753 47.3467 262.943 47.54 263.183 47.68C263.423 47.8133 263.696 47.88 264.003 47.88C264.316 47.88 264.59 47.8133 264.823 47.68C265.063 47.54 265.25 47.3467 265.383 47.1C265.523 46.8533 265.593 46.5767 265.593 46.27V41.55H266.953V46.34C266.953 46.8733 266.826 47.35 266.573 47.77C266.32 48.19 265.97 48.52 265.523 48.76C265.083 49 264.576 49.12 264.003 49.12ZM270.311 49V41.55H271.671V47.8H274.861V49H270.311ZM277.741 49V41.55H282.691V42.75H279.101V44.66H282.491V45.86H279.101V47.8H282.691V49H277.741Z" fill="#404246"/>
<g clip-path="url(#clip1_11738_1501)">
<path d="M229.776 98.5254L224.071 99.8479C215.182 103.211 217.946 126.217 231.336 126.098C234.1 126.098 236.981 124.656 239.443 121.654L239.864 122.075C236.981 125.558 232.956 127.841 228.335 127.841C211.458 127.841 209.358 105.618 223.892 99.3711L224.071 99.852L229.776 98.5254Z" fill="#16181D"/>
<path d="M223.896 99.3675C221.013 91.6805 224.075 83.8105 234.528 83.8105C238.613 83.8105 243.719 84.5333 247.142 85.4939L244.561 90.8978C243.001 87.5941 239.277 84.4093 234.409 84.4093C224.619 84.4093 226.961 92.759 229.784 98.5248C234.949 109.218 244.978 123.452 251.286 123.452C254.049 123.452 255.55 121.169 255.55 118.107C255.55 112.52 250.807 103.753 240.357 101.109H236.212V100.509H251.529V101.109H242.64C252.128 104.591 256.512 113.124 256.452 119.251C256.452 123.877 253.99 127.419 249.484 127.419C246.181 127.419 242.759 124.838 239.876 122.074L239.456 121.653C234.171 116.428 227.506 107.235 224.441 100.688L224.08 99.8463" fill="#16181D"/>
<path d="M213.233 136.973H213.152L210.348 134.934H207.717V147.947L208.155 148.988H205.504L205.942 147.947V134.934H203.311L200.517 136.973H200.426L201.099 134.78H212.56L213.233 136.973ZM221.044 148.049V142.45C221.044 141.676 220.83 141.104 220.402 140.736C219.974 140.369 219.372 140.175 218.597 140.175C218.107 140.175 217.669 140.257 217.282 140.4C216.894 140.543 216.588 140.716 216.364 140.92V148.049L216.761 148.987H214.375L214.772 148.049V135.495L214.375 134.363L216.363 134.057V140.819C216.669 140.391 217.107 140.023 217.668 139.696C218.219 139.38 218.881 139.217 219.635 139.217C220.584 139.217 221.318 139.492 221.838 140.033C222.358 140.584 222.624 141.348 222.624 142.328V148.049L223.021 148.987H220.645L221.042 148.049H221.044ZM232.924 146.815C232.658 147.508 232.22 148.069 231.598 148.518C230.976 148.967 230.17 149.191 229.181 149.191C228.284 149.191 227.499 148.997 226.815 148.609C226.132 148.222 225.602 147.651 225.225 146.917C224.837 146.182 224.653 145.306 224.653 144.306C224.653 143.307 224.827 142.481 225.174 141.705C225.52 140.93 226.031 140.328 226.683 139.879C227.336 139.441 228.101 139.217 228.977 139.217C229.66 139.217 230.282 139.36 230.833 139.634C231.384 139.92 231.842 140.317 232.199 140.828C232.556 141.348 232.791 141.95 232.902 142.633H226.04C226.019 142.858 226.009 143.103 226.009 143.347C226.009 144.315 226.163 145.152 226.489 145.845C226.805 146.549 227.253 147.09 227.845 147.456C228.436 147.823 229.13 148.007 229.936 148.007C230.568 148.007 231.139 147.896 231.649 147.671C232.149 147.446 232.557 147.161 232.883 146.794L232.924 146.814V146.815ZM227.458 139.727C227.08 139.972 226.775 140.329 226.53 140.798C226.285 141.267 226.132 141.838 226.061 142.491H231.231C230.956 140.41 230.119 139.36 228.723 139.36C228.254 139.36 227.825 139.482 227.459 139.727H227.458ZM237.501 148.274C236.492 147.662 235.696 146.805 235.125 145.703C234.544 144.601 234.258 143.358 234.258 141.95C234.258 140.542 234.534 139.257 235.105 138.136C235.676 137.014 236.461 136.147 237.481 135.514C238.501 134.892 239.653 134.576 240.958 134.576C242.263 134.576 243.335 134.892 244.354 135.504C245.363 136.116 246.159 136.973 246.74 138.074C247.312 139.176 247.607 140.43 247.607 141.827C247.607 143.224 247.322 144.52 246.751 145.641C246.179 146.763 245.395 147.63 244.375 148.251C243.356 148.884 242.193 149.19 240.898 149.19C239.603 149.19 238.512 148.884 237.502 148.272L237.501 148.274ZM243.569 148.325C244.262 147.845 244.773 147.08 245.119 146.029C245.466 144.979 245.64 143.602 245.64 141.889C245.64 140.176 245.466 138.851 245.119 137.789C244.773 136.739 244.252 135.964 243.559 135.464C242.866 134.974 241.999 134.719 240.939 134.719C239.879 134.719 238.991 134.964 238.297 135.444C237.604 135.934 237.084 136.699 236.737 137.749C236.391 138.809 236.227 140.186 236.227 141.889C236.227 143.592 236.391 144.928 236.737 145.978C237.084 147.04 237.594 147.814 238.287 148.304C238.98 148.803 239.857 149.048 240.918 149.048C241.978 149.048 242.875 148.814 243.569 148.325ZM252.727 148.304C251.686 147.713 250.891 146.876 250.33 145.806C249.769 144.735 249.495 143.501 249.495 142.093C249.495 140.685 249.791 139.391 250.382 138.269C250.974 137.147 251.79 136.28 252.85 135.649C253.91 135.016 255.103 134.7 256.449 134.7C256.806 134.7 257.316 134.72 257.968 134.741C258.621 134.771 259.14 134.781 259.539 134.781H260.313L261.109 136.933H261.028L259.794 136.076C259.334 135.76 258.947 135.515 258.641 135.353C258.325 135.19 257.989 135.057 257.642 134.976C257.285 134.894 256.868 134.854 256.388 134.854C254.818 134.854 253.604 135.435 252.727 136.578C251.85 137.719 251.412 139.474 251.412 141.83C251.412 144.186 251.87 146.001 252.788 147.184C253.706 148.377 255.062 148.969 256.846 148.969C257.274 148.969 257.703 148.949 258.131 148.888C258.559 148.827 258.957 148.755 259.314 148.653V143.37L258.876 142.33H261.466L261.028 143.37V146.94L261.293 147.99C260.762 148.337 260.079 148.622 259.233 148.847C258.386 149.082 257.418 149.194 256.327 149.194C254.96 149.194 253.757 148.898 252.727 148.306V148.304ZM263.077 146.938L264.076 147.774C264.453 148.1 264.749 148.335 264.963 148.477C265.167 148.631 265.381 148.742 265.585 148.814C265.79 148.895 266.023 148.925 266.289 148.925C266.941 148.925 267.451 148.752 267.818 148.405C268.185 148.058 268.378 147.568 268.378 146.956C268.378 146.539 268.287 146.191 268.103 145.916C267.919 145.641 267.633 145.406 267.226 145.203C266.981 145.09 266.573 144.927 265.992 144.723C265.329 144.498 264.829 144.305 264.493 144.121C264.065 143.897 263.737 143.601 263.534 143.244C263.32 142.897 263.218 142.469 263.218 141.969C263.218 141.469 263.34 141.001 263.605 140.602C263.86 140.205 264.217 139.899 264.686 139.674C265.145 139.449 265.675 139.337 266.266 139.337C266.388 139.337 266.491 139.348 266.592 139.348C266.694 139.358 266.776 139.368 266.848 139.368C267.133 139.409 267.459 139.419 267.806 139.419H268.815L269.314 141.214H269.253L268.295 140.439C267.948 140.164 267.683 139.96 267.479 139.827C267.274 139.695 267.071 139.603 266.887 139.542C266.703 139.491 266.49 139.46 266.245 139.46C265.684 139.46 265.246 139.614 264.919 139.909C264.593 140.205 264.43 140.612 264.43 141.133C264.43 141.51 264.511 141.826 264.685 142.071C264.848 142.326 265.123 142.54 265.511 142.724C265.797 142.867 266.205 143.019 266.725 143.183C267.081 143.305 267.377 143.418 267.612 143.509C267.847 143.601 268.07 143.702 268.275 143.805C268.702 144.04 269.03 144.326 269.243 144.662C269.458 145.009 269.569 145.458 269.569 146.018C269.569 146.61 269.426 147.14 269.141 147.599C268.855 148.058 268.468 148.415 267.968 148.67C267.469 148.925 266.908 149.047 266.285 149.047C266.122 149.047 265.949 149.047 265.765 149.037C265.581 149.027 265.439 149.017 265.347 149.017C265.062 148.997 264.756 148.986 264.43 148.986H263.613L263.002 146.936H263.073L263.077 146.938Z" fill="#16181D"/>
</g>
<path d="M143.744 200.192C142.987 200.192 142.299 200.048 141.68 199.76C141.061 199.472 140.539 199.088 140.112 198.608C139.685 198.117 139.381 197.579 139.2 196.992L140.352 196.56C140.629 197.371 141.061 197.989 141.648 198.416C142.235 198.832 142.933 199.04 143.744 199.04C144.256 199.04 144.704 198.96 145.088 198.8C145.483 198.629 145.787 198.395 146 198.096C146.213 197.797 146.32 197.451 146.32 197.056C146.32 196.469 146.16 196.016 145.84 195.696C145.52 195.376 145.061 195.131 144.464 194.96L142.32 194.32C141.477 194.075 140.827 193.664 140.368 193.088C139.92 192.512 139.696 191.856 139.696 191.12C139.696 190.491 139.851 189.936 140.16 189.456C140.469 188.965 140.891 188.581 141.424 188.304C141.968 188.027 142.581 187.888 143.264 187.888C143.979 187.888 144.619 188.021 145.184 188.288C145.76 188.544 146.245 188.885 146.64 189.312C147.035 189.739 147.317 190.213 147.488 190.736L146.368 191.184C146.112 190.48 145.712 189.947 145.168 189.584C144.635 189.221 144.005 189.04 143.28 189.04C142.821 189.04 142.416 189.12 142.064 189.28C141.723 189.44 141.456 189.669 141.264 189.968C141.072 190.267 140.976 190.619 140.976 191.024C140.976 191.515 141.131 191.957 141.44 192.352C141.749 192.736 142.224 193.024 142.864 193.216L144.752 193.776C145.691 194.053 146.4 194.453 146.88 194.976C147.36 195.499 147.6 196.155 147.6 196.944C147.6 197.584 147.435 198.149 147.104 198.64C146.784 199.12 146.331 199.499 145.744 199.776C145.168 200.053 144.501 200.192 143.744 200.192ZM151.759 200.192C151.215 200.192 150.73 200.091 150.303 199.888C149.876 199.675 149.54 199.387 149.295 199.024C149.05 198.661 148.927 198.245 148.927 197.776C148.927 197.328 149.023 196.923 149.215 196.56C149.407 196.187 149.706 195.872 150.111 195.616C150.516 195.36 151.034 195.179 151.663 195.072L155.023 194.512V195.6L151.951 196.112C151.332 196.219 150.884 196.416 150.607 196.704C150.34 196.992 150.207 197.333 150.207 197.728C150.207 198.112 150.356 198.437 150.655 198.704C150.964 198.971 151.359 199.104 151.839 199.104C152.426 199.104 152.938 198.981 153.375 198.736C153.812 198.48 154.154 198.139 154.399 197.712C154.644 197.285 154.767 196.811 154.767 196.288V194.112C154.767 193.6 154.58 193.184 154.207 192.864C153.834 192.544 153.348 192.384 152.751 192.384C152.228 192.384 151.77 192.517 151.375 192.784C150.98 193.04 150.687 193.376 150.495 193.792L149.407 193.2C149.567 192.837 149.818 192.507 150.159 192.208C150.511 191.909 150.911 191.675 151.359 191.504C151.807 191.323 152.271 191.232 152.751 191.232C153.38 191.232 153.935 191.355 154.415 191.6C154.906 191.845 155.284 192.187 155.551 192.624C155.828 193.051 155.967 193.547 155.967 194.112V200H154.767V198.288L154.943 198.464C154.794 198.784 154.559 199.077 154.239 199.344C153.93 199.6 153.562 199.808 153.135 199.968C152.719 200.117 152.26 200.192 151.759 200.192ZM161.255 200.096C160.487 200.096 159.895 199.872 159.479 199.424C159.063 198.976 158.855 198.336 158.855 197.504V192.624H157.271V191.424H157.671C158.034 191.424 158.322 191.307 158.535 191.072C158.748 190.827 158.855 190.523 158.855 190.16V189.44H160.055V191.424H161.943V192.624H160.055V197.504C160.055 197.792 160.098 198.048 160.183 198.272C160.268 198.485 160.412 198.656 160.615 198.784C160.828 198.912 161.111 198.976 161.463 198.976C161.548 198.976 161.65 198.971 161.767 198.96C161.884 198.949 161.986 198.939 162.071 198.928V200C161.943 200.032 161.799 200.053 161.639 200.064C161.479 200.085 161.351 200.096 161.255 200.096ZM166.914 200.192C166.317 200.192 165.773 200.053 165.282 199.776C164.792 199.488 164.402 199.093 164.114 198.592C163.837 198.08 163.698 197.493 163.698 196.832V191.424H164.898V196.688C164.898 197.147 164.989 197.552 165.17 197.904C165.362 198.245 165.624 198.512 165.954 198.704C166.296 198.896 166.685 198.992 167.122 198.992C167.56 198.992 167.949 198.896 168.29 198.704C168.632 198.501 168.898 198.219 169.09 197.856C169.282 197.483 169.378 197.04 169.378 196.528V191.424H170.578V200H169.378V198.336L169.65 198.4C169.448 198.955 169.101 199.392 168.61 199.712C168.12 200.032 167.554 200.192 166.914 200.192ZM172.742 200V191.424H173.942V192.832L173.782 192.624C173.985 192.219 174.289 191.899 174.694 191.664C175.11 191.429 175.611 191.312 176.198 191.312H176.742V192.512H175.99C175.371 192.512 174.875 192.704 174.502 193.088C174.129 193.472 173.942 194.016 173.942 194.72V200H172.742ZM181.716 200.192C180.916 200.192 180.196 200 179.556 199.616C178.916 199.221 178.41 198.688 178.036 198.016C177.674 197.333 177.492 196.565 177.492 195.712C177.492 194.848 177.674 194.08 178.036 193.408C178.41 192.736 178.911 192.208 179.54 191.824C180.18 191.429 180.906 191.232 181.716 191.232C182.452 191.232 183.108 191.392 183.684 191.712C184.26 192.032 184.714 192.464 185.044 193.008L184.852 193.344V187.888H186.052V200H184.852V198.08L185.044 198.256C184.746 198.875 184.298 199.355 183.7 199.696C183.114 200.027 182.452 200.192 181.716 200.192ZM181.78 198.992C182.356 198.992 182.874 198.848 183.332 198.56C183.802 198.272 184.17 197.883 184.436 197.392C184.714 196.891 184.852 196.331 184.852 195.712C184.852 195.093 184.714 194.539 184.436 194.048C184.17 193.547 183.802 193.152 183.332 192.864C182.874 192.576 182.356 192.432 181.78 192.432C181.215 192.432 180.703 192.576 180.244 192.864C179.786 193.152 179.423 193.541 179.156 194.032C178.9 194.523 178.772 195.083 178.772 195.712C178.772 196.331 178.9 196.891 179.156 197.392C179.423 197.883 179.78 198.272 180.228 198.56C180.687 198.848 181.204 198.992 181.78 198.992ZM190.692 200.192C190.148 200.192 189.663 200.091 189.236 199.888C188.81 199.675 188.474 199.387 188.228 199.024C187.983 198.661 187.86 198.245 187.86 197.776C187.86 197.328 187.956 196.923 188.148 196.56C188.34 196.187 188.639 195.872 189.044 195.616C189.45 195.36 189.967 195.179 190.596 195.072L193.956 194.512V195.6L190.884 196.112C190.266 196.219 189.818 196.416 189.54 196.704C189.274 196.992 189.14 197.333 189.14 197.728C189.14 198.112 189.29 198.437 189.588 198.704C189.898 198.971 190.292 199.104 190.772 199.104C191.359 199.104 191.871 198.981 192.308 198.736C192.746 198.48 193.087 198.139 193.332 197.712C193.578 197.285 193.7 196.811 193.7 196.288V194.112C193.7 193.6 193.514 193.184 193.14 192.864C192.767 192.544 192.282 192.384 191.684 192.384C191.162 192.384 190.703 192.517 190.308 192.784C189.914 193.04 189.62 193.376 189.428 193.792L188.34 193.2C188.5 192.837 188.751 192.507 189.092 192.208C189.444 191.909 189.844 191.675 190.292 191.504C190.74 191.323 191.204 191.232 191.684 191.232C192.314 191.232 192.868 191.355 193.348 191.6C193.839 191.845 194.218 192.187 194.484 192.624C194.762 193.051 194.9 193.547 194.9 194.112V200H193.7V198.288L193.876 198.464C193.727 198.784 193.492 199.077 193.172 199.344C192.863 199.6 192.495 199.808 192.068 199.968C191.652 200.117 191.194 200.192 190.692 200.192ZM197.241 203.52C197.07 203.52 196.894 203.504 196.713 203.472C196.542 203.451 196.371 203.408 196.201 203.344V202.224C196.307 202.235 196.441 202.251 196.601 202.272C196.771 202.304 196.942 202.32 197.113 202.32C197.635 202.32 198.035 202.208 198.313 201.984C198.59 201.771 198.862 201.355 199.129 200.736L199.673 199.456L199.641 200.512L196.009 191.424H197.305L200.281 198.928H199.945L202.905 191.424H204.233L200.313 201.088C200.142 201.504 199.923 201.899 199.657 202.272C199.401 202.645 199.075 202.944 198.681 203.168C198.286 203.403 197.806 203.52 197.241 203.52ZM204.746 202.08V201.52C205.066 201.435 205.301 201.269 205.45 201.024C205.599 200.779 205.674 200.437 205.674 200H205.066V198.24H206.346V199.584C206.346 200.277 206.213 200.832 205.946 201.248C205.679 201.675 205.279 201.952 204.746 202.08ZM216.913 200.192C216.081 200.192 215.303 200.043 214.577 199.744C213.863 199.435 213.233 199.008 212.689 198.464C212.145 197.909 211.719 197.259 211.409 196.512C211.1 195.755 210.945 194.928 210.945 194.032C210.945 193.136 211.1 192.315 211.409 191.568C211.719 190.811 212.145 190.16 212.689 189.616C213.233 189.061 213.863 188.635 214.577 188.336C215.303 188.037 216.081 187.888 216.913 187.888C217.745 187.888 218.519 188.043 219.233 188.352C219.959 188.651 220.593 189.077 221.137 189.632C221.681 190.176 222.108 190.821 222.417 191.568C222.727 192.315 222.881 193.136 222.881 194.032C222.881 194.928 222.727 195.755 222.417 196.512C222.108 197.259 221.681 197.909 221.137 198.464C220.593 199.008 219.959 199.435 219.233 199.744C218.519 200.043 217.745 200.192 216.913 200.192ZM216.913 198.992C217.607 198.992 218.236 198.864 218.801 198.608C219.377 198.352 219.873 197.995 220.289 197.536C220.705 197.077 221.025 196.549 221.249 195.952C221.484 195.355 221.601 194.715 221.601 194.032C221.601 193.36 221.484 192.725 221.249 192.128C221.025 191.531 220.705 191.003 220.289 190.544C219.873 190.085 219.377 189.728 218.801 189.472C218.236 189.216 217.607 189.088 216.913 189.088C216.22 189.088 215.585 189.216 215.009 189.472C214.444 189.728 213.953 190.085 213.537 190.544C213.121 191.003 212.796 191.531 212.561 192.128C212.337 192.725 212.225 193.36 212.225 194.032C212.225 194.715 212.337 195.355 212.561 195.952C212.796 196.549 213.121 197.077 213.537 197.536C213.953 197.995 214.449 198.352 215.025 198.608C215.601 198.864 216.231 198.992 216.913 198.992ZM228.784 200.192C227.941 200.192 227.2 199.995 226.56 199.6C225.92 199.205 225.419 198.672 225.056 198C224.693 197.317 224.512 196.549 224.512 195.696C224.512 194.843 224.693 194.08 225.056 193.408C225.419 192.736 225.92 192.208 226.56 191.824C227.2 191.429 227.941 191.232 228.784 191.232C229.317 191.232 229.819 191.328 230.288 191.52C230.757 191.712 231.173 191.973 231.536 192.304C231.899 192.624 232.171 192.997 232.352 193.424L231.264 193.984C231.051 193.525 230.725 193.152 230.288 192.864C229.851 192.576 229.349 192.432 228.784 192.432C228.219 192.432 227.707 192.576 227.248 192.864C226.8 193.141 226.443 193.531 226.176 194.032C225.92 194.523 225.792 195.083 225.792 195.712C225.792 196.331 225.92 196.891 226.176 197.392C226.443 197.883 226.8 198.272 227.248 198.56C227.707 198.848 228.219 198.992 228.784 198.992C229.349 198.992 229.845 198.848 230.272 198.56C230.709 198.272 231.04 197.888 231.264 197.408L232.352 198C232.171 198.416 231.899 198.789 231.536 199.12C231.173 199.451 230.757 199.712 230.288 199.904C229.819 200.096 229.317 200.192 228.784 200.192ZM237.434 200.096C236.666 200.096 236.074 199.872 235.658 199.424C235.242 198.976 235.034 198.336 235.034 197.504V192.624H233.45V191.424H233.85C234.213 191.424 234.501 191.307 234.714 191.072C234.927 190.827 235.034 190.523 235.034 190.16V189.44H236.234V191.424H238.122V192.624H236.234V197.504C236.234 197.792 236.277 198.048 236.362 198.272C236.447 198.485 236.591 198.656 236.794 198.784C237.007 198.912 237.29 198.976 237.642 198.976C237.727 198.976 237.829 198.971 237.946 198.96C238.063 198.949 238.165 198.939 238.25 198.928V200C238.122 200.032 237.978 200.053 237.818 200.064C237.658 200.085 237.53 200.096 237.434 200.096ZM243.756 200.192C242.946 200.192 242.21 200 241.548 199.616C240.887 199.221 240.359 198.688 239.964 198.016C239.58 197.333 239.388 196.56 239.388 195.696C239.388 194.843 239.58 194.08 239.964 193.408C240.348 192.736 240.866 192.208 241.516 191.824C242.178 191.429 242.924 191.232 243.756 191.232C244.588 191.232 245.33 191.424 245.98 191.808C246.642 192.192 247.159 192.72 247.532 193.392C247.916 194.064 248.108 194.832 248.108 195.696C248.108 196.571 247.911 197.349 247.516 198.032C247.122 198.704 246.594 199.232 245.932 199.616C245.282 200 244.556 200.192 243.756 200.192ZM243.756 198.992C244.332 198.992 244.85 198.848 245.308 198.56C245.778 198.272 246.146 197.877 246.412 197.376C246.69 196.875 246.828 196.315 246.828 195.696C246.828 195.077 246.69 194.523 246.412 194.032C246.146 193.541 245.778 193.152 245.308 192.864C244.85 192.576 244.332 192.432 243.756 192.432C243.18 192.432 242.658 192.576 242.188 192.864C241.73 193.152 241.362 193.541 241.084 194.032C240.807 194.523 240.668 195.077 240.668 195.696C240.668 196.315 240.807 196.875 241.084 197.376C241.362 197.877 241.73 198.272 242.188 198.56C242.658 198.848 243.18 198.992 243.756 198.992ZM254.257 200.192C253.521 200.192 252.854 200.027 252.257 199.696C251.67 199.355 251.228 198.875 250.929 198.256L251.121 198.08V200H249.921V187.888H251.121V193.344L250.929 193.008C251.27 192.464 251.724 192.032 252.289 191.712C252.865 191.392 253.521 191.232 254.257 191.232C255.068 191.232 255.788 191.429 256.417 191.824C257.057 192.208 257.558 192.736 257.921 193.408C258.294 194.08 258.481 194.848 258.481 195.712C258.481 196.565 258.294 197.333 257.921 198.016C257.558 198.688 257.057 199.221 256.417 199.616C255.788 200 255.068 200.192 254.257 200.192ZM254.193 198.992C254.769 198.992 255.281 198.848 255.729 198.56C256.188 198.272 256.545 197.883 256.801 197.392C257.068 196.891 257.201 196.331 257.201 195.712C257.201 195.083 257.068 194.523 256.801 194.032C256.545 193.541 256.188 193.152 255.729 192.864C255.281 192.576 254.769 192.432 254.193 192.432C253.617 192.432 253.094 192.576 252.625 192.864C252.166 193.152 251.798 193.547 251.521 194.048C251.254 194.539 251.121 195.093 251.121 195.712C251.121 196.331 251.254 196.891 251.521 197.392C251.798 197.883 252.166 198.272 252.625 198.56C253.094 198.848 253.617 198.992 254.193 198.992ZM264.193 200.192C263.393 200.192 262.667 200 262.017 199.616C261.377 199.221 260.87 198.683 260.497 198C260.123 197.317 259.937 196.544 259.937 195.68C259.937 194.816 260.118 194.053 260.481 193.392C260.843 192.72 261.334 192.192 261.953 191.808C262.582 191.424 263.286 191.232 264.065 191.232C264.683 191.232 265.233 191.349 265.713 191.584C266.203 191.808 266.619 192.117 266.961 192.512C267.302 192.896 267.563 193.333 267.745 193.824C267.926 194.304 268.017 194.8 268.017 195.312C268.017 195.419 268.011 195.541 268.001 195.68C267.99 195.808 267.974 195.941 267.953 196.08H260.705V194.96H267.265L266.689 195.44C266.785 194.853 266.715 194.331 266.481 193.872C266.257 193.403 265.931 193.035 265.505 192.768C265.078 192.491 264.598 192.352 264.065 192.352C263.531 192.352 263.035 192.491 262.577 192.768C262.129 193.045 261.777 193.435 261.521 193.936C261.265 194.427 261.163 195.013 261.217 195.696C261.163 196.379 261.27 196.976 261.537 197.488C261.814 197.989 262.187 198.379 262.657 198.656C263.137 198.933 263.649 199.072 264.193 199.072C264.822 199.072 265.35 198.923 265.777 198.624C266.203 198.325 266.55 197.952 266.817 197.504L267.841 198.048C267.67 198.432 267.409 198.789 267.057 199.12C266.705 199.44 266.283 199.701 265.793 199.904C265.313 200.096 264.779 200.192 264.193 200.192ZM269.828 200V191.424H271.028V192.832L270.868 192.624C271.071 192.219 271.375 191.899 271.78 191.664C272.196 191.429 272.698 191.312 273.284 191.312H273.828V192.512H273.076C272.458 192.512 271.962 192.704 271.588 193.088C271.215 193.472 271.028 194.016 271.028 194.72V200H269.828ZM280.945 200.192C280.327 200.192 279.751 200.085 279.217 199.872C278.695 199.659 278.236 199.355 277.841 198.96C277.447 198.565 277.148 198.096 276.945 197.552L277.921 197.072C278.167 197.691 278.567 198.181 279.121 198.544C279.687 198.896 280.295 199.072 280.945 199.072C281.468 199.072 281.932 198.949 282.337 198.704C282.753 198.459 283.079 198.128 283.313 197.712C283.548 197.285 283.665 196.811 283.665 196.288C283.665 195.744 283.543 195.264 283.297 194.848C283.063 194.432 282.743 194.107 282.337 193.872C281.932 193.627 281.473 193.504 280.961 193.504C280.439 193.504 279.953 193.627 279.505 193.872C279.068 194.107 278.748 194.395 278.545 194.736L277.537 194.544L278.433 188.08H284.465V189.2H278.897L279.393 188.768L278.673 193.856L278.177 193.632C278.551 193.173 278.988 192.848 279.489 192.656C279.991 192.453 280.503 192.352 281.025 192.352C281.793 192.352 282.471 192.533 283.057 192.896C283.644 193.248 284.103 193.723 284.433 194.32C284.775 194.907 284.945 195.563 284.945 196.288C284.945 197.024 284.769 197.691 284.417 198.288C284.076 198.875 283.601 199.339 282.993 199.68C282.396 200.021 281.713 200.192 280.945 200.192ZM286.949 202.08V201.52C287.269 201.435 287.504 201.269 287.653 201.024C287.802 200.779 287.877 200.437 287.877 200H287.269V198.24H288.549V199.584C288.549 200.277 288.416 200.832 288.149 201.248C287.882 201.675 287.482 201.952 286.949 202.08ZM293.02 200V199.2L296.348 195.536C296.999 194.821 297.527 194.229 297.932 193.76C298.348 193.291 298.657 192.864 298.86 192.48C299.063 192.096 299.164 191.68 299.164 191.232C299.164 190.517 298.956 189.968 298.54 189.584C298.124 189.2 297.569 189.008 296.876 189.008C296.161 189.008 295.559 189.211 295.068 189.616C294.588 190.021 294.263 190.587 294.092 191.312L292.924 191.056C293.063 190.405 293.313 189.845 293.676 189.376C294.039 188.907 294.492 188.544 295.036 188.288C295.58 188.021 296.188 187.888 296.86 187.888C297.575 187.888 298.199 188.032 298.732 188.32C299.265 188.608 299.681 189.003 299.98 189.504C300.289 190.005 300.444 190.581 300.444 191.232C300.444 191.68 300.348 192.112 300.156 192.528C299.975 192.944 299.697 193.392 299.324 193.872C298.951 194.352 298.471 194.912 297.884 195.552L294.86 198.88H300.764V200H293.02ZM307.254 200.192C306.315 200.192 305.489 199.936 304.774 199.424C304.07 198.901 303.521 198.181 303.126 197.264C302.731 196.336 302.534 195.259 302.534 194.032C302.534 192.805 302.731 191.733 303.126 190.816C303.521 189.888 304.07 189.168 304.774 188.656C305.478 188.144 306.299 187.888 307.238 187.888C308.177 187.888 308.998 188.144 309.702 188.656C310.406 189.168 310.955 189.888 311.35 190.816C311.745 191.733 311.942 192.805 311.942 194.032C311.942 195.259 311.745 196.336 311.35 197.264C310.966 198.192 310.422 198.912 309.718 199.424C309.014 199.936 308.193 200.192 307.254 200.192ZM307.254 198.992C307.937 198.992 308.534 198.784 309.046 198.368C309.558 197.952 309.958 197.376 310.246 196.64C310.534 195.893 310.678 195.024 310.678 194.032C310.678 193.04 310.534 192.176 310.246 191.44C309.958 190.693 309.558 190.117 309.046 189.712C308.534 189.296 307.931 189.088 307.238 189.088C306.555 189.088 305.958 189.296 305.446 189.712C304.934 190.117 304.534 190.693 304.246 191.44C303.958 192.176 303.814 193.04 303.814 194.032C303.814 195.013 303.958 195.877 304.246 196.624C304.534 197.371 304.934 197.952 305.446 198.368C305.969 198.784 306.571 198.992 307.254 198.992ZM313.725 200V199.2L317.053 195.536C317.703 194.821 318.231 194.229 318.637 193.76C319.053 193.291 319.362 192.864 319.565 192.48C319.767 192.096 319.869 191.68 319.869 191.232C319.869 190.517 319.661 189.968 319.245 189.584C318.829 189.2 318.274 189.008 317.581 189.008C316.866 189.008 316.263 189.211 315.773 189.616C315.293 190.021 314.967 190.587 314.797 191.312L313.629 191.056C313.767 190.405 314.018 189.845 314.381 189.376C314.743 188.907 315.197 188.544 315.741 188.288C316.285 188.021 316.893 187.888 317.565 187.888C318.279 187.888 318.903 188.032 319.437 188.32C319.97 188.608 320.386 189.003 320.685 189.504C320.994 190.005 321.149 190.581 321.149 191.232C321.149 191.68 321.053 192.112 320.861 192.528C320.679 192.944 320.402 193.392 320.029 193.872C319.655 194.352 319.175 194.912 318.589 195.552L315.565 198.88H321.469V200H313.725ZM323.014 200V199.2L326.342 195.536C326.993 194.821 327.521 194.229 327.926 193.76C328.342 193.291 328.652 192.864 328.854 192.48C329.057 192.096 329.158 191.68 329.158 191.232C329.158 190.517 328.95 189.968 328.534 189.584C328.118 189.2 327.564 189.008 326.87 189.008C326.156 189.008 325.553 189.211 325.062 189.616C324.582 190.021 324.257 190.587 324.086 191.312L322.918 191.056C323.057 190.405 323.308 189.845 323.67 189.376C324.033 188.907 324.486 188.544 325.03 188.288C325.574 188.021 326.182 187.888 326.854 187.888C327.569 187.888 328.193 188.032 328.726 188.32C329.26 188.608 329.676 189.003 329.974 189.504C330.284 190.005 330.438 190.581 330.438 191.232C330.438 191.68 330.342 192.112 330.15 192.528C329.969 192.944 329.692 193.392 329.318 193.872C328.945 194.352 328.465 194.912 327.878 195.552L324.854 198.88H330.758V200H323.014ZM165.489 224L170.865 213.2H164.913V212.08H172.193V213.2L166.833 224H165.489ZM174.256 224V222.24H175.536V224H174.256ZM174.256 217.184V215.424H175.536V217.184H174.256ZM181.586 224.192C180.968 224.192 180.397 224.085 179.874 223.872C179.352 223.659 178.893 223.355 178.498 222.96C178.114 222.565 177.821 222.096 177.618 221.552L178.642 221.072C178.888 221.691 179.272 222.181 179.794 222.544C180.317 222.896 180.914 223.072 181.586 223.072C182.12 223.072 182.594 222.971 183.01 222.768C183.426 222.555 183.752 222.251 183.986 221.856C184.221 221.461 184.338 220.981 184.338 220.416C184.338 219.851 184.216 219.371 183.97 218.976C183.736 218.581 183.41 218.283 182.994 218.08C182.578 217.877 182.104 217.776 181.57 217.776C181.432 217.776 181.277 217.781 181.106 217.792C180.946 217.803 180.813 217.819 180.706 217.84L180.45 217.28L183.666 213.2H178.178V212.08H185.106V213.2L182.098 216.992L181.938 216.784C182.653 216.805 183.288 216.976 183.842 217.296C184.397 217.605 184.829 218.027 185.138 218.56C185.458 219.093 185.618 219.712 185.618 220.416C185.618 221.12 185.448 221.76 185.106 222.336C184.765 222.901 184.29 223.355 183.682 223.696C183.074 224.027 182.376 224.192 181.586 224.192ZM192.2 224.192C191.262 224.192 190.435 223.936 189.72 223.424C189.016 222.901 188.467 222.181 188.072 221.264C187.678 220.336 187.48 219.259 187.48 218.032C187.48 216.805 187.678 215.733 188.072 214.816C188.467 213.888 189.016 213.168 189.72 212.656C190.424 212.144 191.246 211.888 192.184 211.888C193.123 211.888 193.944 212.144 194.648 212.656C195.352 213.168 195.902 213.888 196.296 214.816C196.691 215.733 196.888 216.805 196.888 218.032C196.888 219.259 196.691 220.336 196.296 221.264C195.912 222.192 195.368 222.912 194.664 223.424C193.96 223.936 193.139 224.192 192.2 224.192ZM192.2 222.992C192.883 222.992 193.48 222.784 193.992 222.368C194.504 221.952 194.904 221.376 195.192 220.64C195.48 219.893 195.624 219.024 195.624 218.032C195.624 217.04 195.48 216.176 195.192 215.44C194.904 214.693 194.504 214.117 193.992 213.712C193.48 213.296 192.878 213.088 192.184 213.088C191.502 213.088 190.904 213.296 190.392 213.712C189.88 214.117 189.48 214.693 189.192 215.44C188.904 216.176 188.76 217.04 188.76 218.032C188.76 219.013 188.904 219.877 189.192 220.624C189.48 221.371 189.88 221.952 190.392 222.368C190.915 222.784 191.518 222.992 192.2 222.992ZM200.334 224L204.686 212.08H206.062L210.414 224H209.07L208.046 221.088H202.718L201.678 224H200.334ZM203.134 219.888H207.598L205.182 213.04H205.566L203.134 219.888ZM211.699 224V212.08H212.819L217.299 218.576H216.675L221.139 212.08H222.259V224H220.979V213.808L221.395 213.968L217.011 220.32H216.947L212.579 213.968L212.979 213.808V224H211.699ZM226.961 220.272V219.152H232.561V220.272H226.961ZM238.752 224V213.2H236.512V212.08H240.032V224H238.752ZM247.362 224.192C246.423 224.192 245.597 223.936 244.882 223.424C244.178 222.901 243.629 222.181 243.234 221.264C242.839 220.336 242.642 219.259 242.642 218.032C242.642 216.805 242.839 215.733 243.234 214.816C243.629 213.888 244.178 213.168 244.882 212.656C245.586 212.144 246.407 211.888 247.346 211.888C248.285 211.888 249.106 212.144 249.81 212.656C250.514 213.168 251.063 213.888 251.458 214.816C251.853 215.733 252.05 216.805 252.05 218.032C252.05 219.259 251.853 220.336 251.458 221.264C251.074 222.192 250.53 222.912 249.826 223.424C249.122 223.936 248.301 224.192 247.362 224.192ZM247.362 222.992C248.045 222.992 248.642 222.784 249.154 222.368C249.666 221.952 250.066 221.376 250.354 220.64C250.642 219.893 250.786 219.024 250.786 218.032C250.786 217.04 250.642 216.176 250.354 215.44C250.066 214.693 249.666 214.117 249.154 213.712C248.642 213.296 248.039 213.088 247.346 213.088C246.663 213.088 246.066 213.296 245.554 213.712C245.042 214.117 244.642 214.693 244.354 215.44C244.066 216.176 243.922 217.04 243.922 218.032C243.922 219.013 244.066 219.877 244.354 220.624C244.642 221.371 245.042 221.952 245.554 222.368C246.077 222.784 246.679 222.992 247.362 222.992ZM254.553 224V222.24H255.833V224H254.553ZM254.553 217.184V215.424H255.833V217.184H254.553ZM263.051 224.192C262.112 224.192 261.286 223.936 260.571 223.424C259.867 222.901 259.318 222.181 258.923 221.264C258.528 220.336 258.331 219.259 258.331 218.032C258.331 216.805 258.528 215.733 258.923 214.816C259.318 213.888 259.867 213.168 260.571 212.656C261.275 212.144 262.096 211.888 263.035 211.888C263.974 211.888 264.795 212.144 265.499 212.656C266.203 213.168 266.752 213.888 267.147 214.816C267.542 215.733 267.739 216.805 267.739 218.032C267.739 219.259 267.542 220.336 267.147 221.264C266.763 222.192 266.219 222.912 265.515 223.424C264.811 223.936 263.99 224.192 263.051 224.192ZM263.051 222.992C263.734 222.992 264.331 222.784 264.843 222.368C265.355 221.952 265.755 221.376 266.043 220.64C266.331 219.893 266.475 219.024 266.475 218.032C266.475 217.04 266.331 216.176 266.043 215.44C265.755 214.693 265.355 214.117 264.843 213.712C264.331 213.296 263.728 213.088 263.035 213.088C262.352 213.088 261.755 213.296 261.243 213.712C260.731 214.117 260.331 214.693 260.043 215.44C259.755 216.176 259.611 217.04 259.611 218.032C259.611 219.013 259.755 219.877 260.043 220.624C260.331 221.371 260.731 221.952 261.243 222.368C261.766 222.784 262.368 222.992 263.051 222.992ZM274.466 224.192C273.527 224.192 272.7 223.936 271.986 223.424C271.282 222.901 270.732 222.181 270.338 221.264C269.943 220.336 269.746 219.259 269.746 218.032C269.746 216.805 269.943 215.733 270.338 214.816C270.732 213.888 271.282 213.168 271.986 212.656C272.69 212.144 273.511 211.888 274.45 211.888C275.388 211.888 276.21 212.144 276.914 212.656C277.618 213.168 278.167 213.888 278.562 214.816C278.956 215.733 279.154 216.805 279.154 218.032C279.154 219.259 278.956 220.336 278.562 221.264C278.178 222.192 277.634 222.912 276.93 223.424C276.226 223.936 275.404 224.192 274.466 224.192ZM274.466 222.992C275.148 222.992 275.746 222.784 276.258 222.368C276.77 221.952 277.17 221.376 277.458 220.64C277.746 219.893 277.89 219.024 277.89 218.032C277.89 217.04 277.746 216.176 277.458 215.44C277.17 214.693 276.77 214.117 276.258 213.712C275.746 213.296 275.143 213.088 274.45 213.088C273.767 213.088 273.17 213.296 272.658 213.712C272.146 214.117 271.746 214.693 271.458 215.44C271.17 216.176 271.026 217.04 271.026 218.032C271.026 219.013 271.17 219.877 271.458 220.624C271.746 221.371 272.146 221.952 272.658 222.368C273.18 222.784 273.783 222.992 274.466 222.992ZM283.831 224V212.08H287.927C288.706 212.08 289.388 212.235 289.975 212.544C290.562 212.843 291.015 213.269 291.335 213.824C291.666 214.368 291.831 215.003 291.831 215.728C291.831 216.453 291.666 217.088 291.335 217.632C291.015 218.176 290.562 218.603 289.975 218.912C289.399 219.211 288.716 219.36 287.927 219.36H285.111V224H283.831ZM285.111 218.16H287.991C288.503 218.16 288.951 218.064 289.335 217.872C289.719 217.669 290.018 217.387 290.231 217.024C290.444 216.651 290.551 216.213 290.551 215.712C290.551 215.211 290.444 214.779 290.231 214.416C290.018 214.053 289.719 213.776 289.335 213.584C288.951 213.381 288.503 213.28 287.991 213.28H285.111V218.16ZM293.808 224V212.08H294.928L299.408 218.576H298.784L303.248 212.08H304.368V224H303.088V213.808L303.504 213.968L299.12 220.32H299.056L294.688 213.968L295.088 213.808V224H293.808Z" fill="#404246"/>
<g filter="url(#filter0_b_11738_1501)">
<rect x="27" y="250" width="415" height="34" rx="4" fill="#1D5033"/>
<path d="M53.528 272.154C52.87 272.154 52.716 271.986 52.59 271.65L50.63 266.148L48.698 271.65C48.572 271.986 48.39 272.154 47.732 272.154C47.074 272.154 46.934 271.986 46.808 271.65L43.924 263.6C43.588 262.676 42.86 262.886 42.86 262.34C42.86 262.158 43.028 262.032 43.238 262.032C43.546 262.032 43.966 262.074 44.624 262.074C45.268 262.074 45.828 262.032 46.206 262.032C46.514 262.032 46.696 262.144 46.696 262.382C46.696 262.872 45.884 262.746 45.884 263.306C45.884 263.474 45.94 263.726 46.066 264.09L48.166 270.138L50.07 264.594L49.72 263.6C49.398 262.676 48.684 262.886 48.684 262.34C48.684 262.158 48.852 262.032 49.062 262.032C49.37 262.032 49.748 262.074 50.42 262.074C51.064 262.074 51.638 262.032 52.03 262.032C52.338 262.032 52.492 262.144 52.492 262.382C52.492 262.872 51.666 262.746 51.666 263.306C51.666 263.474 51.722 263.74 51.848 264.09L53.934 270.11L55.894 264.146C56.048 263.67 56.104 263.46 56.104 263.306C56.104 262.746 55.194 262.872 55.194 262.382C55.194 262.144 55.362 262.032 55.684 262.032C56.062 262.032 56.51 262.074 56.916 262.074C57.322 262.074 57.672 262.032 57.952 262.032C58.176 262.032 58.316 262.158 58.316 262.34C58.316 262.9 57.56 262.648 57.252 263.572L54.466 271.65C54.354 271.986 54.158 272.154 53.528 272.154ZM61.4562 272.196C59.4262 272.196 57.8302 270.81 57.8302 268.57C57.8302 266.358 59.5382 264.874 61.4982 264.874C63.3462 264.874 64.5362 266.232 64.5362 267.576C64.5362 267.912 64.4242 267.996 64.1862 268.066L59.8462 269.382C60.2662 270.334 61.1062 271.02 62.1842 271.02C62.9542 271.02 63.5702 270.698 64.0882 270.25C64.2842 270.096 64.3822 270.026 64.4942 270.026C64.6902 270.026 64.8162 270.208 64.8162 270.362C64.8162 270.474 64.7742 270.572 64.6762 270.726C64.1862 271.44 62.9262 272.196 61.4562 272.196ZM59.5522 267.94C59.5522 268.15 59.5662 268.36 59.6082 268.556L62.4362 267.674C62.6602 267.604 62.7582 267.52 62.7582 267.254C62.7582 266.624 62.1422 265.826 61.2602 265.826C60.2802 265.826 59.5522 266.652 59.5522 267.94ZM68.7194 272.196C66.9974 272.196 65.5414 270.88 65.5414 268.64C65.5414 266.428 67.1094 264.874 69.1534 264.874C70.0634 264.874 70.7634 265.168 71.2674 265.63V263.67C71.2674 262.788 70.1614 263.25 70.1614 262.634C70.1614 262.368 70.4694 262.2 71.4074 261.808C72.2054 261.458 72.4574 261.416 72.5834 261.416C72.8774 261.416 72.9474 261.682 72.9474 261.99V269.914C72.9474 270.782 73.9414 270.502 73.9414 271.048C73.9414 271.342 73.6474 271.496 72.7234 271.818C71.9394 272.084 71.7434 272.14 71.6314 272.14C71.2814 272.14 71.2674 271.776 71.2674 271.538V270.838C70.7494 271.608 69.8954 272.196 68.7194 272.196ZM67.3194 268.136C67.3194 269.914 68.3834 270.978 69.4474 270.978C70.3574 270.978 71.2674 270.25 71.2674 268.934V268.276C71.2674 266.764 70.2174 265.77 69.1814 265.77C68.0334 265.77 67.3194 266.722 67.3194 268.136ZM77.7975 272.196C76.0755 272.196 74.6195 270.88 74.6195 268.64C74.6195 266.428 76.1875 264.874 78.2315 264.874C79.1415 264.874 79.8415 265.168 80.3455 265.63V263.67C80.3455 262.788 79.2395 263.25 79.2395 262.634C79.2395 262.368 79.5475 262.2 80.4855 261.808C81.2835 261.458 81.5355 261.416 81.6615 261.416C81.9555 261.416 82.0255 261.682 82.0255 261.99V269.914C82.0255 270.782 83.0195 270.502 83.0195 271.048C83.0195 271.342 82.7255 271.496 81.8015 271.818C81.0175 272.084 80.8215 272.14 80.7095 272.14C80.3595 272.14 80.3455 271.776 80.3455 271.538V270.838C79.8275 271.608 78.9735 272.196 77.7975 272.196ZM76.3975 268.136C76.3975 269.914 77.4615 270.978 78.5255 270.978C79.4355 270.978 80.3455 270.25 80.3455 268.934V268.276C80.3455 266.764 79.2955 265.77 78.2595 265.77C77.1115 265.77 76.3975 266.722 76.3975 268.136ZM84.1737 272.028C83.8937 272.028 83.7817 271.86 83.7817 271.692C83.7817 271.146 84.6357 271.496 84.6357 270.418V267.24C84.6357 266.372 83.6697 266.806 83.6697 266.218C83.6697 265.952 83.9637 265.77 84.8317 265.378C85.6437 265 85.8117 264.958 85.9377 264.958C86.2177 264.958 86.3157 265.182 86.3157 265.546V270.418C86.3157 271.496 87.1837 271.146 87.1837 271.692C87.1837 271.846 87.0577 272.028 86.7917 272.028C86.4697 272.028 86.0777 271.986 85.4757 271.986C84.8737 271.986 84.4957 272.028 84.1737 272.028ZM84.1317 262.914C84.1317 262.298 84.7757 261.626 85.6157 261.626C86.1197 261.626 86.5397 261.948 86.5397 262.452C86.5397 263.068 85.8537 263.712 85.0277 263.712C84.5237 263.712 84.1317 263.404 84.1317 262.914ZM93.3816 272.028C93.0736 272.028 92.9196 271.874 92.9196 271.678C92.9196 271.174 93.8016 271.44 93.8016 270.628C93.8016 270.502 93.7736 270.306 93.7456 270.096L93.4516 268.024C93.3256 267.184 93.0316 266.232 92.0936 266.232C91.3656 266.232 90.5676 266.806 90.5676 268.22V270.418C90.5676 271.496 91.4356 271.146 91.4356 271.692C91.4356 271.846 91.3096 272.028 91.0436 272.028C90.7216 272.028 90.3296 271.986 89.7276 271.986C89.1256 271.986 88.7476 272.028 88.4256 272.028C88.1456 272.028 88.0336 271.86 88.0336 271.692C88.0336 271.146 88.8876 271.496 88.8876 270.418V267.24C88.8876 266.372 87.9216 266.806 87.9216 266.218C87.9216 265.952 88.2156 265.77 89.0836 265.378C89.8956 265 90.0636 264.958 90.1896 264.958C90.4696 264.958 90.5676 265.182 90.5676 265.546V266.274C91.0156 265.546 91.7716 264.902 92.8496 264.902C94.4036 264.902 94.9356 266.33 95.1036 267.66L95.4676 270.264C95.6356 271.552 96.4336 271.132 96.4336 271.706C96.4336 271.916 96.2516 272.028 95.9996 272.028C95.6356 272.028 95.3416 271.986 94.6976 271.986C94.0256 271.986 93.7596 272.028 93.3816 272.028ZM100.686 274.688C98.2497 274.688 96.7377 273.974 96.7377 272.924C96.7377 272.364 97.1577 271.874 97.8577 271.566C97.3817 271.356 97.0737 270.978 97.0737 270.474C97.0737 269.942 97.5497 269.424 98.0957 269.06C97.3957 268.696 97.0037 268.108 97.0037 267.352C97.0037 266.022 98.2497 264.874 100.56 264.874C100.77 264.874 100.966 264.888 101.148 264.902C101.316 263.586 102.17 262.844 102.674 262.844C103.066 262.844 103.402 262.984 103.864 263.32C104.06 263.46 104.214 263.614 104.214 263.81C104.214 264.006 104.074 264.16 103.78 264.16C102.898 264.174 102.072 264.258 101.904 265.028C103.122 265.336 103.836 266.078 103.836 267.086C103.836 268.388 102.632 269.522 100.294 269.522C99.7617 269.522 99.2717 269.466 98.8517 269.354C98.6417 269.522 98.4457 269.676 98.4457 269.844C98.4457 270.054 98.6977 270.18 99.2717 270.25C100.546 270.376 101.778 270.474 102.436 270.53C103.752 270.656 104.662 271.258 104.662 272.364C104.662 273.722 103.094 274.688 100.686 274.688ZM98.1937 272.784C98.1937 273.554 99.1597 273.904 100.714 273.904C102.226 273.904 103.038 273.414 103.038 272.896C103.038 272.476 102.646 272.21 101.806 272.112L98.8097 271.79C98.4457 272.014 98.1937 272.392 98.1937 272.784ZM98.6977 267.156C98.6977 268.164 99.4957 268.724 100.476 268.724C101.442 268.724 102.128 268.15 102.128 267.24C102.128 266.232 101.33 265.672 100.35 265.672C99.3837 265.672 98.6977 266.26 98.6977 267.156ZM111.313 272.168C110.179 272.168 109.353 271.51 109.353 270.74C109.353 270.446 109.395 269.368 109.395 268.416V265.952H108.555C108.289 265.952 108.107 265.812 108.107 265.588C108.107 265.35 108.261 265.21 108.513 265.098C109.367 264.734 109.815 264.188 110.249 262.97C110.375 262.634 110.487 262.424 110.739 262.424C110.921 262.424 111.075 262.55 111.075 262.858V265.07H113.245C113.441 265.07 113.539 265.154 113.539 265.336C113.539 265.434 113.511 265.588 113.497 265.672C113.469 265.868 113.371 265.952 113.189 265.952H111.075V269.718C111.075 270.782 111.453 271.076 111.971 271.076C112.433 271.076 112.713 270.824 113.007 270.572C113.091 270.488 113.217 270.39 113.357 270.39C113.567 270.39 113.693 270.544 113.693 270.726C113.693 270.936 113.567 271.146 113.371 271.342C112.881 271.86 112.181 272.168 111.313 272.168ZM117.953 272.224C115.643 272.224 114.145 270.712 114.145 268.64C114.145 266.442 115.839 264.846 118.191 264.846C120.515 264.846 121.999 266.372 121.999 268.444C121.999 270.656 120.263 272.224 117.953 272.224ZM115.951 268.15C115.951 269.634 116.875 271.3 118.317 271.3C119.451 271.3 120.179 270.418 120.179 268.92C120.179 267.436 119.255 265.756 117.813 265.756C116.665 265.756 115.951 266.666 115.951 268.15ZM129.196 272.112C128.594 272.112 128.062 271.776 127.796 271.104C127.264 271.678 126.354 272.154 125.234 272.154C123.736 272.154 122.784 271.286 122.784 270.04C122.784 268.794 123.848 267.8 125.682 267.8C126.312 267.8 126.844 267.898 127.32 268.038L127.292 267.87C127.096 266.512 126.55 266.036 125.71 266.036C125.066 266.036 124.52 266.33 124.058 266.708C123.876 266.82 123.736 266.89 123.61 266.89C123.456 266.89 123.288 266.764 123.288 266.554C123.288 266.358 123.456 266.162 123.624 265.98C124.128 265.392 125.122 264.888 126.242 264.888C128.02 264.888 128.692 265.966 128.902 267.394L129.224 269.732C129.364 270.726 129.686 270.852 130.428 270.992C130.582 271.02 130.666 271.104 130.666 271.244C130.666 271.566 130.078 272.112 129.196 272.112ZM124.548 269.872C124.548 270.628 125.094 271.132 125.892 271.132C126.592 271.132 127.264 270.726 127.614 270.278L127.432 268.864C127.026 268.71 126.606 268.64 126.158 268.64C125.136 268.64 124.548 269.088 124.548 269.872ZM132.208 272.252C131.942 272.252 131.816 271.972 131.704 271.72L131.256 270.782C131.032 270.306 130.892 270.068 130.892 269.858C130.892 269.62 131.032 269.508 131.214 269.508C131.368 269.508 131.522 269.634 131.704 269.802C132.572 270.642 133.58 271.328 134.672 271.328C135.512 271.328 136.016 270.88 136.016 270.32C136.016 269.62 135.218 269.466 134.028 269.2C132.6 268.864 131.06 268.346 131.06 266.932C131.06 265.77 132.11 264.888 133.58 264.888C134.378 264.888 134.994 265.126 135.232 265.126C135.484 265.126 135.484 264.846 135.778 264.846C136.058 264.846 136.184 265.084 136.366 265.35L136.856 266.148C137.024 266.414 137.192 266.722 137.192 266.89C137.192 267.086 137.038 267.212 136.884 267.212C136.716 267.212 136.562 267.058 136.394 266.918C135.652 266.26 134.672 265.728 133.79 265.728C133.132 265.728 132.726 266.064 132.726 266.512C132.726 267.156 133.412 267.31 134.686 267.618C136.198 267.982 137.668 268.444 137.668 269.956C137.668 271.342 136.394 272.182 134.7 272.182C133.734 272.182 133.118 271.902 132.88 271.902C132.558 271.902 132.53 272.252 132.208 272.252ZM141.309 272.168C140.175 272.168 139.349 271.51 139.349 270.74C139.349 270.446 139.391 269.368 139.391 268.416V265.952H138.551C138.285 265.952 138.103 265.812 138.103 265.588C138.103 265.35 138.257 265.21 138.509 265.098C139.363 264.734 139.811 264.188 140.245 262.97C140.371 262.634 140.483 262.424 140.735 262.424C140.917 262.424 141.071 262.55 141.071 262.858V265.07H143.241C143.437 265.07 143.535 265.154 143.535 265.336C143.535 265.434 143.507 265.588 143.493 265.672C143.465 265.868 143.367 265.952 143.185 265.952H141.071V269.718C141.071 270.782 141.449 271.076 141.967 271.076C142.429 271.076 142.709 270.824 143.003 270.572C143.087 270.488 143.213 270.39 143.353 270.39C143.563 270.39 143.689 270.544 143.689 270.726C143.689 270.936 143.563 271.146 143.367 271.342C142.877 271.86 142.177 272.168 141.309 272.168Z" fill="white"/>
<path d="M360.172 271.5V263.4H358.492V262.56H361.132V271.5H360.172ZM364.625 271.5V263.4H362.945V262.56H365.585V271.5H364.625ZM369.69 271.644C369.282 271.644 368.918 271.568 368.598 271.416C368.278 271.256 368.026 271.04 367.842 270.768C367.658 270.496 367.566 270.184 367.566 269.832C367.566 269.496 367.638 269.192 367.782 268.92C367.926 268.64 368.15 268.404 368.454 268.212C368.758 268.02 369.146 267.884 369.618 267.804L372.138 267.384V268.2L369.834 268.584C369.37 268.664 369.034 268.812 368.826 269.028C368.626 269.244 368.526 269.5 368.526 269.796C368.526 270.084 368.638 270.328 368.862 270.528C369.094 270.728 369.39 270.828 369.75 270.828C370.19 270.828 370.574 270.736 370.902 270.552C371.23 270.36 371.486 270.104 371.67 269.784C371.854 269.464 371.946 269.108 371.946 268.716V267.084C371.946 266.7 371.806 266.388 371.526 266.148C371.246 265.908 370.882 265.788 370.434 265.788C370.042 265.788 369.698 265.888 369.402 266.088C369.106 266.28 368.886 266.532 368.742 266.844L367.926 266.4C368.046 266.128 368.234 265.88 368.49 265.656C368.754 265.432 369.054 265.256 369.39 265.128C369.726 264.992 370.074 264.924 370.434 264.924C370.906 264.924 371.322 265.016 371.682 265.2C372.05 265.384 372.334 265.64 372.534 265.968C372.742 266.288 372.846 266.66 372.846 267.084V271.5H371.946V270.216L372.078 270.348C371.966 270.588 371.79 270.808 371.55 271.008C371.318 271.2 371.042 271.356 370.722 271.476C370.41 271.588 370.066 271.644 369.69 271.644ZM374.697 271.5V265.068H375.597V266.292L375.453 266.112C375.629 265.736 375.889 265.444 376.233 265.236C376.585 265.028 376.969 264.924 377.385 264.924C377.881 264.924 378.329 265.064 378.729 265.344C379.129 265.624 379.413 265.988 379.581 266.436L379.329 266.448C379.489 265.952 379.765 265.576 380.157 265.32C380.557 265.056 380.997 264.924 381.477 264.924C381.909 264.924 382.305 265.028 382.665 265.236C383.033 265.444 383.325 265.732 383.541 266.1C383.765 266.46 383.877 266.868 383.877 267.324V271.5H382.977V267.672C382.977 267.28 382.905 266.948 382.761 266.676C382.625 266.404 382.437 266.196 382.197 266.052C381.957 265.9 381.681 265.824 381.369 265.824C381.065 265.824 380.789 265.9 380.541 266.052C380.293 266.196 380.097 266.408 379.953 266.688C379.809 266.96 379.737 267.288 379.737 267.672V271.5H378.837V267.672C378.837 267.28 378.765 266.948 378.621 266.676C378.485 266.404 378.297 266.196 378.057 266.052C377.817 265.9 377.541 265.824 377.229 265.824C376.917 265.824 376.637 265.9 376.389 266.052C376.149 266.196 375.957 266.408 375.813 266.688C375.669 266.96 375.597 267.288 375.597 267.672V271.5H374.697ZM387.599 268.704V267.864H391.799V268.704H387.599ZM396.899 271.5V263.4H395.219V262.56H397.859V271.5H396.899ZM399.876 271.5V270.9L402.372 268.152C402.86 267.616 403.256 267.172 403.56 266.82C403.872 266.468 404.104 266.148 404.256 265.86C404.408 265.572 404.484 265.26 404.484 264.924C404.484 264.388 404.328 263.976 404.016 263.688C403.704 263.4 403.288 263.256 402.768 263.256C402.232 263.256 401.78 263.408 401.412 263.712C401.052 264.016 400.808 264.44 400.68 264.984L399.804 264.792C399.908 264.304 400.096 263.884 400.368 263.532C400.64 263.18 400.98 262.908 401.388 262.716C401.796 262.516 402.252 262.416 402.756 262.416C403.292 262.416 403.76 262.524 404.16 262.74C404.56 262.956 404.872 263.252 405.096 263.628C405.328 264.004 405.444 264.436 405.444 264.924C405.444 265.26 405.372 265.584 405.228 265.896C405.092 266.208 404.884 266.544 404.604 266.904C404.324 267.264 403.964 267.684 403.524 268.164L401.256 270.66H405.684V271.5H399.876ZM407.299 273.9V265.068H408.199V266.508L408.055 266.256C408.311 265.848 408.651 265.524 409.075 265.284C409.507 265.044 409.999 264.924 410.551 264.924C411.159 264.924 411.699 265.072 412.171 265.368C412.651 265.656 413.027 266.052 413.299 266.556C413.579 267.06 413.719 267.636 413.719 268.284C413.719 268.924 413.579 269.5 413.299 270.012C413.027 270.516 412.651 270.916 412.171 271.212C411.699 271.5 411.159 271.644 410.551 271.644C409.999 271.644 409.499 271.52 409.051 271.272C408.611 271.016 408.279 270.656 408.055 270.192L408.199 270.06V273.9H407.299ZM410.503 270.744C410.935 270.744 411.319 270.636 411.655 270.42C411.999 270.204 412.267 269.912 412.459 269.544C412.659 269.168 412.759 268.748 412.759 268.284C412.759 267.812 412.659 267.392 412.459 267.024C412.267 266.656 411.999 266.364 411.655 266.148C411.319 265.932 410.935 265.824 410.503 265.824C410.071 265.824 409.679 265.932 409.327 266.148C408.983 266.364 408.707 266.66 408.499 267.036C408.299 267.404 408.199 267.82 408.199 268.284C408.199 268.748 408.299 269.168 408.499 269.544C408.707 269.912 408.983 270.204 409.327 270.42C409.679 270.636 410.071 270.744 410.503 270.744ZM415.303 271.5V265.068H416.203V266.292L416.059 266.112C416.235 265.736 416.495 265.444 416.839 265.236C417.191 265.028 417.575 264.924 417.991 264.924C418.487 264.924 418.935 265.064 419.335 265.344C419.735 265.624 420.019 265.988 420.187 266.436L419.935 266.448C420.095 265.952 420.371 265.576 420.763 265.32C421.163 265.056 421.603 264.924 422.083 264.924C422.515 264.924 422.911 265.028 423.271 265.236C423.639 265.444 423.931 265.732 424.147 266.1C424.371 266.46 424.483 266.868 424.483 267.324V271.5H423.583V267.672C423.583 267.28 423.511 266.948 423.367 266.676C423.231 266.404 423.043 266.196 422.803 266.052C422.563 265.9 422.287 265.824 421.975 265.824C421.671 265.824 421.395 265.9 421.147 266.052C420.899 266.196 420.703 266.408 420.559 266.688C420.415 266.96 420.343 267.288 420.343 267.672V271.5H419.443V267.672C419.443 267.28 419.371 266.948 419.227 266.676C419.091 266.404 418.903 266.196 418.663 266.052C418.423 265.9 418.147 265.824 417.835 265.824C417.523 265.824 417.243 265.9 416.995 266.052C416.755 266.196 416.563 266.408 416.419 266.688C416.275 266.96 416.203 267.288 416.203 267.672V271.5H415.303Z" fill="#ECECEC"/>
</g>
<g filter="url(#filter1_b_11738_1501)">
<rect x="27" y="300" width="415" height="34" rx="4" fill="#1D5033"/>
<path d="M50.392 322.308C50.014 322.308 49.972 322 49.44 322H45.394C44.764 322 44.302 322.042 44.036 322.042C43.7 322.042 43.588 321.888 43.588 321.692C43.588 321.132 44.484 321.454 44.484 320.488V313.586C44.484 312.62 43.588 312.942 43.588 312.368C43.588 312.2 43.728 312.032 44.036 312.032C44.372 312.032 44.736 312.074 45.394 312.074C46.052 312.074 46.472 312.032 46.808 312.032C47.116 312.032 47.228 312.2 47.228 312.368C47.228 312.942 46.332 312.62 46.332 313.586V320.516C46.332 320.922 46.514 321.09 46.934 321.09H48.32C49.398 321.09 50.126 320.362 51.148 319.284C51.372 319.06 51.498 318.92 51.694 318.92C51.876 318.92 52.044 319.074 52.044 319.298C52.044 319.55 51.946 319.788 51.652 320.39L51.036 321.692C50.84 322.098 50.672 322.308 50.392 322.308ZM55.6084 322.196C54.0824 322.196 53.2284 321.188 53.2284 319.48V317.184C53.2284 316.316 52.1504 316.624 52.1504 316.078C52.1504 315.784 52.4444 315.63 53.3964 315.294C54.2224 315 54.4044 314.972 54.5304 314.972C54.8664 314.972 54.9084 315.28 54.9084 315.56V319.102C54.9084 320.222 55.2584 320.894 56.2804 320.894C57.1344 320.894 58.0024 320.278 58.0024 318.878V317.184C58.0024 316.316 56.7984 316.652 56.7984 316.078C56.7984 315.798 57.1064 315.644 58.1704 315.28C58.9544 315.014 59.2064 314.972 59.3184 314.972C59.6404 314.972 59.6824 315.28 59.6824 315.56V320.026C59.6824 320.894 60.8024 320.726 60.8024 321.216C60.8024 321.552 60.5084 321.678 59.4724 321.916C58.7724 322.084 58.5204 322.126 58.3664 322.126C58.0864 322.126 58.0024 321.86 58.0024 321.594V320.838C57.5544 321.566 56.7844 322.196 55.6084 322.196ZM66.8719 322.028C66.5639 322.028 66.4099 321.874 66.4099 321.678C66.4099 321.174 67.2919 321.44 67.2919 320.628C67.2919 320.502 67.2639 320.306 67.2359 320.096L66.9419 318.024C66.8159 317.184 66.5219 316.232 65.5839 316.232C64.8559 316.232 64.0579 316.806 64.0579 318.22V320.418C64.0579 321.496 64.9259 321.146 64.9259 321.692C64.9259 321.846 64.7999 322.028 64.5339 322.028C64.2119 322.028 63.8199 321.986 63.2179 321.986C62.6159 321.986 62.2379 322.028 61.9159 322.028C61.6359 322.028 61.5239 321.86 61.5239 321.692C61.5239 321.146 62.3779 321.496 62.3779 320.418V317.24C62.3779 316.372 61.4119 316.806 61.4119 316.218C61.4119 315.952 61.7059 315.77 62.5739 315.378C63.3859 315 63.5539 314.958 63.6799 314.958C63.9599 314.958 64.0579 315.182 64.0579 315.546V316.274C64.5059 315.546 65.2619 314.902 66.3399 314.902C67.8939 314.902 68.4259 316.33 68.5939 317.66L68.9579 320.264C69.1259 321.552 69.9239 321.132 69.9239 321.706C69.9239 321.916 69.7419 322.028 69.4899 322.028C69.1259 322.028 68.8319 321.986 68.1879 321.986C67.5159 321.986 67.2499 322.028 66.8719 322.028ZM73.8966 322.196C71.9226 322.196 70.3266 320.894 70.3266 318.654C70.3266 316.372 72.0486 314.874 74.0226 314.874C75.5766 314.874 76.7806 315.812 76.7806 316.428C76.7806 316.736 76.5706 317.212 76.0386 317.73C75.8706 317.884 75.7586 317.954 75.6186 317.954C75.3946 317.954 75.2826 317.8 75.2266 317.52C75.0586 316.68 74.7786 315.686 73.7566 315.686C72.7766 315.686 72.0906 316.61 72.0906 318.01C72.0906 319.746 73.2106 320.992 74.6106 320.992C75.3246 320.992 75.9546 320.656 76.4166 320.152C76.5286 320.026 76.6406 319.956 76.7526 319.956C76.9346 319.956 77.0466 320.096 77.0466 320.292C77.0466 320.39 76.9906 320.53 76.9206 320.67C76.5426 321.384 75.4226 322.196 73.8966 322.196ZM78.0591 322.028C77.7651 322.028 77.6531 321.86 77.6531 321.692C77.6531 321.146 78.5071 321.496 78.5071 320.418V313.698C78.5071 312.816 77.5411 313.25 77.5411 312.662C77.5411 312.396 77.8491 312.228 78.7031 311.836C79.5151 311.458 79.6831 311.416 79.8371 311.416C80.1031 311.416 80.1871 311.626 80.1871 311.892V316.274C80.6351 315.546 81.3911 314.902 82.4691 314.902C84.0371 314.902 84.5551 316.33 84.7371 317.66L85.0871 320.264C85.2551 321.552 86.0671 321.132 86.0671 321.706C86.0671 321.902 85.8851 322.028 85.6191 322.028C85.2551 322.028 84.9611 321.986 84.3171 321.986C83.6451 321.986 83.3791 322.028 83.0151 322.028C82.7071 322.028 82.5391 321.874 82.5391 321.678C82.5391 321.174 83.4211 321.426 83.4211 320.67C83.4211 320.516 83.4071 320.376 83.3931 320.264L83.0711 318.024C82.9451 317.184 82.6511 316.232 81.7131 316.232C80.9851 316.232 80.1871 316.806 80.1871 318.22V320.418C80.1871 321.496 81.0551 321.146 81.0551 321.692C81.0551 321.846 80.9291 322.028 80.6631 322.028C80.3411 322.028 79.9491 321.986 79.3471 321.986C78.7451 321.986 78.3671 322.028 78.0591 322.028Z" fill="white"/>
<path d="M360.172 321.5V313.4H358.492V312.56H361.132V321.5H360.172ZM364.625 321.5V313.4H362.945V312.56H365.585V321.5H364.625ZM369.69 321.644C369.282 321.644 368.918 321.568 368.598 321.416C368.278 321.256 368.026 321.04 367.842 320.768C367.658 320.496 367.566 320.184 367.566 319.832C367.566 319.496 367.638 319.192 367.782 318.92C367.926 318.64 368.15 318.404 368.454 318.212C368.758 318.02 369.146 317.884 369.618 317.804L372.138 317.384V318.2L369.834 318.584C369.37 318.664 369.034 318.812 368.826 319.028C368.626 319.244 368.526 319.5 368.526 319.796C368.526 320.084 368.638 320.328 368.862 320.528C369.094 320.728 369.39 320.828 369.75 320.828C370.19 320.828 370.574 320.736 370.902 320.552C371.23 320.36 371.486 320.104 371.67 319.784C371.854 319.464 371.946 319.108 371.946 318.716V317.084C371.946 316.7 371.806 316.388 371.526 316.148C371.246 315.908 370.882 315.788 370.434 315.788C370.042 315.788 369.698 315.888 369.402 316.088C369.106 316.28 368.886 316.532 368.742 316.844L367.926 316.4C368.046 316.128 368.234 315.88 368.49 315.656C368.754 315.432 369.054 315.256 369.39 315.128C369.726 314.992 370.074 314.924 370.434 314.924C370.906 314.924 371.322 315.016 371.682 315.2C372.05 315.384 372.334 315.64 372.534 315.968C372.742 316.288 372.846 316.66 372.846 317.084V321.5H371.946V320.216L372.078 320.348C371.966 320.588 371.79 320.808 371.55 321.008C371.318 321.2 371.042 321.356 370.722 321.476C370.41 321.588 370.066 321.644 369.69 321.644ZM374.697 321.5V315.068H375.597V316.292L375.453 316.112C375.629 315.736 375.889 315.444 376.233 315.236C376.585 315.028 376.969 314.924 377.385 314.924C377.881 314.924 378.329 315.064 378.729 315.344C379.129 315.624 379.413 315.988 379.581 316.436L379.329 316.448C379.489 315.952 379.765 315.576 380.157 315.32C380.557 315.056 380.997 314.924 381.477 314.924C381.909 314.924 382.305 315.028 382.665 315.236C383.033 315.444 383.325 315.732 383.541 316.1C383.765 316.46 383.877 316.868 383.877 317.324V321.5H382.977V317.672C382.977 317.28 382.905 316.948 382.761 316.676C382.625 316.404 382.437 316.196 382.197 316.052C381.957 315.9 381.681 315.824 381.369 315.824C381.065 315.824 380.789 315.9 380.541 316.052C380.293 316.196 380.097 316.408 379.953 316.688C379.809 316.96 379.737 317.288 379.737 317.672V321.5H378.837V317.672C378.837 317.28 378.765 316.948 378.621 316.676C378.485 316.404 378.297 316.196 378.057 316.052C377.817 315.9 377.541 315.824 377.229 315.824C376.917 315.824 376.637 315.9 376.389 316.052C376.149 316.196 375.957 316.408 375.813 316.688C375.669 316.96 375.597 317.288 375.597 317.672V321.5H374.697ZM387.599 318.704V317.864H391.799V318.704H387.599ZM396.899 321.5V313.4H395.219V312.56H397.859V321.5H396.899ZM399.876 321.5V320.9L402.372 318.152C402.86 317.616 403.256 317.172 403.56 316.82C403.872 316.468 404.104 316.148 404.256 315.86C404.408 315.572 404.484 315.26 404.484 314.924C404.484 314.388 404.328 313.976 404.016 313.688C403.704 313.4 403.288 313.256 402.768 313.256C402.232 313.256 401.78 313.408 401.412 313.712C401.052 314.016 400.808 314.44 400.68 314.984L399.804 314.792C399.908 314.304 400.096 313.884 400.368 313.532C400.64 313.18 400.98 312.908 401.388 312.716C401.796 312.516 402.252 312.416 402.756 312.416C403.292 312.416 403.76 312.524 404.16 312.74C404.56 312.956 404.872 313.252 405.096 313.628C405.328 314.004 405.444 314.436 405.444 314.924C405.444 315.26 405.372 315.584 405.228 315.896C405.092 316.208 404.884 316.544 404.604 316.904C404.324 317.264 403.964 317.684 403.524 318.164L401.256 320.66H405.684V321.5H399.876ZM407.299 323.9V315.068H408.199V316.508L408.055 316.256C408.311 315.848 408.651 315.524 409.075 315.284C409.507 315.044 409.999 314.924 410.551 314.924C411.159 314.924 411.699 315.072 412.171 315.368C412.651 315.656 413.027 316.052 413.299 316.556C413.579 317.06 413.719 317.636 413.719 318.284C413.719 318.924 413.579 319.5 413.299 320.012C413.027 320.516 412.651 320.916 412.171 321.212C411.699 321.5 411.159 321.644 410.551 321.644C409.999 321.644 409.499 321.52 409.051 321.272C408.611 321.016 408.279 320.656 408.055 320.192L408.199 320.06V323.9H407.299ZM410.503 320.744C410.935 320.744 411.319 320.636 411.655 320.42C411.999 320.204 412.267 319.912 412.459 319.544C412.659 319.168 412.759 318.748 412.759 318.284C412.759 317.812 412.659 317.392 412.459 317.024C412.267 316.656 411.999 316.364 411.655 316.148C411.319 315.932 410.935 315.824 410.503 315.824C410.071 315.824 409.679 315.932 409.327 316.148C408.983 316.364 408.707 316.66 408.499 317.036C408.299 317.404 408.199 317.82 408.199 318.284C408.199 318.748 408.299 319.168 408.499 319.544C408.707 319.912 408.983 320.204 409.327 320.42C409.679 320.636 410.071 320.744 410.503 320.744ZM415.303 321.5V315.068H416.203V316.292L416.059 316.112C416.235 315.736 416.495 315.444 416.839 315.236C417.191 315.028 417.575 314.924 417.991 314.924C418.487 314.924 418.935 315.064 419.335 315.344C419.735 315.624 420.019 315.988 420.187 316.436L419.935 316.448C420.095 315.952 420.371 315.576 420.763 315.32C421.163 315.056 421.603 314.924 422.083 314.924C422.515 314.924 422.911 315.028 423.271 315.236C423.639 315.444 423.931 315.732 424.147 316.1C424.371 316.46 424.483 316.868 424.483 317.324V321.5H423.583V317.672C423.583 317.28 423.511 316.948 423.367 316.676C423.231 316.404 423.043 316.196 422.803 316.052C422.563 315.9 422.287 315.824 421.975 315.824C421.671 315.824 421.395 315.9 421.147 316.052C420.899 316.196 420.703 316.408 420.559 316.688C420.415 316.96 420.343 317.288 420.343 317.672V321.5H419.443V317.672C419.443 317.28 419.371 316.948 419.227 316.676C419.091 316.404 418.903 316.196 418.663 316.052C418.423 315.9 418.147 315.824 417.835 315.824C417.523 315.824 417.243 315.9 416.995 316.052C416.755 316.196 416.563 316.408 416.419 316.688C416.275 316.96 416.203 317.288 416.203 317.672V321.5H415.303Z" fill="#ECECEC"/>
</g>
</g>
<defs>
<filter id="filter0_b_11738_1501" x="15" y="238" width="439" height="58" filterUnits="userSpaceOnUse" color-interpolation-filters="sRGB">
<feFlood flood-opacity="0" result="BackgroundImageFix"/>
<feGaussianBlur in="BackgroundImageFix" stdDeviation="6"/>
<feComposite in2="SourceAlpha" operator="in" result="effect1_backgroundBlur_11738_1501"/>
<feBlend mode="normal" in="SourceGraphic" in2="effect1_backgroundBlur_11738_1501" result="shape"/>
</filter>
<filter id="filter1_b_11738_1501" x="15" y="288" width="439" height="58" filterUnits="userSpaceOnUse" color-interpolation-filters="sRGB">
<feFlood flood-opacity="0" result="BackgroundImageFix"/>
<feGaussianBlur in="BackgroundImageFix" stdDeviation="6"/>
<feComposite in2="SourceAlpha" operator="in" result="effect1_backgroundBlur_11738_1501"/>
<feBlend mode="normal" in="SourceGraphic" in2="effect1_backgroundBlur_11738_1501" result="shape"/>
</filter>
<clipPath id="clip0_11738_1501">
<rect width="470" height="343" fill="white"/>
</clipPath>
<clipPath id="clip1_11738_1501">
<rect width="91" height="97" fill="white" transform="translate(189.5 68)"/>
</clipPath>
</defs>
</svg>
