<svg width="449" height="234" viewBox="0 0 449 234" fill="none" xmlns="http://www.w3.org/2000/svg">
<g filter="url(#filter0_b_10581_1331)">
<rect width="449" height="34" rx="4" fill="#A4DDA3" fill-opacity="0.35"/>
<path d="M26.528 22.154C25.87 22.154 25.716 21.986 25.59 21.65L23.63 16.148L21.698 21.65C21.572 21.986 21.39 22.154 20.732 22.154C20.074 22.154 19.934 21.986 19.808 21.65L16.924 13.6C16.588 12.676 15.86 12.886 15.86 12.34C15.86 12.158 16.028 12.032 16.238 12.032C16.546 12.032 16.966 12.074 17.624 12.074C18.268 12.074 18.828 12.032 19.206 12.032C19.514 12.032 19.696 12.144 19.696 12.382C19.696 12.872 18.884 12.746 18.884 13.306C18.884 13.474 18.94 13.726 19.066 14.09L21.166 20.138L23.07 14.594L22.72 13.6C22.398 12.676 21.684 12.886 21.684 12.34C21.684 12.158 21.852 12.032 22.062 12.032C22.37 12.032 22.748 12.074 23.42 12.074C24.064 12.074 24.638 12.032 25.03 12.032C25.338 12.032 25.492 12.144 25.492 12.382C25.492 12.872 24.666 12.746 24.666 13.306C24.666 13.474 24.722 13.74 24.848 14.09L26.934 20.11L28.894 14.146C29.048 13.67 29.104 13.46 29.104 13.306C29.104 12.746 28.194 12.872 28.194 12.382C28.194 12.144 28.362 12.032 28.684 12.032C29.062 12.032 29.51 12.074 29.916 12.074C30.322 12.074 30.672 12.032 30.952 12.032C31.176 12.032 31.316 12.158 31.316 12.34C31.316 12.9 30.56 12.648 30.252 13.572L27.466 21.65C27.354 21.986 27.158 22.154 26.528 22.154ZM34.4562 22.196C32.4262 22.196 30.8302 20.81 30.8302 18.57C30.8302 16.358 32.5382 14.874 34.4982 14.874C36.3462 14.874 37.5362 16.232 37.5362 17.576C37.5362 17.912 37.4242 17.996 37.1862 18.066L32.8462 19.382C33.2662 20.334 34.1062 21.02 35.1842 21.02C35.9542 21.02 36.5702 20.698 37.0882 20.25C37.2842 20.096 37.3822 20.026 37.4942 20.026C37.6902 20.026 37.8162 20.208 37.8162 20.362C37.8162 20.474 37.7742 20.572 37.6762 20.726C37.1862 21.44 35.9262 22.196 34.4562 22.196ZM32.5522 17.94C32.5522 18.15 32.5662 18.36 32.6082 18.556L35.4362 17.674C35.6602 17.604 35.7582 17.52 35.7582 17.254C35.7582 16.624 35.1422 15.826 34.2602 15.826C33.2802 15.826 32.5522 16.652 32.5522 17.94ZM41.7194 22.196C39.9974 22.196 38.5414 20.88 38.5414 18.64C38.5414 16.428 40.1094 14.874 42.1534 14.874C43.0634 14.874 43.7634 15.168 44.2674 15.63V13.67C44.2674 12.788 43.1614 13.25 43.1614 12.634C43.1614 12.368 43.4694 12.2 44.4074 11.808C45.2054 11.458 45.4574 11.416 45.5834 11.416C45.8774 11.416 45.9474 11.682 45.9474 11.99V19.914C45.9474 20.782 46.9414 20.502 46.9414 21.048C46.9414 21.342 46.6474 21.496 45.7234 21.818C44.9394 22.084 44.7434 22.14 44.6314 22.14C44.2814 22.14 44.2674 21.776 44.2674 21.538V20.838C43.7494 21.608 42.8954 22.196 41.7194 22.196ZM40.3194 18.136C40.3194 19.914 41.3834 20.978 42.4474 20.978C43.3574 20.978 44.2674 20.25 44.2674 18.934V18.276C44.2674 16.764 43.2174 15.77 42.1814 15.77C41.0334 15.77 40.3194 16.722 40.3194 18.136ZM50.7975 22.196C49.0755 22.196 47.6195 20.88 47.6195 18.64C47.6195 16.428 49.1875 14.874 51.2315 14.874C52.1415 14.874 52.8415 15.168 53.3455 15.63V13.67C53.3455 12.788 52.2395 13.25 52.2395 12.634C52.2395 12.368 52.5475 12.2 53.4855 11.808C54.2835 11.458 54.5355 11.416 54.6615 11.416C54.9555 11.416 55.0255 11.682 55.0255 11.99V19.914C55.0255 20.782 56.0195 20.502 56.0195 21.048C56.0195 21.342 55.7255 21.496 54.8015 21.818C54.0175 22.084 53.8215 22.14 53.7095 22.14C53.3595 22.14 53.3455 21.776 53.3455 21.538V20.838C52.8275 21.608 51.9735 22.196 50.7975 22.196ZM49.3975 18.136C49.3975 19.914 50.4615 20.978 51.5255 20.978C52.4355 20.978 53.3455 20.25 53.3455 18.934V18.276C53.3455 16.764 52.2955 15.77 51.2595 15.77C50.1115 15.77 49.3975 16.722 49.3975 18.136ZM57.1737 22.028C56.8937 22.028 56.7817 21.86 56.7817 21.692C56.7817 21.146 57.6357 21.496 57.6357 20.418V17.24C57.6357 16.372 56.6697 16.806 56.6697 16.218C56.6697 15.952 56.9637 15.77 57.8317 15.378C58.6437 15 58.8117 14.958 58.9377 14.958C59.2177 14.958 59.3157 15.182 59.3157 15.546V20.418C59.3157 21.496 60.1837 21.146 60.1837 21.692C60.1837 21.846 60.0577 22.028 59.7917 22.028C59.4697 22.028 59.0777 21.986 58.4757 21.986C57.8737 21.986 57.4957 22.028 57.1737 22.028ZM57.1317 12.914C57.1317 12.298 57.7757 11.626 58.6157 11.626C59.1197 11.626 59.5397 11.948 59.5397 12.452C59.5397 13.068 58.8537 13.712 58.0277 13.712C57.5237 13.712 57.1317 13.404 57.1317 12.914ZM66.3816 22.028C66.0736 22.028 65.9196 21.874 65.9196 21.678C65.9196 21.174 66.8016 21.44 66.8016 20.628C66.8016 20.502 66.7736 20.306 66.7456 20.096L66.4516 18.024C66.3256 17.184 66.0316 16.232 65.0936 16.232C64.3656 16.232 63.5676 16.806 63.5676 18.22V20.418C63.5676 21.496 64.4356 21.146 64.4356 21.692C64.4356 21.846 64.3096 22.028 64.0436 22.028C63.7216 22.028 63.3296 21.986 62.7276 21.986C62.1256 21.986 61.7476 22.028 61.4256 22.028C61.1456 22.028 61.0336 21.86 61.0336 21.692C61.0336 21.146 61.8876 21.496 61.8876 20.418V17.24C61.8876 16.372 60.9216 16.806 60.9216 16.218C60.9216 15.952 61.2156 15.77 62.0836 15.378C62.8956 15 63.0636 14.958 63.1896 14.958C63.4696 14.958 63.5676 15.182 63.5676 15.546V16.274C64.0156 15.546 64.7716 14.902 65.8496 14.902C67.4036 14.902 67.9356 16.33 68.1036 17.66L68.4676 20.264C68.6356 21.552 69.4336 21.132 69.4336 21.706C69.4336 21.916 69.2516 22.028 68.9996 22.028C68.6356 22.028 68.3416 21.986 67.6976 21.986C67.0256 21.986 66.7596 22.028 66.3816 22.028ZM73.6857 24.688C71.2497 24.688 69.7377 23.974 69.7377 22.924C69.7377 22.364 70.1577 21.874 70.8577 21.566C70.3817 21.356 70.0737 20.978 70.0737 20.474C70.0737 19.942 70.5497 19.424 71.0957 19.06C70.3957 18.696 70.0037 18.108 70.0037 17.352C70.0037 16.022 71.2497 14.874 73.5597 14.874C73.7697 14.874 73.9657 14.888 74.1477 14.902C74.3157 13.586 75.1697 12.844 75.6737 12.844C76.0657 12.844 76.4017 12.984 76.8637 13.32C77.0597 13.46 77.2137 13.614 77.2137 13.81C77.2137 14.006 77.0737 14.16 76.7797 14.16C75.8977 14.174 75.0717 14.258 74.9037 15.028C76.1217 15.336 76.8357 16.078 76.8357 17.086C76.8357 18.388 75.6317 19.522 73.2937 19.522C72.7617 19.522 72.2717 19.466 71.8517 19.354C71.6417 19.522 71.4457 19.676 71.4457 19.844C71.4457 20.054 71.6977 20.18 72.2717 20.25C73.5457 20.376 74.7777 20.474 75.4357 20.53C76.7517 20.656 77.6617 21.258 77.6617 22.364C77.6617 23.722 76.0937 24.688 73.6857 24.688ZM71.1937 22.784C71.1937 23.554 72.1597 23.904 73.7137 23.904C75.2257 23.904 76.0377 23.414 76.0377 22.896C76.0377 22.476 75.6457 22.21 74.8057 22.112L71.8097 21.79C71.4457 22.014 71.1937 22.392 71.1937 22.784ZM71.6977 17.156C71.6977 18.164 72.4957 18.724 73.4757 18.724C74.4417 18.724 75.1277 18.15 75.1277 17.24C75.1277 16.232 74.3297 15.672 73.3497 15.672C72.3837 15.672 71.6977 16.26 71.6977 17.156ZM84.3128 22.168C83.1788 22.168 82.3528 21.51 82.3528 20.74C82.3528 20.446 82.3948 19.368 82.3948 18.416V15.952H81.5548C81.2888 15.952 81.1068 15.812 81.1068 15.588C81.1068 15.35 81.2608 15.21 81.5128 15.098C82.3668 14.734 82.8148 14.188 83.2488 12.97C83.3748 12.634 83.4868 12.424 83.7388 12.424C83.9208 12.424 84.0748 12.55 84.0748 12.858V15.07H86.2448C86.4408 15.07 86.5388 15.154 86.5388 15.336C86.5388 15.434 86.5108 15.588 86.4968 15.672C86.4688 15.868 86.3708 15.952 86.1888 15.952H84.0748V19.718C84.0748 20.782 84.4528 21.076 84.9708 21.076C85.4328 21.076 85.7128 20.824 86.0068 20.572C86.0908 20.488 86.2168 20.39 86.3568 20.39C86.5668 20.39 86.6928 20.544 86.6928 20.726C86.6928 20.936 86.5668 21.146 86.3708 21.342C85.8808 21.86 85.1808 22.168 84.3128 22.168ZM90.9529 22.224C88.6429 22.224 87.1449 20.712 87.1449 18.64C87.1449 16.442 88.8389 14.846 91.1909 14.846C93.5149 14.846 94.9989 16.372 94.9989 18.444C94.9989 20.656 93.2629 22.224 90.9529 22.224ZM88.9509 18.15C88.9509 19.634 89.8749 21.3 91.3169 21.3C92.4509 21.3 93.1789 20.418 93.1789 18.92C93.1789 17.436 92.2549 15.756 90.8129 15.756C89.6649 15.756 88.9509 16.666 88.9509 18.15ZM102.196 22.112C101.594 22.112 101.062 21.776 100.796 21.104C100.264 21.678 99.3536 22.154 98.2336 22.154C96.7356 22.154 95.7836 21.286 95.7836 20.04C95.7836 18.794 96.8476 17.8 98.6816 17.8C99.3116 17.8 99.8436 17.898 100.32 18.038L100.292 17.87C100.096 16.512 99.5496 16.036 98.7096 16.036C98.0656 16.036 97.5196 16.33 97.0576 16.708C96.8756 16.82 96.7356 16.89 96.6096 16.89C96.4556 16.89 96.2876 16.764 96.2876 16.554C96.2876 16.358 96.4556 16.162 96.6236 15.98C97.1276 15.392 98.1216 14.888 99.2416 14.888C101.02 14.888 101.692 15.966 101.902 17.394L102.224 19.732C102.364 20.726 102.686 20.852 103.428 20.992C103.582 21.02 103.666 21.104 103.666 21.244C103.666 21.566 103.078 22.112 102.196 22.112ZM97.5476 19.872C97.5476 20.628 98.0936 21.132 98.8916 21.132C99.5916 21.132 100.264 20.726 100.614 20.278L100.432 18.864C100.026 18.71 99.6056 18.64 99.1576 18.64C98.1356 18.64 97.5476 19.088 97.5476 19.872ZM105.208 22.252C104.942 22.252 104.816 21.972 104.704 21.72L104.256 20.782C104.032 20.306 103.892 20.068 103.892 19.858C103.892 19.62 104.032 19.508 104.214 19.508C104.368 19.508 104.522 19.634 104.704 19.802C105.572 20.642 106.58 21.328 107.672 21.328C108.512 21.328 109.016 20.88 109.016 20.32C109.016 19.62 108.218 19.466 107.028 19.2C105.6 18.864 104.06 18.346 104.06 16.932C104.06 15.77 105.11 14.888 106.58 14.888C107.378 14.888 107.994 15.126 108.232 15.126C108.484 15.126 108.484 14.846 108.778 14.846C109.058 14.846 109.184 15.084 109.366 15.35L109.856 16.148C110.024 16.414 110.192 16.722 110.192 16.89C110.192 17.086 110.038 17.212 109.884 17.212C109.716 17.212 109.562 17.058 109.394 16.918C108.652 16.26 107.672 15.728 106.79 15.728C106.132 15.728 105.726 16.064 105.726 16.512C105.726 17.156 106.412 17.31 107.686 17.618C109.198 17.982 110.668 18.444 110.668 19.956C110.668 21.342 109.394 22.182 107.7 22.182C106.734 22.182 106.118 21.902 105.88 21.902C105.558 21.902 105.53 22.252 105.208 22.252ZM114.309 22.168C113.175 22.168 112.349 21.51 112.349 20.74C112.349 20.446 112.391 19.368 112.391 18.416V15.952H111.551C111.285 15.952 111.103 15.812 111.103 15.588C111.103 15.35 111.257 15.21 111.509 15.098C112.363 14.734 112.811 14.188 113.245 12.97C113.371 12.634 113.483 12.424 113.735 12.424C113.917 12.424 114.071 12.55 114.071 12.858V15.07H116.241C116.437 15.07 116.535 15.154 116.535 15.336C116.535 15.434 116.507 15.588 116.493 15.672C116.465 15.868 116.367 15.952 116.185 15.952H114.071V19.718C114.071 20.782 114.449 21.076 114.967 21.076C115.429 21.076 115.709 20.824 116.003 20.572C116.087 20.488 116.213 20.39 116.353 20.39C116.563 20.39 116.689 20.544 116.689 20.726C116.689 20.936 116.563 21.146 116.367 21.342C115.877 21.86 115.177 22.168 114.309 22.168Z" fill="white"/>
<path d="M367.172 21.5V13.4H365.492V12.56H368.132V21.5H367.172ZM371.625 21.5V13.4H369.945V12.56H372.585V21.5H371.625ZM376.69 21.644C376.282 21.644 375.918 21.568 375.598 21.416C375.278 21.256 375.026 21.04 374.842 20.768C374.658 20.496 374.566 20.184 374.566 19.832C374.566 19.496 374.638 19.192 374.782 18.92C374.926 18.64 375.15 18.404 375.454 18.212C375.758 18.02 376.146 17.884 376.618 17.804L379.138 17.384V18.2L376.834 18.584C376.37 18.664 376.034 18.812 375.826 19.028C375.626 19.244 375.526 19.5 375.526 19.796C375.526 20.084 375.638 20.328 375.862 20.528C376.094 20.728 376.39 20.828 376.75 20.828C377.19 20.828 377.574 20.736 377.902 20.552C378.23 20.36 378.486 20.104 378.67 19.784C378.854 19.464 378.946 19.108 378.946 18.716V17.084C378.946 16.7 378.806 16.388 378.526 16.148C378.246 15.908 377.882 15.788 377.434 15.788C377.042 15.788 376.698 15.888 376.402 16.088C376.106 16.28 375.886 16.532 375.742 16.844L374.926 16.4C375.046 16.128 375.234 15.88 375.49 15.656C375.754 15.432 376.054 15.256 376.39 15.128C376.726 14.992 377.074 14.924 377.434 14.924C377.906 14.924 378.322 15.016 378.682 15.2C379.05 15.384 379.334 15.64 379.534 15.968C379.742 16.288 379.846 16.66 379.846 17.084V21.5H378.946V20.216L379.078 20.348C378.966 20.588 378.79 20.808 378.55 21.008C378.318 21.2 378.042 21.356 377.722 21.476C377.41 21.588 377.066 21.644 376.69 21.644ZM381.697 21.5V15.068H382.597V16.292L382.453 16.112C382.629 15.736 382.889 15.444 383.233 15.236C383.585 15.028 383.969 14.924 384.385 14.924C384.881 14.924 385.329 15.064 385.729 15.344C386.129 15.624 386.413 15.988 386.581 16.436L386.329 16.448C386.489 15.952 386.765 15.576 387.157 15.32C387.557 15.056 387.997 14.924 388.477 14.924C388.909 14.924 389.305 15.028 389.665 15.236C390.033 15.444 390.325 15.732 390.541 16.1C390.765 16.46 390.877 16.868 390.877 17.324V21.5H389.977V17.672C389.977 17.28 389.905 16.948 389.761 16.676C389.625 16.404 389.437 16.196 389.197 16.052C388.957 15.9 388.681 15.824 388.369 15.824C388.065 15.824 387.789 15.9 387.541 16.052C387.293 16.196 387.097 16.408 386.953 16.688C386.809 16.96 386.737 17.288 386.737 17.672V21.5H385.837V17.672C385.837 17.28 385.765 16.948 385.621 16.676C385.485 16.404 385.297 16.196 385.057 16.052C384.817 15.9 384.541 15.824 384.229 15.824C383.917 15.824 383.637 15.9 383.389 16.052C383.149 16.196 382.957 16.408 382.813 16.688C382.669 16.96 382.597 17.288 382.597 17.672V21.5H381.697ZM394.599 18.704V17.864H398.799V18.704H394.599ZM403.899 21.5V13.4H402.219V12.56H404.859V21.5H403.899ZM406.876 21.5V20.9L409.372 18.152C409.86 17.616 410.256 17.172 410.56 16.82C410.872 16.468 411.104 16.148 411.256 15.86C411.408 15.572 411.484 15.26 411.484 14.924C411.484 14.388 411.328 13.976 411.016 13.688C410.704 13.4 410.288 13.256 409.768 13.256C409.232 13.256 408.78 13.408 408.412 13.712C408.052 14.016 407.808 14.44 407.68 14.984L406.804 14.792C406.908 14.304 407.096 13.884 407.368 13.532C407.64 13.18 407.98 12.908 408.388 12.716C408.796 12.516 409.252 12.416 409.756 12.416C410.292 12.416 410.76 12.524 411.16 12.74C411.56 12.956 411.872 13.252 412.096 13.628C412.328 14.004 412.444 14.436 412.444 14.924C412.444 15.26 412.372 15.584 412.228 15.896C412.092 16.208 411.884 16.544 411.604 16.904C411.324 17.264 410.964 17.684 410.524 18.164L408.256 20.66H412.684V21.5H406.876ZM414.299 23.9V15.068H415.199V16.508L415.055 16.256C415.311 15.848 415.651 15.524 416.075 15.284C416.507 15.044 416.999 14.924 417.551 14.924C418.159 14.924 418.699 15.072 419.171 15.368C419.651 15.656 420.027 16.052 420.299 16.556C420.579 17.06 420.719 17.636 420.719 18.284C420.719 18.924 420.579 19.5 420.299 20.012C420.027 20.516 419.651 20.916 419.171 21.212C418.699 21.5 418.159 21.644 417.551 21.644C416.999 21.644 416.499 21.52 416.051 21.272C415.611 21.016 415.279 20.656 415.055 20.192L415.199 20.06V23.9H414.299ZM417.503 20.744C417.935 20.744 418.319 20.636 418.655 20.42C418.999 20.204 419.267 19.912 419.459 19.544C419.659 19.168 419.759 18.748 419.759 18.284C419.759 17.812 419.659 17.392 419.459 17.024C419.267 16.656 418.999 16.364 418.655 16.148C418.319 15.932 417.935 15.824 417.503 15.824C417.071 15.824 416.679 15.932 416.327 16.148C415.983 16.364 415.707 16.66 415.499 17.036C415.299 17.404 415.199 17.82 415.199 18.284C415.199 18.748 415.299 19.168 415.499 19.544C415.707 19.912 415.983 20.204 416.327 20.42C416.679 20.636 417.071 20.744 417.503 20.744ZM422.303 21.5V15.068H423.203V16.292L423.059 16.112C423.235 15.736 423.495 15.444 423.839 15.236C424.191 15.028 424.575 14.924 424.991 14.924C425.487 14.924 425.935 15.064 426.335 15.344C426.735 15.624 427.019 15.988 427.187 16.436L426.935 16.448C427.095 15.952 427.371 15.576 427.763 15.32C428.163 15.056 428.603 14.924 429.083 14.924C429.515 14.924 429.911 15.028 430.271 15.236C430.639 15.444 430.931 15.732 431.147 16.1C431.371 16.46 431.483 16.868 431.483 17.324V21.5H430.583V17.672C430.583 17.28 430.511 16.948 430.367 16.676C430.231 16.404 430.043 16.196 429.803 16.052C429.563 15.9 429.287 15.824 428.975 15.824C428.671 15.824 428.395 15.9 428.147 16.052C427.899 16.196 427.703 16.408 427.559 16.688C427.415 16.96 427.343 17.288 427.343 17.672V21.5H426.443V17.672C426.443 17.28 426.371 16.948 426.227 16.676C426.091 16.404 425.903 16.196 425.663 16.052C425.423 15.9 425.147 15.824 424.835 15.824C424.523 15.824 424.243 15.9 423.995 16.052C423.755 16.196 423.563 16.408 423.419 16.688C423.275 16.96 423.203 17.288 423.203 17.672V21.5H422.303Z" fill="#ECECEC"/>
</g>
<g filter="url(#filter1_b_10581_1331)">
<rect y="50" width="449" height="34" rx="4" fill="#A4DDA3" fill-opacity="0.35"/>
<path d="M23.392 72.308C23.014 72.308 22.972 72 22.44 72H18.394C17.764 72 17.302 72.042 17.036 72.042C16.7 72.042 16.588 71.888 16.588 71.692C16.588 71.132 17.484 71.454 17.484 70.488V63.586C17.484 62.62 16.588 62.942 16.588 62.368C16.588 62.2 16.728 62.032 17.036 62.032C17.372 62.032 17.736 62.074 18.394 62.074C19.052 62.074 19.472 62.032 19.808 62.032C20.116 62.032 20.228 62.2 20.228 62.368C20.228 62.942 19.332 62.62 19.332 63.586V70.516C19.332 70.922 19.514 71.09 19.934 71.09H21.32C22.398 71.09 23.126 70.362 24.148 69.284C24.372 69.06 24.498 68.92 24.694 68.92C24.876 68.92 25.044 69.074 25.044 69.298C25.044 69.55 24.946 69.788 24.652 70.39L24.036 71.692C23.84 72.098 23.672 72.308 23.392 72.308ZM28.6084 72.196C27.0824 72.196 26.2284 71.188 26.2284 69.48V67.184C26.2284 66.316 25.1504 66.624 25.1504 66.078C25.1504 65.784 25.4444 65.63 26.3964 65.294C27.2224 65 27.4044 64.972 27.5304 64.972C27.8664 64.972 27.9084 65.28 27.9084 65.56V69.102C27.9084 70.222 28.2584 70.894 29.2804 70.894C30.1344 70.894 31.0024 70.278 31.0024 68.878V67.184C31.0024 66.316 29.7984 66.652 29.7984 66.078C29.7984 65.798 30.1064 65.644 31.1704 65.28C31.9544 65.014 32.2064 64.972 32.3184 64.972C32.6404 64.972 32.6824 65.28 32.6824 65.56V70.026C32.6824 70.894 33.8024 70.726 33.8024 71.216C33.8024 71.552 33.5084 71.678 32.4724 71.916C31.7724 72.084 31.5204 72.126 31.3664 72.126C31.0864 72.126 31.0024 71.86 31.0024 71.594V70.838C30.5544 71.566 29.7844 72.196 28.6084 72.196ZM39.8719 72.028C39.5639 72.028 39.4099 71.874 39.4099 71.678C39.4099 71.174 40.2919 71.44 40.2919 70.628C40.2919 70.502 40.2639 70.306 40.2359 70.096L39.9419 68.024C39.8159 67.184 39.5219 66.232 38.5839 66.232C37.8559 66.232 37.0579 66.806 37.0579 68.22V70.418C37.0579 71.496 37.9259 71.146 37.9259 71.692C37.9259 71.846 37.7999 72.028 37.5339 72.028C37.2119 72.028 36.8199 71.986 36.2179 71.986C35.6159 71.986 35.2379 72.028 34.9159 72.028C34.6359 72.028 34.5239 71.86 34.5239 71.692C34.5239 71.146 35.3779 71.496 35.3779 70.418V67.24C35.3779 66.372 34.4119 66.806 34.4119 66.218C34.4119 65.952 34.7059 65.77 35.5739 65.378C36.3859 65 36.5539 64.958 36.6799 64.958C36.9599 64.958 37.0579 65.182 37.0579 65.546V66.274C37.5059 65.546 38.2619 64.902 39.3399 64.902C40.8939 64.902 41.4259 66.33 41.5939 67.66L41.9579 70.264C42.1259 71.552 42.9239 71.132 42.9239 71.706C42.9239 71.916 42.7419 72.028 42.4899 72.028C42.1259 72.028 41.8319 71.986 41.1879 71.986C40.5159 71.986 40.2499 72.028 39.8719 72.028ZM46.8966 72.196C44.9226 72.196 43.3266 70.894 43.3266 68.654C43.3266 66.372 45.0486 64.874 47.0226 64.874C48.5766 64.874 49.7806 65.812 49.7806 66.428C49.7806 66.736 49.5706 67.212 49.0386 67.73C48.8706 67.884 48.7586 67.954 48.6186 67.954C48.3946 67.954 48.2826 67.8 48.2266 67.52C48.0586 66.68 47.7786 65.686 46.7566 65.686C45.7766 65.686 45.0906 66.61 45.0906 68.01C45.0906 69.746 46.2106 70.992 47.6106 70.992C48.3246 70.992 48.9546 70.656 49.4166 70.152C49.5286 70.026 49.6406 69.956 49.7526 69.956C49.9346 69.956 50.0466 70.096 50.0466 70.292C50.0466 70.39 49.9906 70.53 49.9206 70.67C49.5426 71.384 48.4226 72.196 46.8966 72.196ZM51.0591 72.028C50.7651 72.028 50.6531 71.86 50.6531 71.692C50.6531 71.146 51.5071 71.496 51.5071 70.418V63.698C51.5071 62.816 50.5411 63.25 50.5411 62.662C50.5411 62.396 50.8491 62.228 51.7031 61.836C52.5151 61.458 52.6831 61.416 52.8371 61.416C53.1031 61.416 53.1871 61.626 53.1871 61.892V66.274C53.6351 65.546 54.3911 64.902 55.4691 64.902C57.0371 64.902 57.5551 66.33 57.7371 67.66L58.0871 70.264C58.2551 71.552 59.0671 71.132 59.0671 71.706C59.0671 71.902 58.8851 72.028 58.6191 72.028C58.2551 72.028 57.9611 71.986 57.3171 71.986C56.6451 71.986 56.3791 72.028 56.0151 72.028C55.7071 72.028 55.5391 71.874 55.5391 71.678C55.5391 71.174 56.4211 71.426 56.4211 70.67C56.4211 70.516 56.4071 70.376 56.3931 70.264L56.0711 68.024C55.9451 67.184 55.6511 66.232 54.7131 66.232C53.9851 66.232 53.1871 66.806 53.1871 68.22V70.418C53.1871 71.496 54.0551 71.146 54.0551 71.692C54.0551 71.846 53.9291 72.028 53.6631 72.028C53.3411 72.028 52.9491 71.986 52.3471 71.986C51.7451 71.986 51.3671 72.028 51.0591 72.028Z" fill="white"/>
<path d="M367.172 71.5V63.4H365.492V62.56H368.132V71.5H367.172ZM371.625 71.5V63.4H369.945V62.56H372.585V71.5H371.625ZM376.69 71.644C376.282 71.644 375.918 71.568 375.598 71.416C375.278 71.256 375.026 71.04 374.842 70.768C374.658 70.496 374.566 70.184 374.566 69.832C374.566 69.496 374.638 69.192 374.782 68.92C374.926 68.64 375.15 68.404 375.454 68.212C375.758 68.02 376.146 67.884 376.618 67.804L379.138 67.384V68.2L376.834 68.584C376.37 68.664 376.034 68.812 375.826 69.028C375.626 69.244 375.526 69.5 375.526 69.796C375.526 70.084 375.638 70.328 375.862 70.528C376.094 70.728 376.39 70.828 376.75 70.828C377.19 70.828 377.574 70.736 377.902 70.552C378.23 70.36 378.486 70.104 378.67 69.784C378.854 69.464 378.946 69.108 378.946 68.716V67.084C378.946 66.7 378.806 66.388 378.526 66.148C378.246 65.908 377.882 65.788 377.434 65.788C377.042 65.788 376.698 65.888 376.402 66.088C376.106 66.28 375.886 66.532 375.742 66.844L374.926 66.4C375.046 66.128 375.234 65.88 375.49 65.656C375.754 65.432 376.054 65.256 376.39 65.128C376.726 64.992 377.074 64.924 377.434 64.924C377.906 64.924 378.322 65.016 378.682 65.2C379.05 65.384 379.334 65.64 379.534 65.968C379.742 66.288 379.846 66.66 379.846 67.084V71.5H378.946V70.216L379.078 70.348C378.966 70.588 378.79 70.808 378.55 71.008C378.318 71.2 378.042 71.356 377.722 71.476C377.41 71.588 377.066 71.644 376.69 71.644ZM381.697 71.5V65.068H382.597V66.292L382.453 66.112C382.629 65.736 382.889 65.444 383.233 65.236C383.585 65.028 383.969 64.924 384.385 64.924C384.881 64.924 385.329 65.064 385.729 65.344C386.129 65.624 386.413 65.988 386.581 66.436L386.329 66.448C386.489 65.952 386.765 65.576 387.157 65.32C387.557 65.056 387.997 64.924 388.477 64.924C388.909 64.924 389.305 65.028 389.665 65.236C390.033 65.444 390.325 65.732 390.541 66.1C390.765 66.46 390.877 66.868 390.877 67.324V71.5H389.977V67.672C389.977 67.28 389.905 66.948 389.761 66.676C389.625 66.404 389.437 66.196 389.197 66.052C388.957 65.9 388.681 65.824 388.369 65.824C388.065 65.824 387.789 65.9 387.541 66.052C387.293 66.196 387.097 66.408 386.953 66.688C386.809 66.96 386.737 67.288 386.737 67.672V71.5H385.837V67.672C385.837 67.28 385.765 66.948 385.621 66.676C385.485 66.404 385.297 66.196 385.057 66.052C384.817 65.9 384.541 65.824 384.229 65.824C383.917 65.824 383.637 65.9 383.389 66.052C383.149 66.196 382.957 66.408 382.813 66.688C382.669 66.96 382.597 67.288 382.597 67.672V71.5H381.697ZM394.599 68.704V67.864H398.799V68.704H394.599ZM403.899 71.5V63.4H402.219V62.56H404.859V71.5H403.899ZM406.876 71.5V70.9L409.372 68.152C409.86 67.616 410.256 67.172 410.56 66.82C410.872 66.468 411.104 66.148 411.256 65.86C411.408 65.572 411.484 65.26 411.484 64.924C411.484 64.388 411.328 63.976 411.016 63.688C410.704 63.4 410.288 63.256 409.768 63.256C409.232 63.256 408.78 63.408 408.412 63.712C408.052 64.016 407.808 64.44 407.68 64.984L406.804 64.792C406.908 64.304 407.096 63.884 407.368 63.532C407.64 63.18 407.98 62.908 408.388 62.716C408.796 62.516 409.252 62.416 409.756 62.416C410.292 62.416 410.76 62.524 411.16 62.74C411.56 62.956 411.872 63.252 412.096 63.628C412.328 64.004 412.444 64.436 412.444 64.924C412.444 65.26 412.372 65.584 412.228 65.896C412.092 66.208 411.884 66.544 411.604 66.904C411.324 67.264 410.964 67.684 410.524 68.164L408.256 70.66H412.684V71.5H406.876ZM414.299 73.9V65.068H415.199V66.508L415.055 66.256C415.311 65.848 415.651 65.524 416.075 65.284C416.507 65.044 416.999 64.924 417.551 64.924C418.159 64.924 418.699 65.072 419.171 65.368C419.651 65.656 420.027 66.052 420.299 66.556C420.579 67.06 420.719 67.636 420.719 68.284C420.719 68.924 420.579 69.5 420.299 70.012C420.027 70.516 419.651 70.916 419.171 71.212C418.699 71.5 418.159 71.644 417.551 71.644C416.999 71.644 416.499 71.52 416.051 71.272C415.611 71.016 415.279 70.656 415.055 70.192L415.199 70.06V73.9H414.299ZM417.503 70.744C417.935 70.744 418.319 70.636 418.655 70.42C418.999 70.204 419.267 69.912 419.459 69.544C419.659 69.168 419.759 68.748 419.759 68.284C419.759 67.812 419.659 67.392 419.459 67.024C419.267 66.656 418.999 66.364 418.655 66.148C418.319 65.932 417.935 65.824 417.503 65.824C417.071 65.824 416.679 65.932 416.327 66.148C415.983 66.364 415.707 66.66 415.499 67.036C415.299 67.404 415.199 67.82 415.199 68.284C415.199 68.748 415.299 69.168 415.499 69.544C415.707 69.912 415.983 70.204 416.327 70.42C416.679 70.636 417.071 70.744 417.503 70.744ZM422.303 71.5V65.068H423.203V66.292L423.059 66.112C423.235 65.736 423.495 65.444 423.839 65.236C424.191 65.028 424.575 64.924 424.991 64.924C425.487 64.924 425.935 65.064 426.335 65.344C426.735 65.624 427.019 65.988 427.187 66.436L426.935 66.448C427.095 65.952 427.371 65.576 427.763 65.32C428.163 65.056 428.603 64.924 429.083 64.924C429.515 64.924 429.911 65.028 430.271 65.236C430.639 65.444 430.931 65.732 431.147 66.1C431.371 66.46 431.483 66.868 431.483 67.324V71.5H430.583V67.672C430.583 67.28 430.511 66.948 430.367 66.676C430.231 66.404 430.043 66.196 429.803 66.052C429.563 65.9 429.287 65.824 428.975 65.824C428.671 65.824 428.395 65.9 428.147 66.052C427.899 66.196 427.703 66.408 427.559 66.688C427.415 66.96 427.343 67.288 427.343 67.672V71.5H426.443V67.672C426.443 67.28 426.371 66.948 426.227 66.676C426.091 66.404 425.903 66.196 425.663 66.052C425.423 65.9 425.147 65.824 424.835 65.824C424.523 65.824 424.243 65.9 423.995 66.052C423.755 66.196 423.563 66.408 423.419 66.688C423.275 66.96 423.203 67.288 423.203 67.672V71.5H422.303Z" fill="#ECECEC"/>
</g>
<g filter="url(#filter2_b_10581_1331)">
<rect y="100" width="449" height="34" rx="4" fill="#A4DDA3" fill-opacity="0.35"/>
<path d="M21.306 122.21C18.772 122.21 16.518 120.39 16.518 117.212C16.518 114.104 18.702 111.85 21.222 111.85C22.202 111.85 22.972 112.186 23.294 112.186C23.616 112.186 23.644 111.808 23.966 111.808C24.232 111.808 24.386 112.06 24.568 112.536L25.044 113.754C25.282 114.356 25.422 114.594 25.422 114.86C25.422 115.126 25.226 115.266 25.044 115.266C24.848 115.266 24.708 115.154 24.526 114.916C23.504 113.586 22.664 112.83 21.572 112.83C19.836 112.83 18.534 114.538 18.534 116.862C18.534 119.256 19.892 120.894 21.894 120.894C23.056 120.894 24.008 120.306 24.652 119.41C24.764 119.27 24.89 119.102 25.128 119.102C25.352 119.102 25.534 119.27 25.534 119.522C25.534 119.662 25.464 119.858 25.352 120.068C24.764 121.132 23.21 122.21 21.306 122.21ZM32.6331 122.112C32.0311 122.112 31.4991 121.776 31.2331 121.104C30.7011 121.678 29.7911 122.154 28.6711 122.154C27.1731 122.154 26.2211 121.286 26.2211 120.04C26.2211 118.794 27.2851 117.8 29.1191 117.8C29.7491 117.8 30.2811 117.898 30.7571 118.038L30.7291 117.87C30.5331 116.512 29.9871 116.036 29.1471 116.036C28.5031 116.036 27.9571 116.33 27.4951 116.708C27.3131 116.82 27.1731 116.89 27.0471 116.89C26.8931 116.89 26.7251 116.764 26.7251 116.554C26.7251 116.358 26.8931 116.162 27.0611 115.98C27.5651 115.392 28.5591 114.888 29.6791 114.888C31.4571 114.888 32.1291 115.966 32.3391 117.394L32.6611 119.732C32.8011 120.726 33.1231 120.852 33.8651 120.992C34.0191 121.02 34.1031 121.104 34.1031 121.244C34.1031 121.566 33.5151 122.112 32.6331 122.112ZM27.9851 119.872C27.9851 120.628 28.5311 121.132 29.3291 121.132C30.0291 121.132 30.7011 120.726 31.0511 120.278L30.8691 118.864C30.4631 118.71 30.0431 118.64 29.5951 118.64C28.5731 118.64 27.9851 119.088 27.9851 119.872ZM34.7075 122.028C34.4135 122.028 34.3015 121.86 34.3015 121.692C34.3015 121.146 35.1555 121.496 35.1555 120.418V113.698C35.1555 112.816 34.1895 113.25 34.1895 112.662C34.1895 112.396 34.4975 112.228 35.3515 111.836C36.1635 111.458 36.3315 111.416 36.4855 111.416C36.7515 111.416 36.8355 111.626 36.8355 111.892V118.458L39.0475 116.526C39.2715 116.33 39.4115 116.204 39.4115 116.022C39.4115 115.672 38.7955 115.826 38.7955 115.364C38.7955 115.154 38.9635 115.042 39.2435 115.042C39.5375 115.042 40.0275 115.084 40.4055 115.084C40.7695 115.084 41.4555 115.042 41.7775 115.042C42.0015 115.042 42.1695 115.154 42.1695 115.35C42.1695 115.854 41.3575 115.728 40.7275 116.26L39.4395 117.338L41.7215 120.838C42.0855 121.412 42.6875 121.272 42.6875 121.72C42.6875 121.916 42.5195 122.028 42.2955 122.028C41.9315 122.028 41.5255 121.986 40.8675 121.986C40.2515 121.986 39.8875 122.028 39.5515 122.028C39.2575 122.028 39.1035 121.916 39.1035 121.692C39.1035 121.23 39.7475 121.412 39.7475 120.894C39.7475 120.768 39.6775 120.614 39.5515 120.404L38.2495 118.332L36.8355 119.508V120.418C36.8355 121.496 37.7035 121.146 37.7035 121.692C37.7035 121.846 37.5775 122.028 37.3115 122.028C36.9895 122.028 36.5975 121.986 35.9955 121.986C35.3935 121.986 35.0155 122.028 34.7075 122.028ZM46.3507 122.196C44.3207 122.196 42.7247 120.81 42.7247 118.57C42.7247 116.358 44.4327 114.874 46.3927 114.874C48.2407 114.874 49.4307 116.232 49.4307 117.576C49.4307 117.912 49.3187 117.996 49.0807 118.066L44.7407 119.382C45.1607 120.334 46.0007 121.02 47.0787 121.02C47.8487 121.02 48.4647 120.698 48.9827 120.25C49.1787 120.096 49.2767 120.026 49.3887 120.026C49.5847 120.026 49.7107 120.208 49.7107 120.362C49.7107 120.474 49.6687 120.572 49.5707 120.726C49.0807 121.44 47.8207 122.196 46.3507 122.196ZM44.4467 117.94C44.4467 118.15 44.4607 118.36 44.5027 118.556L47.3307 117.674C47.5547 117.604 47.6527 117.52 47.6527 117.254C47.6527 116.624 47.0367 115.826 46.1547 115.826C45.1747 115.826 44.4467 116.652 44.4467 117.94ZM58.7533 122.21C56.2193 122.21 53.9653 120.39 53.9653 117.212C53.9653 114.104 56.1493 111.85 58.6693 111.85C59.6493 111.85 60.4193 112.186 60.7413 112.186C61.0633 112.186 61.0913 111.808 61.4133 111.808C61.6793 111.808 61.8333 112.06 62.0153 112.536L62.4913 113.754C62.7293 114.356 62.8693 114.594 62.8693 114.86C62.8693 115.126 62.6733 115.266 62.4913 115.266C62.2953 115.266 62.1553 115.154 61.9733 114.916C60.9513 113.586 60.1113 112.83 59.0193 112.83C57.2833 112.83 55.9813 114.538 55.9813 116.862C55.9813 119.256 57.3393 120.894 59.3413 120.894C60.5033 120.894 61.4553 120.306 62.0993 119.41C62.2113 119.27 62.3373 119.102 62.5753 119.102C62.7993 119.102 62.9813 119.27 62.9813 119.522C62.9813 119.662 62.9113 119.858 62.7993 120.068C62.2113 121.132 60.6573 122.21 58.7533 122.21ZM66.9444 122.196C65.4184 122.196 64.5644 121.188 64.5644 119.48V117.184C64.5644 116.316 63.4864 116.624 63.4864 116.078C63.4864 115.784 63.7804 115.63 64.7324 115.294C65.5584 115 65.7404 114.972 65.8664 114.972C66.2024 114.972 66.2444 115.28 66.2444 115.56V119.102C66.2444 120.222 66.5944 120.894 67.6164 120.894C68.4704 120.894 69.3384 120.278 69.3384 118.878V117.184C69.3384 116.316 68.1344 116.652 68.1344 116.078C68.1344 115.798 68.4424 115.644 69.5064 115.28C70.2904 115.014 70.5424 114.972 70.6544 114.972C70.9764 114.972 71.0184 115.28 71.0184 115.56V120.026C71.0184 120.894 72.1384 120.726 72.1384 121.216C72.1384 121.552 71.8444 121.678 70.8084 121.916C70.1084 122.084 69.8564 122.126 69.7024 122.126C69.4224 122.126 69.3384 121.86 69.3384 121.594V120.838C68.8904 121.566 68.1204 122.196 66.9444 122.196ZM75.6038 122.168C74.4698 122.168 73.6438 121.51 73.6438 120.74C73.6438 120.446 73.6858 119.368 73.6858 118.416V115.952H72.8458C72.5798 115.952 72.3978 115.812 72.3978 115.588C72.3978 115.35 72.5518 115.21 72.8038 115.098C73.6578 114.734 74.1058 114.188 74.5398 112.97C74.6658 112.634 74.7778 112.424 75.0298 112.424C75.2118 112.424 75.3658 112.55 75.3658 112.858V115.07H77.5358C77.7318 115.07 77.8298 115.154 77.8298 115.336C77.8298 115.434 77.8018 115.588 77.7878 115.672C77.7598 115.868 77.6618 115.952 77.4798 115.952H75.3658V119.718C75.3658 120.782 75.7438 121.076 76.2618 121.076C76.7238 121.076 77.0038 120.824 77.2978 120.572C77.3818 120.488 77.5078 120.39 77.6478 120.39C77.8578 120.39 77.9838 120.544 77.9838 120.726C77.9838 120.936 77.8578 121.146 77.6618 121.342C77.1718 121.86 76.4718 122.168 75.6038 122.168ZM81.3597 122.168C80.2257 122.168 79.3997 121.51 79.3997 120.74C79.3997 120.446 79.4417 119.368 79.4417 118.416V115.952H78.6017C78.3357 115.952 78.1537 115.812 78.1537 115.588C78.1537 115.35 78.3077 115.21 78.5597 115.098C79.4137 114.734 79.8617 114.188 80.2957 112.97C80.4217 112.634 80.5337 112.424 80.7857 112.424C80.9677 112.424 81.1217 112.55 81.1217 112.858V115.07H83.2917C83.4877 115.07 83.5857 115.154 83.5857 115.336C83.5857 115.434 83.5577 115.588 83.5437 115.672C83.5157 115.868 83.4177 115.952 83.2357 115.952H81.1217V119.718C81.1217 120.782 81.4997 121.076 82.0177 121.076C82.4797 121.076 82.7597 120.824 83.0537 120.572C83.1377 120.488 83.2637 120.39 83.4037 120.39C83.6137 120.39 83.7397 120.544 83.7397 120.726C83.7397 120.936 83.6137 121.146 83.4177 121.342C82.9277 121.86 82.2277 122.168 81.3597 122.168ZM84.7635 122.028C84.4835 122.028 84.3715 121.86 84.3715 121.692C84.3715 121.146 85.2255 121.496 85.2255 120.418V117.24C85.2255 116.372 84.2595 116.806 84.2595 116.218C84.2595 115.952 84.5535 115.77 85.4215 115.378C86.2335 115 86.4015 114.958 86.5275 114.958C86.8075 114.958 86.9055 115.182 86.9055 115.546V120.418C86.9055 121.496 87.7735 121.146 87.7735 121.692C87.7735 121.846 87.6475 122.028 87.3815 122.028C87.0595 122.028 86.6675 121.986 86.0655 121.986C85.4635 121.986 85.0855 122.028 84.7635 122.028ZM84.7215 112.914C84.7215 112.298 85.3655 111.626 86.2055 111.626C86.7095 111.626 87.1295 111.948 87.1295 112.452C87.1295 113.068 86.4435 113.712 85.6175 113.712C85.1135 113.712 84.7215 113.404 84.7215 112.914ZM93.9715 122.028C93.6635 122.028 93.5095 121.874 93.5095 121.678C93.5095 121.174 94.3915 121.44 94.3915 120.628C94.3915 120.502 94.3635 120.306 94.3355 120.096L94.0415 118.024C93.9155 117.184 93.6215 116.232 92.6835 116.232C91.9555 116.232 91.1575 116.806 91.1575 118.22V120.418C91.1575 121.496 92.0255 121.146 92.0255 121.692C92.0255 121.846 91.8995 122.028 91.6335 122.028C91.3115 122.028 90.9195 121.986 90.3175 121.986C89.7155 121.986 89.3375 122.028 89.0155 122.028C88.7355 122.028 88.6235 121.86 88.6235 121.692C88.6235 121.146 89.4775 121.496 89.4775 120.418V117.24C89.4775 116.372 88.5115 116.806 88.5115 116.218C88.5115 115.952 88.8055 115.77 89.6735 115.378C90.4855 115 90.6535 114.958 90.7795 114.958C91.0595 114.958 91.1575 115.182 91.1575 115.546V116.274C91.6055 115.546 92.3615 114.902 93.4395 114.902C94.9935 114.902 95.5255 116.33 95.6935 117.66L96.0575 120.264C96.2255 121.552 97.0235 121.132 97.0235 121.706C97.0235 121.916 96.8415 122.028 96.5895 122.028C96.2255 122.028 95.9315 121.986 95.2875 121.986C94.6155 121.986 94.3495 122.028 93.9715 122.028ZM101.276 124.688C98.8395 124.688 97.3275 123.974 97.3275 122.924C97.3275 122.364 97.7475 121.874 98.4475 121.566C97.9715 121.356 97.6635 120.978 97.6635 120.474C97.6635 119.942 98.1395 119.424 98.6855 119.06C97.9855 118.696 97.5935 118.108 97.5935 117.352C97.5935 116.022 98.8395 114.874 101.15 114.874C101.36 114.874 101.556 114.888 101.738 114.902C101.906 113.586 102.76 112.844 103.264 112.844C103.656 112.844 103.992 112.984 104.454 113.32C104.65 113.46 104.804 113.614 104.804 113.81C104.804 114.006 104.664 114.16 104.37 114.16C103.488 114.174 102.662 114.258 102.494 115.028C103.712 115.336 104.426 116.078 104.426 117.086C104.426 118.388 103.222 119.522 100.884 119.522C100.352 119.522 99.8615 119.466 99.4415 119.354C99.2315 119.522 99.0355 119.676 99.0355 119.844C99.0355 120.054 99.2875 120.18 99.8615 120.25C101.136 120.376 102.368 120.474 103.026 120.53C104.342 120.656 105.252 121.258 105.252 122.364C105.252 123.722 103.684 124.688 101.276 124.688ZM98.7835 122.784C98.7835 123.554 99.7495 123.904 101.304 123.904C102.816 123.904 103.628 123.414 103.628 122.896C103.628 122.476 103.236 122.21 102.396 122.112L99.3995 121.79C99.0355 122.014 98.7835 122.392 98.7835 122.784ZM99.2875 117.156C99.2875 118.164 100.086 118.724 101.066 118.724C102.032 118.724 102.718 118.15 102.718 117.24C102.718 116.232 101.92 115.672 100.94 115.672C99.9735 115.672 99.2875 116.26 99.2875 117.156Z" fill="white"/>
<path d="M367.172 121.5V113.4H365.492V112.56H368.132V121.5H367.172ZM371.625 121.5V113.4H369.945V112.56H372.585V121.5H371.625ZM376.69 121.644C376.282 121.644 375.918 121.568 375.598 121.416C375.278 121.256 375.026 121.04 374.842 120.768C374.658 120.496 374.566 120.184 374.566 119.832C374.566 119.496 374.638 119.192 374.782 118.92C374.926 118.64 375.15 118.404 375.454 118.212C375.758 118.02 376.146 117.884 376.618 117.804L379.138 117.384V118.2L376.834 118.584C376.37 118.664 376.034 118.812 375.826 119.028C375.626 119.244 375.526 119.5 375.526 119.796C375.526 120.084 375.638 120.328 375.862 120.528C376.094 120.728 376.39 120.828 376.75 120.828C377.19 120.828 377.574 120.736 377.902 120.552C378.23 120.36 378.486 120.104 378.67 119.784C378.854 119.464 378.946 119.108 378.946 118.716V117.084C378.946 116.7 378.806 116.388 378.526 116.148C378.246 115.908 377.882 115.788 377.434 115.788C377.042 115.788 376.698 115.888 376.402 116.088C376.106 116.28 375.886 116.532 375.742 116.844L374.926 116.4C375.046 116.128 375.234 115.88 375.49 115.656C375.754 115.432 376.054 115.256 376.39 115.128C376.726 114.992 377.074 114.924 377.434 114.924C377.906 114.924 378.322 115.016 378.682 115.2C379.05 115.384 379.334 115.64 379.534 115.968C379.742 116.288 379.846 116.66 379.846 117.084V121.5H378.946V120.216L379.078 120.348C378.966 120.588 378.79 120.808 378.55 121.008C378.318 121.2 378.042 121.356 377.722 121.476C377.41 121.588 377.066 121.644 376.69 121.644ZM381.697 121.5V115.068H382.597V116.292L382.453 116.112C382.629 115.736 382.889 115.444 383.233 115.236C383.585 115.028 383.969 114.924 384.385 114.924C384.881 114.924 385.329 115.064 385.729 115.344C386.129 115.624 386.413 115.988 386.581 116.436L386.329 116.448C386.489 115.952 386.765 115.576 387.157 115.32C387.557 115.056 387.997 114.924 388.477 114.924C388.909 114.924 389.305 115.028 389.665 115.236C390.033 115.444 390.325 115.732 390.541 116.1C390.765 116.46 390.877 116.868 390.877 117.324V121.5H389.977V117.672C389.977 117.28 389.905 116.948 389.761 116.676C389.625 116.404 389.437 116.196 389.197 116.052C388.957 115.9 388.681 115.824 388.369 115.824C388.065 115.824 387.789 115.9 387.541 116.052C387.293 116.196 387.097 116.408 386.953 116.688C386.809 116.96 386.737 117.288 386.737 117.672V121.5H385.837V117.672C385.837 117.28 385.765 116.948 385.621 116.676C385.485 116.404 385.297 116.196 385.057 116.052C384.817 115.9 384.541 115.824 384.229 115.824C383.917 115.824 383.637 115.9 383.389 116.052C383.149 116.196 382.957 116.408 382.813 116.688C382.669 116.96 382.597 117.288 382.597 117.672V121.5H381.697ZM394.599 118.704V117.864H398.799V118.704H394.599ZM403.899 121.5V113.4H402.219V112.56H404.859V121.5H403.899ZM406.876 121.5V120.9L409.372 118.152C409.86 117.616 410.256 117.172 410.56 116.82C410.872 116.468 411.104 116.148 411.256 115.86C411.408 115.572 411.484 115.26 411.484 114.924C411.484 114.388 411.328 113.976 411.016 113.688C410.704 113.4 410.288 113.256 409.768 113.256C409.232 113.256 408.78 113.408 408.412 113.712C408.052 114.016 407.808 114.44 407.68 114.984L406.804 114.792C406.908 114.304 407.096 113.884 407.368 113.532C407.64 113.18 407.98 112.908 408.388 112.716C408.796 112.516 409.252 112.416 409.756 112.416C410.292 112.416 410.76 112.524 411.16 112.74C411.56 112.956 411.872 113.252 412.096 113.628C412.328 114.004 412.444 114.436 412.444 114.924C412.444 115.26 412.372 115.584 412.228 115.896C412.092 116.208 411.884 116.544 411.604 116.904C411.324 117.264 410.964 117.684 410.524 118.164L408.256 120.66H412.684V121.5H406.876ZM414.299 123.9V115.068H415.199V116.508L415.055 116.256C415.311 115.848 415.651 115.524 416.075 115.284C416.507 115.044 416.999 114.924 417.551 114.924C418.159 114.924 418.699 115.072 419.171 115.368C419.651 115.656 420.027 116.052 420.299 116.556C420.579 117.06 420.719 117.636 420.719 118.284C420.719 118.924 420.579 119.5 420.299 120.012C420.027 120.516 419.651 120.916 419.171 121.212C418.699 121.5 418.159 121.644 417.551 121.644C416.999 121.644 416.499 121.52 416.051 121.272C415.611 121.016 415.279 120.656 415.055 120.192L415.199 120.06V123.9H414.299ZM417.503 120.744C417.935 120.744 418.319 120.636 418.655 120.42C418.999 120.204 419.267 119.912 419.459 119.544C419.659 119.168 419.759 118.748 419.759 118.284C419.759 117.812 419.659 117.392 419.459 117.024C419.267 116.656 418.999 116.364 418.655 116.148C418.319 115.932 417.935 115.824 417.503 115.824C417.071 115.824 416.679 115.932 416.327 116.148C415.983 116.364 415.707 116.66 415.499 117.036C415.299 117.404 415.199 117.82 415.199 118.284C415.199 118.748 415.299 119.168 415.499 119.544C415.707 119.912 415.983 120.204 416.327 120.42C416.679 120.636 417.071 120.744 417.503 120.744ZM422.303 121.5V115.068H423.203V116.292L423.059 116.112C423.235 115.736 423.495 115.444 423.839 115.236C424.191 115.028 424.575 114.924 424.991 114.924C425.487 114.924 425.935 115.064 426.335 115.344C426.735 115.624 427.019 115.988 427.187 116.436L426.935 116.448C427.095 115.952 427.371 115.576 427.763 115.32C428.163 115.056 428.603 114.924 429.083 114.924C429.515 114.924 429.911 115.028 430.271 115.236C430.639 115.444 430.931 115.732 431.147 116.1C431.371 116.46 431.483 116.868 431.483 117.324V121.5H430.583V117.672C430.583 117.28 430.511 116.948 430.367 116.676C430.231 116.404 430.043 116.196 429.803 116.052C429.563 115.9 429.287 115.824 428.975 115.824C428.671 115.824 428.395 115.9 428.147 116.052C427.899 116.196 427.703 116.408 427.559 116.688C427.415 116.96 427.343 117.288 427.343 117.672V121.5H426.443V117.672C426.443 117.28 426.371 116.948 426.227 116.676C426.091 116.404 425.903 116.196 425.663 116.052C425.423 115.9 425.147 115.824 424.835 115.824C424.523 115.824 424.243 115.9 423.995 116.052C423.755 116.196 423.563 116.408 423.419 116.688C423.275 116.96 423.203 117.288 423.203 117.672V121.5H422.303Z" fill="#ECECEC"/>
</g>
<g filter="url(#filter3_b_10581_1331)">
<rect y="150" width="449" height="34" rx="4" fill="#A4DDA3" fill-opacity="0.35"/>
<path d="M21.306 172.21C18.772 172.21 16.518 170.39 16.518 167.212C16.518 164.104 18.702 161.85 21.222 161.85C22.202 161.85 22.972 162.186 23.294 162.186C23.616 162.186 23.644 161.808 23.966 161.808C24.232 161.808 24.386 162.06 24.568 162.536L25.044 163.754C25.282 164.356 25.422 164.594 25.422 164.86C25.422 165.126 25.226 165.266 25.044 165.266C24.848 165.266 24.708 165.154 24.526 164.916C23.504 163.586 22.664 162.83 21.572 162.83C19.836 162.83 18.534 164.538 18.534 166.862C18.534 169.256 19.892 170.894 21.894 170.894C23.056 170.894 24.008 170.306 24.652 169.41C24.764 169.27 24.89 169.102 25.128 169.102C25.352 169.102 25.534 169.27 25.534 169.522C25.534 169.662 25.464 169.858 25.352 170.068C24.764 171.132 23.21 172.21 21.306 172.21ZM30.1131 172.224C27.8031 172.224 26.3051 170.712 26.3051 168.64C26.3051 166.442 27.9991 164.846 30.3511 164.846C32.6751 164.846 34.1591 166.372 34.1591 168.444C34.1591 170.656 32.4231 172.224 30.1131 172.224ZM28.1111 168.15C28.1111 169.634 29.0351 171.3 30.4771 171.3C31.6111 171.3 32.3391 170.418 32.3391 168.92C32.3391 167.436 31.4151 165.756 29.9731 165.756C28.8251 165.756 28.1111 166.666 28.1111 168.15ZM38.2198 172.196C36.6938 172.196 35.8398 171.188 35.8398 169.48V167.184C35.8398 166.316 34.7618 166.624 34.7618 166.078C34.7618 165.784 35.0557 165.63 36.0078 165.294C36.8338 165 37.0158 164.972 37.1418 164.972C37.4778 164.972 37.5198 165.28 37.5198 165.56V169.102C37.5198 170.222 37.8698 170.894 38.8918 170.894C39.7458 170.894 40.6138 170.278 40.6138 168.878V167.184C40.6138 166.316 39.4098 166.652 39.4098 166.078C39.4098 165.798 39.7178 165.644 40.7818 165.28C41.5658 165.014 41.8178 164.972 41.9298 164.972C42.2518 164.972 42.2938 165.28 42.2938 165.56V170.026C42.2938 170.894 43.4138 170.726 43.4138 171.216C43.4138 171.552 43.1198 171.678 42.0838 171.916C41.3838 172.084 41.1318 172.126 40.9778 172.126C40.6978 172.126 40.6138 171.86 40.6138 171.594V170.838C40.1658 171.566 39.3958 172.196 38.2198 172.196ZM44.4292 174.534C44.1492 174.534 44.0232 174.352 44.0232 174.198C44.0232 173.652 44.8632 174.002 44.8632 172.924V167.24C44.8632 166.372 43.9252 166.806 43.9252 166.218C43.9252 165.938 44.2192 165.77 45.0872 165.378C45.8852 165 46.0252 164.958 46.1792 164.958C46.5152 164.958 46.5432 165.322 46.5432 165.546V166.26C47.0612 165.476 47.9152 164.874 49.1192 164.874C50.9112 164.874 52.2552 166.302 52.2552 168.472C52.2552 170.74 50.6872 172.196 48.7552 172.196C47.6492 172.196 47.0052 171.846 46.5432 171.468V172.924C46.5432 173.988 47.5512 173.61 47.5512 174.198C47.5512 174.352 47.4252 174.534 47.1592 174.534C46.8232 174.534 46.3612 174.492 45.7032 174.492C45.1152 174.492 44.7372 174.534 44.4292 174.534ZM46.5432 168.976C46.5432 170.348 47.3832 171.3 48.5592 171.3C49.6232 171.3 50.4632 170.502 50.4632 168.92C50.4632 167.282 49.5952 166.092 48.4052 166.092C47.4252 166.092 46.5432 166.89 46.5432 168.22V168.976ZM53.4653 172.028C53.1713 172.028 53.0593 171.86 53.0593 171.692C53.0593 171.146 53.9133 171.496 53.9133 170.418V163.698C53.9133 162.816 52.9473 163.25 52.9473 162.662C52.9473 162.396 53.2553 162.228 54.1093 161.836C54.9213 161.458 55.0893 161.416 55.2293 161.416C55.5093 161.416 55.5933 161.64 55.5933 161.99V170.418C55.5933 171.496 56.4613 171.146 56.4613 171.692C56.4613 171.846 56.3353 172.028 56.0693 172.028C55.7473 172.028 55.3553 171.986 54.7533 171.986C54.1513 171.986 53.7733 172.028 53.4653 172.028ZM60.8429 172.196C58.8129 172.196 57.2169 170.81 57.2169 168.57C57.2169 166.358 58.9249 164.874 60.8849 164.874C62.7329 164.874 63.9229 166.232 63.9229 167.576C63.9229 167.912 63.8109 167.996 63.5729 168.066L59.2329 169.382C59.6529 170.334 60.4929 171.02 61.5709 171.02C62.3409 171.02 62.9569 170.698 63.4749 170.25C63.6709 170.096 63.7689 170.026 63.8809 170.026C64.0769 170.026 64.2029 170.208 64.2029 170.362C64.2029 170.474 64.1609 170.572 64.0629 170.726C63.5729 171.44 62.3129 172.196 60.8429 172.196ZM58.9389 167.94C58.9389 168.15 58.9529 168.36 58.9949 168.556L61.8229 167.674C62.0469 167.604 62.1449 167.52 62.1449 167.254C62.1449 166.624 61.5289 165.826 60.6469 165.826C59.6669 165.826 58.9389 166.652 58.9389 167.94ZM65.121 165.588C64.911 165.588 64.771 165.462 64.771 165.294C64.771 165.112 64.897 165.014 65.051 164.902C65.289 164.72 65.653 164.398 65.653 164.062C65.653 163.852 65.401 163.768 65.205 163.656C64.925 163.516 64.659 163.334 64.659 162.886C64.659 162.34 65.177 161.906 65.863 161.906C66.619 161.906 66.997 162.312 66.997 163.054C66.997 164.356 65.751 165.588 65.121 165.588ZM68.5537 172.252C68.2877 172.252 68.1617 171.972 68.0497 171.72L67.6017 170.782C67.3777 170.306 67.2377 170.068 67.2377 169.858C67.2377 169.62 67.3777 169.508 67.5597 169.508C67.7137 169.508 67.8677 169.634 68.0497 169.802C68.9177 170.642 69.9257 171.328 71.0177 171.328C71.8577 171.328 72.3617 170.88 72.3617 170.32C72.3617 169.62 71.5637 169.466 70.3737 169.2C68.9457 168.864 67.4057 168.346 67.4057 166.932C67.4057 165.77 68.4557 164.888 69.9257 164.888C70.7237 164.888 71.3397 165.126 71.5777 165.126C71.8297 165.126 71.8297 164.846 72.1237 164.846C72.4037 164.846 72.5297 165.084 72.7117 165.35L73.2017 166.148C73.3697 166.414 73.5377 166.722 73.5377 166.89C73.5377 167.086 73.3837 167.212 73.2297 167.212C73.0617 167.212 72.9077 167.058 72.7397 166.918C71.9977 166.26 71.0177 165.728 70.1357 165.728C69.4777 165.728 69.0717 166.064 69.0717 166.512C69.0717 167.156 69.7577 167.31 71.0317 167.618C72.5437 167.982 74.0137 168.444 74.0137 169.956C74.0137 171.342 72.7397 172.182 71.0457 172.182C70.0797 172.182 69.4637 171.902 69.2257 171.902C68.9037 171.902 68.8757 172.252 68.5537 172.252ZM82.9339 172.042C82.0379 172.042 81.1419 171.986 80.2319 171.986C79.6019 171.986 79.1259 172.028 78.8739 172.028C78.5379 172.028 78.4119 171.874 78.4119 171.678C78.4119 171.118 79.3219 171.44 79.3219 170.474V163.586C79.3219 162.62 78.4119 162.942 78.4119 162.382C78.4119 162.186 78.5379 162.032 78.8739 162.032C79.1259 162.032 79.6019 162.074 80.2319 162.074C81.0019 162.074 81.7859 162.004 82.5559 162.004C85.9719 162.004 88.3799 164.118 88.3799 167.17C88.3799 170.068 86.2099 172.042 82.9339 172.042ZM81.1699 170.418C81.1699 170.922 81.4359 171.09 82.2899 171.09H82.7099C85.0339 171.09 86.3359 169.578 86.3359 167.072C86.3359 164.608 84.8939 162.942 82.5279 162.942H82.2899C81.4219 162.942 81.1699 163.138 81.1699 163.614V170.418ZM95.6058 172.112C95.0038 172.112 94.4718 171.776 94.2058 171.104C93.6738 171.678 92.7638 172.154 91.6438 172.154C90.1458 172.154 89.1938 171.286 89.1938 170.04C89.1938 168.794 90.2578 167.8 92.0918 167.8C92.7218 167.8 93.2538 167.898 93.7298 168.038L93.7018 167.87C93.5058 166.512 92.9597 166.036 92.1198 166.036C91.4758 166.036 90.9298 166.33 90.4678 166.708C90.2858 166.82 90.1458 166.89 90.0198 166.89C89.8658 166.89 89.6978 166.764 89.6978 166.554C89.6978 166.358 89.8658 166.162 90.0338 165.98C90.5378 165.392 91.5318 164.888 92.6518 164.888C94.4298 164.888 95.1018 165.966 95.3118 167.394L95.6338 169.732C95.7738 170.726 96.0958 170.852 96.8378 170.992C96.9918 171.02 97.0757 171.104 97.0757 171.244C97.0757 171.566 96.4878 172.112 95.6058 172.112ZM90.9578 169.872C90.9578 170.628 91.5038 171.132 92.3018 171.132C93.0018 171.132 93.6738 170.726 94.0238 170.278L93.8418 168.864C93.4358 168.71 93.0158 168.64 92.5678 168.64C91.5458 168.64 90.9578 169.088 90.9578 169.872ZM102.776 172.028C102.468 172.028 102.314 171.874 102.314 171.678C102.314 171.174 103.196 171.44 103.196 170.628C103.196 170.502 103.168 170.306 103.14 170.096L102.846 168.024C102.72 167.184 102.426 166.232 101.488 166.232C100.76 166.232 99.9622 166.806 99.9622 168.22V170.418C99.9622 171.496 100.83 171.146 100.83 171.692C100.83 171.846 100.704 172.028 100.438 172.028C100.116 172.028 99.7242 171.986 99.1222 171.986C98.5202 171.986 98.1422 172.028 97.8202 172.028C97.5402 172.028 97.4282 171.86 97.4282 171.692C97.4282 171.146 98.2822 171.496 98.2822 170.418V167.24C98.2822 166.372 97.3162 166.806 97.3162 166.218C97.3162 165.952 97.6102 165.77 98.4782 165.378C99.2902 165 99.4582 164.958 99.5842 164.958C99.8642 164.958 99.9622 165.182 99.9622 165.546V166.274C100.41 165.546 101.166 164.902 102.244 164.902C103.798 164.902 104.33 166.33 104.498 167.66L104.862 170.264C105.03 171.552 105.828 171.132 105.828 171.706C105.828 171.916 105.646 172.028 105.394 172.028C105.03 172.028 104.736 171.986 104.092 171.986C103.42 171.986 103.154 172.028 102.776 172.028ZM109.801 172.196C107.827 172.196 106.231 170.894 106.231 168.654C106.231 166.372 107.953 164.874 109.927 164.874C111.481 164.874 112.685 165.812 112.685 166.428C112.685 166.736 112.475 167.212 111.943 167.73C111.775 167.884 111.663 167.954 111.523 167.954C111.299 167.954 111.187 167.8 111.131 167.52C110.963 166.68 110.683 165.686 109.661 165.686C108.681 165.686 107.995 166.61 107.995 168.01C107.995 169.746 109.115 170.992 110.515 170.992C111.229 170.992 111.859 170.656 112.321 170.152C112.433 170.026 112.545 169.956 112.657 169.956C112.839 169.956 112.951 170.096 112.951 170.292C112.951 170.39 112.895 170.53 112.825 170.67C112.447 171.384 111.327 172.196 109.801 172.196ZM117.239 172.196C115.209 172.196 113.613 170.81 113.613 168.57C113.613 166.358 115.321 164.874 117.281 164.874C119.129 164.874 120.319 166.232 120.319 167.576C120.319 167.912 120.207 167.996 119.969 168.066L115.629 169.382C116.049 170.334 116.889 171.02 117.967 171.02C118.737 171.02 119.353 170.698 119.871 170.25C120.067 170.096 120.165 170.026 120.277 170.026C120.473 170.026 120.599 170.208 120.599 170.362C120.599 170.474 120.557 170.572 120.459 170.726C119.969 171.44 118.709 172.196 117.239 172.196ZM115.335 167.94C115.335 168.15 115.349 168.36 115.391 168.556L118.219 167.674C118.443 167.604 118.541 167.52 118.541 167.254C118.541 166.624 117.925 165.826 117.043 165.826C116.063 165.826 115.335 166.652 115.335 167.94Z" fill="white"/>
<path d="M367.172 171.5V163.4H365.492V162.56H368.132V171.5H367.172ZM371.625 171.5V163.4H369.945V162.56H372.585V171.5H371.625ZM376.69 171.644C376.282 171.644 375.918 171.568 375.598 171.416C375.278 171.256 375.026 171.04 374.842 170.768C374.658 170.496 374.566 170.184 374.566 169.832C374.566 169.496 374.638 169.192 374.782 168.92C374.926 168.64 375.15 168.404 375.454 168.212C375.758 168.02 376.146 167.884 376.618 167.804L379.138 167.384V168.2L376.834 168.584C376.37 168.664 376.034 168.812 375.826 169.028C375.626 169.244 375.526 169.5 375.526 169.796C375.526 170.084 375.638 170.328 375.862 170.528C376.094 170.728 376.39 170.828 376.75 170.828C377.19 170.828 377.574 170.736 377.902 170.552C378.23 170.36 378.486 170.104 378.67 169.784C378.854 169.464 378.946 169.108 378.946 168.716V167.084C378.946 166.7 378.806 166.388 378.526 166.148C378.246 165.908 377.882 165.788 377.434 165.788C377.042 165.788 376.698 165.888 376.402 166.088C376.106 166.28 375.886 166.532 375.742 166.844L374.926 166.4C375.046 166.128 375.234 165.88 375.49 165.656C375.754 165.432 376.054 165.256 376.39 165.128C376.726 164.992 377.074 164.924 377.434 164.924C377.906 164.924 378.322 165.016 378.682 165.2C379.05 165.384 379.334 165.64 379.534 165.968C379.742 166.288 379.846 166.66 379.846 167.084V171.5H378.946V170.216L379.078 170.348C378.966 170.588 378.79 170.808 378.55 171.008C378.318 171.2 378.042 171.356 377.722 171.476C377.41 171.588 377.066 171.644 376.69 171.644ZM381.697 171.5V165.068H382.597V166.292L382.453 166.112C382.629 165.736 382.889 165.444 383.233 165.236C383.585 165.028 383.969 164.924 384.385 164.924C384.881 164.924 385.329 165.064 385.729 165.344C386.129 165.624 386.413 165.988 386.581 166.436L386.329 166.448C386.489 165.952 386.765 165.576 387.157 165.32C387.557 165.056 387.997 164.924 388.477 164.924C388.909 164.924 389.305 165.028 389.665 165.236C390.033 165.444 390.325 165.732 390.541 166.1C390.765 166.46 390.877 166.868 390.877 167.324V171.5H389.977V167.672C389.977 167.28 389.905 166.948 389.761 166.676C389.625 166.404 389.437 166.196 389.197 166.052C388.957 165.9 388.681 165.824 388.369 165.824C388.065 165.824 387.789 165.9 387.541 166.052C387.293 166.196 387.097 166.408 386.953 166.688C386.809 166.96 386.737 167.288 386.737 167.672V171.5H385.837V167.672C385.837 167.28 385.765 166.948 385.621 166.676C385.485 166.404 385.297 166.196 385.057 166.052C384.817 165.9 384.541 165.824 384.229 165.824C383.917 165.824 383.637 165.9 383.389 166.052C383.149 166.196 382.957 166.408 382.813 166.688C382.669 166.96 382.597 167.288 382.597 167.672V171.5H381.697ZM394.599 168.704V167.864H398.799V168.704H394.599ZM403.899 171.5V163.4H402.219V162.56H404.859V171.5H403.899ZM406.876 171.5V170.9L409.372 168.152C409.86 167.616 410.256 167.172 410.56 166.82C410.872 166.468 411.104 166.148 411.256 165.86C411.408 165.572 411.484 165.26 411.484 164.924C411.484 164.388 411.328 163.976 411.016 163.688C410.704 163.4 410.288 163.256 409.768 163.256C409.232 163.256 408.78 163.408 408.412 163.712C408.052 164.016 407.808 164.44 407.68 164.984L406.804 164.792C406.908 164.304 407.096 163.884 407.368 163.532C407.64 163.18 407.98 162.908 408.388 162.716C408.796 162.516 409.252 162.416 409.756 162.416C410.292 162.416 410.76 162.524 411.16 162.74C411.56 162.956 411.872 163.252 412.096 163.628C412.328 164.004 412.444 164.436 412.444 164.924C412.444 165.26 412.372 165.584 412.228 165.896C412.092 166.208 411.884 166.544 411.604 166.904C411.324 167.264 410.964 167.684 410.524 168.164L408.256 170.66H412.684V171.5H406.876ZM414.299 173.9V165.068H415.199V166.508L415.055 166.256C415.311 165.848 415.651 165.524 416.075 165.284C416.507 165.044 416.999 164.924 417.551 164.924C418.159 164.924 418.699 165.072 419.171 165.368C419.651 165.656 420.027 166.052 420.299 166.556C420.579 167.06 420.719 167.636 420.719 168.284C420.719 168.924 420.579 169.5 420.299 170.012C420.027 170.516 419.651 170.916 419.171 171.212C418.699 171.5 418.159 171.644 417.551 171.644C416.999 171.644 416.499 171.52 416.051 171.272C415.611 171.016 415.279 170.656 415.055 170.192L415.199 170.06V173.9H414.299ZM417.503 170.744C417.935 170.744 418.319 170.636 418.655 170.42C418.999 170.204 419.267 169.912 419.459 169.544C419.659 169.168 419.759 168.748 419.759 168.284C419.759 167.812 419.659 167.392 419.459 167.024C419.267 166.656 418.999 166.364 418.655 166.148C418.319 165.932 417.935 165.824 417.503 165.824C417.071 165.824 416.679 165.932 416.327 166.148C415.983 166.364 415.707 166.66 415.499 167.036C415.299 167.404 415.199 167.82 415.199 168.284C415.199 168.748 415.299 169.168 415.499 169.544C415.707 169.912 415.983 170.204 416.327 170.42C416.679 170.636 417.071 170.744 417.503 170.744ZM422.303 171.5V165.068H423.203V166.292L423.059 166.112C423.235 165.736 423.495 165.444 423.839 165.236C424.191 165.028 424.575 164.924 424.991 164.924C425.487 164.924 425.935 165.064 426.335 165.344C426.735 165.624 427.019 165.988 427.187 166.436L426.935 166.448C427.095 165.952 427.371 165.576 427.763 165.32C428.163 165.056 428.603 164.924 429.083 164.924C429.515 164.924 429.911 165.028 430.271 165.236C430.639 165.444 430.931 165.732 431.147 166.1C431.371 166.46 431.483 166.868 431.483 167.324V171.5H430.583V167.672C430.583 167.28 430.511 166.948 430.367 166.676C430.231 166.404 430.043 166.196 429.803 166.052C429.563 165.9 429.287 165.824 428.975 165.824C428.671 165.824 428.395 165.9 428.147 166.052C427.899 166.196 427.703 166.408 427.559 166.688C427.415 166.96 427.343 167.288 427.343 167.672V171.5H426.443V167.672C426.443 167.28 426.371 166.948 426.227 166.676C426.091 166.404 425.903 166.196 425.663 166.052C425.423 165.9 425.147 165.824 424.835 165.824C424.523 165.824 424.243 165.9 423.995 166.052C423.755 166.196 423.563 166.408 423.419 166.688C423.275 166.96 423.203 167.288 423.203 167.672V171.5H422.303Z" fill="#ECECEC"/>
</g>
<g filter="url(#filter4_b_10581_1331)">
<rect y="200" width="449" height="34" rx="4" fill="#A4DDA3" fill-opacity="0.35"/>
<path d="M21.096 222.042C20.2 222.042 19.304 221.986 18.394 221.986C17.764 221.986 17.288 222.028 17.036 222.028C16.7 222.028 16.574 221.874 16.574 221.678C16.574 221.118 17.484 221.44 17.484 220.474V213.586C17.484 212.62 16.574 212.942 16.574 212.382C16.574 212.186 16.7 212.032 17.036 212.032C17.288 212.032 17.764 212.074 18.394 212.074C19.164 212.074 19.948 212.004 20.718 212.004C24.134 212.004 26.542 214.118 26.542 217.17C26.542 220.068 24.372 222.042 21.096 222.042ZM19.332 220.418C19.332 220.922 19.598 221.09 20.452 221.09H20.872C23.196 221.09 24.498 219.578 24.498 217.072C24.498 214.608 23.056 212.942 20.69 212.942H20.452C19.584 212.942 19.332 213.138 19.332 213.614V220.418ZM27.9432 222.028C27.6632 222.028 27.5512 221.86 27.5512 221.692C27.5512 221.146 28.4052 221.496 28.4052 220.418V217.24C28.4052 216.372 27.4392 216.806 27.4392 216.218C27.4392 215.952 27.7332 215.77 28.6012 215.378C29.4132 215 29.5812 214.958 29.7072 214.958C29.9872 214.958 30.0852 215.182 30.0852 215.546V216.806C30.5332 215.7 31.5272 214.902 32.5352 214.902C33.2072 214.902 33.6692 215.266 33.6692 215.7C33.6692 215.994 33.5432 216.428 33.3052 217.086C33.2212 217.352 33.0952 217.506 32.8712 217.506C32.6612 217.506 32.5632 217.324 32.4512 217.1C32.2412 216.638 32.0312 216.4 31.6952 216.4C31.0932 216.4 30.0852 217.296 30.0852 219.13V220.418C30.0852 221.496 31.1212 221.104 31.1212 221.692C31.1212 221.846 31.0092 222.028 30.7292 222.028C30.3792 222.028 29.9172 221.986 29.2452 221.986C28.6432 221.986 28.2652 222.028 27.9432 222.028ZM34.6834 222.028C34.4034 222.028 34.2914 221.86 34.2914 221.692C34.2914 221.146 35.1454 221.496 35.1454 220.418V217.24C35.1454 216.372 34.1794 216.806 34.1794 216.218C34.1794 215.952 34.4734 215.77 35.3414 215.378C36.1534 215 36.3214 214.958 36.4474 214.958C36.7274 214.958 36.8254 215.182 36.8254 215.546V220.418C36.8254 221.496 37.6934 221.146 37.6934 221.692C37.6934 221.846 37.5674 222.028 37.3014 222.028C36.9794 222.028 36.5874 221.986 35.9854 221.986C35.3834 221.986 35.0054 222.028 34.6834 222.028ZM34.6414 212.914C34.6414 212.298 35.2854 211.626 36.1254 211.626C36.6294 211.626 37.0494 211.948 37.0494 212.452C37.0494 213.068 36.3634 213.712 35.5374 213.712C35.0334 213.712 34.6414 213.404 34.6414 212.914ZM43.8914 222.028C43.5834 222.028 43.4294 221.874 43.4294 221.678C43.4294 221.174 44.3114 221.44 44.3114 220.628C44.3114 220.502 44.2834 220.306 44.2554 220.096L43.9614 218.024C43.8354 217.184 43.5414 216.232 42.6034 216.232C41.8754 216.232 41.0774 216.806 41.0774 218.22V220.418C41.0774 221.496 41.9454 221.146 41.9454 221.692C41.9454 221.846 41.8194 222.028 41.5534 222.028C41.2314 222.028 40.8394 221.986 40.2374 221.986C39.6354 221.986 39.2574 222.028 38.9354 222.028C38.6554 222.028 38.5434 221.86 38.5434 221.692C38.5434 221.146 39.3974 221.496 39.3974 220.418V217.24C39.3974 216.372 38.4314 216.806 38.4314 216.218C38.4314 215.952 38.7254 215.77 39.5934 215.378C40.4054 215 40.5734 214.958 40.6994 214.958C40.9794 214.958 41.0774 215.182 41.0774 215.546V216.274C41.5254 215.546 42.2814 214.902 43.3594 214.902C44.9134 214.902 45.4454 216.33 45.6134 217.66L45.9774 220.264C46.1454 221.552 46.9434 221.132 46.9434 221.706C46.9434 221.916 46.7614 222.028 46.5094 222.028C46.1454 222.028 45.8514 221.986 45.2074 221.986C44.5354 221.986 44.2694 222.028 43.8914 222.028ZM47.7095 222.028C47.4155 222.028 47.3035 221.86 47.3035 221.692C47.3035 221.146 48.1575 221.496 48.1575 220.418V213.698C48.1575 212.816 47.1915 213.25 47.1915 212.662C47.1915 212.396 47.4995 212.228 48.3535 211.836C49.1655 211.458 49.3335 211.416 49.4875 211.416C49.7535 211.416 49.8375 211.626 49.8375 211.892V218.458L52.0495 216.526C52.2735 216.33 52.4135 216.204 52.4135 216.022C52.4135 215.672 51.7975 215.826 51.7975 215.364C51.7975 215.154 51.9655 215.042 52.2455 215.042C52.5395 215.042 53.0295 215.084 53.4075 215.084C53.7715 215.084 54.4575 215.042 54.7795 215.042C55.0035 215.042 55.1715 215.154 55.1715 215.35C55.1715 215.854 54.3595 215.728 53.7295 216.26L52.4415 217.338L54.7235 220.838C55.0875 221.412 55.6895 221.272 55.6895 221.72C55.6895 221.916 55.5215 222.028 55.2975 222.028C54.9335 222.028 54.5275 221.986 53.8695 221.986C53.2535 221.986 52.8895 222.028 52.5535 222.028C52.2595 222.028 52.1055 221.916 52.1055 221.692C52.1055 221.23 52.7495 221.412 52.7495 220.894C52.7495 220.768 52.6795 220.614 52.5535 220.404L51.2515 218.332L49.8375 219.508V220.418C49.8375 221.496 50.7055 221.146 50.7055 221.692C50.7055 221.846 50.5795 222.028 50.3135 222.028C49.9915 222.028 49.5995 221.986 48.9975 221.986C48.3955 221.986 48.0175 222.028 47.7095 222.028ZM57.124 222.252C56.858 222.252 56.732 221.972 56.62 221.72L56.172 220.782C55.948 220.306 55.808 220.068 55.808 219.858C55.808 219.62 55.948 219.508 56.13 219.508C56.284 219.508 56.438 219.634 56.62 219.802C57.488 220.642 58.496 221.328 59.588 221.328C60.428 221.328 60.932 220.88 60.932 220.32C60.932 219.62 60.134 219.466 58.944 219.2C57.516 218.864 55.976 218.346 55.976 216.932C55.976 215.77 57.026 214.888 58.496 214.888C59.294 214.888 59.91 215.126 60.148 215.126C60.4 215.126 60.4 214.846 60.694 214.846C60.974 214.846 61.1 215.084 61.282 215.35L61.772 216.148C61.94 216.414 62.108 216.722 62.108 216.89C62.108 217.086 61.954 217.212 61.8 217.212C61.632 217.212 61.478 217.058 61.31 216.918C60.568 216.26 59.588 215.728 58.706 215.728C58.048 215.728 57.642 216.064 57.642 216.512C57.642 217.156 58.328 217.31 59.602 217.618C61.114 217.982 62.584 218.444 62.584 219.956C62.584 221.342 61.31 222.182 59.616 222.182C58.65 222.182 58.034 221.902 57.796 221.902C57.474 221.902 57.446 222.252 57.124 222.252ZM73.1702 222.112C72.5682 222.112 72.0362 221.776 71.7702 221.104C71.2382 221.678 70.3282 222.154 69.2082 222.154C67.7102 222.154 66.7582 221.286 66.7582 220.04C66.7582 218.794 67.8222 217.8 69.6562 217.8C70.2862 217.8 70.8182 217.898 71.2942 218.038L71.2662 217.87C71.0702 216.512 70.5242 216.036 69.6842 216.036C69.0402 216.036 68.4942 216.33 68.0322 216.708C67.8502 216.82 67.7102 216.89 67.5842 216.89C67.4302 216.89 67.2622 216.764 67.2622 216.554C67.2622 216.358 67.4302 216.162 67.5982 215.98C68.1022 215.392 69.0962 214.888 70.2162 214.888C71.9942 214.888 72.6662 215.966 72.8762 217.394L73.1982 219.732C73.3382 220.726 73.6602 220.852 74.4022 220.992C74.5562 221.02 74.6402 221.104 74.6402 221.244C74.6402 221.566 74.0522 222.112 73.1702 222.112ZM68.5222 219.872C68.5222 220.628 69.0682 221.132 69.8662 221.132C70.5662 221.132 71.2382 220.726 71.5882 220.278L71.4062 218.864C71.0002 218.71 70.5802 218.64 70.1322 218.64C69.1102 218.64 68.5222 219.088 68.5222 219.872ZM80.3406 222.028C80.0326 222.028 79.8786 221.874 79.8786 221.678C79.8786 221.174 80.7606 221.44 80.7606 220.628C80.7606 220.502 80.7326 220.306 80.7046 220.096L80.4106 218.024C80.2846 217.184 79.9906 216.232 79.0526 216.232C78.3246 216.232 77.5266 216.806 77.5266 218.22V220.418C77.5266 221.496 78.3946 221.146 78.3946 221.692C78.3946 221.846 78.2686 222.028 78.0026 222.028C77.6806 222.028 77.2886 221.986 76.6866 221.986C76.0846 221.986 75.7066 222.028 75.3846 222.028C75.1046 222.028 74.9926 221.86 74.9926 221.692C74.9926 221.146 75.8466 221.496 75.8466 220.418V217.24C75.8466 216.372 74.8806 216.806 74.8806 216.218C74.8806 215.952 75.1746 215.77 76.0426 215.378C76.8546 215 77.0226 214.958 77.1486 214.958C77.4286 214.958 77.5266 215.182 77.5266 215.546V216.274C77.9746 215.546 78.7306 214.902 79.8086 214.902C81.3626 214.902 81.8946 216.33 82.0626 217.66L82.4266 220.264C82.5946 221.552 83.3926 221.132 83.3926 221.706C83.3926 221.916 83.2106 222.028 82.9586 222.028C82.5946 222.028 82.3006 221.986 81.6566 221.986C80.9846 221.986 80.7186 222.028 80.3406 222.028ZM87.0007 222.196C85.2787 222.196 83.8227 220.88 83.8227 218.64C83.8227 216.428 85.3907 214.874 87.4347 214.874C88.3447 214.874 89.0447 215.168 89.5487 215.63V213.67C89.5487 212.788 88.4427 213.25 88.4427 212.634C88.4427 212.368 88.7507 212.2 89.6887 211.808C90.4867 211.458 90.7387 211.416 90.8647 211.416C91.1587 211.416 91.2287 211.682 91.2287 211.99V219.914C91.2287 220.782 92.2227 220.502 92.2227 221.048C92.2227 221.342 91.9287 221.496 91.0047 221.818C90.2207 222.084 90.0247 222.14 89.9127 222.14C89.5627 222.14 89.5487 221.776 89.5487 221.538V220.838C89.0307 221.608 88.1767 222.196 87.0007 222.196ZM85.6007 218.136C85.6007 219.914 86.6647 220.978 87.7287 220.978C88.6387 220.978 89.5487 220.25 89.5487 218.934V218.276C89.5487 216.764 88.4987 215.77 87.4627 215.77C86.3147 215.77 85.6007 216.722 85.6007 218.136ZM96.9201 222.028C96.6121 222.028 96.5001 221.874 96.5001 221.692C96.5001 221.118 97.3961 221.44 97.3961 220.488V213.572C97.3961 212.606 96.5001 212.928 96.5001 212.368C96.5001 212.172 96.6121 212.018 96.9481 212.018C97.2141 212.018 97.6761 212.06 98.3061 212.06H102.338C102.828 212.06 102.87 211.752 103.206 211.752C103.472 211.752 103.654 211.934 103.892 212.452L104.424 213.586C104.676 214.118 104.788 214.356 104.788 214.594C104.788 214.832 104.606 214.958 104.438 214.958C104.256 214.958 104.116 214.832 103.92 214.622C102.94 213.586 102.38 212.97 101.274 212.97H100.238C99.3701 212.97 99.2441 213.166 99.2441 213.656V216.288C99.2441 216.526 99.3281 216.624 99.6501 216.624H101.19C102.058 216.624 102.016 215.56 102.534 215.56C102.744 215.56 102.898 215.686 102.898 216.022C102.898 216.358 102.856 216.722 102.856 217.072C102.856 217.436 102.898 217.828 102.898 218.136C102.898 218.486 102.744 218.612 102.534 218.612C102.016 218.612 102.058 217.534 101.19 217.534H99.6501C99.3281 217.534 99.2441 217.632 99.2441 217.87V220.488C99.2441 221.44 100.336 221.118 100.336 221.692C100.336 221.874 100.21 222.028 99.9161 222.028C99.5381 222.028 99.0481 221.986 98.3341 221.986C97.6621 221.986 97.2561 222.028 96.9201 222.028ZM108.315 222.196C106.789 222.196 105.935 221.188 105.935 219.48V217.184C105.935 216.316 104.857 216.624 104.857 216.078C104.857 215.784 105.151 215.63 106.103 215.294C106.929 215 107.111 214.972 107.237 214.972C107.573 214.972 107.615 215.28 107.615 215.56V219.102C107.615 220.222 107.965 220.894 108.987 220.894C109.841 220.894 110.709 220.278 110.709 218.878V217.184C110.709 216.316 109.505 216.652 109.505 216.078C109.505 215.798 109.813 215.644 110.877 215.28C111.661 215.014 111.913 214.972 112.025 214.972C112.347 214.972 112.389 215.28 112.389 215.56V220.026C112.389 220.894 113.509 220.726 113.509 221.216C113.509 221.552 113.215 221.678 112.179 221.916C111.479 222.084 111.227 222.126 111.073 222.126C110.793 222.126 110.709 221.86 110.709 221.594V220.838C110.261 221.566 109.491 222.196 108.315 222.196ZM119.579 222.028C119.271 222.028 119.117 221.874 119.117 221.678C119.117 221.174 119.999 221.44 119.999 220.628C119.999 220.502 119.971 220.306 119.943 220.096L119.649 218.024C119.523 217.184 119.229 216.232 118.291 216.232C117.563 216.232 116.765 216.806 116.765 218.22V220.418C116.765 221.496 117.633 221.146 117.633 221.692C117.633 221.846 117.507 222.028 117.241 222.028C116.919 222.028 116.527 221.986 115.925 221.986C115.323 221.986 114.945 222.028 114.623 222.028C114.343 222.028 114.231 221.86 114.231 221.692C114.231 221.146 115.085 221.496 115.085 220.418V217.24C115.085 216.372 114.119 216.806 114.119 216.218C114.119 215.952 114.413 215.77 115.281 215.378C116.093 215 116.261 214.958 116.387 214.958C116.667 214.958 116.765 215.182 116.765 215.546V216.274C117.213 215.546 117.969 214.902 119.047 214.902C120.601 214.902 121.133 216.33 121.301 217.66L121.665 220.264C121.833 221.552 122.631 221.132 122.631 221.706C122.631 221.916 122.449 222.028 122.197 222.028C121.833 222.028 121.539 221.986 120.895 221.986C120.223 221.986 119.957 222.028 119.579 222.028Z" fill="white"/>
<path d="M367.172 221.5V213.4H365.492V212.56H368.132V221.5H367.172ZM371.625 221.5V213.4H369.945V212.56H372.585V221.5H371.625ZM376.69 221.644C376.282 221.644 375.918 221.568 375.598 221.416C375.278 221.256 375.026 221.04 374.842 220.768C374.658 220.496 374.566 220.184 374.566 219.832C374.566 219.496 374.638 219.192 374.782 218.92C374.926 218.64 375.15 218.404 375.454 218.212C375.758 218.02 376.146 217.884 376.618 217.804L379.138 217.384V218.2L376.834 218.584C376.37 218.664 376.034 218.812 375.826 219.028C375.626 219.244 375.526 219.5 375.526 219.796C375.526 220.084 375.638 220.328 375.862 220.528C376.094 220.728 376.39 220.828 376.75 220.828C377.19 220.828 377.574 220.736 377.902 220.552C378.23 220.36 378.486 220.104 378.67 219.784C378.854 219.464 378.946 219.108 378.946 218.716V217.084C378.946 216.7 378.806 216.388 378.526 216.148C378.246 215.908 377.882 215.788 377.434 215.788C377.042 215.788 376.698 215.888 376.402 216.088C376.106 216.28 375.886 216.532 375.742 216.844L374.926 216.4C375.046 216.128 375.234 215.88 375.49 215.656C375.754 215.432 376.054 215.256 376.39 215.128C376.726 214.992 377.074 214.924 377.434 214.924C377.906 214.924 378.322 215.016 378.682 215.2C379.05 215.384 379.334 215.64 379.534 215.968C379.742 216.288 379.846 216.66 379.846 217.084V221.5H378.946V220.216L379.078 220.348C378.966 220.588 378.79 220.808 378.55 221.008C378.318 221.2 378.042 221.356 377.722 221.476C377.41 221.588 377.066 221.644 376.69 221.644ZM381.697 221.5V215.068H382.597V216.292L382.453 216.112C382.629 215.736 382.889 215.444 383.233 215.236C383.585 215.028 383.969 214.924 384.385 214.924C384.881 214.924 385.329 215.064 385.729 215.344C386.129 215.624 386.413 215.988 386.581 216.436L386.329 216.448C386.489 215.952 386.765 215.576 387.157 215.32C387.557 215.056 387.997 214.924 388.477 214.924C388.909 214.924 389.305 215.028 389.665 215.236C390.033 215.444 390.325 215.732 390.541 216.1C390.765 216.46 390.877 216.868 390.877 217.324V221.5H389.977V217.672C389.977 217.28 389.905 216.948 389.761 216.676C389.625 216.404 389.437 216.196 389.197 216.052C388.957 215.9 388.681 215.824 388.369 215.824C388.065 215.824 387.789 215.9 387.541 216.052C387.293 216.196 387.097 216.408 386.953 216.688C386.809 216.96 386.737 217.288 386.737 217.672V221.5H385.837V217.672C385.837 217.28 385.765 216.948 385.621 216.676C385.485 216.404 385.297 216.196 385.057 216.052C384.817 215.9 384.541 215.824 384.229 215.824C383.917 215.824 383.637 215.9 383.389 216.052C383.149 216.196 382.957 216.408 382.813 216.688C382.669 216.96 382.597 217.288 382.597 217.672V221.5H381.697ZM394.599 218.704V217.864H398.799V218.704H394.599ZM403.899 221.5V213.4H402.219V212.56H404.859V221.5H403.899ZM406.876 221.5V220.9L409.372 218.152C409.86 217.616 410.256 217.172 410.56 216.82C410.872 216.468 411.104 216.148 411.256 215.86C411.408 215.572 411.484 215.26 411.484 214.924C411.484 214.388 411.328 213.976 411.016 213.688C410.704 213.4 410.288 213.256 409.768 213.256C409.232 213.256 408.78 213.408 408.412 213.712C408.052 214.016 407.808 214.44 407.68 214.984L406.804 214.792C406.908 214.304 407.096 213.884 407.368 213.532C407.64 213.18 407.98 212.908 408.388 212.716C408.796 212.516 409.252 212.416 409.756 212.416C410.292 212.416 410.76 212.524 411.16 212.74C411.56 212.956 411.872 213.252 412.096 213.628C412.328 214.004 412.444 214.436 412.444 214.924C412.444 215.26 412.372 215.584 412.228 215.896C412.092 216.208 411.884 216.544 411.604 216.904C411.324 217.264 410.964 217.684 410.524 218.164L408.256 220.66H412.684V221.5H406.876ZM414.299 223.9V215.068H415.199V216.508L415.055 216.256C415.311 215.848 415.651 215.524 416.075 215.284C416.507 215.044 416.999 214.924 417.551 214.924C418.159 214.924 418.699 215.072 419.171 215.368C419.651 215.656 420.027 216.052 420.299 216.556C420.579 217.06 420.719 217.636 420.719 218.284C420.719 218.924 420.579 219.5 420.299 220.012C420.027 220.516 419.651 220.916 419.171 221.212C418.699 221.5 418.159 221.644 417.551 221.644C416.999 221.644 416.499 221.52 416.051 221.272C415.611 221.016 415.279 220.656 415.055 220.192L415.199 220.06V223.9H414.299ZM417.503 220.744C417.935 220.744 418.319 220.636 418.655 220.42C418.999 220.204 419.267 219.912 419.459 219.544C419.659 219.168 419.759 218.748 419.759 218.284C419.759 217.812 419.659 217.392 419.459 217.024C419.267 216.656 418.999 216.364 418.655 216.148C418.319 215.932 417.935 215.824 417.503 215.824C417.071 215.824 416.679 215.932 416.327 216.148C415.983 216.364 415.707 216.66 415.499 217.036C415.299 217.404 415.199 217.82 415.199 218.284C415.199 218.748 415.299 219.168 415.499 219.544C415.707 219.912 415.983 220.204 416.327 220.42C416.679 220.636 417.071 220.744 417.503 220.744ZM422.303 221.5V215.068H423.203V216.292L423.059 216.112C423.235 215.736 423.495 215.444 423.839 215.236C424.191 215.028 424.575 214.924 424.991 214.924C425.487 214.924 425.935 215.064 426.335 215.344C426.735 215.624 427.019 215.988 427.187 216.436L426.935 216.448C427.095 215.952 427.371 215.576 427.763 215.32C428.163 215.056 428.603 214.924 429.083 214.924C429.515 214.924 429.911 215.028 430.271 215.236C430.639 215.444 430.931 215.732 431.147 216.1C431.371 216.46 431.483 216.868 431.483 217.324V221.5H430.583V217.672C430.583 217.28 430.511 216.948 430.367 216.676C430.231 216.404 430.043 216.196 429.803 216.052C429.563 215.9 429.287 215.824 428.975 215.824C428.671 215.824 428.395 215.9 428.147 216.052C427.899 216.196 427.703 216.408 427.559 216.688C427.415 216.96 427.343 217.288 427.343 217.672V221.5H426.443V217.672C426.443 217.28 426.371 216.948 426.227 216.676C426.091 216.404 425.903 216.196 425.663 216.052C425.423 215.9 425.147 215.824 424.835 215.824C424.523 215.824 424.243 215.9 423.995 216.052C423.755 216.196 423.563 216.408 423.419 216.688C423.275 216.96 423.203 217.288 423.203 217.672V221.5H422.303Z" fill="#ECECEC"/>
</g>
<defs>
<filter id="filter0_b_10581_1331" x="-12" y="-12" width="473" height="58" filterUnits="userSpaceOnUse" color-interpolation-filters="sRGB">
<feFlood flood-opacity="0" result="BackgroundImageFix"/>
<feGaussianBlur in="BackgroundImageFix" stdDeviation="6"/>
<feComposite in2="SourceAlpha" operator="in" result="effect1_backgroundBlur_10581_1331"/>
<feBlend mode="normal" in="SourceGraphic" in2="effect1_backgroundBlur_10581_1331" result="shape"/>
</filter>
<filter id="filter1_b_10581_1331" x="-12" y="38" width="473" height="58" filterUnits="userSpaceOnUse" color-interpolation-filters="sRGB">
<feFlood flood-opacity="0" result="BackgroundImageFix"/>
<feGaussianBlur in="BackgroundImageFix" stdDeviation="6"/>
<feComposite in2="SourceAlpha" operator="in" result="effect1_backgroundBlur_10581_1331"/>
<feBlend mode="normal" in="SourceGraphic" in2="effect1_backgroundBlur_10581_1331" result="shape"/>
</filter>
<filter id="filter2_b_10581_1331" x="-12" y="88" width="473" height="58" filterUnits="userSpaceOnUse" color-interpolation-filters="sRGB">
<feFlood flood-opacity="0" result="BackgroundImageFix"/>
<feGaussianBlur in="BackgroundImageFix" stdDeviation="6"/>
<feComposite in2="SourceAlpha" operator="in" result="effect1_backgroundBlur_10581_1331"/>
<feBlend mode="normal" in="SourceGraphic" in2="effect1_backgroundBlur_10581_1331" result="shape"/>
</filter>
<filter id="filter3_b_10581_1331" x="-12" y="138" width="473" height="58" filterUnits="userSpaceOnUse" color-interpolation-filters="sRGB">
<feFlood flood-opacity="0" result="BackgroundImageFix"/>
<feGaussianBlur in="BackgroundImageFix" stdDeviation="6"/>
<feComposite in2="SourceAlpha" operator="in" result="effect1_backgroundBlur_10581_1331"/>
<feBlend mode="normal" in="SourceGraphic" in2="effect1_backgroundBlur_10581_1331" result="shape"/>
</filter>
<filter id="filter4_b_10581_1331" x="-12" y="188" width="473" height="58" filterUnits="userSpaceOnUse" color-interpolation-filters="sRGB">
<feFlood flood-opacity="0" result="BackgroundImageFix"/>
<feGaussianBlur in="BackgroundImageFix" stdDeviation="6"/>
<feComposite in2="SourceAlpha" operator="in" result="effect1_backgroundBlur_10581_1331"/>
<feBlend mode="normal" in="SourceGraphic" in2="effect1_backgroundBlur_10581_1331" result="shape"/>
</filter>
</defs>
</svg>
