<svg width="66" height="66" viewBox="0 0 66 66" fill="none" xmlns="http://www.w3.org/2000/svg">
<g opacity="0.9">
<g clip-path="url(#clip0_579_5312)">
<path d="M6.875 4.125H4.125V6.875H6.875V4.125Z" fill="#0F0F0F"/>
<path d="M9.625 4.125H6.875V6.875H9.625V4.125Z" fill="#0F0F0F"/>
<path d="M12.375 4.125H9.625V6.875H12.375V4.125Z" fill="#0F0F0F"/>
<path d="M15.125 4.125H12.375V6.875H15.125V4.125Z" fill="#0F0F0F"/>
<path d="M17.875 4.125H15.125V6.875H17.875V4.125Z" fill="#0F0F0F"/>
<path d="M20.625 4.125H17.875V6.875H20.625V4.125Z" fill="#0F0F0F"/>
<path d="M23.375 4.125H20.625V6.875H23.375V4.125Z" fill="#0F0F0F"/>
<path d="M28.875 4.125H26.125V6.875H28.875V4.125Z" fill="#0F0F0F"/>
<path d="M37.125 4.125H34.375V6.875H37.125V4.125Z" fill="#0F0F0F"/>
<path d="M39.875 4.125H37.125V6.875H39.875V4.125Z" fill="#0F0F0F"/>
<path d="M45.375 4.125H42.625V6.875H45.375V4.125Z" fill="#0F0F0F"/>
<path d="M48.125 4.125H45.375V6.875H48.125V4.125Z" fill="#0F0F0F"/>
<path d="M50.875 4.125H48.125V6.875H50.875V4.125Z" fill="#0F0F0F"/>
<path d="M53.625 4.125H50.875V6.875H53.625V4.125Z" fill="#0F0F0F"/>
<path d="M56.375 4.125H53.625V6.875H56.375V4.125Z" fill="#0F0F0F"/>
<path d="M59.125 4.125H56.375V6.875H59.125V4.125Z" fill="#0F0F0F"/>
<path d="M61.875 4.125H59.125V6.875H61.875V4.125Z" fill="#0F0F0F"/>
<path d="M6.875 6.875H4.125V9.625H6.875V6.875Z" fill="#0F0F0F"/>
<path d="M23.375 6.875H20.625V9.625H23.375V6.875Z" fill="#0F0F0F"/>
<path d="M37.125 6.875H34.375V9.625H37.125V6.875Z" fill="#0F0F0F"/>
<path d="M39.875 6.875H37.125V9.625H39.875V6.875Z" fill="#0F0F0F"/>
<path d="M45.375 6.875H42.625V9.625H45.375V6.875Z" fill="#0F0F0F"/>
<path d="M61.875 6.875H59.125V9.625H61.875V6.875Z" fill="#0F0F0F"/>
<path d="M6.875 9.625H4.125V12.375H6.875V9.625Z" fill="#0F0F0F"/>
<path d="M12.375 9.625H9.625V12.375H12.375V9.625Z" fill="#0F0F0F"/>
<path d="M15.125 9.625H12.375V12.375H15.125V9.625Z" fill="#0F0F0F"/>
<path d="M17.875 9.625H15.125V12.375H17.875V9.625Z" fill="#0F0F0F"/>
<path d="M23.375 9.625H20.625V12.375H23.375V9.625Z" fill="#0F0F0F"/>
<path d="M45.375 9.625H42.625V12.375H45.375V9.625Z" fill="#0F0F0F"/>
<path d="M50.875 9.625H48.125V12.375H50.875V9.625Z" fill="#0F0F0F"/>
<path d="M53.625 9.625H50.875V12.375H53.625V9.625Z" fill="#0F0F0F"/>
<path d="M56.375 9.625H53.625V12.375H56.375V9.625Z" fill="#0F0F0F"/>
<path d="M61.875 9.625H59.125V12.375H61.875V9.625Z" fill="#0F0F0F"/>
<path d="M6.875 12.375H4.125V15.125H6.875V12.375Z" fill="#0F0F0F"/>
<path d="M12.375 12.375H9.625V15.125H12.375V12.375Z" fill="#0F0F0F"/>
<path d="M15.125 12.375H12.375V15.125H15.125V12.375Z" fill="#0F0F0F"/>
<path d="M17.875 12.375H15.125V15.125H17.875V12.375Z" fill="#0F0F0F"/>
<path d="M23.375 12.375H20.625V15.125H23.375V12.375Z" fill="#0F0F0F"/>
<path d="M28.875 12.375H26.125V15.125H28.875V12.375Z" fill="#0F0F0F"/>
<path d="M31.625 12.375H28.875V15.125H31.625V12.375Z" fill="#0F0F0F"/>
<path d="M34.375 12.375H31.625V15.125H34.375V12.375Z" fill="#0F0F0F"/>
<path d="M37.125 12.375H34.375V15.125H37.125V12.375Z" fill="#0F0F0F"/>
<path d="M39.875 12.375H37.125V15.125H39.875V12.375Z" fill="#0F0F0F"/>
<path d="M45.375 12.375H42.625V15.125H45.375V12.375Z" fill="#0F0F0F"/>
<path d="M50.875 12.375H48.125V15.125H50.875V12.375Z" fill="#0F0F0F"/>
<path d="M53.625 12.375H50.875V15.125H53.625V12.375Z" fill="#0F0F0F"/>
<path d="M56.375 12.375H53.625V15.125H56.375V12.375Z" fill="#0F0F0F"/>
<path d="M61.875 12.375H59.125V15.125H61.875V12.375Z" fill="#0F0F0F"/>
<path d="M6.875 15.125H4.125V17.875H6.875V15.125Z" fill="#0F0F0F"/>
<path d="M12.375 15.125H9.625V17.875H12.375V15.125Z" fill="#0F0F0F"/>
<path d="M15.125 15.125H12.375V17.875H15.125V15.125Z" fill="#0F0F0F"/>
<path d="M17.875 15.125H15.125V17.875H17.875V15.125Z" fill="#0F0F0F"/>
<path d="M23.375 15.125H20.625V17.875H23.375V15.125Z" fill="#0F0F0F"/>
<path d="M31.625 15.125H28.875L28.875 17.875H31.625V15.125Z" fill="#0F0F0F"/>
<path d="M34.375 15.125H31.625V17.875H34.375V15.125Z" fill="#0F0F0F"/>
<path d="M39.875 15.125H37.125V17.875H39.875V15.125Z" fill="#0F0F0F"/>
<path d="M45.375 15.125H42.625V17.875H45.375V15.125Z" fill="#0F0F0F"/>
<path d="M50.875 15.125H48.125V17.875H50.875V15.125Z" fill="#0F0F0F"/>
<path d="M53.625 15.125H50.875V17.875H53.625V15.125Z" fill="#0F0F0F"/>
<path d="M56.375 15.125H53.625V17.875H56.375V15.125Z" fill="#0F0F0F"/>
<path d="M61.875 15.125H59.125V17.875H61.875V15.125Z" fill="#0F0F0F"/>
<path d="M6.875 17.875H4.125V20.625H6.875V17.875Z" fill="#0F0F0F"/>
<path d="M23.375 17.875H20.625V20.625H23.375V17.875Z" fill="#0F0F0F"/>
<path d="M28.875 17.875H26.125V20.625H28.875L28.875 17.875Z" fill="#0F0F0F"/>
<path d="M31.625 17.875H28.875L28.875 20.625H31.625V17.875Z" fill="#0F0F0F"/>
<path d="M39.875 17.875H37.125V20.625H39.875V17.875Z" fill="#0F0F0F"/>
<path d="M45.375 17.875H42.625V20.625H45.375V17.875Z" fill="#0F0F0F"/>
<path d="M61.875 17.875H59.125V20.625H61.875V17.875Z" fill="#0F0F0F"/>
<path d="M6.875 20.625H4.125V23.375H6.875V20.625Z" fill="#0F0F0F"/>
<path d="M9.625 20.625H6.875V23.375H9.625V20.625Z" fill="#0F0F0F"/>
<path d="M12.375 20.625H9.625V23.375H12.375V20.625Z" fill="#0F0F0F"/>
<path d="M15.125 20.625H12.375V23.375H15.125V20.625Z" fill="#0F0F0F"/>
<path d="M17.875 20.625H15.125V23.375H17.875V20.625Z" fill="#0F0F0F"/>
<path d="M20.625 20.625H17.875V23.375H20.625V20.625Z" fill="#0F0F0F"/>
<path d="M23.375 20.625H20.625V23.375H23.375V20.625Z" fill="#0F0F0F"/>
<path d="M28.875 20.625H26.125V23.375H28.875V20.625Z" fill="#0F0F0F"/>
<path d="M34.375 20.625H31.625L31.625 23.375H34.375V20.625Z" fill="#0F0F0F"/>
<path d="M39.875 20.625H37.125V23.375H39.875V20.625Z" fill="#0F0F0F"/>
<path d="M45.375 20.625H42.625V23.375H45.375V20.625Z" fill="#0F0F0F"/>
<path d="M48.125 20.625H45.375V23.375H48.125V20.625Z" fill="#0F0F0F"/>
<path d="M50.875 20.625H48.125V23.375H50.875V20.625Z" fill="#0F0F0F"/>
<path d="M53.625 20.625H50.875V23.375H53.625V20.625Z" fill="#0F0F0F"/>
<path d="M56.375 20.625H53.625V23.375H56.375V20.625Z" fill="#0F0F0F"/>
<path d="M59.125 20.625H56.375V23.375H59.125V20.625Z" fill="#0F0F0F"/>
<path d="M61.875 20.625H59.125V23.375H61.875V20.625Z" fill="#0F0F0F"/>
<path d="M31.625 23.375H28.875L28.875 26.125H31.625L31.625 23.375Z" fill="#0F0F0F"/>
<path d="M34.375 23.375H31.625L31.625 26.125H34.375V23.375Z" fill="#0F0F0F"/>
<path d="M39.875 23.375H37.125V26.125H39.875V23.375Z" fill="#0F0F0F"/>
<path d="M20.625 26.125H17.875V28.875H20.625V26.125Z" fill="#0F0F0F"/>
<path d="M23.375 26.125H20.625V28.875H23.375V26.125Z" fill="#0F0F0F"/>
<path d="M28.875 26.125L26.125 26.125V28.875H28.875L28.875 26.125Z" fill="#0F0F0F"/>
<path d="M37.125 26.125H34.375L34.375 28.875H37.125V26.125Z" fill="#0F0F0F"/>
<path d="M42.625 26.125L39.875 26.125V28.875H42.625V26.125Z" fill="#0F0F0F"/>
<path d="M48.125 26.125H45.375V28.875H48.125V26.125Z" fill="#0F0F0F"/>
<path d="M53.625 26.125H50.875V28.875H53.625V26.125Z" fill="#0F0F0F"/>
<path d="M61.875 26.125H59.125V28.875H61.875V26.125Z" fill="#0F0F0F"/>
<path d="M6.875 28.875H4.125V31.625H6.875V28.875Z" fill="#0F0F0F"/>
<path d="M9.625 28.875H6.875V31.625H9.625V28.875Z" fill="#0F0F0F"/>
<path d="M28.875 28.875H26.125V31.625H28.875V28.875Z" fill="#0F0F0F"/>
<path d="M34.375 28.875L31.625 28.875V31.625H34.375L34.375 28.875Z" fill="#0F0F0F"/>
<path d="M53.625 28.875H50.875V31.625H53.625V28.875Z" fill="#0F0F0F"/>
<path d="M59.125 28.875L56.375 28.875V31.625H59.125V28.875Z" fill="#0F0F0F"/>
<path d="M61.875 28.875H59.125V31.625H61.875V28.875Z" fill="#0F0F0F"/>
<path d="M9.625 31.625H6.875V34.375H9.625V31.625Z" fill="#0F0F0F"/>
<path d="M12.375 31.625L9.625 31.625V34.375H12.375V31.625Z" fill="#0F0F0F"/>
<path d="M15.125 31.625H12.375V34.375H15.125V31.625Z" fill="#0F0F0F"/>
<path d="M17.875 31.625H15.125V34.375H17.875V31.625Z" fill="#0F0F0F"/>
<path d="M23.375 31.625H20.625V34.375H23.375V31.625Z" fill="#0F0F0F"/>
<path d="M26.125 31.625L23.375 31.625V34.375H26.125L26.125 31.625Z" fill="#0F0F0F"/>
<path d="M28.875 31.625H26.125L26.125 34.375H28.875V31.625Z" fill="#0F0F0F"/>
<path d="M31.625 31.625H28.875V34.375H31.625L31.625 31.625Z" fill="#0F0F0F"/>
<path d="M34.375 31.625H31.625L31.625 34.375H34.375V31.625Z" fill="#0F0F0F"/>
<path d="M37.125 31.625L34.375 31.625V34.375H37.125V31.625Z" fill="#0F0F0F"/>
<path d="M45.375 31.625H42.625V34.375H45.375V31.625Z" fill="#0F0F0F"/>
<path d="M48.125 31.625H45.375V34.375H48.125V31.625Z" fill="#0F0F0F"/>
<path d="M50.875 31.625L48.125 31.625V34.375H50.875V31.625Z" fill="#0F0F0F"/>
<path d="M56.375 31.625H53.625V34.375H56.375V31.625Z" fill="#0F0F0F"/>
<path d="M59.125 31.625H56.375V34.375H59.125V31.625Z" fill="#0F0F0F"/>
<path d="M6.875 34.375L4.125 34.375V37.125H6.875V34.375Z" fill="#0F0F0F"/>
<path d="M20.625 34.375H17.875V37.125H20.625V34.375Z" fill="#0F0F0F"/>
<path d="M26.125 34.375H23.375V37.125H26.125V34.375Z" fill="#0F0F0F"/>
<path d="M37.125 34.375H34.375L34.375 37.125H37.125V34.375Z" fill="#0F0F0F"/>
<path d="M42.625 34.375L39.875 34.375V37.125H42.625V34.375Z" fill="#0F0F0F"/>
<path d="M48.125 34.375H45.375V37.125H48.125V34.375Z" fill="#0F0F0F"/>
<path d="M50.875 34.375H48.125V37.125H50.875V34.375Z" fill="#0F0F0F"/>
<path d="M53.625 34.375H50.875V37.125H53.625V34.375Z" fill="#0F0F0F"/>
<path d="M61.875 34.375L59.125 34.375V37.125H61.875V34.375Z" fill="#0F0F0F"/>
<path d="M12.375 37.125H9.625V39.875H12.375V37.125Z" fill="#0F0F0F"/>
<path d="M15.125 37.125H12.375V39.875H15.125V37.125Z" fill="#0F0F0F"/>
<path d="M17.875 37.125H15.125V39.875H17.875V37.125Z" fill="#0F0F0F"/>
<path d="M20.625 37.125H17.875V39.875H20.625V37.125Z" fill="#0F0F0F"/>
<path d="M23.375 37.125H20.625V39.875H23.375V37.125Z" fill="#0F0F0F"/>
<path d="M26.125 37.125H23.375V39.875H26.125V37.125Z" fill="#0F0F0F"/>
<path d="M34.375 37.125H31.625V39.875H34.375L34.375 37.125Z" fill="#0F0F0F"/>
<path d="M39.875 37.125H37.125V39.875H39.875V37.125Z" fill="#0F0F0F"/>
<path d="M48.125 37.125H45.375V39.875H48.125V37.125Z" fill="#0F0F0F"/>
<path d="M56.375 37.125H53.625V39.875H56.375V37.125Z" fill="#0F0F0F"/>
<path d="M61.875 37.125H59.125V39.875H61.875V37.125Z" fill="#0F0F0F"/>
<path d="M28.875 39.875H26.125L26.125 42.625H28.875V39.875Z" fill="#0F0F0F"/>
<path d="M34.375 39.875H31.625V42.625H34.375V39.875Z" fill="#0F0F0F"/>
<path d="M45.375 39.875H42.625V42.625H45.375V39.875Z" fill="#0F0F0F"/>
<path d="M48.125 39.875H45.375V42.625H48.125V39.875Z" fill="#0F0F0F"/>
<path d="M59.125 39.875H56.375V42.625H59.125V39.875Z" fill="#0F0F0F"/>
<path d="M6.875 42.625H4.125V45.375H6.875V42.625Z" fill="#0F0F0F"/>
<path d="M9.625 42.625H6.875V45.375H9.625V42.625Z" fill="#0F0F0F"/>
<path d="M12.375 42.625H9.625V45.375H12.375V42.625Z" fill="#0F0F0F"/>
<path d="M15.125 42.625H12.375V45.375H15.125V42.625Z" fill="#0F0F0F"/>
<path d="M17.875 42.625H15.125V45.375H17.875V42.625Z" fill="#0F0F0F"/>
<path d="M20.625 42.625H17.875V45.375H20.625V42.625Z" fill="#0F0F0F"/>
<path d="M23.375 42.625H20.625V45.375H23.375V42.625Z" fill="#0F0F0F"/>
<path d="M31.625 42.625H28.875L28.875 45.375H31.625L31.625 42.625Z" fill="#0F0F0F"/>
<path d="M39.875 42.625H37.125V45.375H39.875V42.625Z" fill="#0F0F0F"/>
<path d="M50.875 42.625H48.125V45.375H50.875V42.625Z" fill="#0F0F0F"/>
<path d="M59.125 42.625H56.375V45.375H59.125V42.625Z" fill="#0F0F0F"/>
<path d="M6.875 45.375H4.125V48.125H6.875V45.375Z" fill="#0F0F0F"/>
<path d="M23.375 45.375H20.625V48.125H23.375V45.375Z" fill="#0F0F0F"/>
<path d="M28.875 45.375H26.125V48.125H28.875L28.875 45.375Z" fill="#0F0F0F"/>
<path d="M31.625 45.375H28.875L28.875 48.125H31.625V45.375Z" fill="#0F0F0F"/>
<path d="M39.875 45.375H37.125V48.125H39.875V45.375Z" fill="#0F0F0F"/>
<path d="M42.625 45.375H39.875V48.125H42.625V45.375Z" fill="#0F0F0F"/>
<path d="M45.375 45.375H42.625V48.125H45.375V45.375Z" fill="#0F0F0F"/>
<path d="M50.875 45.375H48.125V48.125H50.875V45.375Z" fill="#0F0F0F"/>
<path d="M53.625 45.375H50.875V48.125H53.625V45.375Z" fill="#0F0F0F"/>
<path d="M56.375 45.375H53.625V48.125H56.375V45.375Z" fill="#0F0F0F"/>
<path d="M59.125 45.375H56.375V48.125H59.125V45.375Z" fill="#0F0F0F"/>
<path d="M6.875 48.125H4.125V50.875H6.875V48.125Z" fill="#0F0F0F"/>
<path d="M12.375 48.125H9.625V50.875H12.375V48.125Z" fill="#0F0F0F"/>
<path d="M15.125 48.125H12.375V50.875H15.125V48.125Z" fill="#0F0F0F"/>
<path d="M17.875 48.125H15.125V50.875H17.875V48.125Z" fill="#0F0F0F"/>
<path d="M23.375 48.125H20.625V50.875H23.375V48.125Z" fill="#0F0F0F"/>
<path d="M39.875 48.125H37.125V50.875H39.875V48.125Z" fill="#0F0F0F"/>
<path d="M45.375 48.125H42.625V50.875H45.375V48.125Z" fill="#0F0F0F"/>
<path d="M50.875 48.125H48.125V50.875H50.875V48.125Z" fill="#0F0F0F"/>
<path d="M56.375 48.125H53.625V50.875H56.375V48.125Z" fill="#0F0F0F"/>
<path d="M59.125 48.125H56.375V50.875H59.125V48.125Z" fill="#0F0F0F"/>
<path d="M61.875 48.125H59.125V50.875H61.875V48.125Z" fill="#0F0F0F"/>
<path d="M6.875 50.875H4.125V53.625H6.875V50.875Z" fill="#0F0F0F"/>
<path d="M12.375 50.875H9.625V53.625H12.375V50.875Z" fill="#0F0F0F"/>
<path d="M15.125 50.875H12.375V53.625H15.125V50.875Z" fill="#0F0F0F"/>
<path d="M17.875 50.875H15.125V53.625H17.875V50.875Z" fill="#0F0F0F"/>
<path d="M23.375 50.875H20.625V53.625H23.375V50.875Z" fill="#0F0F0F"/>
<path d="M31.625 50.875H28.875V53.625H31.625V50.875Z" fill="#0F0F0F"/>
<path d="M34.375 50.875H31.625V53.625H34.375V50.875Z" fill="#0F0F0F"/>
<path d="M37.125 50.875H34.375V53.625H37.125V50.875Z" fill="#0F0F0F"/>
<path d="M42.625 50.875H39.875V53.625H42.625V50.875Z" fill="#0F0F0F"/>
<path d="M53.625 50.875H50.875V53.625H53.625V50.875Z" fill="#0F0F0F"/>
<path d="M59.125 50.875H56.375V53.625H59.125V50.875Z" fill="#0F0F0F"/>
<path d="M61.875 50.875H59.125V53.625H61.875V50.875Z" fill="#0F0F0F"/>
<path d="M6.875 53.625H4.125V56.375H6.875V53.625Z" fill="#0F0F0F"/>
<path d="M12.375 53.625H9.625V56.375H12.375V53.625Z" fill="#0F0F0F"/>
<path d="M15.125 53.625H12.375V56.375H15.125V53.625Z" fill="#0F0F0F"/>
<path d="M17.875 53.625H15.125V56.375H17.875V53.625Z" fill="#0F0F0F"/>
<path d="M23.375 53.625H20.625V56.375H23.375V53.625Z" fill="#0F0F0F"/>
<path d="M45.375 53.625H42.625V56.375H45.375V53.625Z" fill="#0F0F0F"/>
<path d="M53.625 53.625H50.875V56.375H53.625V53.625Z" fill="#0F0F0F"/>
<path d="M6.875 56.375H4.125V59.125H6.875V56.375Z" fill="#0F0F0F"/>
<path d="M23.375 56.375H20.625V59.125H23.375V56.375Z" fill="#0F0F0F"/>
<path d="M31.625 56.375H28.875V59.125H31.625V56.375Z" fill="#0F0F0F"/>
<path d="M42.625 56.375H39.875V59.125H42.625V56.375Z" fill="#0F0F0F"/>
<path d="M45.375 56.375H42.625V59.125H45.375V56.375Z" fill="#0F0F0F"/>
<path d="M53.625 56.375H50.875V59.125H53.625V56.375Z" fill="#0F0F0F"/>
<path d="M61.875 56.375H59.125V59.125H61.875V56.375Z" fill="#0F0F0F"/>
<path d="M6.875 59.125H4.125V61.875H6.875V59.125Z" fill="#0F0F0F"/>
<path d="M9.625 59.125H6.875V61.875H9.625V59.125Z" fill="#0F0F0F"/>
<path d="M12.375 59.125H9.625V61.875H12.375V59.125Z" fill="#0F0F0F"/>
<path d="M15.125 59.125H12.375V61.875H15.125V59.125Z" fill="#0F0F0F"/>
<path d="M17.875 59.125H15.125V61.875H17.875V59.125Z" fill="#0F0F0F"/>
<path d="M20.625 59.125H17.875V61.875H20.625V59.125Z" fill="#0F0F0F"/>
<path d="M23.375 59.125H20.625V61.875H23.375V59.125Z" fill="#0F0F0F"/>
<path d="M31.625 59.125H28.875V61.875H31.625V59.125Z" fill="#0F0F0F"/>
<path d="M34.375 59.125H31.625V61.875H34.375V59.125Z" fill="#0F0F0F"/>
<path d="M39.875 59.125H37.125V61.875H39.875V59.125Z" fill="#0F0F0F"/>
<path d="M48.125 59.125H45.375V61.875H48.125V59.125Z" fill="#0F0F0F"/>
<path d="M50.875 59.125H48.125V61.875H50.875V59.125Z" fill="#0F0F0F"/>
<path d="M53.625 59.125H50.875V61.875H53.625V59.125Z" fill="#0F0F0F"/>
<path d="M56.375 59.125H53.625V61.875H56.375V59.125Z" fill="#0F0F0F"/>
</g>
<rect x="0.5" y="0.5" width="65" height="65" rx="3.5" stroke="#0F0F0F"/>
</g>
<defs>
<clipPath id="clip0_579_5312">
<rect width="66" height="66" rx="4" fill="white"/>
</clipPath>
</defs>
</svg>
